<?xml version="1.0" encoding="us-ascii" standalone="no"?><svg xmlns="http://www.w3.org/2000/svg" xmlns:xlink="http://www.w3.org/1999/xlink" contentStyleType="text/css" height="735px" preserveAspectRatio="none" style="width:1014px;height:735px;background:#FFFFFF;" version="1.1" viewBox="0 0 1014 735" width="1014px" zoomAndPan="magnify"><defs/><g><!--class AbstractFlyingObject--><g id="elem_AbstractFlyingObject"><rect codeLine="1" fill="#F1F1F1" height="400.1875" id="AbstractFlyingObject" rx="2.5" ry="2.5" style="stroke:#181818;stroke-width:0.5;" width="477" x="101.5" y="328"/><ellipse cx="270.25" cy="344" fill="#A9DCDF" rx="11" ry="11" style="stroke:#181818;stroke-width:1.0;"/><path d="M272.4375,345.7656 L268.2969,345.7656 L267.875,346.7969 L268.2969,346.7969 Q268.9063,346.7969 269.1719,347.0313 Q269.4375,347.2656 269.4375,347.6563 Q269.4375,348.0313 269.1719,348.2656 Q268.9063,348.5 268.2969,348.5 L266,348.5 Q265.3906,348.5 265.1406,348.2656 Q264.875,348.0313 264.875,347.6406 Q264.875,347.2656 265.1563,347.0313 Q265.4219,346.7813 266.0469,346.7969 L268.7188,340.1406 L267.6094,340.1406 Q267,340.1406 266.7344,339.9063 Q266.4688,339.6719 266.4688,339.2813 Q266.4688,338.9063 266.7344,338.6719 Q267,338.4375 267.6094,338.4375 L271.2813,338.4375 L274.6719,346.7969 Q275.2656,346.7969 275.4531,346.9375 Q275.8438,347.2031 275.8438,347.6563 Q275.8438,348.0313 275.5781,348.2656 Q275.3281,348.5 274.7188,348.5 L272.4219,348.5 Q271.8125,348.5 271.5469,348.2656 Q271.2813,348.0313 271.2813,347.6406 Q271.2813,347.2656 271.5469,347.0313 Q271.8125,346.7969 272.4219,346.7969 L272.8438,346.7969 L272.4375,345.7656 Z M271.7188,344.0625 L270.3594,340.6875 L268.9844,344.0625 L271.7188,344.0625 Z " fill="#000000"/><text fill="#000000" font-family="sans-serif" font-size="14" font-style="italic" lengthAdjust="spacing" textLength="131" x="290.75" y="349.7285">AbstractFlyingObject</text><line style="stroke:#181818;stroke-width:0.5;" x1="102.5" x2="577.5" y1="360" y2="360"/><polygon fill="none" points="112.5,369.3047,116.5,373.3047,112.5,377.3047,108.5,373.3047" style="stroke:#B38D22;stroke-width:1.0;"/><text fill="#000000" font-family="sans-serif" font-size="14" lengthAdjust="spacing" textLength="76" x="121.5" y="378.5332">locationX:int</text><polygon fill="none" points="112.5,386.9141,116.5,390.9141,112.5,394.9141,108.5,390.9141" style="stroke:#B38D22;stroke-width:1.0;"/><text fill="#000000" font-family="sans-serif" font-size="14" lengthAdjust="spacing" textLength="77" x="121.5" y="396.1426">locationY:int</text><polygon fill="none" points="112.5,404.5234,116.5,408.5234,112.5,412.5234,108.5,408.5234" style="stroke:#B38D22;stroke-width:1.0;"/><text fill="#000000" font-family="sans-serif" font-size="14" lengthAdjust="spacing" textLength="66" x="121.5" y="413.752">speedX:int</text><polygon fill="none" points="112.5,422.1328,116.5,426.1328,112.5,430.1328,108.5,426.1328" style="stroke:#B38D22;stroke-width:1.0;"/><text fill="#000000" font-family="sans-serif" font-size="14" lengthAdjust="spacing" textLength="67" x="121.5" y="431.3613">speedY:int</text><polygon fill="none" points="112.5,439.7422,116.5,443.7422,112.5,447.7422,108.5,443.7422" style="stroke:#B38D22;stroke-width:1.0;"/><text fill="#000000" font-family="sans-serif" font-size="14" lengthAdjust="spacing" textLength="134" x="121.5" y="448.9707">image:BufferedImage</text><polygon fill="none" points="112.5,457.3516,116.5,461.3516,112.5,465.3516,108.5,461.3516" style="stroke:#B38D22;stroke-width:1.0;"/><text fill="#000000" font-family="sans-serif" font-size="14" lengthAdjust="spacing" textLength="51" x="121.5" y="466.5801">width:int</text><polygon fill="none" points="112.5,474.9609,116.5,478.9609,112.5,482.9609,108.5,478.9609" style="stroke:#B38D22;stroke-width:1.0;"/><text fill="#000000" font-family="sans-serif" font-size="14" lengthAdjust="spacing" textLength="58" x="121.5" y="484.1895">height:int</text><polygon fill="none" points="112.5,492.5703,116.5,496.5703,112.5,500.5703,108.5,496.5703" style="stroke:#B38D22;stroke-width:1.0;"/><text fill="#000000" font-family="sans-serif" font-size="14" lengthAdjust="spacing" textLength="96" x="121.5" y="501.7988">isValid:boolean</text><line style="stroke:#181818;stroke-width:0.5;" x1="102.5" x2="577.5" y1="508.875" y2="508.875"/><ellipse cx="112.5" cy="523.1797" fill="#84BE84" rx="3" ry="3" style="stroke:#038048;stroke-width:1.0;"/><text fill="#000000" font-family="sans-serif" font-size="14" lengthAdjust="spacing" textLength="451" x="121.5" y="527.4082">AbstractFlyingObject(int locationX, int locationY, int speedX, int speedY)</text><ellipse cx="112.5" cy="540.7891" fill="#84BE84" rx="3" ry="3" style="stroke:#038048;stroke-width:1.0;"/><text fill="#000000" font-family="sans-serif" font-size="14" lengthAdjust="spacing" textLength="87" x="121.5" y="545.0176">forward():void</text><ellipse cx="112.5" cy="558.3984" fill="#84BE84" rx="3" ry="3" style="stroke:#038048;stroke-width:1.0;"/><text fill="#000000" font-family="sans-serif" font-size="14" lengthAdjust="spacing" textLength="309" x="121.5" y="562.627">crash(AbstractFlyingObject flyingObject):boolean</text><ellipse cx="112.5" cy="576.0078" fill="#84BE84" rx="3" ry="3" style="stroke:#038048;stroke-width:1.0;"/><text fill="#000000" font-family="sans-serif" font-size="14" lengthAdjust="spacing" textLength="330" x="121.5" y="580.2363">setLocation(double locationX, double locationY):void</text><ellipse cx="112.5" cy="593.6172" fill="#84BE84" rx="3" ry="3" style="stroke:#038048;stroke-width:1.0;"/><text fill="#000000" font-family="sans-serif" font-size="14" lengthAdjust="spacing" textLength="111" x="121.5" y="597.8457">getLocationX():int</text><ellipse cx="112.5" cy="611.2266" fill="#84BE84" rx="3" ry="3" style="stroke:#038048;stroke-width:1.0;"/><text fill="#000000" font-family="sans-serif" font-size="14" lengthAdjust="spacing" textLength="112" x="121.5" y="615.4551">getLocationY():int</text><ellipse cx="112.5" cy="628.8359" fill="#84BE84" rx="3" ry="3" style="stroke:#038048;stroke-width:1.0;"/><text fill="#000000" font-family="sans-serif" font-size="14" lengthAdjust="spacing" textLength="99" x="121.5" y="633.0645">getSpeedY():int</text><ellipse cx="112.5" cy="646.4453" fill="#84BE84" rx="3" ry="3" style="stroke:#038048;stroke-width:1.0;"/><text fill="#000000" font-family="sans-serif" font-size="14" lengthAdjust="spacing" textLength="164" x="121.5" y="650.6738">getImage():BufferedImage</text><ellipse cx="112.5" cy="664.0547" fill="#84BE84" rx="3" ry="3" style="stroke:#038048;stroke-width:1.0;"/><text fill="#000000" font-family="sans-serif" font-size="14" lengthAdjust="spacing" textLength="85" x="121.5" y="668.2832">getWidth():int</text><ellipse cx="112.5" cy="681.6641" fill="#84BE84" rx="3" ry="3" style="stroke:#038048;stroke-width:1.0;"/><text fill="#000000" font-family="sans-serif" font-size="14" lengthAdjust="spacing" textLength="89" x="121.5" y="685.8926">getHeight():int</text><ellipse cx="112.5" cy="699.2734" fill="#84BE84" rx="3" ry="3" style="stroke:#038048;stroke-width:1.0;"/><text fill="#000000" font-family="sans-serif" font-size="14" lengthAdjust="spacing" textLength="116" x="121.5" y="703.502">notValid():boolean</text><ellipse cx="112.5" cy="716.8828" fill="#84BE84" rx="3" ry="3" style="stroke:#038048;stroke-width:1.0;"/><text fill="#000000" font-family="sans-serif" font-size="14" lengthAdjust="spacing" textLength="81" x="121.5" y="721.1113">vanish():void</text></g><!--class Observer--><g id="elem_Observer"><rect codeLine="26" fill="#F1F1F1" height="65.6094" id="Observer" rx="2.5" ry="2.5" style="stroke:#181818;stroke-width:0.5;" width="109" x="613.5" y="495"/><ellipse cx="637.05" cy="511" fill="#B4A7E5" rx="11" ry="11" style="stroke:#181818;stroke-width:1.0;"/><path d="M638.0031,507.6406 L638.0031,514.2969 L639.7219,514.2969 Q640.3313,514.2969 640.5969,514.5313 Q640.8625,514.7656 640.8625,515.1563 Q640.8625,515.5313 640.5969,515.7656 Q640.3313,516 639.7219,516 L634.5813,516 Q633.9719,516 633.7063,515.7656 Q633.4406,515.5313 633.4406,515.1406 Q633.4406,514.7656 633.7063,514.5313 Q633.9719,514.2969 634.5813,514.2969 L636.3,514.2969 L636.3,507.6406 L634.5813,507.6406 Q633.9719,507.6406 633.7063,507.4063 Q633.4406,507.1719 633.4406,506.7813 Q633.4406,506.4063 633.7063,506.1719 Q633.9719,505.9375 634.5813,505.9375 L639.7219,505.9375 Q640.3313,505.9375 640.5969,506.1719 Q640.8625,506.4063 640.8625,506.7813 Q640.8625,507.1719 640.5969,507.4063 Q640.3313,507.6406 639.7219,507.6406 L638.0031,507.6406 Z " fill="#000000"/><text fill="#000000" font-family="sans-serif" font-size="14" font-style="italic" lengthAdjust="spacing" textLength="58" x="652.95" y="516.7285">Observer</text><line style="stroke:#181818;stroke-width:0.5;" x1="614.5" x2="721.5" y1="527" y2="527"/><line style="stroke:#181818;stroke-width:0.5;" x1="614.5" x2="721.5" y1="535" y2="535"/><ellipse cx="624.5" cy="549.3047" fill="#84BE84" rx="3" ry="3" style="stroke:#038048;stroke-width:1.0;"/><text fill="#000000" font-family="sans-serif" font-size="14" font-style="italic" lengthAdjust="spacing" textLength="83" x="633.5" y="553.5332">update():void</text></g><!--class BaseBullet--><g id="elem_BaseBullet"><rect codeLine="29" fill="#F1F1F1" height="118.4375" id="BaseBullet" rx="2.5" ry="2.5" style="stroke:#181818;stroke-width:0.5;" width="478" x="265" y="150"/><ellipse cx="466.25" cy="166" fill="#A9DCDF" rx="11" ry="11" style="stroke:#181818;stroke-width:1.0;"/><path d="M468.4375,167.7656 L464.2969,167.7656 L463.875,168.7969 L464.2969,168.7969 Q464.9063,168.7969 465.1719,169.0313 Q465.4375,169.2656 465.4375,169.6563 Q465.4375,170.0313 465.1719,170.2656 Q464.9063,170.5 464.2969,170.5 L462,170.5 Q461.3906,170.5 461.1406,170.2656 Q460.875,170.0313 460.875,169.6406 Q460.875,169.2656 461.1563,169.0313 Q461.4219,168.7813 462.0469,168.7969 L464.7188,162.1406 L463.6094,162.1406 Q463,162.1406 462.7344,161.9063 Q462.4688,161.6719 462.4688,161.2813 Q462.4688,160.9063 462.7344,160.6719 Q463,160.4375 463.6094,160.4375 L467.2813,160.4375 L470.6719,168.7969 Q471.2656,168.7969 471.4531,168.9375 Q471.8438,169.2031 471.8438,169.6563 Q471.8438,170.0313 471.5781,170.2656 Q471.3281,170.5 470.7188,170.5 L468.4219,170.5 Q467.8125,170.5 467.5469,170.2656 Q467.2813,170.0313 467.2813,169.6406 Q467.2813,169.2656 467.5469,169.0313 Q467.8125,168.7969 468.4219,168.7969 L468.8438,168.7969 L468.4375,167.7656 Z M467.7188,166.0625 L466.3594,162.6875 L464.9844,166.0625 L467.7188,166.0625 Z " fill="#000000"/><text fill="#000000" font-family="sans-serif" font-size="14" font-style="italic" lengthAdjust="spacing" textLength="67" x="486.75" y="171.7285">BaseBullet</text><line style="stroke:#181818;stroke-width:0.5;" x1="266" x2="742" y1="182" y2="182"/><rect fill="none" height="6" style="stroke:#C82930;stroke-width:1.0;" width="6" x="273" y="193.3047"/><text fill="#000000" font-family="sans-serif" font-size="14" lengthAdjust="spacing" textLength="61" x="285" y="200.5332">power: int</text><line style="stroke:#181818;stroke-width:0.5;" x1="266" x2="742" y1="207.6094" y2="207.6094"/><ellipse cx="276" cy="221.9141" fill="#84BE84" rx="3" ry="3" style="stroke:#038048;stroke-width:1.0;"/><text fill="#000000" font-family="sans-serif" font-size="14" lengthAdjust="spacing" textLength="452" x="285" y="226.1426">BaseBullet(int locationX, int locationY, int speedX, int speedY, int power)</text><ellipse cx="276" cy="239.5234" fill="#84BE84" rx="3" ry="3" style="stroke:#038048;stroke-width:1.0;"/><text fill="#000000" font-family="sans-serif" font-size="14" lengthAdjust="spacing" textLength="87" x="285" y="243.752">forward():void</text><ellipse cx="276" cy="257.1328" fill="#84BE84" rx="3" ry="3" style="stroke:#038048;stroke-width:1.0;"/><text fill="#000000" font-family="sans-serif" font-size="14" lengthAdjust="spacing" textLength="88" x="285" y="261.3613">getPower():int</text></g><!--class HeroBullet--><g id="elem_HeroBullet"><rect codeLine="40" fill="#F1F1F1" height="83.2188" id="HeroBullet" rx="2.5" ry="2.5" style="stroke:#181818;stroke-width:0.5;" width="476" x="7" y="7"/><ellipse cx="208.25" cy="23" fill="#ADD1B2" rx="11" ry="11" style="stroke:#181818;stroke-width:1.0;"/><path d="M211.0156,18.875 Q211.1719,18.6563 211.3594,18.5469 Q211.5469,18.4375 211.7656,18.4375 Q212.1406,18.4375 212.375,18.7031 Q212.6094,18.9531 212.6094,19.5625 L212.6094,21.0156 Q212.6094,21.625 212.375,21.8906 Q212.1406,22.1563 211.7656,22.1563 Q211.4219,22.1563 211.2188,21.9531 Q211.0156,21.7656 210.9063,21.25 Q210.8594,20.8906 210.6719,20.7031 Q210.3438,20.3281 209.7344,20.1094 Q209.125,19.8906 208.5,19.8906 Q207.7344,19.8906 207.0938,20.2188 Q206.4688,20.5469 205.9688,21.2969 Q205.4844,22.0469 205.4844,23.0781 L205.4844,24.1719 Q205.4844,25.4063 206.375,26.2344 Q207.2656,27.0469 208.8594,27.0469 Q209.7969,27.0469 210.4531,26.7969 Q210.8438,26.6406 211.2656,26.2031 Q211.5313,25.9375 211.6719,25.8594 Q211.8281,25.7813 212.0313,25.7813 Q212.3594,25.7813 212.6094,26.0469 Q212.875,26.2969 212.875,26.6406 Q212.875,26.9844 212.5313,27.3906 Q212.0313,27.9688 211.2344,28.2969 Q210.1563,28.75 208.8594,28.75 Q207.3438,28.75 206.1406,28.125 Q205.1563,27.625 204.4688,26.5625 Q203.7813,25.4844 203.7813,24.2031 L203.7813,23.0469 Q203.7813,21.7188 204.3906,20.5781 Q205.0156,19.4219 206.1094,18.8125 Q207.2031,18.1875 208.4375,18.1875 Q209.1719,18.1875 209.8125,18.3594 Q210.4688,18.5156 211.0156,18.875 Z " fill="#000000"/><text fill="#000000" font-family="sans-serif" font-size="14" lengthAdjust="spacing" textLength="65" x="228.75" y="28.7285">HeroBullet</text><line style="stroke:#181818;stroke-width:0.5;" x1="8" x2="482" y1="39" y2="39"/><line style="stroke:#181818;stroke-width:0.5;" x1="8" x2="482" y1="47" y2="47"/><ellipse cx="18" cy="61.3047" fill="#84BE84" rx="3" ry="3" style="stroke:#038048;stroke-width:1.0;"/><text fill="#000000" font-family="sans-serif" font-size="14" lengthAdjust="spacing" textLength="450" x="27" y="65.5332">HeroBullet(int locationX, int locationY, int speedX, int speedY, int power)</text><ellipse cx="18" cy="78.9141" fill="#84BE84" rx="3" ry="3" style="stroke:#038048;stroke-width:1.0;"/><text fill="#000000" font-family="sans-serif" font-size="14" lengthAdjust="spacing" textLength="88" x="27" y="83.1426">update(): void</text></g><!--class EnemyBullet--><g id="elem_EnemyBullet"><rect codeLine="46" fill="#F1F1F1" height="83.2188" id="EnemyBullet" rx="2.5" ry="2.5" style="stroke:#181818;stroke-width:0.5;" width="489" x="518.5" y="7"/><ellipse cx="719.75" cy="23" fill="#ADD1B2" rx="11" ry="11" style="stroke:#181818;stroke-width:1.0;"/><path d="M722.5156,18.875 Q722.6719,18.6563 722.8594,18.5469 Q723.0469,18.4375 723.2656,18.4375 Q723.6406,18.4375 723.875,18.7031 Q724.1094,18.9531 724.1094,19.5625 L724.1094,21.0156 Q724.1094,21.625 723.875,21.8906 Q723.6406,22.1563 723.2656,22.1563 Q722.9219,22.1563 722.7188,21.9531 Q722.5156,21.7656 722.4063,21.25 Q722.3594,20.8906 722.1719,20.7031 Q721.8438,20.3281 721.2344,20.1094 Q720.625,19.8906 720,19.8906 Q719.2344,19.8906 718.5938,20.2188 Q717.9688,20.5469 717.4688,21.2969 Q716.9844,22.0469 716.9844,23.0781 L716.9844,24.1719 Q716.9844,25.4063 717.875,26.2344 Q718.7656,27.0469 720.3594,27.0469 Q721.2969,27.0469 721.9531,26.7969 Q722.3438,26.6406 722.7656,26.2031 Q723.0313,25.9375 723.1719,25.8594 Q723.3281,25.7813 723.5313,25.7813 Q723.8594,25.7813 724.1094,26.0469 Q724.375,26.2969 724.375,26.6406 Q724.375,26.9844 724.0313,27.3906 Q723.5313,27.9688 722.7344,28.2969 Q721.6563,28.75 720.3594,28.75 Q718.8438,28.75 717.6406,28.125 Q716.6563,27.625 715.9688,26.5625 Q715.2813,25.4844 715.2813,24.2031 L715.2813,23.0469 Q715.2813,21.7188 715.8906,20.5781 Q716.5156,19.4219 717.6094,18.8125 Q718.7031,18.1875 719.9375,18.1875 Q720.6719,18.1875 721.3125,18.3594 Q721.9688,18.5156 722.5156,18.875 Z " fill="#000000"/><text fill="#000000" font-family="sans-serif" font-size="14" lengthAdjust="spacing" textLength="78" x="740.25" y="28.7285">EnemyBullet</text><line style="stroke:#181818;stroke-width:0.5;" x1="519.5" x2="1006.5" y1="39" y2="39"/><line style="stroke:#181818;stroke-width:0.5;" x1="519.5" x2="1006.5" y1="47" y2="47"/><ellipse cx="529.5" cy="61.3047" fill="#84BE84" rx="3" ry="3" style="stroke:#038048;stroke-width:1.0;"/><text fill="#000000" font-family="sans-serif" font-size="14" lengthAdjust="spacing" textLength="463" x="538.5" y="65.5332">EnemyBullet(int locationX, int locationY, int speedX, int speedY, int power)</text><ellipse cx="529.5" cy="78.9141" fill="#84BE84" rx="3" ry="3" style="stroke:#038048;stroke-width:1.0;"/><text fill="#000000" font-family="sans-serif" font-size="14" lengthAdjust="spacing" textLength="84" x="538.5" y="83.1426">update():void</text></g><!--link BaseBullet to AbstractFlyingObject--><g id="link_BaseBullet_AbstractFlyingObject"><path codeLine="37" d="M473.92,268.14 C464.77,285.84 462.4052,290.3798 451.2352,311.9898 " fill="none" id="BaseBullet-to-AbstractFlyingObject" style="stroke:#181818;stroke-width:1.0;"/><polygon fill="none" points="442.97,327.98,456.5653,314.7449,445.9051,309.2347,442.97,327.98" style="stroke:#181818;stroke-width:1.0;"/></g><!--link BaseBullet to Observer--><g id="link_BaseBullet_Observer"><path codeLine="38" d="M555.14,268.08 C569.64,286.42 584.57,307.31 596,328 C626.56,383.31 643.7744,436.7751 654.9244,477.2951 " fill="none" id="BaseBullet-to-Observer" style="stroke:#181818;stroke-width:1.0;stroke-dasharray:7.0,7.0;"/><polygon fill="none" points="659.7,494.65,660.7094,475.7032,649.1394,478.8869,659.7,494.65" style="stroke:#181818;stroke-width:1.0;"/></g><!--link HeroBullet to BaseBullet--><g id="link_HeroBullet_BaseBullet"><path codeLine="52" d="M311.36,90.11 C341.04,108.27 361.2168,120.6243 393.6368,140.4643 " fill="none" id="HeroBullet-to-BaseBullet" style="stroke:#181818;stroke-width:1.0;"/><polygon fill="none" points="408.99,149.86,396.7687,135.3466,390.5049,145.5821,408.99,149.86" style="stroke:#181818;stroke-width:1.0;"/></g><!--link EnemyBullet to BaseBullet--><g id="link_EnemyBullet_BaseBullet"><path codeLine="53" d="M696.64,90.11 C666.96,108.27 646.7832,120.6243 614.3632,140.4643 " fill="none" id="EnemyBullet-to-BaseBullet" style="stroke:#181818;stroke-width:1.0;"/><polygon fill="none" points="599.01,149.86,617.4951,145.5821,611.2313,135.3466,599.01,149.86" style="stroke:#181818;stroke-width:1.0;"/></g><!--SRC=[hLF1QiCm3BtxAmoxf7Jj1-GmM66ZWq47WwqvAh6IUBXniPsMqlNVvpfEutXbXz6Sh2SzF-d9WLmR1OMXXG2jwQCFdyM1DzKg_yB2a2EXzhkZGXPWk6pMAMzCX6K1fhU8R1q3OGNVG8NfeYrBLCXUpf7Fx3apTL1P8wzg4rBr1mZEqbnAWT0G1q-lDfvOrj3qFGt3h0kxLeDpDl4NbbBjGR5aakuaPnui5EWwkQP5oo2ONBhhQ1hDgzTDc6npWM5R4PAD5Ak1khQzz3wC4bcSU7UJnAYpsOA_RNVfpxFpCMVfx1-XZJHk0qayvGuQhklUi1CXbeEgX0BfAjUeTgYEllG8ti8JRRSC30ui63_81MXSj49W_mndT2ltg58wT3JK_6lZtTdT-kVohHrlvoBlXXrm4AQpsVV3zRydA9hFRL7l1I7TX4jKSZJXb0ROZIQwk4pxvNJYJmrk3cFr0BgrUAyzZ4UTSS6I0_KuHSWF]--></g></svg>