<?xml version="1.0" encoding="us-ascii" standalone="no"?><svg xmlns="http://www.w3.org/2000/svg" xmlns:xlink="http://www.w3.org/1999/xlink" contentStyleType="text/css" height="308px" preserveAspectRatio="none" style="width:513px;height:308px;background:#FFFFFF;" version="1.1" viewBox="0 0 513 308" width="513px" zoomAndPan="magnify"><defs/><g><!--class HeroAircraft--><g id="elem_HeroAircraft"><rect codeLine="1" fill="#F1F1F1" height="294.5313" id="HeroAircraft" rx="2.5" ry="2.5" style="stroke:#181818;stroke-width:0.5;" width="464" x="7" y="7"/><ellipse cx="197.25" cy="23" fill="#ADD1B2" rx="11" ry="11" style="stroke:#181818;stroke-width:1.0;"/><path d="M200.0156,18.875 Q200.1719,18.6563 200.3594,18.5469 Q200.5469,18.4375 200.7656,18.4375 Q201.1406,18.4375 201.375,18.7031 Q201.6094,18.9531 201.6094,19.5625 L201.6094,21.0156 Q201.6094,21.625 201.375,21.8906 Q201.1406,22.1563 200.7656,22.1563 Q200.4219,22.1563 200.2188,21.9531 Q200.0156,21.7656 199.9063,21.25 Q199.8594,20.8906 199.6719,20.7031 Q199.3438,20.3281 198.7344,20.1094 Q198.125,19.8906 197.5,19.8906 Q196.7344,19.8906 196.0938,20.2188 Q195.4688,20.5469 194.9688,21.2969 Q194.4844,22.0469 194.4844,23.0781 L194.4844,24.1719 Q194.4844,25.4063 195.375,26.2344 Q196.2656,27.0469 197.8594,27.0469 Q198.7969,27.0469 199.4531,26.7969 Q199.8438,26.6406 200.2656,26.2031 Q200.5313,25.9375 200.6719,25.8594 Q200.8281,25.7813 201.0313,25.7813 Q201.3594,25.7813 201.6094,26.0469 Q201.875,26.2969 201.875,26.6406 Q201.875,26.9844 201.5313,27.3906 Q201.0313,27.9688 200.2344,28.2969 Q199.1563,28.75 197.8594,28.75 Q196.3438,28.75 195.1406,28.125 Q194.1563,27.625 193.4688,26.5625 Q192.7813,25.4844 192.7813,24.2031 L192.7813,23.0469 Q192.7813,21.7188 193.3906,20.5781 Q194.0156,19.4219 195.1094,18.8125 Q196.2031,18.1875 197.4375,18.1875 Q198.1719,18.1875 198.8125,18.3594 Q199.4688,18.5156 200.0156,18.875 Z " fill="#000000"/><text fill="#000000" font-family="sans-serif" font-size="14" lengthAdjust="spacing" textLength="75" x="217.75" y="28.7285">HeroAircraft</text><line style="stroke:#181818;stroke-width:0.5;" x1="8" x2="470" y1="39" y2="39"/><rect fill="none" height="6" style="stroke:#C82930;stroke-width:1.0;" width="6" x="15" y="50.3047"/><text fill="#000000" font-family="sans-serif" font-size="14" lengthAdjust="spacing" text-decoration="underline" textLength="153" x="27" y="57.5332">heroAircraft:HeroAircraft</text><rect fill="none" height="6" style="stroke:#C82930;stroke-width:1.0;" width="6" x="15" y="67.9141"/><text fill="#000000" font-family="sans-serif" font-size="14" lengthAdjust="spacing" textLength="82" x="27" y="75.1426">shootNum:int</text><rect fill="none" height="6" style="stroke:#C82930;stroke-width:1.0;" width="6" x="15" y="85.5234"/><text fill="#000000" font-family="sans-serif" font-size="14" lengthAdjust="spacing" textLength="57" x="27" y="92.752">power:int</text><rect fill="none" height="6" style="stroke:#C82930;stroke-width:1.0;" width="6" x="15" y="103.1328"/><text fill="#000000" font-family="sans-serif" font-size="14" lengthAdjust="spacing" textLength="73" x="27" y="110.3613">direction:int</text><ellipse cx="18" cy="123.7422" fill="none" rx="3" ry="3" style="stroke:#038048;stroke-width:1.0;"/><text fill="#000000" font-family="sans-serif" font-size="14" lengthAdjust="spacing" textLength="97" x="27" y="127.9707">context:Context</text><ellipse cx="18" cy="141.3516" fill="none" rx="3" ry="3" style="stroke:#038048;stroke-width:1.0;"/><text fill="#000000" font-family="sans-serif" font-size="14" lengthAdjust="spacing" textLength="130" x="27" y="145.5801">shootthread: Thread</text><ellipse cx="18" cy="158.9609" fill="none" rx="3" ry="3" style="stroke:#038048;stroke-width:1.0;"/><text fill="#000000" font-family="sans-serif" font-size="14" lengthAdjust="spacing" textLength="167" x="27" y="163.1895">exist_shootthread:boolean</text><line style="stroke:#181818;stroke-width:0.5;" x1="8" x2="470" y1="170.2656" y2="170.2656"/><rect fill="#F24D5C" height="6" style="stroke:#C82930;stroke-width:1.0;" width="6" x="15" y="181.5703"/><text fill="#000000" font-family="sans-serif" font-size="14" lengthAdjust="spacing" textLength="438" x="27" y="188.7988">HeroAircraft(int locationX, int locationY, int speedX, int speedY, int hp)</text><ellipse cx="18" cy="202.1797" fill="#84BE84" rx="3" ry="3" style="stroke:#038048;stroke-width:1.0;"/><text fill="#000000" font-family="sans-serif" font-size="14" lengthAdjust="spacing" text-decoration="underline" textLength="170" x="27" y="206.4082">getInstance() : HeroAircraft</text><ellipse cx="18" cy="219.7891" fill="#84BE84" rx="3" ry="3" style="stroke:#038048;stroke-width:1.0;"/><text fill="#000000" font-family="sans-serif" font-size="14" lengthAdjust="spacing" textLength="87" x="27" y="224.0176">forward():void</text><ellipse cx="18" cy="237.3984" fill="#84BE84" rx="3" ry="3" style="stroke:#038048;stroke-width:1.0;"/><text fill="#000000" font-family="sans-serif" font-size="14" lengthAdjust="spacing" textLength="154" x="27" y="241.627">shoot():List&lt;BaseBullet&gt;</text><ellipse cx="18" cy="255.0078" fill="#84BE84" rx="3" ry="3" style="stroke:#038048;stroke-width:1.0;"/><text fill="#000000" font-family="sans-serif" font-size="14" lengthAdjust="spacing" textLength="205" x="27" y="259.2363">setShootNum(int shootnum):void</text><ellipse cx="18" cy="272.6172" fill="#84BE84" rx="3" ry="3" style="stroke:#038048;stroke-width:1.0;"/><text fill="#000000" font-family="sans-serif" font-size="14" lengthAdjust="spacing" textLength="72" x="27" y="276.8457">reset():void</text><ellipse cx="18" cy="290.2266" fill="#84BE84" rx="3" ry="3" style="stroke:#038048;stroke-width:1.0;"/><text fill="#000000" font-family="sans-serif" font-size="14" lengthAdjust="spacing" text-decoration="underline" textLength="129" x="27" y="294.4551">resetInstance(): void</text></g><!--link HeroAircraft to HeroAircraft--><g id="link_HeroAircraft_HeroAircraft"><path codeLine="19" d="M471.08,110.5 C492.5,119.59 506,134.26 506,154.5 C506,174.74 498.0232,187.0661 476.6032,196.1561 " fill="none" id="HeroAircraft-to-HeroAircraft" style="stroke:#181818;stroke-width:1.0;"/><polygon fill="#181818" points="471.08,198.5,480.9275,198.6663,475.6827,196.5468,477.8023,191.302,471.08,198.5" style="stroke:#181818;stroke-width:1.0;"/></g><!--SRC=[PL7DRi8m3BxtANninVe24K8QksmIuW87Ta9POjP88QuITo0Xtfqi3LsgvU9yFxA_EChA4E0TFRqQhxmyCTmgYAUz1PPir1swGXIbS_H1w8XuEvo5SK-gfmlw0clZKR4XDt4BKEGOhopUnfhPr8mxZr8BsAUQ5RoQmCTI_oAoA5sLXvJHwZW7B2dvE_Jm0YNy767e4VMXk6U-wviySTh0D_A7Yy0fh1iGy6y92pYHlqYlwqRyaD7bOoArYScNQnbmFLYBl7hAoBkykvGtsTrmdlNm66spjbEi9Fq54v0yzwgQVMVRhahy0000]--></g></svg>