<?xml version="1.0" encoding="us-ascii" standalone="no"?><svg xmlns="http://www.w3.org/2000/svg" xmlns:xlink="http://www.w3.org/1999/xlink" contentStyleType="text/css" height="1395px" preserveAspectRatio="none" style="width:2221px;height:1395px;background:#FFFFFF;" version="1.1" viewBox="0 0 2221 1395" width="2221px" zoomAndPan="magnify"><defs/><g><!--class AbstractFlyingObject--><g id="elem_AbstractFlyingObject"><rect codeLine="3" fill="#F1F1F1" height="400.1875" id="AbstractFlyingObject" rx="2.5" ry="2.5" style="stroke:#181818;stroke-width:0.5;" width="477" x="248" y="7"/><ellipse cx="416.75" cy="23" fill="#A9DCDF" rx="11" ry="11" style="stroke:#181818;stroke-width:1.0;"/><path d="M418.9375,24.7656 L414.7969,24.7656 L414.375,25.7969 L414.7969,25.7969 Q415.4063,25.7969 415.6719,26.0313 Q415.9375,26.2656 415.9375,26.6563 Q415.9375,27.0313 415.6719,27.2656 Q415.4063,27.5 414.7969,27.5 L412.5,27.5 Q411.8906,27.5 411.6406,27.2656 Q411.375,27.0313 411.375,26.6406 Q411.375,26.2656 411.6563,26.0313 Q411.9219,25.7813 412.5469,25.7969 L415.2188,19.1406 L414.1094,19.1406 Q413.5,19.1406 413.2344,18.9063 Q412.9688,18.6719 412.9688,18.2813 Q412.9688,17.9063 413.2344,17.6719 Q413.5,17.4375 414.1094,17.4375 L417.7813,17.4375 L421.1719,25.7969 Q421.7656,25.7969 421.9531,25.9375 Q422.3438,26.2031 422.3438,26.6563 Q422.3438,27.0313 422.0781,27.2656 Q421.8281,27.5 421.2188,27.5 L418.9219,27.5 Q418.3125,27.5 418.0469,27.2656 Q417.7813,27.0313 417.7813,26.6406 Q417.7813,26.2656 418.0469,26.0313 Q418.3125,25.7969 418.9219,25.7969 L419.3438,25.7969 L418.9375,24.7656 Z M418.2188,23.0625 L416.8594,19.6875 L415.4844,23.0625 L418.2188,23.0625 Z " fill="#000000"/><text fill="#000000" font-family="sans-serif" font-size="14" font-style="italic" lengthAdjust="spacing" textLength="131" x="437.25" y="28.7285">AbstractFlyingObject</text><line style="stroke:#181818;stroke-width:0.5;" x1="249" x2="724" y1="39" y2="39"/><polygon fill="none" points="259,48.3047,263,52.3047,259,56.3047,255,52.3047" style="stroke:#B38D22;stroke-width:1.0;"/><text fill="#000000" font-family="sans-serif" font-size="14" lengthAdjust="spacing" textLength="76" x="268" y="57.5332">locationX:int</text><polygon fill="none" points="259,65.9141,263,69.9141,259,73.9141,255,69.9141" style="stroke:#B38D22;stroke-width:1.0;"/><text fill="#000000" font-family="sans-serif" font-size="14" lengthAdjust="spacing" textLength="77" x="268" y="75.1426">locationY:int</text><polygon fill="none" points="259,83.5234,263,87.5234,259,91.5234,255,87.5234" style="stroke:#B38D22;stroke-width:1.0;"/><text fill="#000000" font-family="sans-serif" font-size="14" lengthAdjust="spacing" textLength="66" x="268" y="92.752">speedX:int</text><polygon fill="none" points="259,101.1328,263,105.1328,259,109.1328,255,105.1328" style="stroke:#B38D22;stroke-width:1.0;"/><text fill="#000000" font-family="sans-serif" font-size="14" lengthAdjust="spacing" textLength="67" x="268" y="110.3613">speedY:int</text><polygon fill="none" points="259,118.7422,263,122.7422,259,126.7422,255,122.7422" style="stroke:#B38D22;stroke-width:1.0;"/><text fill="#000000" font-family="sans-serif" font-size="14" lengthAdjust="spacing" textLength="134" x="268" y="127.9707">image:BufferedImage</text><polygon fill="none" points="259,136.3516,263,140.3516,259,144.3516,255,140.3516" style="stroke:#B38D22;stroke-width:1.0;"/><text fill="#000000" font-family="sans-serif" font-size="14" lengthAdjust="spacing" textLength="51" x="268" y="145.5801">width:int</text><polygon fill="none" points="259,153.9609,263,157.9609,259,161.9609,255,157.9609" style="stroke:#B38D22;stroke-width:1.0;"/><text fill="#000000" font-family="sans-serif" font-size="14" lengthAdjust="spacing" textLength="58" x="268" y="163.1895">height:int</text><polygon fill="none" points="259,171.5703,263,175.5703,259,179.5703,255,175.5703" style="stroke:#B38D22;stroke-width:1.0;"/><text fill="#000000" font-family="sans-serif" font-size="14" lengthAdjust="spacing" textLength="96" x="268" y="180.7988">isValid:boolean</text><line style="stroke:#181818;stroke-width:0.5;" x1="249" x2="724" y1="187.875" y2="187.875"/><ellipse cx="259" cy="202.1797" fill="#84BE84" rx="3" ry="3" style="stroke:#038048;stroke-width:1.0;"/><text fill="#000000" font-family="sans-serif" font-size="14" lengthAdjust="spacing" textLength="451" x="268" y="206.4082">AbstractFlyingObject(int locationX, int locationY, int speedX, int speedY)</text><ellipse cx="259" cy="219.7891" fill="#84BE84" rx="3" ry="3" style="stroke:#038048;stroke-width:1.0;"/><text fill="#000000" font-family="sans-serif" font-size="14" lengthAdjust="spacing" textLength="87" x="268" y="224.0176">forward():void</text><ellipse cx="259" cy="237.3984" fill="#84BE84" rx="3" ry="3" style="stroke:#038048;stroke-width:1.0;"/><text fill="#000000" font-family="sans-serif" font-size="14" lengthAdjust="spacing" textLength="309" x="268" y="241.627">crash(AbstractFlyingObject flyingObject):boolean</text><ellipse cx="259" cy="255.0078" fill="#84BE84" rx="3" ry="3" style="stroke:#038048;stroke-width:1.0;"/><text fill="#000000" font-family="sans-serif" font-size="14" lengthAdjust="spacing" textLength="330" x="268" y="259.2363">setLocation(double locationX, double locationY):void</text><ellipse cx="259" cy="272.6172" fill="#84BE84" rx="3" ry="3" style="stroke:#038048;stroke-width:1.0;"/><text fill="#000000" font-family="sans-serif" font-size="14" lengthAdjust="spacing" textLength="111" x="268" y="276.8457">getLocationX():int</text><ellipse cx="259" cy="290.2266" fill="#84BE84" rx="3" ry="3" style="stroke:#038048;stroke-width:1.0;"/><text fill="#000000" font-family="sans-serif" font-size="14" lengthAdjust="spacing" textLength="112" x="268" y="294.4551">getLocationY():int</text><ellipse cx="259" cy="307.8359" fill="#84BE84" rx="3" ry="3" style="stroke:#038048;stroke-width:1.0;"/><text fill="#000000" font-family="sans-serif" font-size="14" lengthAdjust="spacing" textLength="99" x="268" y="312.0645">getSpeedY():int</text><ellipse cx="259" cy="325.4453" fill="#84BE84" rx="3" ry="3" style="stroke:#038048;stroke-width:1.0;"/><text fill="#000000" font-family="sans-serif" font-size="14" lengthAdjust="spacing" textLength="164" x="268" y="329.6738">getImage():BufferedImage</text><ellipse cx="259" cy="343.0547" fill="#84BE84" rx="3" ry="3" style="stroke:#038048;stroke-width:1.0;"/><text fill="#000000" font-family="sans-serif" font-size="14" lengthAdjust="spacing" textLength="85" x="268" y="347.2832">getWidth():int</text><ellipse cx="259" cy="360.6641" fill="#84BE84" rx="3" ry="3" style="stroke:#038048;stroke-width:1.0;"/><text fill="#000000" font-family="sans-serif" font-size="14" lengthAdjust="spacing" textLength="89" x="268" y="364.8926">getHeight():int</text><ellipse cx="259" cy="378.2734" fill="#84BE84" rx="3" ry="3" style="stroke:#038048;stroke-width:1.0;"/><text fill="#000000" font-family="sans-serif" font-size="14" lengthAdjust="spacing" textLength="116" x="268" y="382.502">notValid():boolean</text><ellipse cx="259" cy="395.8828" fill="#84BE84" rx="3" ry="3" style="stroke:#038048;stroke-width:1.0;"/><text fill="#000000" font-family="sans-serif" font-size="14" lengthAdjust="spacing" textLength="81" x="268" y="400.1113">vanish():void</text></g><!--class AbstractAircraft--><g id="elem_AbstractAircraft"><rect codeLine="27" fill="#F1F1F1" height="153.6563" id="AbstractAircraft" rx="2.5" ry="2.5" style="stroke:#181818;stroke-width:0.5;" width="486" x="801.5" y="467"/><ellipse cx="991.75" cy="483" fill="#A9DCDF" rx="11" ry="11" style="stroke:#181818;stroke-width:1.0;"/><path d="M993.9375,484.7656 L989.7969,484.7656 L989.375,485.7969 L989.7969,485.7969 Q990.4063,485.7969 990.6719,486.0313 Q990.9375,486.2656 990.9375,486.6563 Q990.9375,487.0313 990.6719,487.2656 Q990.4063,487.5 989.7969,487.5 L987.5,487.5 Q986.8906,487.5 986.6406,487.2656 Q986.375,487.0313 986.375,486.6406 Q986.375,486.2656 986.6563,486.0313 Q986.9219,485.7813 987.5469,485.7969 L990.2188,479.1406 L989.1094,479.1406 Q988.5,479.1406 988.2344,478.9063 Q987.9688,478.6719 987.9688,478.2813 Q987.9688,477.9063 988.2344,477.6719 Q988.5,477.4375 989.1094,477.4375 L992.7813,477.4375 L996.1719,485.7969 Q996.7656,485.7969 996.9531,485.9375 Q997.3438,486.2031 997.3438,486.6563 Q997.3438,487.0313 997.0781,487.2656 Q996.8281,487.5 996.2188,487.5 L993.9219,487.5 Q993.3125,487.5 993.0469,487.2656 Q992.7813,487.0313 992.7813,486.6406 Q992.7813,486.2656 993.0469,486.0313 Q993.3125,485.7969 993.9219,485.7969 L994.3438,485.7969 L993.9375,484.7656 Z M993.2188,483.0625 L991.8594,479.6875 L990.4844,483.0625 L993.2188,483.0625 Z " fill="#000000"/><text fill="#000000" font-family="sans-serif" font-size="14" font-style="italic" lengthAdjust="spacing" textLength="97" x="1012.25" y="488.7285">AbstractAircraft</text><line style="stroke:#181818;stroke-width:0.5;" x1="802.5" x2="1286.5" y1="499" y2="499"/><polygon fill="none" points="812.5,508.3047,816.5,512.3047,812.5,516.3047,808.5,512.3047" style="stroke:#B38D22;stroke-width:1.0;"/><text fill="#000000" font-family="sans-serif" font-size="14" lengthAdjust="spacing" textLength="61" x="821.5" y="517.5332">maxHp:int</text><polygon fill="none" points="812.5,525.9141,816.5,529.9141,812.5,533.9141,808.5,529.9141" style="stroke:#B38D22;stroke-width:1.0;"/><text fill="#000000" font-family="sans-serif" font-size="14" lengthAdjust="spacing" textLength="35" x="821.5" y="535.1426">hp:int</text><line style="stroke:#181818;stroke-width:0.5;" x1="802.5" x2="1286.5" y1="542.2188" y2="542.2188"/><ellipse cx="812.5" cy="556.5234" fill="#84BE84" rx="3" ry="3" style="stroke:#038048;stroke-width:1.0;"/><text fill="#000000" font-family="sans-serif" font-size="14" lengthAdjust="spacing" textLength="460" x="821.5" y="560.752">AbstractAircraft(int locationX, int locationY, int speedX, int speedY, int hp)</text><ellipse cx="812.5" cy="574.1328" fill="#84BE84" rx="3" ry="3" style="stroke:#038048;stroke-width:1.0;"/><text fill="#000000" font-family="sans-serif" font-size="14" lengthAdjust="spacing" textLength="194" x="821.5" y="578.3613">decreaseHp(int decrease):void</text><ellipse cx="812.5" cy="591.7422" fill="#84BE84" rx="3" ry="3" style="stroke:#038048;stroke-width:1.0;"/><text fill="#000000" font-family="sans-serif" font-size="14" lengthAdjust="spacing" textLength="66" x="821.5" y="595.9707">getHp():int</text><ellipse cx="812.5" cy="609.3516" fill="#84BE84" rx="3" ry="3" style="stroke:#038048;stroke-width:1.0;"/><text fill="#000000" font-family="sans-serif" font-size="14" font-style="italic" lengthAdjust="spacing" textLength="154" x="821.5" y="613.5801">shoot():List&lt;BaseBullet&gt;</text></g><!--class HeroAircraft--><g id="elem_HeroAircraft"><rect codeLine="38" fill="#F1F1F1" height="171.2656" id="HeroAircraft" rx="2.5" ry="2.5" style="stroke:#181818;stroke-width:0.5;" width="464" x="743.5" y="716.5"/><ellipse cx="933.75" cy="732.5" fill="#ADD1B2" rx="11" ry="11" style="stroke:#181818;stroke-width:1.0;"/><path d="M936.5156,728.375 Q936.6719,728.1563 936.8594,728.0469 Q937.0469,727.9375 937.2656,727.9375 Q937.6406,727.9375 937.875,728.2031 Q938.1094,728.4531 938.1094,729.0625 L938.1094,730.5156 Q938.1094,731.125 937.875,731.3906 Q937.6406,731.6563 937.2656,731.6563 Q936.9219,731.6563 936.7188,731.4531 Q936.5156,731.2656 936.4063,730.75 Q936.3594,730.3906 936.1719,730.2031 Q935.8438,729.8281 935.2344,729.6094 Q934.625,729.3906 934,729.3906 Q933.2344,729.3906 932.5938,729.7188 Q931.9688,730.0469 931.4688,730.7969 Q930.9844,731.5469 930.9844,732.5781 L930.9844,733.6719 Q930.9844,734.9063 931.875,735.7344 Q932.7656,736.5469 934.3594,736.5469 Q935.2969,736.5469 935.9531,736.2969 Q936.3438,736.1406 936.7656,735.7031 Q937.0313,735.4375 937.1719,735.3594 Q937.3281,735.2813 937.5313,735.2813 Q937.8594,735.2813 938.1094,735.5469 Q938.375,735.7969 938.375,736.1406 Q938.375,736.4844 938.0313,736.8906 Q937.5313,737.4688 936.7344,737.7969 Q935.6563,738.25 934.3594,738.25 Q932.8438,738.25 931.6406,737.625 Q930.6563,737.125 929.9688,736.0625 Q929.2813,734.9844 929.2813,733.7031 L929.2813,732.5469 Q929.2813,731.2188 929.8906,730.0781 Q930.5156,728.9219 931.6094,728.3125 Q932.7031,727.6875 933.9375,727.6875 Q934.6719,727.6875 935.3125,727.8594 Q935.9688,728.0156 936.5156,728.375 Z " fill="#000000"/><text fill="#000000" font-family="sans-serif" font-size="14" lengthAdjust="spacing" textLength="75" x="954.25" y="738.2285">HeroAircraft</text><line style="stroke:#181818;stroke-width:0.5;" x1="744.5" x2="1206.5" y1="748.5" y2="748.5"/><rect fill="none" height="6" style="stroke:#C82930;stroke-width:1.0;" width="6" x="751.5" y="759.8047"/><text fill="#000000" font-family="sans-serif" font-size="14" lengthAdjust="spacing" textLength="82" x="763.5" y="767.0332">shootNum:int</text><rect fill="none" height="6" style="stroke:#C82930;stroke-width:1.0;" width="6" x="751.5" y="777.4141"/><text fill="#000000" font-family="sans-serif" font-size="14" lengthAdjust="spacing" textLength="57" x="763.5" y="784.6426">power:int</text><rect fill="none" height="6" style="stroke:#C82930;stroke-width:1.0;" width="6" x="751.5" y="795.0234"/><text fill="#000000" font-family="sans-serif" font-size="14" lengthAdjust="spacing" textLength="73" x="763.5" y="802.252">direction:int</text><line style="stroke:#181818;stroke-width:0.5;" x1="744.5" x2="1206.5" y1="809.3281" y2="809.3281"/><ellipse cx="754.5" cy="823.6328" fill="#84BE84" rx="3" ry="3" style="stroke:#038048;stroke-width:1.0;"/><text fill="#000000" font-family="sans-serif" font-size="14" lengthAdjust="spacing" textLength="438" x="763.5" y="827.8613">HeroAircraft(int locationX, int locationY, int speedX, int speedY, int hp)</text><ellipse cx="754.5" cy="841.2422" fill="#84BE84" rx="3" ry="3" style="stroke:#038048;stroke-width:1.0;"/><text fill="#000000" font-family="sans-serif" font-size="14" lengthAdjust="spacing" text-decoration="underline" textLength="170" x="763.5" y="845.4707">getInstance() : HeroAircraft</text><ellipse cx="754.5" cy="858.8516" fill="#84BE84" rx="3" ry="3" style="stroke:#038048;stroke-width:1.0;"/><text fill="#000000" font-family="sans-serif" font-size="14" lengthAdjust="spacing" textLength="87" x="763.5" y="863.0801">forward():void</text><ellipse cx="754.5" cy="876.4609" fill="#84BE84" rx="3" ry="3" style="stroke:#038048;stroke-width:1.0;"/><text fill="#000000" font-family="sans-serif" font-size="14" lengthAdjust="spacing" textLength="154" x="763.5" y="880.6895">shoot():List&lt;BaseBullet&gt;</text></g><!--class MobEnemy--><g id="elem_MobEnemy"><rect codeLine="50" fill="#F1F1F1" height="100.8281" id="MobEnemy" rx="2.5" ry="2.5" style="stroke:#181818;stroke-width:0.5;" width="459" x="1755" y="751.5"/><ellipse cx="1945.25" cy="767.5" fill="#ADD1B2" rx="11" ry="11" style="stroke:#181818;stroke-width:1.0;"/><path d="M1948.0156,763.375 Q1948.1719,763.1563 1948.3594,763.0469 Q1948.5469,762.9375 1948.7656,762.9375 Q1949.1406,762.9375 1949.375,763.2031 Q1949.6094,763.4531 1949.6094,764.0625 L1949.6094,765.5156 Q1949.6094,766.125 1949.375,766.3906 Q1949.1406,766.6563 1948.7656,766.6563 Q1948.4219,766.6563 1948.2188,766.4531 Q1948.0156,766.2656 1947.9063,765.75 Q1947.8594,765.3906 1947.6719,765.2031 Q1947.3438,764.8281 1946.7344,764.6094 Q1946.125,764.3906 1945.5,764.3906 Q1944.7344,764.3906 1944.0938,764.7188 Q1943.4688,765.0469 1942.9688,765.7969 Q1942.4844,766.5469 1942.4844,767.5781 L1942.4844,768.6719 Q1942.4844,769.9063 1943.375,770.7344 Q1944.2656,771.5469 1945.8594,771.5469 Q1946.7969,771.5469 1947.4531,771.2969 Q1947.8438,771.1406 1948.2656,770.7031 Q1948.5313,770.4375 1948.6719,770.3594 Q1948.8281,770.2813 1949.0313,770.2813 Q1949.3594,770.2813 1949.6094,770.5469 Q1949.875,770.7969 1949.875,771.1406 Q1949.875,771.4844 1949.5313,771.8906 Q1949.0313,772.4688 1948.2344,772.7969 Q1947.1563,773.25 1945.8594,773.25 Q1944.3438,773.25 1943.1406,772.625 Q1942.1563,772.125 1941.4688,771.0625 Q1940.7813,769.9844 1940.7813,768.7031 L1940.7813,767.5469 Q1940.7813,766.2188 1941.3906,765.0781 Q1942.0156,763.9219 1943.1094,763.3125 Q1944.2031,762.6875 1945.4375,762.6875 Q1946.1719,762.6875 1946.8125,762.8594 Q1947.4688,763.0156 1948.0156,763.375 Z " fill="#000000"/><text fill="#000000" font-family="sans-serif" font-size="14" lengthAdjust="spacing" textLength="70" x="1965.75" y="773.2285">MobEnemy</text><line style="stroke:#181818;stroke-width:0.5;" x1="1756" x2="2213" y1="783.5" y2="783.5"/><line style="stroke:#181818;stroke-width:0.5;" x1="1756" x2="2213" y1="791.5" y2="791.5"/><ellipse cx="1766" cy="805.8047" fill="#84BE84" rx="3" ry="3" style="stroke:#038048;stroke-width:1.0;"/><text fill="#000000" font-family="sans-serif" font-size="14" lengthAdjust="spacing" textLength="433" x="1775" y="810.0332">MobEnemy(int locationX, int locationY, int speedX, int speedY, int hp)</text><ellipse cx="1766" cy="823.4141" fill="#84BE84" rx="3" ry="3" style="stroke:#038048;stroke-width:1.0;"/><text fill="#000000" font-family="sans-serif" font-size="14" lengthAdjust="spacing" textLength="87" x="1775" y="827.6426">forward():void</text><ellipse cx="1766" cy="841.0234" fill="#84BE84" rx="3" ry="3" style="stroke:#038048;stroke-width:1.0;"/><text fill="#000000" font-family="sans-serif" font-size="14" lengthAdjust="spacing" textLength="154" x="1775" y="845.252">shoot():List&lt;BaseBullet&gt;</text></g><!--class EliteEnemy--><g id="elem_EliteEnemy"><rect codeLine="57" fill="#F1F1F1" height="241.7031" id="EliteEnemy" rx="2.5" ry="2.5" style="stroke:#181818;stroke-width:0.5;" width="459" x="1261" y="681"/><ellipse cx="1451.25" cy="697" fill="#ADD1B2" rx="11" ry="11" style="stroke:#181818;stroke-width:1.0;"/><path d="M1454.0156,692.875 Q1454.1719,692.6563 1454.3594,692.5469 Q1454.5469,692.4375 1454.7656,692.4375 Q1455.1406,692.4375 1455.375,692.7031 Q1455.6094,692.9531 1455.6094,693.5625 L1455.6094,695.0156 Q1455.6094,695.625 1455.375,695.8906 Q1455.1406,696.1563 1454.7656,696.1563 Q1454.4219,696.1563 1454.2188,695.9531 Q1454.0156,695.7656 1453.9063,695.25 Q1453.8594,694.8906 1453.6719,694.7031 Q1453.3438,694.3281 1452.7344,694.1094 Q1452.125,693.8906 1451.5,693.8906 Q1450.7344,693.8906 1450.0938,694.2188 Q1449.4688,694.5469 1448.9688,695.2969 Q1448.4844,696.0469 1448.4844,697.0781 L1448.4844,698.1719 Q1448.4844,699.4063 1449.375,700.2344 Q1450.2656,701.0469 1451.8594,701.0469 Q1452.7969,701.0469 1453.4531,700.7969 Q1453.8438,700.6406 1454.2656,700.2031 Q1454.5313,699.9375 1454.6719,699.8594 Q1454.8281,699.7813 1455.0313,699.7813 Q1455.3594,699.7813 1455.6094,700.0469 Q1455.875,700.2969 1455.875,700.6406 Q1455.875,700.9844 1455.5313,701.3906 Q1455.0313,701.9688 1454.2344,702.2969 Q1453.1563,702.75 1451.8594,702.75 Q1450.3438,702.75 1449.1406,702.125 Q1448.1563,701.625 1447.4688,700.5625 Q1446.7813,699.4844 1446.7813,698.2031 L1446.7813,697.0469 Q1446.7813,695.7188 1447.3906,694.5781 Q1448.0156,693.4219 1449.1094,692.8125 Q1450.2031,692.1875 1451.4375,692.1875 Q1452.1719,692.1875 1452.8125,692.3594 Q1453.4688,692.5156 1454.0156,692.875 Z " fill="#000000"/><text fill="#000000" font-family="sans-serif" font-size="14" lengthAdjust="spacing" textLength="70" x="1471.75" y="702.7285">EliteEnemy</text><line style="stroke:#181818;stroke-width:0.5;" x1="1262" x2="1719" y1="713" y2="713"/><rect fill="none" height="6" style="stroke:#C82930;stroke-width:1.0;" width="6" x="1269" y="724.3047"/><text fill="#000000" font-family="sans-serif" font-size="14" lengthAdjust="spacing" textLength="86" x="1281" y="731.5332">shootNum :int</text><rect fill="none" height="6" style="stroke:#C82930;stroke-width:1.0;" width="6" x="1269" y="741.9141"/><text fill="#000000" font-family="sans-serif" font-size="14" lengthAdjust="spacing" textLength="61" x="1281" y="749.1426">power: int</text><rect fill="none" height="6" style="stroke:#C82930;stroke-width:1.0;" width="6" x="1269" y="759.5234"/><text fill="#000000" font-family="sans-serif" font-size="14" lengthAdjust="spacing" textLength="77" x="1281" y="766.752">direction: int</text><rect fill="none" height="6" style="stroke:#C82930;stroke-width:1.0;" width="6" x="1269" y="777.1328"/><text fill="#000000" font-family="sans-serif" font-size="14" lengthAdjust="spacing" textLength="90" x="1281" y="784.3613">prop_kind : int</text><rect fill="none" height="6" style="stroke:#C82930;stroke-width:1.0;" width="6" x="1269" y="794.7422"/><text fill="#000000" font-family="sans-serif" font-size="14" lengthAdjust="spacing" textLength="167" x="1281" y="801.9707">propFactory : PropFactory</text><rect fill="none" height="6" style="stroke:#C82930;stroke-width:1.0;" width="6" x="1269" y="812.3516"/><text fill="#000000" font-family="sans-serif" font-size="14" lengthAdjust="spacing" textLength="103" x="1281" y="819.5801">prop : BaseProp</text><rect fill="none" height="6" style="stroke:#C82930;stroke-width:1.0;" width="6" x="1269" y="829.9609"/><text fill="#000000" font-family="sans-serif" font-size="14" lengthAdjust="spacing" text-decoration="underline" textLength="109" x="1281" y="837.1895">random: Random</text><line style="stroke:#181818;stroke-width:0.5;" x1="1262" x2="1719" y1="844.2656" y2="844.2656"/><ellipse cx="1272" cy="858.5703" fill="#84BE84" rx="3" ry="3" style="stroke:#038048;stroke-width:1.0;"/><text fill="#000000" font-family="sans-serif" font-size="14" lengthAdjust="spacing" textLength="433" x="1281" y="862.7988">EliteEnemy(int locationX, int locationY, int speedX, int speedY, int hp)</text><ellipse cx="1272" cy="876.1797" fill="#84BE84" rx="3" ry="3" style="stroke:#038048;stroke-width:1.0;"/><text fill="#000000" font-family="sans-serif" font-size="14" lengthAdjust="spacing" textLength="95" x="1281" y="880.4082">forward() : void</text><ellipse cx="1272" cy="893.7891" fill="#84BE84" rx="3" ry="3" style="stroke:#038048;stroke-width:1.0;"/><text fill="#000000" font-family="sans-serif" font-size="14" lengthAdjust="spacing" textLength="154" x="1281" y="898.0176">shoot():List&lt;BaseBullet&gt;</text><ellipse cx="1272" cy="911.3984" fill="#84BE84" rx="3" ry="3" style="stroke:#038048;stroke-width:1.0;"/><text fill="#000000" font-family="sans-serif" font-size="14" lengthAdjust="spacing" textLength="178" x="1281" y="915.627">generate_prop() : BaseProp</text></g><!--class BaseBullet--><g id="elem_BaseBullet"><rect codeLine="73" fill="#F1F1F1" height="118.4375" id="BaseBullet" rx="2.5" ry="2.5" style="stroke:#181818;stroke-width:0.5;" width="478" x="247.5" y="485"/><ellipse cx="448.75" cy="501" fill="#A9DCDF" rx="11" ry="11" style="stroke:#181818;stroke-width:1.0;"/><path d="M450.9375,502.7656 L446.7969,502.7656 L446.375,503.7969 L446.7969,503.7969 Q447.4063,503.7969 447.6719,504.0313 Q447.9375,504.2656 447.9375,504.6563 Q447.9375,505.0313 447.6719,505.2656 Q447.4063,505.5 446.7969,505.5 L444.5,505.5 Q443.8906,505.5 443.6406,505.2656 Q443.375,505.0313 443.375,504.6406 Q443.375,504.2656 443.6563,504.0313 Q443.9219,503.7813 444.5469,503.7969 L447.2188,497.1406 L446.1094,497.1406 Q445.5,497.1406 445.2344,496.9063 Q444.9688,496.6719 444.9688,496.2813 Q444.9688,495.9063 445.2344,495.6719 Q445.5,495.4375 446.1094,495.4375 L449.7813,495.4375 L453.1719,503.7969 Q453.7656,503.7969 453.9531,503.9375 Q454.3438,504.2031 454.3438,504.6563 Q454.3438,505.0313 454.0781,505.2656 Q453.8281,505.5 453.2188,505.5 L450.9219,505.5 Q450.3125,505.5 450.0469,505.2656 Q449.7813,505.0313 449.7813,504.6406 Q449.7813,504.2656 450.0469,504.0313 Q450.3125,503.7969 450.9219,503.7969 L451.3438,503.7969 L450.9375,502.7656 Z M450.2188,501.0625 L448.8594,497.6875 L447.4844,501.0625 L450.2188,501.0625 Z " fill="#000000"/><text fill="#000000" font-family="sans-serif" font-size="14" font-style="italic" lengthAdjust="spacing" textLength="67" x="469.25" y="506.7285">BaseBullet</text><line style="stroke:#181818;stroke-width:0.5;" x1="248.5" x2="724.5" y1="517" y2="517"/><rect fill="none" height="6" style="stroke:#C82930;stroke-width:1.0;" width="6" x="255.5" y="528.3047"/><text fill="#000000" font-family="sans-serif" font-size="14" lengthAdjust="spacing" textLength="57" x="267.5" y="535.5332">power:int</text><line style="stroke:#181818;stroke-width:0.5;" x1="248.5" x2="724.5" y1="542.6094" y2="542.6094"/><ellipse cx="258.5" cy="556.9141" fill="#84BE84" rx="3" ry="3" style="stroke:#038048;stroke-width:1.0;"/><text fill="#000000" font-family="sans-serif" font-size="14" lengthAdjust="spacing" textLength="452" x="267.5" y="561.1426">BaseBullet(int locationX, int locationY, int speedX, int speedY, int power)</text><ellipse cx="258.5" cy="574.5234" fill="#84BE84" rx="3" ry="3" style="stroke:#038048;stroke-width:1.0;"/><text fill="#000000" font-family="sans-serif" font-size="14" lengthAdjust="spacing" textLength="87" x="267.5" y="578.752">forward():void</text><ellipse cx="258.5" cy="592.1328" fill="#84BE84" rx="3" ry="3" style="stroke:#038048;stroke-width:1.0;"/><text fill="#000000" font-family="sans-serif" font-size="14" lengthAdjust="spacing" textLength="88" x="267.5" y="596.3613">getPower():int</text></g><!--class HeroBullet--><g id="elem_HeroBullet"><rect codeLine="81" fill="#F1F1F1" height="83.2188" id="HeroBullet" rx="2.5" ry="2.5" style="stroke:#181818;stroke-width:0.5;" width="261" x="138" y="760.5"/><ellipse cx="231.75" cy="776.5" fill="#ADD1B2" rx="11" ry="11" style="stroke:#181818;stroke-width:1.0;"/><path d="M234.5156,772.375 Q234.6719,772.1563 234.8594,772.0469 Q235.0469,771.9375 235.2656,771.9375 Q235.6406,771.9375 235.875,772.2031 Q236.1094,772.4531 236.1094,773.0625 L236.1094,774.5156 Q236.1094,775.125 235.875,775.3906 Q235.6406,775.6563 235.2656,775.6563 Q234.9219,775.6563 234.7188,775.4531 Q234.5156,775.2656 234.4063,774.75 Q234.3594,774.3906 234.1719,774.2031 Q233.8438,773.8281 233.2344,773.6094 Q232.625,773.3906 232,773.3906 Q231.2344,773.3906 230.5938,773.7188 Q229.9688,774.0469 229.4688,774.7969 Q228.9844,775.5469 228.9844,776.5781 L228.9844,777.6719 Q228.9844,778.9063 229.875,779.7344 Q230.7656,780.5469 232.3594,780.5469 Q233.2969,780.5469 233.9531,780.2969 Q234.3438,780.1406 234.7656,779.7031 Q235.0313,779.4375 235.1719,779.3594 Q235.3281,779.2813 235.5313,779.2813 Q235.8594,779.2813 236.1094,779.5469 Q236.375,779.7969 236.375,780.1406 Q236.375,780.4844 236.0313,780.8906 Q235.5313,781.4688 234.7344,781.7969 Q233.6563,782.25 232.3594,782.25 Q230.8438,782.25 229.6406,781.625 Q228.6563,781.125 227.9688,780.0625 Q227.2813,778.9844 227.2813,777.7031 L227.2813,776.5469 Q227.2813,775.2188 227.8906,774.0781 Q228.5156,772.9219 229.6094,772.3125 Q230.7031,771.6875 231.9375,771.6875 Q232.6719,771.6875 233.3125,771.8594 Q233.9688,772.0156 234.5156,772.375 Z " fill="#000000"/><text fill="#000000" font-family="sans-serif" font-size="14" lengthAdjust="spacing" textLength="65" x="252.25" y="782.2285">HeroBullet</text><line style="stroke:#181818;stroke-width:0.5;" x1="139" x2="398" y1="792.5" y2="792.5"/><line style="stroke:#181818;stroke-width:0.5;" x1="139" x2="398" y1="800.5" y2="800.5"/><ellipse cx="149" cy="814.8047" fill="#84BE84" rx="3" ry="3" style="stroke:#038048;stroke-width:1.0;"/><text fill="#000000" font-family="sans-serif" font-size="14" lengthAdjust="spacing" textLength="235" x="158" y="819.0332">HeroBullet(int locationX, int locationY,</text><text fill="#000000" font-family="sans-serif" font-size="14" lengthAdjust="spacing" textLength="211" x="158" y="836.6426">int speedX, int speedY, int power)</text></g><!--class EnemyBullet--><g id="elem_EnemyBullet"><rect codeLine="86" fill="#F1F1F1" height="83.2188" id="EnemyBullet" rx="2.5" ry="2.5" style="stroke:#181818;stroke-width:0.5;" width="274" x="434.5" y="760.5"/><ellipse cx="528.25" cy="776.5" fill="#ADD1B2" rx="11" ry="11" style="stroke:#181818;stroke-width:1.0;"/><path d="M531.0156,772.375 Q531.1719,772.1563 531.3594,772.0469 Q531.5469,771.9375 531.7656,771.9375 Q532.1406,771.9375 532.375,772.2031 Q532.6094,772.4531 532.6094,773.0625 L532.6094,774.5156 Q532.6094,775.125 532.375,775.3906 Q532.1406,775.6563 531.7656,775.6563 Q531.4219,775.6563 531.2188,775.4531 Q531.0156,775.2656 530.9063,774.75 Q530.8594,774.3906 530.6719,774.2031 Q530.3438,773.8281 529.7344,773.6094 Q529.125,773.3906 528.5,773.3906 Q527.7344,773.3906 527.0938,773.7188 Q526.4688,774.0469 525.9688,774.7969 Q525.4844,775.5469 525.4844,776.5781 L525.4844,777.6719 Q525.4844,778.9063 526.375,779.7344 Q527.2656,780.5469 528.8594,780.5469 Q529.7969,780.5469 530.4531,780.2969 Q530.8438,780.1406 531.2656,779.7031 Q531.5313,779.4375 531.6719,779.3594 Q531.8281,779.2813 532.0313,779.2813 Q532.3594,779.2813 532.6094,779.5469 Q532.875,779.7969 532.875,780.1406 Q532.875,780.4844 532.5313,780.8906 Q532.0313,781.4688 531.2344,781.7969 Q530.1563,782.25 528.8594,782.25 Q527.3438,782.25 526.1406,781.625 Q525.1563,781.125 524.4688,780.0625 Q523.7813,778.9844 523.7813,777.7031 L523.7813,776.5469 Q523.7813,775.2188 524.3906,774.0781 Q525.0156,772.9219 526.1094,772.3125 Q527.2031,771.6875 528.4375,771.6875 Q529.1719,771.6875 529.8125,771.8594 Q530.4688,772.0156 531.0156,772.375 Z " fill="#000000"/><text fill="#000000" font-family="sans-serif" font-size="14" lengthAdjust="spacing" textLength="78" x="548.75" y="782.2285">EnemyBullet</text><line style="stroke:#181818;stroke-width:0.5;" x1="435.5" x2="707.5" y1="792.5" y2="792.5"/><line style="stroke:#181818;stroke-width:0.5;" x1="435.5" x2="707.5" y1="800.5" y2="800.5"/><ellipse cx="445.5" cy="814.8047" fill="#84BE84" rx="3" ry="3" style="stroke:#038048;stroke-width:1.0;"/><text fill="#000000" font-family="sans-serif" font-size="14" lengthAdjust="spacing" textLength="248" x="454.5" y="819.0332">EnemyBullet(int locationX, int locationY,</text><text fill="#000000" font-family="sans-serif" font-size="14" lengthAdjust="spacing" textLength="211" x="454.5" y="836.6426">int speedX, int speedY, int power)</text></g><!--class BaseProp--><g id="elem_BaseProp"><rect codeLine="97" fill="#F1F1F1" height="100.8281" id="BaseProp" rx="2.5" ry="2.5" style="stroke:#181818;stroke-width:0.5;" width="408" x="535.5" y="1109"/><ellipse cx="704.25" cy="1125" fill="#A9DCDF" rx="11" ry="11" style="stroke:#181818;stroke-width:1.0;"/><path d="M706.4375,1126.7656 L702.2969,1126.7656 L701.875,1127.7969 L702.2969,1127.7969 Q702.9063,1127.7969 703.1719,1128.0313 Q703.4375,1128.2656 703.4375,1128.6563 Q703.4375,1129.0313 703.1719,1129.2656 Q702.9063,1129.5 702.2969,1129.5 L700,1129.5 Q699.3906,1129.5 699.1406,1129.2656 Q698.875,1129.0313 698.875,1128.6406 Q698.875,1128.2656 699.1563,1128.0313 Q699.4219,1127.7813 700.0469,1127.7969 L702.7188,1121.1406 L701.6094,1121.1406 Q701,1121.1406 700.7344,1120.9063 Q700.4688,1120.6719 700.4688,1120.2813 Q700.4688,1119.9063 700.7344,1119.6719 Q701,1119.4375 701.6094,1119.4375 L705.2813,1119.4375 L708.6719,1127.7969 Q709.2656,1127.7969 709.4531,1127.9375 Q709.8438,1128.2031 709.8438,1128.6563 Q709.8438,1129.0313 709.5781,1129.2656 Q709.3281,1129.5 708.7188,1129.5 L706.4219,1129.5 Q705.8125,1129.5 705.5469,1129.2656 Q705.2813,1129.0313 705.2813,1128.6406 Q705.2813,1128.2656 705.5469,1128.0313 Q705.8125,1127.7969 706.4219,1127.7969 L706.8438,1127.7969 L706.4375,1126.7656 Z M705.7188,1125.0625 L704.3594,1121.6875 L702.9844,1125.0625 L705.7188,1125.0625 Z " fill="#000000"/><text fill="#000000" font-family="sans-serif" font-size="14" font-style="italic" lengthAdjust="spacing" textLength="62" x="724.75" y="1130.7285">BaseProp</text><line style="stroke:#181818;stroke-width:0.5;" x1="536.5" x2="942.5" y1="1141" y2="1141"/><line style="stroke:#181818;stroke-width:0.5;" x1="536.5" x2="942.5" y1="1149" y2="1149"/><ellipse cx="546.5" cy="1163.3047" fill="#84BE84" rx="3" ry="3" style="stroke:#038048;stroke-width:1.0;"/><text fill="#000000" font-family="sans-serif" font-size="14" lengthAdjust="spacing" textLength="382" x="555.5" y="1167.5332">BaseProp(int locationX, int locationY, int speedX, int speedY)</text><ellipse cx="546.5" cy="1180.9141" fill="#84BE84" rx="3" ry="3" style="stroke:#038048;stroke-width:1.0;"/><text fill="#000000" font-family="sans-serif" font-size="14" lengthAdjust="spacing" textLength="91" x="555.5" y="1185.1426">forward(): void</text><ellipse cx="546.5" cy="1198.5234" fill="#84BE84" rx="3" ry="3" style="stroke:#038048;stroke-width:1.0;"/><text fill="#000000" font-family="sans-serif" font-size="14" font-style="italic" lengthAdjust="spacing" textLength="182" x="555.5" y="1202.752">work(HeroAircraft hero): void</text></g><!--class BloodProp--><g id="elem_BloodProp"><rect codeLine="104" fill="#F1F1F1" height="118.4375" id="BloodProp" rx="2.5" ry="2.5" style="stroke:#181818;stroke-width:0.5;" width="412" x="675.5" y="1270"/><ellipse cx="844.25" cy="1286" fill="#ADD1B2" rx="11" ry="11" style="stroke:#181818;stroke-width:1.0;"/><path d="M847.0156,1281.875 Q847.1719,1281.6563 847.3594,1281.5469 Q847.5469,1281.4375 847.7656,1281.4375 Q848.1406,1281.4375 848.375,1281.7031 Q848.6094,1281.9531 848.6094,1282.5625 L848.6094,1284.0156 Q848.6094,1284.625 848.375,1284.8906 Q848.1406,1285.1563 847.7656,1285.1563 Q847.4219,1285.1563 847.2188,1284.9531 Q847.0156,1284.7656 846.9063,1284.25 Q846.8594,1283.8906 846.6719,1283.7031 Q846.3438,1283.3281 845.7344,1283.1094 Q845.125,1282.8906 844.5,1282.8906 Q843.7344,1282.8906 843.0938,1283.2188 Q842.4688,1283.5469 841.9688,1284.2969 Q841.4844,1285.0469 841.4844,1286.0781 L841.4844,1287.1719 Q841.4844,1288.4063 842.375,1289.2344 Q843.2656,1290.0469 844.8594,1290.0469 Q845.7969,1290.0469 846.4531,1289.7969 Q846.8438,1289.6406 847.2656,1289.2031 Q847.5313,1288.9375 847.6719,1288.8594 Q847.8281,1288.7813 848.0313,1288.7813 Q848.3594,1288.7813 848.6094,1289.0469 Q848.875,1289.2969 848.875,1289.6406 Q848.875,1289.9844 848.5313,1290.3906 Q848.0313,1290.9688 847.2344,1291.2969 Q846.1563,1291.75 844.8594,1291.75 Q843.3438,1291.75 842.1406,1291.125 Q841.1563,1290.625 840.4688,1289.5625 Q839.7813,1288.4844 839.7813,1287.2031 L839.7813,1286.0469 Q839.7813,1284.7188 840.3906,1283.5781 Q841.0156,1282.4219 842.1094,1281.8125 Q843.2031,1281.1875 844.4375,1281.1875 Q845.1719,1281.1875 845.8125,1281.3594 Q846.4688,1281.5156 847.0156,1281.875 Z " fill="#000000"/><text fill="#000000" font-family="sans-serif" font-size="14" lengthAdjust="spacing" textLength="66" x="864.75" y="1291.7285">BloodProp</text><line style="stroke:#181818;stroke-width:0.5;" x1="676.5" x2="1086.5" y1="1302" y2="1302"/><rect fill="none" height="6" style="stroke:#C82930;stroke-width:1.0;" width="6" x="683.5" y="1313.3047"/><text fill="#000000" font-family="sans-serif" font-size="14" lengthAdjust="spacing" textLength="90" x="695.5" y="1320.5332">add_blood :int</text><line style="stroke:#181818;stroke-width:0.5;" x1="676.5" x2="1086.5" y1="1327.6094" y2="1327.6094"/><ellipse cx="686.5" cy="1341.9141" fill="#84BE84" rx="3" ry="3" style="stroke:#038048;stroke-width:1.0;"/><text fill="#000000" font-family="sans-serif" font-size="14" lengthAdjust="spacing" textLength="386" x="695.5" y="1346.1426">BloodProp(int locationX, int locationY, int speedX, int speedY)</text><ellipse cx="686.5" cy="1359.5234" fill="#84BE84" rx="3" ry="3" style="stroke:#038048;stroke-width:1.0;"/><text fill="#000000" font-family="sans-serif" font-size="14" lengthAdjust="spacing" textLength="122" x="695.5" y="1363.752">get_AddBlood(): int</text><ellipse cx="686.5" cy="1377.1328" fill="#84BE84" rx="3" ry="3" style="stroke:#038048;stroke-width:1.0;"/><text fill="#000000" font-family="sans-serif" font-size="14" lengthAdjust="spacing" textLength="181" x="695.5" y="1381.3613">work(HeroAircraft hero): void</text></g><!--class BombProp--><g id="elem_BombProp"><rect codeLine="110" fill="#F1F1F1" height="83.2188" id="BombProp" rx="2.5" ry="2.5" style="stroke:#181818;stroke-width:0.5;" width="412" x="1406.5" y="1287.5"/><ellipse cx="1575.25" cy="1303.5" fill="#ADD1B2" rx="11" ry="11" style="stroke:#181818;stroke-width:1.0;"/><path d="M1578.0156,1299.375 Q1578.1719,1299.1563 1578.3594,1299.0469 Q1578.5469,1298.9375 1578.7656,1298.9375 Q1579.1406,1298.9375 1579.375,1299.2031 Q1579.6094,1299.4531 1579.6094,1300.0625 L1579.6094,1301.5156 Q1579.6094,1302.125 1579.375,1302.3906 Q1579.1406,1302.6563 1578.7656,1302.6563 Q1578.4219,1302.6563 1578.2188,1302.4531 Q1578.0156,1302.2656 1577.9063,1301.75 Q1577.8594,1301.3906 1577.6719,1301.2031 Q1577.3438,1300.8281 1576.7344,1300.6094 Q1576.125,1300.3906 1575.5,1300.3906 Q1574.7344,1300.3906 1574.0938,1300.7188 Q1573.4688,1301.0469 1572.9688,1301.7969 Q1572.4844,1302.5469 1572.4844,1303.5781 L1572.4844,1304.6719 Q1572.4844,1305.9063 1573.375,1306.7344 Q1574.2656,1307.5469 1575.8594,1307.5469 Q1576.7969,1307.5469 1577.4531,1307.2969 Q1577.8438,1307.1406 1578.2656,1306.7031 Q1578.5313,1306.4375 1578.6719,1306.3594 Q1578.8281,1306.2813 1579.0313,1306.2813 Q1579.3594,1306.2813 1579.6094,1306.5469 Q1579.875,1306.7969 1579.875,1307.1406 Q1579.875,1307.4844 1579.5313,1307.8906 Q1579.0313,1308.4688 1578.2344,1308.7969 Q1577.1563,1309.25 1575.8594,1309.25 Q1574.3438,1309.25 1573.1406,1308.625 Q1572.1563,1308.125 1571.4688,1307.0625 Q1570.7813,1305.9844 1570.7813,1304.7031 L1570.7813,1303.5469 Q1570.7813,1302.2188 1571.3906,1301.0781 Q1572.0156,1299.9219 1573.1094,1299.3125 Q1574.2031,1298.6875 1575.4375,1298.6875 Q1576.1719,1298.6875 1576.8125,1298.8594 Q1577.4688,1299.0156 1578.0156,1299.375 Z " fill="#000000"/><text fill="#000000" font-family="sans-serif" font-size="14" lengthAdjust="spacing" textLength="66" x="1595.75" y="1309.2285">BombProp</text><line style="stroke:#181818;stroke-width:0.5;" x1="1407.5" x2="1817.5" y1="1319.5" y2="1319.5"/><line style="stroke:#181818;stroke-width:0.5;" x1="1407.5" x2="1817.5" y1="1327.5" y2="1327.5"/><ellipse cx="1417.5" cy="1341.8047" fill="#84BE84" rx="3" ry="3" style="stroke:#038048;stroke-width:1.0;"/><text fill="#000000" font-family="sans-serif" font-size="14" lengthAdjust="spacing" textLength="386" x="1426.5" y="1346.0332">BombProp(int locationX, int locationY, int speedX, int speedY)</text><ellipse cx="1417.5" cy="1359.4141" fill="#84BE84" rx="3" ry="3" style="stroke:#038048;stroke-width:1.0;"/><text fill="#000000" font-family="sans-serif" font-size="14" lengthAdjust="spacing" textLength="181" x="1426.5" y="1363.6426">work(HeroAircraft hero): void</text></g><!--class BulletProp--><g id="elem_BulletProp"><rect codeLine="115" fill="#F1F1F1" height="83.2188" id="BulletProp" rx="2.5" ry="2.5" style="stroke:#181818;stroke-width:0.5;" width="411" x="210" y="1287.5"/><ellipse cx="378.75" cy="1303.5" fill="#ADD1B2" rx="11" ry="11" style="stroke:#181818;stroke-width:1.0;"/><path d="M381.5156,1299.375 Q381.6719,1299.1563 381.8594,1299.0469 Q382.0469,1298.9375 382.2656,1298.9375 Q382.6406,1298.9375 382.875,1299.2031 Q383.1094,1299.4531 383.1094,1300.0625 L383.1094,1301.5156 Q383.1094,1302.125 382.875,1302.3906 Q382.6406,1302.6563 382.2656,1302.6563 Q381.9219,1302.6563 381.7188,1302.4531 Q381.5156,1302.2656 381.4063,1301.75 Q381.3594,1301.3906 381.1719,1301.2031 Q380.8438,1300.8281 380.2344,1300.6094 Q379.625,1300.3906 379,1300.3906 Q378.2344,1300.3906 377.5938,1300.7188 Q376.9688,1301.0469 376.4688,1301.7969 Q375.9844,1302.5469 375.9844,1303.5781 L375.9844,1304.6719 Q375.9844,1305.9063 376.875,1306.7344 Q377.7656,1307.5469 379.3594,1307.5469 Q380.2969,1307.5469 380.9531,1307.2969 Q381.3438,1307.1406 381.7656,1306.7031 Q382.0313,1306.4375 382.1719,1306.3594 Q382.3281,1306.2813 382.5313,1306.2813 Q382.8594,1306.2813 383.1094,1306.5469 Q383.375,1306.7969 383.375,1307.1406 Q383.375,1307.4844 383.0313,1307.8906 Q382.5313,1308.4688 381.7344,1308.7969 Q380.6563,1309.25 379.3594,1309.25 Q377.8438,1309.25 376.6406,1308.625 Q375.6563,1308.125 374.9688,1307.0625 Q374.2813,1305.9844 374.2813,1304.7031 L374.2813,1303.5469 Q374.2813,1302.2188 374.8906,1301.0781 Q375.5156,1299.9219 376.6094,1299.3125 Q377.7031,1298.6875 378.9375,1298.6875 Q379.6719,1298.6875 380.3125,1298.8594 Q380.9688,1299.0156 381.5156,1299.375 Z " fill="#000000"/><text fill="#000000" font-family="sans-serif" font-size="14" lengthAdjust="spacing" textLength="65" x="399.25" y="1309.2285">BulletProp</text><line style="stroke:#181818;stroke-width:0.5;" x1="211" x2="620" y1="1319.5" y2="1319.5"/><line style="stroke:#181818;stroke-width:0.5;" x1="211" x2="620" y1="1327.5" y2="1327.5"/><ellipse cx="221" cy="1341.8047" fill="#84BE84" rx="3" ry="3" style="stroke:#038048;stroke-width:1.0;"/><text fill="#000000" font-family="sans-serif" font-size="14" lengthAdjust="spacing" textLength="385" x="230" y="1346.0332">BulletProp(int locationX, int locationY, int speedX, int speedY)</text><ellipse cx="221" cy="1359.4141" fill="#84BE84" rx="3" ry="3" style="stroke:#038048;stroke-width:1.0;"/><text fill="#000000" font-family="sans-serif" font-size="14" lengthAdjust="spacing" textLength="181" x="230" y="1363.6426">work(HeroAircraft hero): void</text></g><!--class EnemyFactory--><g id="elem_EnemyFactory"><rect codeLine="129" fill="#F1F1F1" height="65.6094" id="EnemyFactory" rx="2.5" ry="2.5" style="stroke:#181818;stroke-width:0.5;" width="228" x="1622.5" y="174"/><ellipse cx="1686.75" cy="190" fill="#B4A7E5" rx="11" ry="11" style="stroke:#181818;stroke-width:1.0;"/><path d="M1687.7031,186.6406 L1687.7031,193.2969 L1689.4219,193.2969 Q1690.0313,193.2969 1690.2969,193.5313 Q1690.5625,193.7656 1690.5625,194.1563 Q1690.5625,194.5313 1690.2969,194.7656 Q1690.0313,195 1689.4219,195 L1684.2813,195 Q1683.6719,195 1683.4063,194.7656 Q1683.1406,194.5313 1683.1406,194.1406 Q1683.1406,193.7656 1683.4063,193.5313 Q1683.6719,193.2969 1684.2813,193.2969 L1686,193.2969 L1686,186.6406 L1684.2813,186.6406 Q1683.6719,186.6406 1683.4063,186.4063 Q1683.1406,186.1719 1683.1406,185.7813 Q1683.1406,185.4063 1683.4063,185.1719 Q1683.6719,184.9375 1684.2813,184.9375 L1689.4219,184.9375 Q1690.0313,184.9375 1690.2969,185.1719 Q1690.5625,185.4063 1690.5625,185.7813 Q1690.5625,186.1719 1690.2969,186.4063 Q1690.0313,186.6406 1689.4219,186.6406 L1687.7031,186.6406 Z " fill="#000000"/><text fill="#000000" font-family="sans-serif" font-size="14" font-style="italic" lengthAdjust="spacing" textLength="91" x="1707.25" y="195.7285">EnemyFactory</text><line style="stroke:#181818;stroke-width:0.5;" x1="1623.5" x2="1849.5" y1="206" y2="206"/><line style="stroke:#181818;stroke-width:0.5;" x1="1623.5" x2="1849.5" y1="214" y2="214"/><ellipse cx="1633.5" cy="228.3047" fill="#84BE84" rx="3" ry="3" style="stroke:#038048;stroke-width:1.0;"/><text fill="#000000" font-family="sans-serif" font-size="14" font-style="italic" lengthAdjust="spacing" textLength="202" x="1642.5" y="232.5332">createEnemy() : AbstractAircraft</text></g><!--class MobFactory--><g id="elem_MobFactory"><rect codeLine="133" fill="#F1F1F1" height="65.6094" id="MobFactory" rx="2.5" ry="2.5" style="stroke:#181818;stroke-width:0.5;" width="197" x="1820" y="511"/><ellipse cx="1876.75" cy="527" fill="#ADD1B2" rx="11" ry="11" style="stroke:#181818;stroke-width:1.0;"/><path d="M1879.5156,522.875 Q1879.6719,522.6563 1879.8594,522.5469 Q1880.0469,522.4375 1880.2656,522.4375 Q1880.6406,522.4375 1880.875,522.7031 Q1881.1094,522.9531 1881.1094,523.5625 L1881.1094,525.0156 Q1881.1094,525.625 1880.875,525.8906 Q1880.6406,526.1563 1880.2656,526.1563 Q1879.9219,526.1563 1879.7188,525.9531 Q1879.5156,525.7656 1879.4063,525.25 Q1879.3594,524.8906 1879.1719,524.7031 Q1878.8438,524.3281 1878.2344,524.1094 Q1877.625,523.8906 1877,523.8906 Q1876.2344,523.8906 1875.5938,524.2188 Q1874.9688,524.5469 1874.4688,525.2969 Q1873.9844,526.0469 1873.9844,527.0781 L1873.9844,528.1719 Q1873.9844,529.4063 1874.875,530.2344 Q1875.7656,531.0469 1877.3594,531.0469 Q1878.2969,531.0469 1878.9531,530.7969 Q1879.3438,530.6406 1879.7656,530.2031 Q1880.0313,529.9375 1880.1719,529.8594 Q1880.3281,529.7813 1880.5313,529.7813 Q1880.8594,529.7813 1881.1094,530.0469 Q1881.375,530.2969 1881.375,530.6406 Q1881.375,530.9844 1881.0313,531.3906 Q1880.5313,531.9688 1879.7344,532.2969 Q1878.6563,532.75 1877.3594,532.75 Q1875.8438,532.75 1874.6406,532.125 Q1873.6563,531.625 1872.9688,530.5625 Q1872.2813,529.4844 1872.2813,528.2031 L1872.2813,527.0469 Q1872.2813,525.7188 1872.8906,524.5781 Q1873.5156,523.4219 1874.6094,522.8125 Q1875.7031,522.1875 1876.9375,522.1875 Q1877.6719,522.1875 1878.3125,522.3594 Q1878.9688,522.5156 1879.5156,522.875 Z " fill="#000000"/><text fill="#000000" font-family="sans-serif" font-size="14" lengthAdjust="spacing" textLength="75" x="1897.25" y="532.7285">MobFactory</text><line style="stroke:#181818;stroke-width:0.5;" x1="1821" x2="2016" y1="543" y2="543"/><line style="stroke:#181818;stroke-width:0.5;" x1="1821" x2="2016" y1="551" y2="551"/><ellipse cx="1831" cy="565.3047" fill="#84BE84" rx="3" ry="3" style="stroke:#038048;stroke-width:1.0;"/><text fill="#000000" font-family="sans-serif" font-size="14" lengthAdjust="spacing" textLength="171" x="1840" y="569.5332">createEnemy(): MobEnemy</text></g><!--class EliteFactory--><g id="elem_EliteFactory"><rect codeLine="136" fill="#F1F1F1" height="65.6094" id="EliteFactory" rx="2.5" ry="2.5" style="stroke:#181818;stroke-width:0.5;" width="197" x="1457" y="511"/><ellipse cx="1513.75" cy="527" fill="#ADD1B2" rx="11" ry="11" style="stroke:#181818;stroke-width:1.0;"/><path d="M1516.5156,522.875 Q1516.6719,522.6563 1516.8594,522.5469 Q1517.0469,522.4375 1517.2656,522.4375 Q1517.6406,522.4375 1517.875,522.7031 Q1518.1094,522.9531 1518.1094,523.5625 L1518.1094,525.0156 Q1518.1094,525.625 1517.875,525.8906 Q1517.6406,526.1563 1517.2656,526.1563 Q1516.9219,526.1563 1516.7188,525.9531 Q1516.5156,525.7656 1516.4063,525.25 Q1516.3594,524.8906 1516.1719,524.7031 Q1515.8438,524.3281 1515.2344,524.1094 Q1514.625,523.8906 1514,523.8906 Q1513.2344,523.8906 1512.5938,524.2188 Q1511.9688,524.5469 1511.4688,525.2969 Q1510.9844,526.0469 1510.9844,527.0781 L1510.9844,528.1719 Q1510.9844,529.4063 1511.875,530.2344 Q1512.7656,531.0469 1514.3594,531.0469 Q1515.2969,531.0469 1515.9531,530.7969 Q1516.3438,530.6406 1516.7656,530.2031 Q1517.0313,529.9375 1517.1719,529.8594 Q1517.3281,529.7813 1517.5313,529.7813 Q1517.8594,529.7813 1518.1094,530.0469 Q1518.375,530.2969 1518.375,530.6406 Q1518.375,530.9844 1518.0313,531.3906 Q1517.5313,531.9688 1516.7344,532.2969 Q1515.6563,532.75 1514.3594,532.75 Q1512.8438,532.75 1511.6406,532.125 Q1510.6563,531.625 1509.9688,530.5625 Q1509.2813,529.4844 1509.2813,528.2031 L1509.2813,527.0469 Q1509.2813,525.7188 1509.8906,524.5781 Q1510.5156,523.4219 1511.6094,522.8125 Q1512.7031,522.1875 1513.9375,522.1875 Q1514.6719,522.1875 1515.3125,522.3594 Q1515.9688,522.5156 1516.5156,522.875 Z " fill="#000000"/><text fill="#000000" font-family="sans-serif" font-size="14" lengthAdjust="spacing" textLength="75" x="1534.25" y="532.7285">EliteFactory</text><line style="stroke:#181818;stroke-width:0.5;" x1="1458" x2="1653" y1="543" y2="543"/><line style="stroke:#181818;stroke-width:0.5;" x1="1458" x2="1653" y1="551" y2="551"/><ellipse cx="1468" cy="565.3047" fill="#84BE84" rx="3" ry="3" style="stroke:#038048;stroke-width:1.0;"/><text fill="#000000" font-family="sans-serif" font-size="14" lengthAdjust="spacing" textLength="171" x="1477" y="569.5332">createEnemy(): EliteEnemy</text></g><!--class PropFactory--><g id="elem_PropFactory"><rect codeLine="147" fill="#F1F1F1" height="65.6094" id="PropFactory" rx="2.5" ry="2.5" style="stroke:#181818;stroke-width:0.5;" width="492" x="1244.5" y="983"/><ellipse cx="1447.25" cy="999" fill="#B4A7E5" rx="11" ry="11" style="stroke:#181818;stroke-width:1.0;"/><path d="M1448.2031,995.6406 L1448.2031,1002.2969 L1449.9219,1002.2969 Q1450.5313,1002.2969 1450.7969,1002.5313 Q1451.0625,1002.7656 1451.0625,1003.1563 Q1451.0625,1003.5313 1450.7969,1003.7656 Q1450.5313,1004 1449.9219,1004 L1444.7813,1004 Q1444.1719,1004 1443.9063,1003.7656 Q1443.6406,1003.5313 1443.6406,1003.1406 Q1443.6406,1002.7656 1443.9063,1002.5313 Q1444.1719,1002.2969 1444.7813,1002.2969 L1446.5,1002.2969 L1446.5,995.6406 L1444.7813,995.6406 Q1444.1719,995.6406 1443.9063,995.4063 Q1443.6406,995.1719 1443.6406,994.7813 Q1443.6406,994.4063 1443.9063,994.1719 Q1444.1719,993.9375 1444.7813,993.9375 L1449.9219,993.9375 Q1450.5313,993.9375 1450.7969,994.1719 Q1451.0625,994.4063 1451.0625,994.7813 Q1451.0625,995.1719 1450.7969,995.4063 Q1450.5313,995.6406 1449.9219,995.6406 L1448.2031,995.6406 Z " fill="#000000"/><text fill="#000000" font-family="sans-serif" font-size="14" font-style="italic" lengthAdjust="spacing" textLength="78" x="1467.75" y="1004.7285">PropFactory</text><line style="stroke:#181818;stroke-width:0.5;" x1="1245.5" x2="1735.5" y1="1015" y2="1015"/><line style="stroke:#181818;stroke-width:0.5;" x1="1245.5" x2="1735.5" y1="1023" y2="1023"/><ellipse cx="1255.5" cy="1037.3047" fill="#84BE84" rx="3" ry="3" style="stroke:#038048;stroke-width:1.0;"/><text fill="#000000" font-family="sans-serif" font-size="14" font-style="italic" lengthAdjust="spacing" textLength="466" x="1264.5" y="1041.5332">createProp(int locationX, int locationY, int speedX, int speedY) : BaseProp</text></g><!--class BulletFactory--><g id="elem_BulletFactory"><rect codeLine="151" fill="#F1F1F1" height="65.6094" id="BulletFactory" rx="2.5" ry="2.5" style="stroke:#181818;stroke-width:0.5;" width="493" x="7" y="1126.5"/><ellipse cx="207.75" cy="1142.5" fill="#ADD1B2" rx="11" ry="11" style="stroke:#181818;stroke-width:1.0;"/><path d="M210.5156,1138.375 Q210.6719,1138.1563 210.8594,1138.0469 Q211.0469,1137.9375 211.2656,1137.9375 Q211.6406,1137.9375 211.875,1138.2031 Q212.1094,1138.4531 212.1094,1139.0625 L212.1094,1140.5156 Q212.1094,1141.125 211.875,1141.3906 Q211.6406,1141.6563 211.2656,1141.6563 Q210.9219,1141.6563 210.7188,1141.4531 Q210.5156,1141.2656 210.4063,1140.75 Q210.3594,1140.3906 210.1719,1140.2031 Q209.8438,1139.8281 209.2344,1139.6094 Q208.625,1139.3906 208,1139.3906 Q207.2344,1139.3906 206.5938,1139.7188 Q205.9688,1140.0469 205.4688,1140.7969 Q204.9844,1141.5469 204.9844,1142.5781 L204.9844,1143.6719 Q204.9844,1144.9063 205.875,1145.7344 Q206.7656,1146.5469 208.3594,1146.5469 Q209.2969,1146.5469 209.9531,1146.2969 Q210.3438,1146.1406 210.7656,1145.7031 Q211.0313,1145.4375 211.1719,1145.3594 Q211.3281,1145.2813 211.5313,1145.2813 Q211.8594,1145.2813 212.1094,1145.5469 Q212.375,1145.7969 212.375,1146.1406 Q212.375,1146.4844 212.0313,1146.8906 Q211.5313,1147.4688 210.7344,1147.7969 Q209.6563,1148.25 208.3594,1148.25 Q206.8438,1148.25 205.6406,1147.625 Q204.6563,1147.125 203.9688,1146.0625 Q203.2813,1144.9844 203.2813,1143.7031 L203.2813,1142.5469 Q203.2813,1141.2188 203.8906,1140.0781 Q204.5156,1138.9219 205.6094,1138.3125 Q206.7031,1137.6875 207.9375,1137.6875 Q208.6719,1137.6875 209.3125,1137.8594 Q209.9688,1138.0156 210.5156,1138.375 Z " fill="#000000"/><text fill="#000000" font-family="sans-serif" font-size="14" lengthAdjust="spacing" textLength="83" x="228.25" y="1148.2285">BulletFactory</text><line style="stroke:#181818;stroke-width:0.5;" x1="8" x2="499" y1="1158.5" y2="1158.5"/><line style="stroke:#181818;stroke-width:0.5;" x1="8" x2="499" y1="1166.5" y2="1166.5"/><ellipse cx="18" cy="1180.8047" fill="#84BE84" rx="3" ry="3" style="stroke:#038048;stroke-width:1.0;"/><text fill="#000000" font-family="sans-serif" font-size="14" lengthAdjust="spacing" textLength="467" x="27" y="1185.0332">createProp(int locationX, int locationY, int speedX, int speedY) : BulletProp</text></g><!--class BombFactory--><g id="elem_BombFactory"><rect codeLine="155" fill="#F1F1F1" height="65.6094" id="BombFactory" rx="2.5" ry="2.5" style="stroke:#181818;stroke-width:0.5;" width="494" x="1507.5" y="1126.5"/><ellipse cx="1708.25" cy="1142.5" fill="#ADD1B2" rx="11" ry="11" style="stroke:#181818;stroke-width:1.0;"/><path d="M1711.0156,1138.375 Q1711.1719,1138.1563 1711.3594,1138.0469 Q1711.5469,1137.9375 1711.7656,1137.9375 Q1712.1406,1137.9375 1712.375,1138.2031 Q1712.6094,1138.4531 1712.6094,1139.0625 L1712.6094,1140.5156 Q1712.6094,1141.125 1712.375,1141.3906 Q1712.1406,1141.6563 1711.7656,1141.6563 Q1711.4219,1141.6563 1711.2188,1141.4531 Q1711.0156,1141.2656 1710.9063,1140.75 Q1710.8594,1140.3906 1710.6719,1140.2031 Q1710.3438,1139.8281 1709.7344,1139.6094 Q1709.125,1139.3906 1708.5,1139.3906 Q1707.7344,1139.3906 1707.0938,1139.7188 Q1706.4688,1140.0469 1705.9688,1140.7969 Q1705.4844,1141.5469 1705.4844,1142.5781 L1705.4844,1143.6719 Q1705.4844,1144.9063 1706.375,1145.7344 Q1707.2656,1146.5469 1708.8594,1146.5469 Q1709.7969,1146.5469 1710.4531,1146.2969 Q1710.8438,1146.1406 1711.2656,1145.7031 Q1711.5313,1145.4375 1711.6719,1145.3594 Q1711.8281,1145.2813 1712.0313,1145.2813 Q1712.3594,1145.2813 1712.6094,1145.5469 Q1712.875,1145.7969 1712.875,1146.1406 Q1712.875,1146.4844 1712.5313,1146.8906 Q1712.0313,1147.4688 1711.2344,1147.7969 Q1710.1563,1148.25 1708.8594,1148.25 Q1707.3438,1148.25 1706.1406,1147.625 Q1705.1563,1147.125 1704.4688,1146.0625 Q1703.7813,1144.9844 1703.7813,1143.7031 L1703.7813,1142.5469 Q1703.7813,1141.2188 1704.3906,1140.0781 Q1705.0156,1138.9219 1706.1094,1138.3125 Q1707.2031,1137.6875 1708.4375,1137.6875 Q1709.1719,1137.6875 1709.8125,1137.8594 Q1710.4688,1138.0156 1711.0156,1138.375 Z " fill="#000000"/><text fill="#000000" font-family="sans-serif" font-size="14" lengthAdjust="spacing" textLength="84" x="1728.75" y="1148.2285">BombFactory</text><line style="stroke:#181818;stroke-width:0.5;" x1="1508.5" x2="2000.5" y1="1158.5" y2="1158.5"/><line style="stroke:#181818;stroke-width:0.5;" x1="1508.5" x2="2000.5" y1="1166.5" y2="1166.5"/><ellipse cx="1518.5" cy="1180.8047" fill="#84BE84" rx="3" ry="3" style="stroke:#038048;stroke-width:1.0;"/><text fill="#000000" font-family="sans-serif" font-size="14" lengthAdjust="spacing" textLength="468" x="1527.5" y="1185.0332">createProp(int locationX, int locationY, int speedX, int speedY) : BombProp</text></g><!--class BloodFactory--><g id="elem_BloodFactory"><rect codeLine="158" fill="#F1F1F1" height="65.6094" id="BloodFactory" rx="2.5" ry="2.5" style="stroke:#181818;stroke-width:0.5;" width="494" x="978.5" y="1126.5"/><ellipse cx="1179.25" cy="1142.5" fill="#ADD1B2" rx="11" ry="11" style="stroke:#181818;stroke-width:1.0;"/><path d="M1182.0156,1138.375 Q1182.1719,1138.1563 1182.3594,1138.0469 Q1182.5469,1137.9375 1182.7656,1137.9375 Q1183.1406,1137.9375 1183.375,1138.2031 Q1183.6094,1138.4531 1183.6094,1139.0625 L1183.6094,1140.5156 Q1183.6094,1141.125 1183.375,1141.3906 Q1183.1406,1141.6563 1182.7656,1141.6563 Q1182.4219,1141.6563 1182.2188,1141.4531 Q1182.0156,1141.2656 1181.9063,1140.75 Q1181.8594,1140.3906 1181.6719,1140.2031 Q1181.3438,1139.8281 1180.7344,1139.6094 Q1180.125,1139.3906 1179.5,1139.3906 Q1178.7344,1139.3906 1178.0938,1139.7188 Q1177.4688,1140.0469 1176.9688,1140.7969 Q1176.4844,1141.5469 1176.4844,1142.5781 L1176.4844,1143.6719 Q1176.4844,1144.9063 1177.375,1145.7344 Q1178.2656,1146.5469 1179.8594,1146.5469 Q1180.7969,1146.5469 1181.4531,1146.2969 Q1181.8438,1146.1406 1182.2656,1145.7031 Q1182.5313,1145.4375 1182.6719,1145.3594 Q1182.8281,1145.2813 1183.0313,1145.2813 Q1183.3594,1145.2813 1183.6094,1145.5469 Q1183.875,1145.7969 1183.875,1146.1406 Q1183.875,1146.4844 1183.5313,1146.8906 Q1183.0313,1147.4688 1182.2344,1147.7969 Q1181.1563,1148.25 1179.8594,1148.25 Q1178.3438,1148.25 1177.1406,1147.625 Q1176.1563,1147.125 1175.4688,1146.0625 Q1174.7813,1144.9844 1174.7813,1143.7031 L1174.7813,1142.5469 Q1174.7813,1141.2188 1175.3906,1140.0781 Q1176.0156,1138.9219 1177.1094,1138.3125 Q1178.2031,1137.6875 1179.4375,1137.6875 Q1180.1719,1137.6875 1180.8125,1137.8594 Q1181.4688,1138.0156 1182.0156,1138.375 Z " fill="#000000"/><text fill="#000000" font-family="sans-serif" font-size="14" lengthAdjust="spacing" textLength="84" x="1199.75" y="1148.2285">BloodFactory</text><line style="stroke:#181818;stroke-width:0.5;" x1="979.5" x2="1471.5" y1="1158.5" y2="1158.5"/><line style="stroke:#181818;stroke-width:0.5;" x1="979.5" x2="1471.5" y1="1166.5" y2="1166.5"/><ellipse cx="989.5" cy="1180.8047" fill="#84BE84" rx="3" ry="3" style="stroke:#038048;stroke-width:1.0;"/><text fill="#000000" font-family="sans-serif" font-size="14" lengthAdjust="spacing" textLength="468" x="998.5" y="1185.0332">createProp(int locationX, int locationY, int speedX, int speedY) : BloodProp</text></g><!--class Random--><g id="elem_Random"><rect fill="#F1F1F1" height="48" id="Random" rx="2.5" ry="2.5" style="stroke:#181818;stroke-width:0.5;" width="85" x="1124" y="992"/><ellipse cx="1139" cy="1008" fill="#ADD1B2" rx="11" ry="11" style="stroke:#181818;stroke-width:1.0;"/><path d="M1141.7656,1003.875 Q1141.9219,1003.6563 1142.1094,1003.5469 Q1142.2969,1003.4375 1142.5156,1003.4375 Q1142.8906,1003.4375 1143.125,1003.7031 Q1143.3594,1003.9531 1143.3594,1004.5625 L1143.3594,1006.0156 Q1143.3594,1006.625 1143.125,1006.8906 Q1142.8906,1007.1563 1142.5156,1007.1563 Q1142.1719,1007.1563 1141.9688,1006.9531 Q1141.7656,1006.7656 1141.6563,1006.25 Q1141.6094,1005.8906 1141.4219,1005.7031 Q1141.0938,1005.3281 1140.4844,1005.1094 Q1139.875,1004.8906 1139.25,1004.8906 Q1138.4844,1004.8906 1137.8438,1005.2188 Q1137.2188,1005.5469 1136.7188,1006.2969 Q1136.2344,1007.0469 1136.2344,1008.0781 L1136.2344,1009.1719 Q1136.2344,1010.4063 1137.125,1011.2344 Q1138.0156,1012.0469 1139.6094,1012.0469 Q1140.5469,1012.0469 1141.2031,1011.7969 Q1141.5938,1011.6406 1142.0156,1011.2031 Q1142.2813,1010.9375 1142.4219,1010.8594 Q1142.5781,1010.7813 1142.7813,1010.7813 Q1143.1094,1010.7813 1143.3594,1011.0469 Q1143.625,1011.2969 1143.625,1011.6406 Q1143.625,1011.9844 1143.2813,1012.3906 Q1142.7813,1012.9688 1141.9844,1013.2969 Q1140.9063,1013.75 1139.6094,1013.75 Q1138.0938,1013.75 1136.8906,1013.125 Q1135.9063,1012.625 1135.2188,1011.5625 Q1134.5313,1010.4844 1134.5313,1009.2031 L1134.5313,1008.0469 Q1134.5313,1006.7188 1135.1406,1005.5781 Q1135.7656,1004.4219 1136.8594,1003.8125 Q1137.9531,1003.1875 1139.1875,1003.1875 Q1139.9219,1003.1875 1140.5625,1003.3594 Q1141.2188,1003.5156 1141.7656,1003.875 Z " fill="#000000"/><text fill="#000000" font-family="sans-serif" font-size="14" lengthAdjust="spacing" textLength="53" x="1153" y="1013.7285">Random</text><line style="stroke:#181818;stroke-width:0.5;" x1="1125" x2="1208" y1="1024" y2="1024"/><line style="stroke:#181818;stroke-width:0.5;" x1="1125" x2="1208" y1="1032" y2="1032"/></g><!--reverse link AbstractAircraft to HeroAircraft--><g id="link_AbstractAircraft_HeroAircraft"><path codeLine="48" d="M1019.2965,638.5 C1011.2365,668.41 1006.63,685.51 998.35,716.22 " fill="none" id="AbstractAircraft-backto-HeroAircraft" style="stroke:#181818;stroke-width:1.0;"/><polygon fill="none" points="1023.98,621.12,1013.5032,636.9389,1025.0899,640.0612,1023.98,621.12" style="stroke:#181818;stroke-width:1.0;"/></g><!--reverse link AbstractAircraft to MobEnemy--><g id="link_AbstractAircraft_MobEnemy"><path codeLine="55" d="M1305.4513,595.414 C1500.6913,633.244 1726.43,677.29 1737.5,681 C1792.2,699.31 1850.38,727.12 1896.52,751.36 " fill="none" id="AbstractAircraft-backto-MobEnemy" style="stroke:#181818;stroke-width:1.0;"/><polygon fill="none" points="1287.78,591.99,1304.31,601.3045,1306.5927,589.5236,1287.78,591.99" style="stroke:#181818;stroke-width:1.0;"/></g><!--reverse link AbstractAircraft to EliteEnemy--><g id="link_AbstractAircraft_EliteEnemy"><path codeLine="71" d="M1192.7216,630.0798 C1225.4616,648.8698 1245.71,660.49 1281.12,680.82 " fill="none" id="AbstractAircraft-backto-EliteEnemy" style="stroke:#181818;stroke-width:1.0;"/><polygon fill="none" points="1177.11,621.12,1189.735,635.2836,1195.7082,624.8759,1177.11,621.12" style="stroke:#181818;stroke-width:1.0;"/></g><!--reverse link BaseBullet to HeroBullet--><g id="link_BaseBullet_HeroBullet"><path codeLine="91" d="M425.3589,616.7935 C384.5289,664.7335 339.3,717.86 303.18,760.27 " fill="none" id="BaseBullet-backto-HeroBullet" style="stroke:#181818;stroke-width:1.0;"/><polygon fill="none" points="437.03,603.09,420.7911,612.9031,429.9267,620.6838,437.03,603.09" style="stroke:#181818;stroke-width:1.0;"/></g><!--reverse link BaseBullet to EnemyBullet--><g id="link_BaseBullet_EnemyBullet"><path codeLine="92" d="M511.4629,620.1727 C527.3829,668.1127 543.89,717.86 557.98,760.27 " fill="none" id="BaseBullet-backto-EnemyBullet" style="stroke:#181818;stroke-width:1.0;"/><polygon fill="none" points="505.79,603.09,505.7686,622.0637,517.1571,618.2818,505.79,603.09" style="stroke:#181818;stroke-width:1.0;"/></g><!--reverse link AbstractFlyingObject to AbstractAircraft--><g id="link_AbstractFlyingObject_AbstractAircraft"><path codeLine="94" d="M740.6018,360.5461 C806.7518,400.2661 860.57,432.58 917.61,466.82 " fill="none" id="AbstractFlyingObject-backto-AbstractAircraft" style="stroke:#181818;stroke-width:1.0;"/><polygon fill="none" points="725.17,351.28,737.5131,365.69,743.6905,355.4021,725.17,351.28" style="stroke:#181818;stroke-width:1.0;"/></g><!--reverse link AbstractFlyingObject to BaseBullet--><g id="link_AbstractFlyingObject_BaseBullet"><path codeLine="95" d="M486.5,425.23 C486.5,453.47 486.5,462.46 486.5,484.83 " fill="none" id="AbstractFlyingObject-backto-BaseBullet" style="stroke:#181818;stroke-width:1.0;"/><polygon fill="none" points="486.5,407.23,480.5,425.23,492.5,425.23,486.5,407.23" style="stroke:#181818;stroke-width:1.0;"/></g><!--reverse link BaseProp to BloodProp--><g id="link_BaseProp_BloodProp"><path codeLine="120" d="M793.3591,1224.0306 C809.2191,1242.7406 815.75,1250.44 832.19,1269.84 " fill="none" id="BaseProp-backto-BloodProp" style="stroke:#181818;stroke-width:1.0;"/><polygon fill="none" points="781.72,1210.3,788.7822,1227.9104,797.936,1220.1509,781.72,1210.3" style="stroke:#181818;stroke-width:1.0;"/></g><!--reverse link BaseProp to BombProp--><g id="link_BaseProp_BombProp"><path codeLine="121" d="M961.1965,1209.9779 C967.2365,1211.2279 955.6,1208.81 961.5,1210 C1109.98,1240 1278.23,1270.4 1406.49,1292.83 " fill="none" id="BaseProp-backto-BombProp" style="stroke:#181818;stroke-width:1.0;"/><polygon fill="none" points="943.57,1206.33,959.9805,1215.8534,962.4124,1204.1024,943.57,1206.33" style="stroke:#181818;stroke-width:1.0;"/></g><!--reverse link BaseProp to BulletProp--><g id="link_BaseProp_BulletProp"><path codeLine="122" d="M627.6098,1218.3451 C579.9398,1242.9851 539.03,1264.14 493.99,1287.42 " fill="none" id="BaseProp-backto-BulletProp" style="stroke:#181818;stroke-width:1.0;"/><polygon fill="none" points="643.6,1210.08,624.8547,1213.0151,630.3648,1223.6752,643.6,1210.08" style="stroke:#181818;stroke-width:1.0;"/></g><!--reverse link AbstractFlyingObject to BaseProp--><g id="link_AbstractFlyingObject_BaseProp"><path codeLine="124" d="M256.8944,420.6912 C122.4444,568.6412 7.41,758.97 120.5,923 C170.06,994.88 378.68,1064.36 540.19,1108.99 " fill="none" id="AbstractFlyingObject-backto-BaseProp" style="stroke:#181818;stroke-width:1.0;"/><polygon fill="none" points="269,407.37,252.454,416.6559,261.3347,424.7264,269,407.37" style="stroke:#181818;stroke-width:1.0;"/></g><!--reverse link EnemyFactory to MobFactory--><g id="link_EnemyFactory_MobFactory"><path codeLine="140" d="M1762.5435,255.9362 C1797.3335,319.9662 1866.36,447.02 1901.1,510.98 " fill="none" id="EnemyFactory-backto-MobFactory" style="stroke:#181818;stroke-width:1.0;stroke-dasharray:7.0,7.0;"/><polygon fill="none" points="1753.95,240.12,1757.2715,258.8007,1767.8156,253.0717,1753.95,240.12" style="stroke:#181818;stroke-width:1.0;"/></g><!--reverse link EnemyFactory to EliteFactory--><g id="link_EnemyFactory_EliteFactory"><path codeLine="141" d="M1710.5847,255.9569 C1675.9947,319.9869 1607.36,447.02 1572.8,510.98 " fill="none" id="EnemyFactory-backto-EliteFactory" style="stroke:#181818;stroke-width:1.0;stroke-dasharray:7.0,7.0;"/><polygon fill="none" points="1719.14,240.12,1705.3057,253.1051,1715.8636,258.8086,1719.14,240.12" style="stroke:#181818;stroke-width:1.0;"/></g><!--link MobFactory to MobEnemy--><g id="link_MobFactory_MobEnemy"><path codeLine="143" d="M1926.79,577.16 C1938.08,620.94 1956.8926,693.9099 1970.1526,745.3599 " fill="none" id="MobFactory-to-MobEnemy" style="stroke:#181818;stroke-width:1.0;stroke-dasharray:7.0,7.0;"/><polygon fill="#181818" points="1971.65,751.17,1973.2773,741.4565,1970.4021,746.3282,1965.5304,743.4531,1971.65,751.17" style="stroke:#181818;stroke-width:1.0;"/></g><!--link EliteFactory to EliteEnemy--><g id="link_EliteFactory_EliteEnemy"><path codeLine="144" d="M1547.33,577.16 C1540.63,603.55 1532.176,636.8344 1522.486,675.0144 " fill="none" id="EliteFactory-to-EliteEnemy" style="stroke:#181818;stroke-width:1.0;stroke-dasharray:7.0,7.0;"/><polygon fill="#181818" points="1521.01,680.83,1527.1011,673.0906,1522.24,675.9836,1519.3469,671.1226,1521.01,680.83" style="stroke:#181818;stroke-width:1.0;"/></g><!--reverse link PropFactory to BombFactory--><g id="link_PropFactory_BombFactory"><path codeLine="162" d="M1566.2755,1057.6121 C1609.3255,1080.6821 1651.27,1103.17 1694.38,1126.27 " fill="none" id="PropFactory-backto-BombFactory" style="stroke:#181818;stroke-width:1.0;stroke-dasharray:7.0,7.0;"/><polygon fill="none" points="1550.41,1049.11,1563.4414,1062.9006,1569.1095,1052.3236,1550.41,1049.11" style="stroke:#181818;stroke-width:1.0;"/></g><!--reverse link PropFactory to BulletFactory--><g id="link_PropFactory_BulletFactory"><path codeLine="163" d="M1226.3622,1049.0555 C912.2322,1081.3955 831.44,1066.62 518.5,1109 C483.48,1113.74 446.07,1119.99 410.72,1126.45 " fill="none" id="PropFactory-backto-BulletFactory" style="stroke:#181818;stroke-width:1.0;stroke-dasharray:7.0,7.0;"/><polygon fill="none" points="1244.26,1047.14,1225.7237,1043.0896,1227.0007,1055.0214,1244.26,1047.14" style="stroke:#181818;stroke-width:1.0;"/></g><!--reverse link PropFactory to BloodFactory--><g id="link_PropFactory_BloodFactory"><path codeLine="164" d="M1414.4906,1057.5861 C1371.2706,1080.6561 1329.12,1103.17 1285.85,1126.27 " fill="none" id="PropFactory-backto-BloodFactory" style="stroke:#181818;stroke-width:1.0;stroke-dasharray:7.0,7.0;"/><polygon fill="none" points="1430.37,1049.11,1411.6652,1052.293,1417.316,1062.8793,1430.37,1049.11" style="stroke:#181818;stroke-width:1.0;"/></g><!--link BombFactory to BombProp--><g id="link_BombFactory_BombProp"><path codeLine="167" d="M1727.12,1192.8 C1704.31,1219.7 1675.5799,1253.5933 1650.9699,1282.6233 " fill="none" id="BombFactory-to-BombProp" style="stroke:#181818;stroke-width:1.0;stroke-dasharray:7.0,7.0;"/><polygon fill="#181818" points="1647.09,1287.2,1655.961,1282.9215,1650.3232,1283.3861,1649.8587,1277.7483,1647.09,1287.2" style="stroke:#181818;stroke-width:1.0;"/></g><!--link BulletFactory to BulletProp--><g id="link_BulletFactory_BulletProp"><path codeLine="168" d="M284.74,1192.8 C310.76,1219.7 343.7885,1253.8574 371.8685,1282.8874 " fill="none" id="BulletFactory-to-BulletProp" style="stroke:#181818;stroke-width:1.0;stroke-dasharray:7.0,7.0;"/><polygon fill="#181818" points="376.04,1287.2,372.6578,1277.9501,372.5638,1283.6062,366.9077,1283.5121,376.04,1287.2" style="stroke:#181818;stroke-width:1.0;"/></g><!--link BloodFactory to BloodProp--><g id="link_BloodFactory_BloodProp"><path codeLine="169" d="M1159.58,1192.6 C1114.71,1214.45 1059.4348,1241.364 1006.2048,1267.274 " fill="none" id="BloodFactory-to-BloodProp" style="stroke:#181818;stroke-width:1.0;stroke-dasharray:7.0,7.0;"/><polygon fill="#181818" points="1000.81,1269.9,1010.6529,1269.5576,1005.3057,1267.7117,1007.1516,1262.3645,1000.81,1269.9" style="stroke:#181818;stroke-width:1.0;"/></g><!--link EliteEnemy to PropFactory--><g id="link_EliteEnemy_PropFactory"><path codeLine="171" d="M1490.5,923.25 C1490.5,945.3 1490.5,960.52 1490.5,976.99 " fill="none" id="EliteEnemy-to-PropFactory" style="stroke:#181818;stroke-width:1.0;stroke-dasharray:7.0,7.0;"/><polygon fill="#181818" points="1490.5,982.99,1494.5,973.99,1490.5,977.99,1486.5,973.99,1490.5,982.99" style="stroke:#181818;stroke-width:1.0;"/></g><!--link EliteEnemy to Random--><g id="link_EliteEnemy_Random"><path codeLine="172" d="M1306.73,923.25 C1266.59,949.51 1233.2902,971.294 1206.8902,988.574 " fill="none" id="EliteEnemy-to-Random" style="stroke:#181818;stroke-width:1.0;stroke-dasharray:7.0,7.0;"/><polygon fill="#181818" points="1201.87,991.86,1211.591,990.2779,1206.0535,989.1217,1207.2097,983.5843,1201.87,991.86" style="stroke:#181818;stroke-width:1.0;"/></g><!--link HeroAircraft to HeroAircraft--><g id="link_HeroAircraft_HeroAircraft"><path codeLine="174" d="M1207.58,769.97 C1229,776.59 1242.5,787.27 1242.5,802 C1242.5,816.73 1234.7325,825.6383 1213.3125,832.2583 " fill="none" id="HeroAircraft-to-HeroAircraft" style="stroke:#181818;stroke-width:1.0;stroke-dasharray:7.0,7.0;"/><polygon fill="#181818" points="1207.58,834.03,1217.3598,835.1942,1212.3571,832.5536,1214.9976,827.5509,1207.58,834.03" style="stroke:#181818;stroke-width:1.0;"/></g><!--SRC=[jLRVJzim47x6VuKb7bRKjRn7Q1ALG9t4DhH96tsgtDXjF98uSbmwrEL_d-qaziL9WL7e2_X-VlVT-PmFYL956PsV5od9rJPBfx78pkEKbEM4ShAH94E8h4ebIQombUFBvdYTFl9yystrcyKAxH7MlrESYfWeBlAxYESga2s0h2mOetUX05hmZ6nODDkkrqmo-jcS6isEKvK0ouJnJQAWQ_cJf9n6Ao5IHd9anUD1u2FjvK5_nF2ug8yrLF3_ugm9k1PoHoGTdKKFWjD664jI9gEXN7WD3cSENUrMCdNJv1rHiLsb3C8A98jEnertlTDOMXuwYaMe-64h2QMMPYtiqsxLlmppeS_Sqj-HvaBP3ep2AXz8pika9QmwD5gNN6eQrsQiJavnHlxC2zZl0gGANLxLqFh_f6WRIrai6IdPlB3XscF8kbR3glTjDHKk4o4C9JUyL1SpxJhRfYbJdn2k449riNCcHOiQr_TdKZj-tMOkx0GNOiSaE5CkzVpeSa1g6EjD6DYNIZl4bHsAN1_oMCy5ZZgPdhe61ndG18GzmnT_9vDkv8QZBs9rbRFiiU5dx0HlKkJ_0X_6tK9gCL-bN34h2PkAUrsrW7fznS1CYc9vptEAG-cr1YBaevRV-XFGQuL1RvIDrFLKafoABCBVxL_S5Evnlosv6iXBw6rlLSuaKMnfIh2-heX33V2uUq-LZu_sWxTf34oEgDe6FJ1L9tPLt1gBPbjKS0FKkTryUz7JSApvIp2vP9QX81kGlLqwpwY_rqqJGXN8xxT2vycqPhrduR0fwFZGCDX1seFM6y7hlW5mhzsuxJTu27P2teywcpxHXzRMDMUM2a4D5lSG44gNAoF5O5YztL7VBNeUbvUKsc06jrj2usVnDd15jW9enqvm5AoNScNRsqtlHEyBe9sOPjRQPeJoXenGx42YPmQujj4_3P79DObPVLEQ9R_lVs-OxvDsUPkbsRin5NXHWp0TtyW_PnLypvxs0IjO9u9OTL7JAKWwe8Jn4VAcU3hzvD50Awk1QnyG1Hx3WpmTSUd1UnGCv213nsNo0-DpwTbwXqpjn5Pm7xr37dTZT46WK_KWWDe6b93a0JK0hES1XBB3ugya35EhFCimIArpU94VDwk1tro1glwgGgYpI8m22lu1]--></g></svg>