<?xml version="1.0" encoding="us-ascii" standalone="no"?><svg xmlns="http://www.w3.org/2000/svg" xmlns:xlink="http://www.w3.org/1999/xlink" contentStyleType="text/css" height="489px" preserveAspectRatio="none" style="width:3650px;height:489px;background:#FFFFFF;" version="1.1" viewBox="0 0 3650 489" width="3650px" zoomAndPan="magnify"><defs/><g><!--class BaseProp--><g id="elem_BaseProp"><rect codeLine="1" fill="#F1F1F1" height="118.4375" id="BaseProp" rx="2.5" ry="2.5" style="stroke:#181818;stroke-width:0.5;" width="408" x="1648" y="133"/><ellipse cx="1816.75" cy="149" fill="#A9DCDF" rx="11" ry="11" style="stroke:#181818;stroke-width:1.0;"/><path d="M1818.9375,150.7656 L1814.7969,150.7656 L1814.375,151.7969 L1814.7969,151.7969 Q1815.4063,151.7969 1815.6719,152.0313 Q1815.9375,152.2656 1815.9375,152.6563 Q1815.9375,153.0313 1815.6719,153.2656 Q1815.4063,153.5 1814.7969,153.5 L1812.5,153.5 Q1811.8906,153.5 1811.6406,153.2656 Q1811.375,153.0313 1811.375,152.6406 Q1811.375,152.2656 1811.6563,152.0313 Q1811.9219,151.7813 1812.5469,151.7969 L1815.2188,145.1406 L1814.1094,145.1406 Q1813.5,145.1406 1813.2344,144.9063 Q1812.9688,144.6719 1812.9688,144.2813 Q1812.9688,143.9063 1813.2344,143.6719 Q1813.5,143.4375 1814.1094,143.4375 L1817.7813,143.4375 L1821.1719,151.7969 Q1821.7656,151.7969 1821.9531,151.9375 Q1822.3438,152.2031 1822.3438,152.6563 Q1822.3438,153.0313 1822.0781,153.2656 Q1821.8281,153.5 1821.2188,153.5 L1818.9219,153.5 Q1818.3125,153.5 1818.0469,153.2656 Q1817.7813,153.0313 1817.7813,152.6406 Q1817.7813,152.2656 1818.0469,152.0313 Q1818.3125,151.7969 1818.9219,151.7969 L1819.3438,151.7969 L1818.9375,150.7656 Z M1818.2188,149.0625 L1816.8594,145.6875 L1815.4844,149.0625 L1818.2188,149.0625 Z " fill="#000000"/><text fill="#000000" font-family="sans-serif" font-size="14" font-style="italic" lengthAdjust="spacing" textLength="62" x="1837.25" y="154.7285">BaseProp</text><line style="stroke:#181818;stroke-width:0.5;" x1="1649" x2="2055" y1="165" y2="165"/><polygon fill="none" points="1659,174.3047,1663,178.3047,1659,182.3047,1655,178.3047" style="stroke:#B38D22;stroke-width:1.0;"/><text fill="#000000" font-family="sans-serif" font-size="14" lengthAdjust="spacing" textLength="113" x="1668" y="183.5332">bgm:MusicThread</text><line style="stroke:#181818;stroke-width:0.5;" x1="1649" x2="2055" y1="190.6094" y2="190.6094"/><ellipse cx="1659" cy="204.9141" fill="#84BE84" rx="3" ry="3" style="stroke:#038048;stroke-width:1.0;"/><text fill="#000000" font-family="sans-serif" font-size="14" lengthAdjust="spacing" textLength="382" x="1668" y="209.1426">BaseProp(int locationX, int locationY, int speedX, int speedY)</text><ellipse cx="1659" cy="222.5234" fill="#84BE84" rx="3" ry="3" style="stroke:#038048;stroke-width:1.0;"/><text fill="#000000" font-family="sans-serif" font-size="14" lengthAdjust="spacing" textLength="91" x="1668" y="226.752">forward(): void</text><ellipse cx="1659" cy="240.1328" fill="#84BE84" rx="3" ry="3" style="stroke:#038048;stroke-width:1.0;"/><text fill="#000000" font-family="sans-serif" font-size="14" font-style="italic" lengthAdjust="spacing" textLength="300" x="1668" y="244.3613">work(HeroAircraft hero,boolean usemusic): void</text></g><!--class BloodProp--><g id="elem_BloodProp"><rect codeLine="9" fill="#F1F1F1" height="118.4375" id="BloodProp" rx="2.5" ry="2.5" style="stroke:#181818;stroke-width:0.5;" width="412" x="1730" y="337.5"/><ellipse cx="1898.75" cy="353.5" fill="#ADD1B2" rx="11" ry="11" style="stroke:#181818;stroke-width:1.0;"/><path d="M1901.5156,349.375 Q1901.6719,349.1563 1901.8594,349.0469 Q1902.0469,348.9375 1902.2656,348.9375 Q1902.6406,348.9375 1902.875,349.2031 Q1903.1094,349.4531 1903.1094,350.0625 L1903.1094,351.5156 Q1903.1094,352.125 1902.875,352.3906 Q1902.6406,352.6563 1902.2656,352.6563 Q1901.9219,352.6563 1901.7188,352.4531 Q1901.5156,352.2656 1901.4063,351.75 Q1901.3594,351.3906 1901.1719,351.2031 Q1900.8438,350.8281 1900.2344,350.6094 Q1899.625,350.3906 1899,350.3906 Q1898.2344,350.3906 1897.5938,350.7188 Q1896.9688,351.0469 1896.4688,351.7969 Q1895.9844,352.5469 1895.9844,353.5781 L1895.9844,354.6719 Q1895.9844,355.9063 1896.875,356.7344 Q1897.7656,357.5469 1899.3594,357.5469 Q1900.2969,357.5469 1900.9531,357.2969 Q1901.3438,357.1406 1901.7656,356.7031 Q1902.0313,356.4375 1902.1719,356.3594 Q1902.3281,356.2813 1902.5313,356.2813 Q1902.8594,356.2813 1903.1094,356.5469 Q1903.375,356.7969 1903.375,357.1406 Q1903.375,357.4844 1903.0313,357.8906 Q1902.5313,358.4688 1901.7344,358.7969 Q1900.6563,359.25 1899.3594,359.25 Q1897.8438,359.25 1896.6406,358.625 Q1895.6563,358.125 1894.9688,357.0625 Q1894.2813,355.9844 1894.2813,354.7031 L1894.2813,353.5469 Q1894.2813,352.2188 1894.8906,351.0781 Q1895.5156,349.9219 1896.6094,349.3125 Q1897.7031,348.6875 1898.9375,348.6875 Q1899.6719,348.6875 1900.3125,348.8594 Q1900.9688,349.0156 1901.5156,349.375 Z " fill="#000000"/><text fill="#000000" font-family="sans-serif" font-size="14" lengthAdjust="spacing" textLength="66" x="1919.25" y="359.2285">BloodProp</text><line style="stroke:#181818;stroke-width:0.5;" x1="1731" x2="2141" y1="369.5" y2="369.5"/><rect fill="none" height="6" style="stroke:#C82930;stroke-width:1.0;" width="6" x="1738" y="380.8047"/><text fill="#000000" font-family="sans-serif" font-size="14" lengthAdjust="spacing" textLength="90" x="1750" y="388.0332">add_blood :int</text><line style="stroke:#181818;stroke-width:0.5;" x1="1731" x2="2141" y1="395.1094" y2="395.1094"/><ellipse cx="1741" cy="409.4141" fill="#84BE84" rx="3" ry="3" style="stroke:#038048;stroke-width:1.0;"/><text fill="#000000" font-family="sans-serif" font-size="14" lengthAdjust="spacing" textLength="386" x="1750" y="413.6426">BloodProp(int locationX, int locationY, int speedX, int speedY)</text><ellipse cx="1741" cy="427.0234" fill="#84BE84" rx="3" ry="3" style="stroke:#038048;stroke-width:1.0;"/><text fill="#000000" font-family="sans-serif" font-size="14" lengthAdjust="spacing" textLength="122" x="1750" y="431.252">get_AddBlood(): int</text><ellipse cx="1741" cy="444.6328" fill="#84BE84" rx="3" ry="3" style="stroke:#038048;stroke-width:1.0;"/><text fill="#000000" font-family="sans-serif" font-size="14" lengthAdjust="spacing" textLength="299" x="1750" y="448.8613">work(HeroAircraft hero,boolean usemusic): void</text></g><!--class BloodPlusProp--><g id="elem_BloodPlusProp"><rect codeLine="16" fill="#F1F1F1" height="118.4375" id="BloodPlusProp" rx="2.5" ry="2.5" style="stroke:#181818;stroke-width:0.5;" width="439" x="138.5" y="337.5"/><ellipse cx="307.25" cy="353.5" fill="#ADD1B2" rx="11" ry="11" style="stroke:#181818;stroke-width:1.0;"/><path d="M310.0156,349.375 Q310.1719,349.1563 310.3594,349.0469 Q310.5469,348.9375 310.7656,348.9375 Q311.1406,348.9375 311.375,349.2031 Q311.6094,349.4531 311.6094,350.0625 L311.6094,351.5156 Q311.6094,352.125 311.375,352.3906 Q311.1406,352.6563 310.7656,352.6563 Q310.4219,352.6563 310.2188,352.4531 Q310.0156,352.2656 309.9063,351.75 Q309.8594,351.3906 309.6719,351.2031 Q309.3438,350.8281 308.7344,350.6094 Q308.125,350.3906 307.5,350.3906 Q306.7344,350.3906 306.0938,350.7188 Q305.4688,351.0469 304.9688,351.7969 Q304.4844,352.5469 304.4844,353.5781 L304.4844,354.6719 Q304.4844,355.9063 305.375,356.7344 Q306.2656,357.5469 307.8594,357.5469 Q308.7969,357.5469 309.4531,357.2969 Q309.8438,357.1406 310.2656,356.7031 Q310.5313,356.4375 310.6719,356.3594 Q310.8281,356.2813 311.0313,356.2813 Q311.3594,356.2813 311.6094,356.5469 Q311.875,356.7969 311.875,357.1406 Q311.875,357.4844 311.5313,357.8906 Q311.0313,358.4688 310.2344,358.7969 Q309.1563,359.25 307.8594,359.25 Q306.3438,359.25 305.1406,358.625 Q304.1563,358.125 303.4688,357.0625 Q302.7813,355.9844 302.7813,354.7031 L302.7813,353.5469 Q302.7813,352.2188 303.3906,351.0781 Q304.0156,349.9219 305.1094,349.3125 Q306.2031,348.6875 307.4375,348.6875 Q308.1719,348.6875 308.8125,348.8594 Q309.4688,349.0156 310.0156,349.375 Z " fill="#000000"/><text fill="#000000" font-family="sans-serif" font-size="14" lengthAdjust="spacing" textLength="93" x="327.75" y="359.2285">BloodPlusProp</text><line style="stroke:#181818;stroke-width:0.5;" x1="139.5" x2="576.5" y1="369.5" y2="369.5"/><rect fill="none" height="6" style="stroke:#C82930;stroke-width:1.0;" width="6" x="146.5" y="380.8047"/><text fill="#000000" font-family="sans-serif" font-size="14" lengthAdjust="spacing" textLength="90" x="158.5" y="388.0332">add_blood :int</text><line style="stroke:#181818;stroke-width:0.5;" x1="139.5" x2="576.5" y1="395.1094" y2="395.1094"/><ellipse cx="149.5" cy="409.4141" fill="#84BE84" rx="3" ry="3" style="stroke:#038048;stroke-width:1.0;"/><text fill="#000000" font-family="sans-serif" font-size="14" lengthAdjust="spacing" textLength="413" x="158.5" y="413.6426">BloodPlusProp(int locationX, int locationY, int speedX, int speedY)</text><ellipse cx="149.5" cy="427.0234" fill="#84BE84" rx="3" ry="3" style="stroke:#038048;stroke-width:1.0;"/><text fill="#000000" font-family="sans-serif" font-size="14" lengthAdjust="spacing" textLength="122" x="158.5" y="431.252">get_AddBlood(): int</text><ellipse cx="149.5" cy="444.6328" fill="#84BE84" rx="3" ry="3" style="stroke:#038048;stroke-width:1.0;"/><text fill="#000000" font-family="sans-serif" font-size="14" lengthAdjust="spacing" textLength="299" x="158.5" y="448.8613">work(HeroAircraft hero,boolean usemusic): void</text></g><!--class BulletProp--><g id="elem_BulletProp"><rect codeLine="23" fill="#F1F1F1" height="83.2188" id="BulletProp" rx="2.5" ry="2.5" style="stroke:#181818;stroke-width:0.5;" width="411" x="2461.5" y="355"/><ellipse cx="2630.25" cy="371" fill="#ADD1B2" rx="11" ry="11" style="stroke:#181818;stroke-width:1.0;"/><path d="M2633.0156,366.875 Q2633.1719,366.6563 2633.3594,366.5469 Q2633.5469,366.4375 2633.7656,366.4375 Q2634.1406,366.4375 2634.375,366.7031 Q2634.6094,366.9531 2634.6094,367.5625 L2634.6094,369.0156 Q2634.6094,369.625 2634.375,369.8906 Q2634.1406,370.1563 2633.7656,370.1563 Q2633.4219,370.1563 2633.2188,369.9531 Q2633.0156,369.7656 2632.9063,369.25 Q2632.8594,368.8906 2632.6719,368.7031 Q2632.3438,368.3281 2631.7344,368.1094 Q2631.125,367.8906 2630.5,367.8906 Q2629.7344,367.8906 2629.0938,368.2188 Q2628.4688,368.5469 2627.9688,369.2969 Q2627.4844,370.0469 2627.4844,371.0781 L2627.4844,372.1719 Q2627.4844,373.4063 2628.375,374.2344 Q2629.2656,375.0469 2630.8594,375.0469 Q2631.7969,375.0469 2632.4531,374.7969 Q2632.8438,374.6406 2633.2656,374.2031 Q2633.5313,373.9375 2633.6719,373.8594 Q2633.8281,373.7813 2634.0313,373.7813 Q2634.3594,373.7813 2634.6094,374.0469 Q2634.875,374.2969 2634.875,374.6406 Q2634.875,374.9844 2634.5313,375.3906 Q2634.0313,375.9688 2633.2344,376.2969 Q2632.1563,376.75 2630.8594,376.75 Q2629.3438,376.75 2628.1406,376.125 Q2627.1563,375.625 2626.4688,374.5625 Q2625.7813,373.4844 2625.7813,372.2031 L2625.7813,371.0469 Q2625.7813,369.7188 2626.3906,368.5781 Q2627.0156,367.4219 2628.1094,366.8125 Q2629.2031,366.1875 2630.4375,366.1875 Q2631.1719,366.1875 2631.8125,366.3594 Q2632.4688,366.5156 2633.0156,366.875 Z " fill="#000000"/><text fill="#000000" font-family="sans-serif" font-size="14" lengthAdjust="spacing" textLength="65" x="2650.75" y="376.7285">BulletProp</text><line style="stroke:#181818;stroke-width:0.5;" x1="2462.5" x2="2871.5" y1="387" y2="387"/><line style="stroke:#181818;stroke-width:0.5;" x1="2462.5" x2="2871.5" y1="395" y2="395"/><ellipse cx="2472.5" cy="409.3047" fill="#84BE84" rx="3" ry="3" style="stroke:#038048;stroke-width:1.0;"/><text fill="#000000" font-family="sans-serif" font-size="14" lengthAdjust="spacing" textLength="385" x="2481.5" y="413.5332">BulletProp(int locationX, int locationY, int speedX, int speedY)</text><ellipse cx="2472.5" cy="426.9141" fill="#84BE84" rx="3" ry="3" style="stroke:#038048;stroke-width:1.0;"/><text fill="#000000" font-family="sans-serif" font-size="14" lengthAdjust="spacing" textLength="299" x="2481.5" y="431.1426">work(HeroAircraft hero,boolean usemusic): void</text></g><!--class BulletPlusProp--><g id="elem_BulletPlusProp"><rect codeLine="28" fill="#F1F1F1" height="83.2188" id="BulletPlusProp" rx="2.5" ry="2.5" style="stroke:#181818;stroke-width:0.5;" width="438" x="653" y="355"/><ellipse cx="821.75" cy="371" fill="#ADD1B2" rx="11" ry="11" style="stroke:#181818;stroke-width:1.0;"/><path d="M824.5156,366.875 Q824.6719,366.6563 824.8594,366.5469 Q825.0469,366.4375 825.2656,366.4375 Q825.6406,366.4375 825.875,366.7031 Q826.1094,366.9531 826.1094,367.5625 L826.1094,369.0156 Q826.1094,369.625 825.875,369.8906 Q825.6406,370.1563 825.2656,370.1563 Q824.9219,370.1563 824.7188,369.9531 Q824.5156,369.7656 824.4063,369.25 Q824.3594,368.8906 824.1719,368.7031 Q823.8438,368.3281 823.2344,368.1094 Q822.625,367.8906 822,367.8906 Q821.2344,367.8906 820.5938,368.2188 Q819.9688,368.5469 819.4688,369.2969 Q818.9844,370.0469 818.9844,371.0781 L818.9844,372.1719 Q818.9844,373.4063 819.875,374.2344 Q820.7656,375.0469 822.3594,375.0469 Q823.2969,375.0469 823.9531,374.7969 Q824.3438,374.6406 824.7656,374.2031 Q825.0313,373.9375 825.1719,373.8594 Q825.3281,373.7813 825.5313,373.7813 Q825.8594,373.7813 826.1094,374.0469 Q826.375,374.2969 826.375,374.6406 Q826.375,374.9844 826.0313,375.3906 Q825.5313,375.9688 824.7344,376.2969 Q823.6563,376.75 822.3594,376.75 Q820.8438,376.75 819.6406,376.125 Q818.6563,375.625 817.9688,374.5625 Q817.2813,373.4844 817.2813,372.2031 L817.2813,371.0469 Q817.2813,369.7188 817.8906,368.5781 Q818.5156,367.4219 819.6094,366.8125 Q820.7031,366.1875 821.9375,366.1875 Q822.6719,366.1875 823.3125,366.3594 Q823.9688,366.5156 824.5156,366.875 Z " fill="#000000"/><text fill="#000000" font-family="sans-serif" font-size="14" lengthAdjust="spacing" textLength="92" x="842.25" y="376.7285">BulletPlusProp</text><line style="stroke:#181818;stroke-width:0.5;" x1="654" x2="1090" y1="387" y2="387"/><line style="stroke:#181818;stroke-width:0.5;" x1="654" x2="1090" y1="395" y2="395"/><ellipse cx="664" cy="409.3047" fill="#84BE84" rx="3" ry="3" style="stroke:#038048;stroke-width:1.0;"/><text fill="#000000" font-family="sans-serif" font-size="14" lengthAdjust="spacing" textLength="412" x="673" y="413.5332">BulletPlusProp(int locationX, int locationY, int speedX, int speedY)</text><ellipse cx="664" cy="426.9141" fill="#84BE84" rx="3" ry="3" style="stroke:#038048;stroke-width:1.0;"/><text fill="#000000" font-family="sans-serif" font-size="14" lengthAdjust="spacing" textLength="299" x="673" y="431.1426">work(HeroAircraft hero,boolean usemusic): void</text></g><!--class ScoreProp--><g id="elem_ScoreProp"><rect codeLine="33" fill="#F1F1F1" height="100.8281" id="ScoreProp" rx="2.5" ry="2.5" style="stroke:#181818;stroke-width:0.5;" width="413" x="1177.5" y="346"/><ellipse cx="1346.25" cy="362" fill="#ADD1B2" rx="11" ry="11" style="stroke:#181818;stroke-width:1.0;"/><path d="M1349.0156,357.875 Q1349.1719,357.6563 1349.3594,357.5469 Q1349.5469,357.4375 1349.7656,357.4375 Q1350.1406,357.4375 1350.375,357.7031 Q1350.6094,357.9531 1350.6094,358.5625 L1350.6094,360.0156 Q1350.6094,360.625 1350.375,360.8906 Q1350.1406,361.1563 1349.7656,361.1563 Q1349.4219,361.1563 1349.2188,360.9531 Q1349.0156,360.7656 1348.9063,360.25 Q1348.8594,359.8906 1348.6719,359.7031 Q1348.3438,359.3281 1347.7344,359.1094 Q1347.125,358.8906 1346.5,358.8906 Q1345.7344,358.8906 1345.0938,359.2188 Q1344.4688,359.5469 1343.9688,360.2969 Q1343.4844,361.0469 1343.4844,362.0781 L1343.4844,363.1719 Q1343.4844,364.4063 1344.375,365.2344 Q1345.2656,366.0469 1346.8594,366.0469 Q1347.7969,366.0469 1348.4531,365.7969 Q1348.8438,365.6406 1349.2656,365.2031 Q1349.5313,364.9375 1349.6719,364.8594 Q1349.8281,364.7813 1350.0313,364.7813 Q1350.3594,364.7813 1350.6094,365.0469 Q1350.875,365.2969 1350.875,365.6406 Q1350.875,365.9844 1350.5313,366.3906 Q1350.0313,366.9688 1349.2344,367.2969 Q1348.1563,367.75 1346.8594,367.75 Q1345.3438,367.75 1344.1406,367.125 Q1343.1563,366.625 1342.4688,365.5625 Q1341.7813,364.4844 1341.7813,363.2031 L1341.7813,362.0469 Q1341.7813,360.7188 1342.3906,359.5781 Q1343.0156,358.4219 1344.1094,357.8125 Q1345.2031,357.1875 1346.4375,357.1875 Q1347.1719,357.1875 1347.8125,357.3594 Q1348.4688,357.5156 1349.0156,357.875 Z " fill="#000000"/><text fill="#000000" font-family="sans-serif" font-size="14" lengthAdjust="spacing" textLength="67" x="1366.75" y="367.7285">ScoreProp</text><line style="stroke:#181818;stroke-width:0.5;" x1="1178.5" x2="1589.5" y1="378" y2="378"/><rect fill="none" height="6" style="stroke:#C82930;stroke-width:1.0;" width="6" x="1185.5" y="389.3047"/><text fill="#000000" font-family="sans-serif" font-size="14" lengthAdjust="spacing" textLength="86" x="1197.5" y="396.5332">add_score:int</text><line style="stroke:#181818;stroke-width:0.5;" x1="1178.5" x2="1589.5" y1="403.6094" y2="403.6094"/><ellipse cx="1188.5" cy="417.9141" fill="#84BE84" rx="3" ry="3" style="stroke:#038048;stroke-width:1.0;"/><text fill="#000000" font-family="sans-serif" font-size="14" lengthAdjust="spacing" textLength="387" x="1197.5" y="422.1426">ScoreProp(int locationX, int locationY, int speedX, int speedY)</text><ellipse cx="1188.5" cy="435.5234" fill="#84BE84" rx="3" ry="3" style="stroke:#038048;stroke-width:1.0;"/><text fill="#000000" font-family="sans-serif" font-size="14" lengthAdjust="spacing" textLength="299" x="1197.5" y="439.752">work(HeroAircraft hero,boolean usemusic): void</text></g><!--class BombProp--><g id="elem_BombProp"><rect codeLine="39" fill="#F1F1F1" height="171.2656" id="BombProp" rx="2.5" ry="2.5" style="stroke:#181818;stroke-width:0.5;" width="474" x="3075" y="311"/><ellipse cx="3274.75" cy="327" fill="#ADD1B2" rx="11" ry="11" style="stroke:#181818;stroke-width:1.0;"/><path d="M3277.5156,322.875 Q3277.6719,322.6563 3277.8594,322.5469 Q3278.0469,322.4375 3278.2656,322.4375 Q3278.6406,322.4375 3278.875,322.7031 Q3279.1094,322.9531 3279.1094,323.5625 L3279.1094,325.0156 Q3279.1094,325.625 3278.875,325.8906 Q3278.6406,326.1563 3278.2656,326.1563 Q3277.9219,326.1563 3277.7188,325.9531 Q3277.5156,325.7656 3277.4063,325.25 Q3277.3594,324.8906 3277.1719,324.7031 Q3276.8438,324.3281 3276.2344,324.1094 Q3275.625,323.8906 3275,323.8906 Q3274.2344,323.8906 3273.5938,324.2188 Q3272.9688,324.5469 3272.4688,325.2969 Q3271.9844,326.0469 3271.9844,327.0781 L3271.9844,328.1719 Q3271.9844,329.4063 3272.875,330.2344 Q3273.7656,331.0469 3275.3594,331.0469 Q3276.2969,331.0469 3276.9531,330.7969 Q3277.3438,330.6406 3277.7656,330.2031 Q3278.0313,329.9375 3278.1719,329.8594 Q3278.3281,329.7813 3278.5313,329.7813 Q3278.8594,329.7813 3279.1094,330.0469 Q3279.375,330.2969 3279.375,330.6406 Q3279.375,330.9844 3279.0313,331.3906 Q3278.5313,331.9688 3277.7344,332.2969 Q3276.6563,332.75 3275.3594,332.75 Q3273.8438,332.75 3272.6406,332.125 Q3271.6563,331.625 3270.9688,330.5625 Q3270.2813,329.4844 3270.2813,328.2031 L3270.2813,327.0469 Q3270.2813,325.7188 3270.8906,324.5781 Q3271.5156,323.4219 3272.6094,322.8125 Q3273.7031,322.1875 3274.9375,322.1875 Q3275.6719,322.1875 3276.3125,322.3594 Q3276.9688,322.5156 3277.5156,322.875 Z " fill="#000000"/><text fill="#000000" font-family="sans-serif" font-size="14" lengthAdjust="spacing" textLength="66" x="3295.25" y="332.7285">BombProp</text><line style="stroke:#181818;stroke-width:0.5;" x1="3076" x2="3548" y1="343" y2="343"/><rect fill="none" height="6" style="stroke:#C82930;stroke-width:1.0;" width="6" x="3083" y="354.3047"/><text fill="#000000" font-family="sans-serif" font-size="14" lengthAdjust="spacing" textLength="190" x="3095" y="361.5332">enemyBullet: List&lt;BaseBullet&gt;</text><rect fill="none" height="6" style="stroke:#C82930;stroke-width:1.0;" width="6" x="3083" y="371.9141"/><text fill="#000000" font-family="sans-serif" font-size="14" lengthAdjust="spacing" textLength="280" x="3095" y="379.1426">enemyAircrafts: List&lt;AbstractEnemyAircraft&gt;</text><line style="stroke:#181818;stroke-width:0.5;" x1="3076" x2="3548" y1="386.2188" y2="386.2188"/><ellipse cx="3086" cy="400.5234" fill="#84BE84" rx="3" ry="3" style="stroke:#038048;stroke-width:1.0;"/><text fill="#000000" font-family="sans-serif" font-size="14" lengthAdjust="spacing" textLength="386" x="3095" y="404.752">BombProp(int locationX, int locationY, int speedX, int speedY)</text><ellipse cx="3086" cy="418.1328" fill="#84BE84" rx="3" ry="3" style="stroke:#038048;stroke-width:1.0;"/><text fill="#000000" font-family="sans-serif" font-size="14" lengthAdjust="spacing" textLength="299" x="3095" y="422.3613">work(HeroAircraft hero,boolean usemusic): void</text><ellipse cx="3086" cy="435.7422" fill="#84BE84" rx="3" ry="3" style="stroke:#038048;stroke-width:1.0;"/><text fill="#000000" font-family="sans-serif" font-size="14" lengthAdjust="spacing" textLength="260" x="3095" y="439.9707">addBullets(List&lt;BaseBullet&gt; bullets): void</text><ellipse cx="3086" cy="453.3516" fill="#84BE84" rx="3" ry="3" style="stroke:#038048;stroke-width:1.0;"/><text fill="#000000" font-family="sans-serif" font-size="14" lengthAdjust="spacing" textLength="448" x="3095" y="457.5801">addAircrafts(List&lt;AbstractEnemyAircraft&gt; abstractEnemyAircrafts): void</text><ellipse cx="3086" cy="470.9609" fill="#84BE84" rx="3" ry="3" style="stroke:#038048;stroke-width:1.0;"/><text fill="#000000" font-family="sans-serif" font-size="14" lengthAdjust="spacing" textLength="130" x="3095" y="475.1895">notify_update(): void</text></g><!--class PropFactory--><g id="elem_PropFactory"><rect codeLine="56" fill="#F1F1F1" height="65.6094" id="PropFactory" rx="2.5" ry="2.5" style="stroke:#181818;stroke-width:0.5;" width="492" x="1605" y="7"/><ellipse cx="1807.75" cy="23" fill="#B4A7E5" rx="11" ry="11" style="stroke:#181818;stroke-width:1.0;"/><path d="M1808.7031,19.6406 L1808.7031,26.2969 L1810.4219,26.2969 Q1811.0313,26.2969 1811.2969,26.5313 Q1811.5625,26.7656 1811.5625,27.1563 Q1811.5625,27.5313 1811.2969,27.7656 Q1811.0313,28 1810.4219,28 L1805.2813,28 Q1804.6719,28 1804.4063,27.7656 Q1804.1406,27.5313 1804.1406,27.1406 Q1804.1406,26.7656 1804.4063,26.5313 Q1804.6719,26.2969 1805.2813,26.2969 L1807,26.2969 L1807,19.6406 L1805.2813,19.6406 Q1804.6719,19.6406 1804.4063,19.4063 Q1804.1406,19.1719 1804.1406,18.7813 Q1804.1406,18.4063 1804.4063,18.1719 Q1804.6719,17.9375 1805.2813,17.9375 L1810.4219,17.9375 Q1811.0313,17.9375 1811.2969,18.1719 Q1811.5625,18.4063 1811.5625,18.7813 Q1811.5625,19.1719 1811.2969,19.4063 Q1811.0313,19.6406 1810.4219,19.6406 L1808.7031,19.6406 Z " fill="#000000"/><text fill="#000000" font-family="sans-serif" font-size="14" font-style="italic" lengthAdjust="spacing" textLength="78" x="1828.25" y="28.7285">PropFactory</text><line style="stroke:#181818;stroke-width:0.5;" x1="1606" x2="2096" y1="39" y2="39"/><line style="stroke:#181818;stroke-width:0.5;" x1="1606" x2="2096" y1="47" y2="47"/><ellipse cx="1616" cy="61.3047" fill="#84BE84" rx="3" ry="3" style="stroke:#038048;stroke-width:1.0;"/><text fill="#000000" font-family="sans-serif" font-size="14" font-style="italic" lengthAdjust="spacing" textLength="466" x="1625" y="65.5332">createProp(int locationX, int locationY, int speedX, int speedY) : BaseProp</text></g><!--class BulletFactory--><g id="elem_BulletFactory"><rect codeLine="60" fill="#F1F1F1" height="65.6094" id="BulletFactory" rx="2.5" ry="2.5" style="stroke:#181818;stroke-width:0.5;" width="493" x="2620.5" y="159"/><ellipse cx="2821.25" cy="175" fill="#ADD1B2" rx="11" ry="11" style="stroke:#181818;stroke-width:1.0;"/><path d="M2824.0156,170.875 Q2824.1719,170.6563 2824.3594,170.5469 Q2824.5469,170.4375 2824.7656,170.4375 Q2825.1406,170.4375 2825.375,170.7031 Q2825.6094,170.9531 2825.6094,171.5625 L2825.6094,173.0156 Q2825.6094,173.625 2825.375,173.8906 Q2825.1406,174.1563 2824.7656,174.1563 Q2824.4219,174.1563 2824.2188,173.9531 Q2824.0156,173.7656 2823.9063,173.25 Q2823.8594,172.8906 2823.6719,172.7031 Q2823.3438,172.3281 2822.7344,172.1094 Q2822.125,171.8906 2821.5,171.8906 Q2820.7344,171.8906 2820.0938,172.2188 Q2819.4688,172.5469 2818.9688,173.2969 Q2818.4844,174.0469 2818.4844,175.0781 L2818.4844,176.1719 Q2818.4844,177.4063 2819.375,178.2344 Q2820.2656,179.0469 2821.8594,179.0469 Q2822.7969,179.0469 2823.4531,178.7969 Q2823.8438,178.6406 2824.2656,178.2031 Q2824.5313,177.9375 2824.6719,177.8594 Q2824.8281,177.7813 2825.0313,177.7813 Q2825.3594,177.7813 2825.6094,178.0469 Q2825.875,178.2969 2825.875,178.6406 Q2825.875,178.9844 2825.5313,179.3906 Q2825.0313,179.9688 2824.2344,180.2969 Q2823.1563,180.75 2821.8594,180.75 Q2820.3438,180.75 2819.1406,180.125 Q2818.1563,179.625 2817.4688,178.5625 Q2816.7813,177.4844 2816.7813,176.2031 L2816.7813,175.0469 Q2816.7813,173.7188 2817.3906,172.5781 Q2818.0156,171.4219 2819.1094,170.8125 Q2820.2031,170.1875 2821.4375,170.1875 Q2822.1719,170.1875 2822.8125,170.3594 Q2823.4688,170.5156 2824.0156,170.875 Z " fill="#000000"/><text fill="#000000" font-family="sans-serif" font-size="14" lengthAdjust="spacing" textLength="83" x="2841.75" y="180.7285">BulletFactory</text><line style="stroke:#181818;stroke-width:0.5;" x1="2621.5" x2="3112.5" y1="191" y2="191"/><line style="stroke:#181818;stroke-width:0.5;" x1="2621.5" x2="3112.5" y1="199" y2="199"/><ellipse cx="2631.5" cy="213.3047" fill="#84BE84" rx="3" ry="3" style="stroke:#038048;stroke-width:1.0;"/><text fill="#000000" font-family="sans-serif" font-size="14" lengthAdjust="spacing" textLength="467" x="2640.5" y="217.5332">createProp(int locationX, int locationY, int speedX, int speedY) : BulletProp</text></g><!--class BombFactory--><g id="elem_BombFactory"><rect codeLine="64" fill="#F1F1F1" height="65.6094" id="BombFactory" rx="2.5" ry="2.5" style="stroke:#181818;stroke-width:0.5;" width="494" x="3149" y="159"/><ellipse cx="3349.75" cy="175" fill="#ADD1B2" rx="11" ry="11" style="stroke:#181818;stroke-width:1.0;"/><path d="M3352.5156,170.875 Q3352.6719,170.6563 3352.8594,170.5469 Q3353.0469,170.4375 3353.2656,170.4375 Q3353.6406,170.4375 3353.875,170.7031 Q3354.1094,170.9531 3354.1094,171.5625 L3354.1094,173.0156 Q3354.1094,173.625 3353.875,173.8906 Q3353.6406,174.1563 3353.2656,174.1563 Q3352.9219,174.1563 3352.7188,173.9531 Q3352.5156,173.7656 3352.4063,173.25 Q3352.3594,172.8906 3352.1719,172.7031 Q3351.8438,172.3281 3351.2344,172.1094 Q3350.625,171.8906 3350,171.8906 Q3349.2344,171.8906 3348.5938,172.2188 Q3347.9688,172.5469 3347.4688,173.2969 Q3346.9844,174.0469 3346.9844,175.0781 L3346.9844,176.1719 Q3346.9844,177.4063 3347.875,178.2344 Q3348.7656,179.0469 3350.3594,179.0469 Q3351.2969,179.0469 3351.9531,178.7969 Q3352.3438,178.6406 3352.7656,178.2031 Q3353.0313,177.9375 3353.1719,177.8594 Q3353.3281,177.7813 3353.5313,177.7813 Q3353.8594,177.7813 3354.1094,178.0469 Q3354.375,178.2969 3354.375,178.6406 Q3354.375,178.9844 3354.0313,179.3906 Q3353.5313,179.9688 3352.7344,180.2969 Q3351.6563,180.75 3350.3594,180.75 Q3348.8438,180.75 3347.6406,180.125 Q3346.6563,179.625 3345.9688,178.5625 Q3345.2813,177.4844 3345.2813,176.2031 L3345.2813,175.0469 Q3345.2813,173.7188 3345.8906,172.5781 Q3346.5156,171.4219 3347.6094,170.8125 Q3348.7031,170.1875 3349.9375,170.1875 Q3350.6719,170.1875 3351.3125,170.3594 Q3351.9688,170.5156 3352.5156,170.875 Z " fill="#000000"/><text fill="#000000" font-family="sans-serif" font-size="14" lengthAdjust="spacing" textLength="84" x="3370.25" y="180.7285">BombFactory</text><line style="stroke:#181818;stroke-width:0.5;" x1="3150" x2="3642" y1="191" y2="191"/><line style="stroke:#181818;stroke-width:0.5;" x1="3150" x2="3642" y1="199" y2="199"/><ellipse cx="3160" cy="213.3047" fill="#84BE84" rx="3" ry="3" style="stroke:#038048;stroke-width:1.0;"/><text fill="#000000" font-family="sans-serif" font-size="14" lengthAdjust="spacing" textLength="468" x="3169" y="217.5332">createProp(int locationX, int locationY, int speedX, int speedY) : BombProp</text></g><!--class BloodFactory--><g id="elem_BloodFactory"><rect codeLine="67" fill="#F1F1F1" height="65.6094" id="BloodFactory" rx="2.5" ry="2.5" style="stroke:#181818;stroke-width:0.5;" width="494" x="2091" y="159"/><ellipse cx="2291.75" cy="175" fill="#ADD1B2" rx="11" ry="11" style="stroke:#181818;stroke-width:1.0;"/><path d="M2294.5156,170.875 Q2294.6719,170.6563 2294.8594,170.5469 Q2295.0469,170.4375 2295.2656,170.4375 Q2295.6406,170.4375 2295.875,170.7031 Q2296.1094,170.9531 2296.1094,171.5625 L2296.1094,173.0156 Q2296.1094,173.625 2295.875,173.8906 Q2295.6406,174.1563 2295.2656,174.1563 Q2294.9219,174.1563 2294.7188,173.9531 Q2294.5156,173.7656 2294.4063,173.25 Q2294.3594,172.8906 2294.1719,172.7031 Q2293.8438,172.3281 2293.2344,172.1094 Q2292.625,171.8906 2292,171.8906 Q2291.2344,171.8906 2290.5938,172.2188 Q2289.9688,172.5469 2289.4688,173.2969 Q2288.9844,174.0469 2288.9844,175.0781 L2288.9844,176.1719 Q2288.9844,177.4063 2289.875,178.2344 Q2290.7656,179.0469 2292.3594,179.0469 Q2293.2969,179.0469 2293.9531,178.7969 Q2294.3438,178.6406 2294.7656,178.2031 Q2295.0313,177.9375 2295.1719,177.8594 Q2295.3281,177.7813 2295.5313,177.7813 Q2295.8594,177.7813 2296.1094,178.0469 Q2296.375,178.2969 2296.375,178.6406 Q2296.375,178.9844 2296.0313,179.3906 Q2295.5313,179.9688 2294.7344,180.2969 Q2293.6563,180.75 2292.3594,180.75 Q2290.8438,180.75 2289.6406,180.125 Q2288.6563,179.625 2287.9688,178.5625 Q2287.2813,177.4844 2287.2813,176.2031 L2287.2813,175.0469 Q2287.2813,173.7188 2287.8906,172.5781 Q2288.5156,171.4219 2289.6094,170.8125 Q2290.7031,170.1875 2291.9375,170.1875 Q2292.6719,170.1875 2293.3125,170.3594 Q2293.9688,170.5156 2294.5156,170.875 Z " fill="#000000"/><text fill="#000000" font-family="sans-serif" font-size="14" lengthAdjust="spacing" textLength="84" x="2312.25" y="180.7285">BloodFactory</text><line style="stroke:#181818;stroke-width:0.5;" x1="2092" x2="2584" y1="191" y2="191"/><line style="stroke:#181818;stroke-width:0.5;" x1="2092" x2="2584" y1="199" y2="199"/><ellipse cx="2102" cy="213.3047" fill="#84BE84" rx="3" ry="3" style="stroke:#038048;stroke-width:1.0;"/><text fill="#000000" font-family="sans-serif" font-size="14" lengthAdjust="spacing" textLength="468" x="2111" y="217.5332">createProp(int locationX, int locationY, int speedX, int speedY) : BloodProp</text></g><!--class BloodPlusFactory--><g id="elem_BloodPlusFactory"><rect codeLine="70" fill="#F1F1F1" height="65.6094" id="BloodPlusFactory" rx="2.5" ry="2.5" style="stroke:#181818;stroke-width:0.5;" width="520" x="7" y="159"/><ellipse cx="207.25" cy="175" fill="#ADD1B2" rx="11" ry="11" style="stroke:#181818;stroke-width:1.0;"/><path d="M210.0156,170.875 Q210.1719,170.6563 210.3594,170.5469 Q210.5469,170.4375 210.7656,170.4375 Q211.1406,170.4375 211.375,170.7031 Q211.6094,170.9531 211.6094,171.5625 L211.6094,173.0156 Q211.6094,173.625 211.375,173.8906 Q211.1406,174.1563 210.7656,174.1563 Q210.4219,174.1563 210.2188,173.9531 Q210.0156,173.7656 209.9063,173.25 Q209.8594,172.8906 209.6719,172.7031 Q209.3438,172.3281 208.7344,172.1094 Q208.125,171.8906 207.5,171.8906 Q206.7344,171.8906 206.0938,172.2188 Q205.4688,172.5469 204.9688,173.2969 Q204.4844,174.0469 204.4844,175.0781 L204.4844,176.1719 Q204.4844,177.4063 205.375,178.2344 Q206.2656,179.0469 207.8594,179.0469 Q208.7969,179.0469 209.4531,178.7969 Q209.8438,178.6406 210.2656,178.2031 Q210.5313,177.9375 210.6719,177.8594 Q210.8281,177.7813 211.0313,177.7813 Q211.3594,177.7813 211.6094,178.0469 Q211.875,178.2969 211.875,178.6406 Q211.875,178.9844 211.5313,179.3906 Q211.0313,179.9688 210.2344,180.2969 Q209.1563,180.75 207.8594,180.75 Q206.3438,180.75 205.1406,180.125 Q204.1563,179.625 203.4688,178.5625 Q202.7813,177.4844 202.7813,176.2031 L202.7813,175.0469 Q202.7813,173.7188 203.3906,172.5781 Q204.0156,171.4219 205.1094,170.8125 Q206.2031,170.1875 207.4375,170.1875 Q208.1719,170.1875 208.8125,170.3594 Q209.4688,170.5156 210.0156,170.875 Z " fill="#000000"/><text fill="#000000" font-family="sans-serif" font-size="14" lengthAdjust="spacing" textLength="111" x="227.75" y="180.7285">BloodPlusFactory</text><line style="stroke:#181818;stroke-width:0.5;" x1="8" x2="526" y1="191" y2="191"/><line style="stroke:#181818;stroke-width:0.5;" x1="8" x2="526" y1="199" y2="199"/><ellipse cx="18" cy="213.3047" fill="#84BE84" rx="3" ry="3" style="stroke:#038048;stroke-width:1.0;"/><text fill="#000000" font-family="sans-serif" font-size="14" lengthAdjust="spacing" textLength="494" x="27" y="217.5332">createProp(int locationX, int locationY, int speedX, int speedY) : BloosPlusProp</text></g><!--class BulletPlusFactory--><g id="elem_BulletPlusFactory"><rect codeLine="73" fill="#F1F1F1" height="65.6094" id="BulletPlusFactory" rx="2.5" ry="2.5" style="stroke:#181818;stroke-width:0.5;" width="520" x="562" y="159"/><ellipse cx="762.75" cy="175" fill="#ADD1B2" rx="11" ry="11" style="stroke:#181818;stroke-width:1.0;"/><path d="M765.5156,170.875 Q765.6719,170.6563 765.8594,170.5469 Q766.0469,170.4375 766.2656,170.4375 Q766.6406,170.4375 766.875,170.7031 Q767.1094,170.9531 767.1094,171.5625 L767.1094,173.0156 Q767.1094,173.625 766.875,173.8906 Q766.6406,174.1563 766.2656,174.1563 Q765.9219,174.1563 765.7188,173.9531 Q765.5156,173.7656 765.4063,173.25 Q765.3594,172.8906 765.1719,172.7031 Q764.8438,172.3281 764.2344,172.1094 Q763.625,171.8906 763,171.8906 Q762.2344,171.8906 761.5938,172.2188 Q760.9688,172.5469 760.4688,173.2969 Q759.9844,174.0469 759.9844,175.0781 L759.9844,176.1719 Q759.9844,177.4063 760.875,178.2344 Q761.7656,179.0469 763.3594,179.0469 Q764.2969,179.0469 764.9531,178.7969 Q765.3438,178.6406 765.7656,178.2031 Q766.0313,177.9375 766.1719,177.8594 Q766.3281,177.7813 766.5313,177.7813 Q766.8594,177.7813 767.1094,178.0469 Q767.375,178.2969 767.375,178.6406 Q767.375,178.9844 767.0313,179.3906 Q766.5313,179.9688 765.7344,180.2969 Q764.6563,180.75 763.3594,180.75 Q761.8438,180.75 760.6406,180.125 Q759.6563,179.625 758.9688,178.5625 Q758.2813,177.4844 758.2813,176.2031 L758.2813,175.0469 Q758.2813,173.7188 758.8906,172.5781 Q759.5156,171.4219 760.6094,170.8125 Q761.7031,170.1875 762.9375,170.1875 Q763.6719,170.1875 764.3125,170.3594 Q764.9688,170.5156 765.5156,170.875 Z " fill="#000000"/><text fill="#000000" font-family="sans-serif" font-size="14" lengthAdjust="spacing" textLength="110" x="783.25" y="180.7285">BulletPlusFactory</text><line style="stroke:#181818;stroke-width:0.5;" x1="563" x2="1081" y1="191" y2="191"/><line style="stroke:#181818;stroke-width:0.5;" x1="563" x2="1081" y1="199" y2="199"/><ellipse cx="573" cy="213.3047" fill="#84BE84" rx="3" ry="3" style="stroke:#038048;stroke-width:1.0;"/><text fill="#000000" font-family="sans-serif" font-size="14" lengthAdjust="spacing" textLength="494" x="582" y="217.5332">createProp(int locationX, int locationY, int speedX, int speedY) : BulletPlusProp</text></g><!--class ScoreFactory--><g id="elem_ScoreFactory"><rect codeLine="77" fill="#F1F1F1" height="65.6094" id="ScoreFactory" rx="2.5" ry="2.5" style="stroke:#181818;stroke-width:0.5;" width="495" x="1117.5" y="159"/><ellipse cx="1318.25" cy="175" fill="#ADD1B2" rx="11" ry="11" style="stroke:#181818;stroke-width:1.0;"/><path d="M1321.0156,170.875 Q1321.1719,170.6563 1321.3594,170.5469 Q1321.5469,170.4375 1321.7656,170.4375 Q1322.1406,170.4375 1322.375,170.7031 Q1322.6094,170.9531 1322.6094,171.5625 L1322.6094,173.0156 Q1322.6094,173.625 1322.375,173.8906 Q1322.1406,174.1563 1321.7656,174.1563 Q1321.4219,174.1563 1321.2188,173.9531 Q1321.0156,173.7656 1320.9063,173.25 Q1320.8594,172.8906 1320.6719,172.7031 Q1320.3438,172.3281 1319.7344,172.1094 Q1319.125,171.8906 1318.5,171.8906 Q1317.7344,171.8906 1317.0938,172.2188 Q1316.4688,172.5469 1315.9688,173.2969 Q1315.4844,174.0469 1315.4844,175.0781 L1315.4844,176.1719 Q1315.4844,177.4063 1316.375,178.2344 Q1317.2656,179.0469 1318.8594,179.0469 Q1319.7969,179.0469 1320.4531,178.7969 Q1320.8438,178.6406 1321.2656,178.2031 Q1321.5313,177.9375 1321.6719,177.8594 Q1321.8281,177.7813 1322.0313,177.7813 Q1322.3594,177.7813 1322.6094,178.0469 Q1322.875,178.2969 1322.875,178.6406 Q1322.875,178.9844 1322.5313,179.3906 Q1322.0313,179.9688 1321.2344,180.2969 Q1320.1563,180.75 1318.8594,180.75 Q1317.3438,180.75 1316.1406,180.125 Q1315.1563,179.625 1314.4688,178.5625 Q1313.7813,177.4844 1313.7813,176.2031 L1313.7813,175.0469 Q1313.7813,173.7188 1314.3906,172.5781 Q1315.0156,171.4219 1316.1094,170.8125 Q1317.2031,170.1875 1318.4375,170.1875 Q1319.1719,170.1875 1319.8125,170.3594 Q1320.4688,170.5156 1321.0156,170.875 Z " fill="#000000"/><text fill="#000000" font-family="sans-serif" font-size="14" lengthAdjust="spacing" textLength="85" x="1338.75" y="180.7285">ScoreFactory</text><line style="stroke:#181818;stroke-width:0.5;" x1="1118.5" x2="1611.5" y1="191" y2="191"/><line style="stroke:#181818;stroke-width:0.5;" x1="1118.5" x2="1611.5" y1="199" y2="199"/><ellipse cx="1128.5" cy="213.3047" fill="#84BE84" rx="3" ry="3" style="stroke:#038048;stroke-width:1.0;"/><text fill="#000000" font-family="sans-serif" font-size="14" lengthAdjust="spacing" textLength="469" x="1137.5" y="217.5332">createProp(int locationX, int locationY, int speedX, int speedY) : ScoreProp</text></g><!--reverse link BaseProp to BloodProp--><g id="link_BaseProp_BloodProp"><path codeLine="49" d="M1882.9691,267.6553 C1894.2191,294.7653 1900.68,310.35 1911.93,337.46 " fill="none" id="BaseProp-backto-BloodProp" style="stroke:#181818;stroke-width:1.0;"/><polygon fill="none" points="1876.07,251.03,1877.4273,269.9551,1888.5109,265.3556,1876.07,251.03" style="stroke:#181818;stroke-width:1.0;"/></g><!--reverse link BaseProp to BombProp--><g id="link_BaseProp_BombProp"><path codeLine="50" d="M2073.8147,251.1745 C2079.8247,252.3145 2068.11,250.02 2074,251 C2432.74,310.54 2529.69,261.87 2890,311 C2950.24,319.21 3014.83,330.74 3074.91,342.65 " fill="none" id="BaseProp-backto-BombProp" style="stroke:#181818;stroke-width:1.0;"/><polygon fill="none" points="2056.13,247.82,2072.6965,257.0694,2074.9328,245.2796,2056.13,247.82" style="stroke:#181818;stroke-width:1.0;"/></g><!--reverse link BaseProp to BulletProp--><g id="link_BaseProp_BulletProp"><path codeLine="51" d="M2073.5402,250.9141 C2079.5702,252.4541 2068.11,249.51 2074,251 C2216.55,286.99 2378.78,326.41 2497.47,354.98 " fill="none" id="BaseProp-backto-BulletProp" style="stroke:#181818;stroke-width:1.0;"/><polygon fill="none" points="2056.1,246.46,2072.0555,256.7275,2075.0249,245.1006,2056.1,246.46" style="stroke:#181818;stroke-width:1.0;"/></g><!--reverse link BaseProp to BulletPlusProp--><g id="link_BaseProp_BulletPlusProp"><path codeLine="52" d="M1630.1708,251.0929 C1624.1908,252.3429 1635.87,249.86 1630,251 C1423.26,291.03 1366.12,267.89 1160,311 C1104.92,322.52 1045.05,339.36 994.24,354.98 " fill="none" id="BaseProp-backto-BulletPlusProp" style="stroke:#181818;stroke-width:1.0;"/><polygon fill="none" points="1647.79,247.41,1628.9432,245.2199,1631.3985,256.966,1647.79,247.41" style="stroke:#181818;stroke-width:1.0;"/></g><!--reverse link BaseProp to ScoreProp--><g id="link_BaseProp_ScoreProp"><path codeLine="53" d="M1701.3704,258.1786 C1632.0904,288.1586 1564.94,317.21 1498.7,345.87 " fill="none" id="BaseProp-backto-ScoreProp" style="stroke:#181818;stroke-width:1.0;"/><polygon fill="none" points="1717.89,251.03,1698.9875,252.6721,1703.7533,263.6852,1717.89,251.03" style="stroke:#181818;stroke-width:1.0;"/></g><!--reverse link BaseProp to BloodPlusProp--><g id="link_BaseProp_BloodPlusProp"><path codeLine="54" d="M1630.1832,251.1655 C1624.1632,252.2655 1635.9,250.06 1630,251 C1192.49,320.66 1071.01,232.49 635,311 C599.13,317.46 561.35,327.04 525.64,337.45 " fill="none" id="BaseProp-backto-BloodPlusProp" style="stroke:#181818;stroke-width:1.0;"/><polygon fill="none" points="1647.89,247.93,1629.1047,245.2632,1631.2617,257.0677,1647.89,247.93" style="stroke:#181818;stroke-width:1.0;"/></g><!--reverse link PropFactory to BombFactory--><g id="link_PropFactory_BombFactory"><path codeLine="81" d="M2115.1965,48.8963 C2373.7565,58.9063 2773.65,81.32 3131,133 C3175.75,139.47 3224.2,149.24 3267.29,158.93 " fill="none" id="PropFactory-backto-BombFactory" style="stroke:#181818;stroke-width:1.0;stroke-dasharray:7.0,7.0;"/><polygon fill="none" points="2097.21,48.2,2114.9644,54.8918,2115.4286,42.9008,2097.21,48.2" style="stroke:#181818;stroke-width:1.0;"/></g><!--reverse link PropFactory to BulletFactory--><g id="link_PropFactory_BulletFactory"><path codeLine="82" d="M2115.2956,67.1463 C2262.5256,83.0763 2435.1,104.35 2603,133 C2645.44,140.24 2691.37,149.74 2732.84,158.95 " fill="none" id="PropFactory-backto-BulletFactory" style="stroke:#181818;stroke-width:1.0;stroke-dasharray:7.0,7.0;"/><polygon fill="none" points="2097.4,65.21,2114.6501,73.1114,2115.941,61.1811,2097.4,65.21" style="stroke:#181818;stroke-width:1.0;"/></g><!--reverse link PropFactory to BloodFactory--><g id="link_PropFactory_BloodFactory"><path codeLine="83" d="M1972.3728,78.3874 C2054.6628,103.7274 2151.75,133.63 2233.99,158.96 " fill="none" id="PropFactory-backto-BloodFactory" style="stroke:#181818;stroke-width:1.0;stroke-dasharray:7.0,7.0;"/><polygon fill="none" points="1955.17,73.09,1970.6071,84.1216,1974.1386,72.6531,1955.17,73.09" style="stroke:#181818;stroke-width:1.0;"/></g><!--reverse link PropFactory to BloodPlusFactory--><g id="link_PropFactory_BloodPlusFactory"><path codeLine="85" d="M1586.8734,49.0349 C1323.3634,59.2149 911.52,81.83 544,133 C497.28,139.5 446.65,149.29 401.61,158.97 " fill="none" id="PropFactory-backto-BloodPlusFactory" style="stroke:#181818;stroke-width:1.0;stroke-dasharray:7.0,7.0;"/><polygon fill="none" points="1604.86,48.34,1586.6418,43.0393,1587.105,55.0304,1604.86,48.34" style="stroke:#181818;stroke-width:1.0;"/></g><!--reverse link PropFactory to BulletPlusFactory--><g id="link_PropFactory_BulletPlusFactory"><path codeLine="86" d="M1586.718,67.8889 C1439.778,84.0589 1267.67,105.29 1100,133 C1055.61,140.34 1007.55,149.81 964.07,158.97 " fill="none" id="PropFactory-backto-BulletPlusFactory" style="stroke:#181818;stroke-width:1.0;stroke-dasharray:7.0,7.0;"/><polygon fill="none" points="1604.61,65.92,1586.0617,61.9249,1587.3743,73.8529,1604.61,65.92" style="stroke:#181818;stroke-width:1.0;"/></g><!--reverse link PropFactory to ScoreFactory--><g id="link_PropFactory_ScoreFactory"><path codeLine="87" d="M1729.8402,78.3974 C1647.7202,103.7374 1550.87,133.63 1468.8,158.96 " fill="none" id="PropFactory-backto-ScoreFactory" style="stroke:#181818;stroke-width:1.0;stroke-dasharray:7.0,7.0;"/><polygon fill="none" points="1747.04,73.09,1728.0711,72.6641,1731.6094,84.1306,1747.04,73.09" style="stroke:#181818;stroke-width:1.0;"/></g><!--link BombFactory to BombProp--><g id="link_BombFactory_BombProp"><path codeLine="90" d="M3382.69,225.09 C3373.11,248.17 3362.0308,274.9087 3349.4708,305.1587 " fill="none" id="BombFactory-to-BombProp" style="stroke:#181818;stroke-width:1.0;stroke-dasharray:7.0,7.0;"/><polygon fill="#181818" points="3347.17,310.7,3354.3154,303.9219,3349.0873,306.0822,3346.927,300.8541,3347.17,310.7" style="stroke:#181818;stroke-width:1.0;"/></g><!--link BulletFactory to BulletProp--><g id="link_BulletFactory_BulletProp"><path codeLine="91" d="M2835.31,225.09 C2800.61,260.22 2749.1157,312.3506 2711.3857,350.5606 " fill="none" id="BulletFactory-to-BulletProp" style="stroke:#181818;stroke-width:1.0;stroke-dasharray:7.0,7.0;"/><polygon fill="#181818" points="2707.17,354.83,2716.3399,351.2364,2710.6831,351.2722,2710.6474,345.6154,2707.17,354.83" style="stroke:#181818;stroke-width:1.0;"/></g><!--link BulletPlusFactory to BulletPlusProp--><g id="link_BulletPlusFactory_BulletPlusProp"><path codeLine="92" d="M829.92,225.09 C838.6,260.22 851.0809,310.7951 860.5209,349.0051 " fill="none" id="BulletPlusFactory-to-BulletPlusProp" style="stroke:#181818;stroke-width:1.0;stroke-dasharray:7.0,7.0;"/><polygon fill="#181818" points="861.96,354.83,863.6846,345.1333,860.7608,349.9759,855.9182,347.0521,861.96,354.83" style="stroke:#181818;stroke-width:1.0;"/></g><!--link ScoreFactory to ScoreProp--><g id="link_ScoreFactory_ScoreProp"><path codeLine="93" d="M1368.01,225.09 C1371.06,257.54 1375.2383,302.1763 1378.7783,339.8263 " fill="none" id="ScoreFactory-to-ScoreProp" style="stroke:#181818;stroke-width:1.0;stroke-dasharray:7.0,7.0;"/><polygon fill="#181818" points="1379.34,345.8,1382.4799,336.4651,1378.8719,340.822,1374.5151,337.214,1379.34,345.8" style="stroke:#181818;stroke-width:1.0;"/></g><!--link BloodFactory to BloodProp--><g id="link_BloodFactory_BloodProp"><path codeLine="94" d="M2274.3,225.09 C2214.53,255.2 2129.0784,298.2405 2056.5884,334.7605 " fill="none" id="BloodFactory-to-BloodProp" style="stroke:#181818;stroke-width:1.0;stroke-dasharray:7.0,7.0;"/><polygon fill="#181818" points="2051.23,337.46,2061.0673,336.983,2055.6953,335.2104,2057.4679,329.8384,2051.23,337.46" style="stroke:#181818;stroke-width:1.0;"/></g><!--link BloodPlusFactory to BloodPlusProp--><g id="link_BloodPlusFactory_BloodPlusProp"><path codeLine="95" d="M281.42,225.09 C294.95,255.2 313.0508,295.4671 329.4608,331.9871 " fill="none" id="BloodPlusFactory-to-BloodPlusProp" style="stroke:#181818;stroke-width:1.0;stroke-dasharray:7.0,7.0;"/><polygon fill="#181818" points="331.92,337.46,331.8798,327.6112,329.8707,332.8993,324.5826,330.8902,331.92,337.46" style="stroke:#181818;stroke-width:1.0;"/></g><!--SRC=[pLN1JiCm33tJhx34fTDOFw2Q9Wq9n04a93YmqvGsAQlecYb9GHFqtqdMfFMo3g6D0JijjkldPpil995Aa5H1MX0fuP98TY_uAdWFGF_E8NbUndULpDF7XM24Rgp3DYpCImK5JudAUVbq0VWuQuvonHXzGlzd0x1PCYxUYA3X88PNdjFWR0ZlnDPJmniNB-4D4toQYrIGJC527ouIpWj6IgWaMvgwtCTr45WA1UVK50SDXn4GIkU9iKAigt0KNDXX76oMPwRcKqetoGmFar_JEAxsefBVhT-6_YiELL4mXGWCaUd0GeylPxkdGy_y-sKzf5omdIbBOpL3TbUa3Vk3nl5bibKWAzbotVGjXjjSgh6HWSOmmJ4EIDgmgRtJLzWvSOEmCBz6i87LtMugbw5F1PB6iVD1oolyWXQGFhENhEGgpzRpQaM9OY5glHDM67-CHfr6-NRRCz_SNhD-XrrspzckM2-u-oRGJMSY8oa3SxxM1BbOkzk4P3lLpuGwvd68kqV8kyGUw4yWTHtRsliJ8BcHrLZgJu3Jhapjlocd0PFjYjGxYdkoWNMGM4v_7gwx6ne9xRs-8L64DwN7YLUsnut67-nnenRko_zb26vAeBMbAnUYQDA92Avquq4wugCWlni2XZ5k92Y8f7PWFVFuRT9YmVa4]--></g></svg>