<?xml version="1.0" encoding="us-ascii" standalone="no"?><svg xmlns="http://www.w3.org/2000/svg" xmlns:xlink="http://www.w3.org/1999/xlink" contentStyleType="text/css" height="738px" preserveAspectRatio="none" style="width:1743px;height:738px;background:#FFFFFF;" version="1.1" viewBox="0 0 1743 738" width="1743px" zoomAndPan="magnify"><defs/><g><!--class Strategy--><g id="elem_Strategy"><rect codeLine="3" fill="#F1F1F1" height="65.6094" id="Strategy" rx="2.5" ry="2.5" style="stroke:#181818;stroke-width:0.5;" width="550" x="596.5" y="540"/><ellipse cx="840.75" cy="556" fill="#B4A7E5" rx="11" ry="11" style="stroke:#181818;stroke-width:1.0;"/><path d="M841.7031,552.6406 L841.7031,559.2969 L843.4219,559.2969 Q844.0313,559.2969 844.2969,559.5313 Q844.5625,559.7656 844.5625,560.1563 Q844.5625,560.5313 844.2969,560.7656 Q844.0313,561 843.4219,561 L838.2813,561 Q837.6719,561 837.4063,560.7656 Q837.1406,560.5313 837.1406,560.1406 Q837.1406,559.7656 837.4063,559.5313 Q837.6719,559.2969 838.2813,559.2969 L840,559.2969 L840,552.6406 L838.2813,552.6406 Q837.6719,552.6406 837.4063,552.4063 Q837.1406,552.1719 837.1406,551.7813 Q837.1406,551.4063 837.4063,551.1719 Q837.6719,550.9375 838.2813,550.9375 L843.4219,550.9375 Q844.0313,550.9375 844.2969,551.1719 Q844.5625,551.4063 844.5625,551.7813 Q844.5625,552.1719 844.2969,552.4063 Q844.0313,552.6406 843.4219,552.6406 L841.7031,552.6406 Z " fill="#000000"/><text fill="#000000" font-family="sans-serif" font-size="14" font-style="italic" lengthAdjust="spacing" textLength="53" x="861.25" y="561.7285">Strategy</text><line style="stroke:#181818;stroke-width:0.5;" x1="597.5" x2="1145.5" y1="572" y2="572"/><line style="stroke:#181818;stroke-width:0.5;" x1="597.5" x2="1145.5" y1="580" y2="580"/><ellipse cx="607.5" cy="594.3047" fill="#84BE84" rx="3" ry="3" style="stroke:#038048;stroke-width:1.0;"/><text fill="#000000" font-family="sans-serif" font-size="14" font-style="italic" lengthAdjust="spacing" textLength="524" x="616.5" y="598.5332">shoot(AbstractAircraft aircraft,int direction,int power,int shootNum):List&lt;BaseBullet&gt;</text></g><!--class CircleShoot--><g id="elem_CircleShoot"><rect codeLine="7" fill="#F1F1F1" height="65.6094" id="CircleShoot" rx="2.5" ry="2.5" style="stroke:#181818;stroke-width:0.5;" width="553" x="7" y="666"/><ellipse cx="242.75" cy="682" fill="#ADD1B2" rx="11" ry="11" style="stroke:#181818;stroke-width:1.0;"/><path d="M245.5156,677.875 Q245.6719,677.6563 245.8594,677.5469 Q246.0469,677.4375 246.2656,677.4375 Q246.6406,677.4375 246.875,677.7031 Q247.1094,677.9531 247.1094,678.5625 L247.1094,680.0156 Q247.1094,680.625 246.875,680.8906 Q246.6406,681.1563 246.2656,681.1563 Q245.9219,681.1563 245.7188,680.9531 Q245.5156,680.7656 245.4063,680.25 Q245.3594,679.8906 245.1719,679.7031 Q244.8438,679.3281 244.2344,679.1094 Q243.625,678.8906 243,678.8906 Q242.2344,678.8906 241.5938,679.2188 Q240.9688,679.5469 240.4688,680.2969 Q239.9844,681.0469 239.9844,682.0781 L239.9844,683.1719 Q239.9844,684.4063 240.875,685.2344 Q241.7656,686.0469 243.3594,686.0469 Q244.2969,686.0469 244.9531,685.7969 Q245.3438,685.6406 245.7656,685.2031 Q246.0313,684.9375 246.1719,684.8594 Q246.3281,684.7813 246.5313,684.7813 Q246.8594,684.7813 247.1094,685.0469 Q247.375,685.2969 247.375,685.6406 Q247.375,685.9844 247.0313,686.3906 Q246.5313,686.9688 245.7344,687.2969 Q244.6563,687.75 243.3594,687.75 Q241.8438,687.75 240.6406,687.125 Q239.6563,686.625 238.9688,685.5625 Q238.2813,684.4844 238.2813,683.2031 L238.2813,682.0469 Q238.2813,680.7188 238.8906,679.5781 Q239.5156,678.4219 240.6094,677.8125 Q241.7031,677.1875 242.9375,677.1875 Q243.6719,677.1875 244.3125,677.3594 Q244.9688,677.5156 245.5156,677.875 Z " fill="#000000"/><text fill="#000000" font-family="sans-serif" font-size="14" lengthAdjust="spacing" textLength="73" x="263.25" y="687.7285">CircleShoot</text><line style="stroke:#181818;stroke-width:0.5;" x1="8" x2="559" y1="698" y2="698"/><line style="stroke:#181818;stroke-width:0.5;" x1="8" x2="559" y1="706" y2="706"/><ellipse cx="18" cy="720.3047" fill="#84BE84" rx="3" ry="3" style="stroke:#038048;stroke-width:1.0;"/><text fill="#000000" font-family="sans-serif" font-size="14" lengthAdjust="spacing" textLength="527" x="27" y="724.5332">shoot(AbstractAircraft aircraft,int direction,int power,int shootNum): List&lt;BaseBullet&gt;</text></g><!--class DirectShoot--><g id="elem_DirectShoot"><rect codeLine="11" fill="#F1F1F1" height="65.6094" id="DirectShoot" rx="2.5" ry="2.5" style="stroke:#181818;stroke-width:0.5;" width="553" x="595" y="666"/><ellipse cx="830.25" cy="682" fill="#ADD1B2" rx="11" ry="11" style="stroke:#181818;stroke-width:1.0;"/><path d="M833.0156,677.875 Q833.1719,677.6563 833.3594,677.5469 Q833.5469,677.4375 833.7656,677.4375 Q834.1406,677.4375 834.375,677.7031 Q834.6094,677.9531 834.6094,678.5625 L834.6094,680.0156 Q834.6094,680.625 834.375,680.8906 Q834.1406,681.1563 833.7656,681.1563 Q833.4219,681.1563 833.2188,680.9531 Q833.0156,680.7656 832.9063,680.25 Q832.8594,679.8906 832.6719,679.7031 Q832.3438,679.3281 831.7344,679.1094 Q831.125,678.8906 830.5,678.8906 Q829.7344,678.8906 829.0938,679.2188 Q828.4688,679.5469 827.9688,680.2969 Q827.4844,681.0469 827.4844,682.0781 L827.4844,683.1719 Q827.4844,684.4063 828.375,685.2344 Q829.2656,686.0469 830.8594,686.0469 Q831.7969,686.0469 832.4531,685.7969 Q832.8438,685.6406 833.2656,685.2031 Q833.5313,684.9375 833.6719,684.8594 Q833.8281,684.7813 834.0313,684.7813 Q834.3594,684.7813 834.6094,685.0469 Q834.875,685.2969 834.875,685.6406 Q834.875,685.9844 834.5313,686.3906 Q834.0313,686.9688 833.2344,687.2969 Q832.1563,687.75 830.8594,687.75 Q829.3438,687.75 828.1406,687.125 Q827.1563,686.625 826.4688,685.5625 Q825.7813,684.4844 825.7813,683.2031 L825.7813,682.0469 Q825.7813,680.7188 826.3906,679.5781 Q827.0156,678.4219 828.1094,677.8125 Q829.2031,677.1875 830.4375,677.1875 Q831.1719,677.1875 831.8125,677.3594 Q832.4688,677.5156 833.0156,677.875 Z " fill="#000000"/><text fill="#000000" font-family="sans-serif" font-size="14" lengthAdjust="spacing" textLength="74" x="850.75" y="687.7285">DirectShoot</text><line style="stroke:#181818;stroke-width:0.5;" x1="596" x2="1147" y1="698" y2="698"/><line style="stroke:#181818;stroke-width:0.5;" x1="596" x2="1147" y1="706" y2="706"/><ellipse cx="606" cy="720.3047" fill="#84BE84" rx="3" ry="3" style="stroke:#038048;stroke-width:1.0;"/><text fill="#000000" font-family="sans-serif" font-size="14" lengthAdjust="spacing" textLength="527" x="615" y="724.5332">shoot(AbstractAircraft aircraft,int direction,int power,int shootNum): List&lt;BaseBullet&gt;</text></g><!--class ScatterShoot--><g id="elem_ScatterShoot"><rect codeLine="15" fill="#F1F1F1" height="65.6094" id="ScatterShoot" rx="2.5" ry="2.5" style="stroke:#181818;stroke-width:0.5;" width="553" x="1183" y="666"/><ellipse cx="1414.25" cy="682" fill="#ADD1B2" rx="11" ry="11" style="stroke:#181818;stroke-width:1.0;"/><path d="M1417.0156,677.875 Q1417.1719,677.6563 1417.3594,677.5469 Q1417.5469,677.4375 1417.7656,677.4375 Q1418.1406,677.4375 1418.375,677.7031 Q1418.6094,677.9531 1418.6094,678.5625 L1418.6094,680.0156 Q1418.6094,680.625 1418.375,680.8906 Q1418.1406,681.1563 1417.7656,681.1563 Q1417.4219,681.1563 1417.2188,680.9531 Q1417.0156,680.7656 1416.9063,680.25 Q1416.8594,679.8906 1416.6719,679.7031 Q1416.3438,679.3281 1415.7344,679.1094 Q1415.125,678.8906 1414.5,678.8906 Q1413.7344,678.8906 1413.0938,679.2188 Q1412.4688,679.5469 1411.9688,680.2969 Q1411.4844,681.0469 1411.4844,682.0781 L1411.4844,683.1719 Q1411.4844,684.4063 1412.375,685.2344 Q1413.2656,686.0469 1414.8594,686.0469 Q1415.7969,686.0469 1416.4531,685.7969 Q1416.8438,685.6406 1417.2656,685.2031 Q1417.5313,684.9375 1417.6719,684.8594 Q1417.8281,684.7813 1418.0313,684.7813 Q1418.3594,684.7813 1418.6094,685.0469 Q1418.875,685.2969 1418.875,685.6406 Q1418.875,685.9844 1418.5313,686.3906 Q1418.0313,686.9688 1417.2344,687.2969 Q1416.1563,687.75 1414.8594,687.75 Q1413.3438,687.75 1412.1406,687.125 Q1411.1563,686.625 1410.4688,685.5625 Q1409.7813,684.4844 1409.7813,683.2031 L1409.7813,682.0469 Q1409.7813,680.7188 1410.3906,679.5781 Q1411.0156,678.4219 1412.1094,677.8125 Q1413.2031,677.1875 1414.4375,677.1875 Q1415.1719,677.1875 1415.8125,677.3594 Q1416.4688,677.5156 1417.0156,677.875 Z " fill="#000000"/><text fill="#000000" font-family="sans-serif" font-size="14" lengthAdjust="spacing" textLength="82" x="1434.75" y="687.7285">ScatterShoot</text><line style="stroke:#181818;stroke-width:0.5;" x1="1184" x2="1735" y1="698" y2="698"/><line style="stroke:#181818;stroke-width:0.5;" x1="1184" x2="1735" y1="706" y2="706"/><ellipse cx="1194" cy="720.3047" fill="#84BE84" rx="3" ry="3" style="stroke:#038048;stroke-width:1.0;"/><text fill="#000000" font-family="sans-serif" font-size="14" lengthAdjust="spacing" textLength="527" x="1203" y="724.5332">shoot(AbstractAircraft aircraft,int direction,int power,int shootNum): List&lt;BaseBullet&gt;</text></g><!--class Context--><g id="elem_Context"><rect codeLine="23" fill="#F1F1F1" height="118.4375" id="Context" rx="2.5" ry="2.5" style="stroke:#181818;stroke-width:0.5;" width="624" x="559.5" y="362"/><ellipse cx="843.25" cy="378" fill="#ADD1B2" rx="11" ry="11" style="stroke:#181818;stroke-width:1.0;"/><path d="M846.0156,373.875 Q846.1719,373.6563 846.3594,373.5469 Q846.5469,373.4375 846.7656,373.4375 Q847.1406,373.4375 847.375,373.7031 Q847.6094,373.9531 847.6094,374.5625 L847.6094,376.0156 Q847.6094,376.625 847.375,376.8906 Q847.1406,377.1563 846.7656,377.1563 Q846.4219,377.1563 846.2188,376.9531 Q846.0156,376.7656 845.9063,376.25 Q845.8594,375.8906 845.6719,375.7031 Q845.3438,375.3281 844.7344,375.1094 Q844.125,374.8906 843.5,374.8906 Q842.7344,374.8906 842.0938,375.2188 Q841.4688,375.5469 840.9688,376.2969 Q840.4844,377.0469 840.4844,378.0781 L840.4844,379.1719 Q840.4844,380.4063 841.375,381.2344 Q842.2656,382.0469 843.8594,382.0469 Q844.7969,382.0469 845.4531,381.7969 Q845.8438,381.6406 846.2656,381.2031 Q846.5313,380.9375 846.6719,380.8594 Q846.8281,380.7813 847.0313,380.7813 Q847.3594,380.7813 847.6094,381.0469 Q847.875,381.2969 847.875,381.6406 Q847.875,381.9844 847.5313,382.3906 Q847.0313,382.9688 846.2344,383.2969 Q845.1563,383.75 843.8594,383.75 Q842.3438,383.75 841.1406,383.125 Q840.1563,382.625 839.4688,381.5625 Q838.7813,380.4844 838.7813,379.2031 L838.7813,378.0469 Q838.7813,376.7188 839.3906,375.5781 Q840.0156,374.4219 841.1094,373.8125 Q842.2031,373.1875 843.4375,373.1875 Q844.1719,373.1875 844.8125,373.3594 Q845.4688,373.5156 846.0156,373.875 Z " fill="#000000"/><text fill="#000000" font-family="sans-serif" font-size="14" lengthAdjust="spacing" textLength="48" x="863.75" y="383.7285">Context</text><line style="stroke:#181818;stroke-width:0.5;" x1="560.5" x2="1182.5" y1="394" y2="394"/><rect fill="none" height="6" style="stroke:#C82930;stroke-width:1.0;" width="6" x="567.5" y="405.3047"/><text fill="#000000" font-family="sans-serif" font-size="14" lengthAdjust="spacing" textLength="116" x="579.5" y="412.5332">strategy : Strategy</text><line style="stroke:#181818;stroke-width:0.5;" x1="560.5" x2="1182.5" y1="419.6094" y2="419.6094"/><ellipse cx="570.5" cy="433.9141" fill="#84BE84" rx="3" ry="3" style="stroke:#038048;stroke-width:1.0;"/><text fill="#000000" font-family="sans-serif" font-size="14" lengthAdjust="spacing" textLength="166" x="579.5" y="438.1426">Context(Strategy strategy)</text><ellipse cx="570.5" cy="451.5234" fill="#84BE84" rx="3" ry="3" style="stroke:#038048;stroke-width:1.0;"/><text fill="#000000" font-family="sans-serif" font-size="14" lengthAdjust="spacing" textLength="228" x="579.5" y="455.752">setStrategy(Strategy strategy) : void</text><ellipse cx="570.5" cy="469.1328" fill="#84BE84" rx="3" ry="3" style="stroke:#038048;stroke-width:1.0;"/><text fill="#000000" font-family="sans-serif" font-size="14" lengthAdjust="spacing" textLength="598" x="579.5" y="473.3613">executeStrategy(AbstractAircraft aircraft,int direction,int power,int shootNum) : List&lt;BaseBullet&gt;</text></g><!--class HeroAircraft--><g id="elem_HeroAircraft"><rect codeLine="32" fill="#F1F1F1" height="294.5313" id="HeroAircraft" rx="2.5" ry="2.5" style="stroke:#181818;stroke-width:0.5;" width="464" x="639.5" y="7"/><ellipse cx="829.75" cy="23" fill="#ADD1B2" rx="11" ry="11" style="stroke:#181818;stroke-width:1.0;"/><path d="M832.5156,18.875 Q832.6719,18.6563 832.8594,18.5469 Q833.0469,18.4375 833.2656,18.4375 Q833.6406,18.4375 833.875,18.7031 Q834.1094,18.9531 834.1094,19.5625 L834.1094,21.0156 Q834.1094,21.625 833.875,21.8906 Q833.6406,22.1563 833.2656,22.1563 Q832.9219,22.1563 832.7188,21.9531 Q832.5156,21.7656 832.4063,21.25 Q832.3594,20.8906 832.1719,20.7031 Q831.8438,20.3281 831.2344,20.1094 Q830.625,19.8906 830,19.8906 Q829.2344,19.8906 828.5938,20.2188 Q827.9688,20.5469 827.4688,21.2969 Q826.9844,22.0469 826.9844,23.0781 L826.9844,24.1719 Q826.9844,25.4063 827.875,26.2344 Q828.7656,27.0469 830.3594,27.0469 Q831.2969,27.0469 831.9531,26.7969 Q832.3438,26.6406 832.7656,26.2031 Q833.0313,25.9375 833.1719,25.8594 Q833.3281,25.7813 833.5313,25.7813 Q833.8594,25.7813 834.1094,26.0469 Q834.375,26.2969 834.375,26.6406 Q834.375,26.9844 834.0313,27.3906 Q833.5313,27.9688 832.7344,28.2969 Q831.6563,28.75 830.3594,28.75 Q828.8438,28.75 827.6406,28.125 Q826.6563,27.625 825.9688,26.5625 Q825.2813,25.4844 825.2813,24.2031 L825.2813,23.0469 Q825.2813,21.7188 825.8906,20.5781 Q826.5156,19.4219 827.6094,18.8125 Q828.7031,18.1875 829.9375,18.1875 Q830.6719,18.1875 831.3125,18.3594 Q831.9688,18.5156 832.5156,18.875 Z " fill="#000000"/><text fill="#000000" font-family="sans-serif" font-size="14" lengthAdjust="spacing" textLength="75" x="850.25" y="28.7285">HeroAircraft</text><line style="stroke:#181818;stroke-width:0.5;" x1="640.5" x2="1102.5" y1="39" y2="39"/><rect fill="none" height="6" style="stroke:#C82930;stroke-width:1.0;" width="6" x="647.5" y="50.3047"/><text fill="#000000" font-family="sans-serif" font-size="14" lengthAdjust="spacing" text-decoration="underline" textLength="153" x="659.5" y="57.5332">heroAircraft:HeroAircraft</text><rect fill="none" height="6" style="stroke:#C82930;stroke-width:1.0;" width="6" x="647.5" y="67.9141"/><text fill="#000000" font-family="sans-serif" font-size="14" lengthAdjust="spacing" textLength="82" x="659.5" y="75.1426">shootNum:int</text><rect fill="none" height="6" style="stroke:#C82930;stroke-width:1.0;" width="6" x="647.5" y="85.5234"/><text fill="#000000" font-family="sans-serif" font-size="14" lengthAdjust="spacing" textLength="57" x="659.5" y="92.752">power:int</text><rect fill="none" height="6" style="stroke:#C82930;stroke-width:1.0;" width="6" x="647.5" y="103.1328"/><text fill="#000000" font-family="sans-serif" font-size="14" lengthAdjust="spacing" textLength="73" x="659.5" y="110.3613">direction:int</text><ellipse cx="650.5" cy="123.7422" fill="none" rx="3" ry="3" style="stroke:#038048;stroke-width:1.0;"/><text fill="#000000" font-family="sans-serif" font-size="14" lengthAdjust="spacing" textLength="97" x="659.5" y="127.9707">context:Context</text><ellipse cx="650.5" cy="141.3516" fill="none" rx="3" ry="3" style="stroke:#038048;stroke-width:1.0;"/><text fill="#000000" font-family="sans-serif" font-size="14" lengthAdjust="spacing" textLength="130" x="659.5" y="145.5801">shootthread: Thread</text><ellipse cx="650.5" cy="158.9609" fill="none" rx="3" ry="3" style="stroke:#038048;stroke-width:1.0;"/><text fill="#000000" font-family="sans-serif" font-size="14" lengthAdjust="spacing" textLength="167" x="659.5" y="163.1895">exist_shootthread:boolean</text><line style="stroke:#181818;stroke-width:0.5;" x1="640.5" x2="1102.5" y1="170.2656" y2="170.2656"/><rect fill="#F24D5C" height="6" style="stroke:#C82930;stroke-width:1.0;" width="6" x="647.5" y="181.5703"/><text fill="#000000" font-family="sans-serif" font-size="14" lengthAdjust="spacing" textLength="438" x="659.5" y="188.7988">HeroAircraft(int locationX, int locationY, int speedX, int speedY, int hp)</text><ellipse cx="650.5" cy="202.1797" fill="#84BE84" rx="3" ry="3" style="stroke:#038048;stroke-width:1.0;"/><text fill="#000000" font-family="sans-serif" font-size="14" lengthAdjust="spacing" text-decoration="underline" textLength="170" x="659.5" y="206.4082">getInstance() : HeroAircraft</text><ellipse cx="650.5" cy="219.7891" fill="#84BE84" rx="3" ry="3" style="stroke:#038048;stroke-width:1.0;"/><text fill="#000000" font-family="sans-serif" font-size="14" lengthAdjust="spacing" textLength="87" x="659.5" y="224.0176">forward():void</text><ellipse cx="650.5" cy="237.3984" fill="#84BE84" rx="3" ry="3" style="stroke:#038048;stroke-width:1.0;"/><text fill="#000000" font-family="sans-serif" font-size="14" lengthAdjust="spacing" textLength="154" x="659.5" y="241.627">shoot():List&lt;BaseBullet&gt;</text><ellipse cx="650.5" cy="255.0078" fill="#84BE84" rx="3" ry="3" style="stroke:#038048;stroke-width:1.0;"/><text fill="#000000" font-family="sans-serif" font-size="14" lengthAdjust="spacing" textLength="205" x="659.5" y="259.2363">setShootNum(int shootnum):void</text><ellipse cx="650.5" cy="272.6172" fill="#84BE84" rx="3" ry="3" style="stroke:#038048;stroke-width:1.0;"/><text fill="#000000" font-family="sans-serif" font-size="14" lengthAdjust="spacing" textLength="72" x="659.5" y="276.8457">reset():void</text><ellipse cx="650.5" cy="290.2266" fill="#84BE84" rx="3" ry="3" style="stroke:#038048;stroke-width:1.0;"/><text fill="#000000" font-family="sans-serif" font-size="14" lengthAdjust="spacing" text-decoration="underline" textLength="129" x="659.5" y="294.4551">resetInstance(): void</text></g><!--reverse link Strategy to DirectShoot--><g id="link_Strategy_DirectShoot"><path codeLine="19" d="M871.5,624.26 C871.5,642.63 871.5,647.56 871.5,665.91 " fill="none" id="Strategy-backto-DirectShoot" style="stroke:#181818;stroke-width:1.0;stroke-dasharray:7.0,7.0;"/><polygon fill="none" points="871.5,606.26,865.5,624.26,877.5,624.26,871.5,606.26" style="stroke:#181818;stroke-width:1.0;"/></g><!--reverse link Strategy to CircleShoot--><g id="link_Strategy_CircleShoot"><path codeLine="20" d="M702.0777,609.7256 C614.7177,628.1556 522.9,647.52 435.5,665.95 " fill="none" id="Strategy-backto-CircleShoot" style="stroke:#181818;stroke-width:1.0;stroke-dasharray:7.0,7.0;"/><polygon fill="none" points="719.69,606.01,700.8391,603.8548,703.3162,615.5964,719.69,606.01" style="stroke:#181818;stroke-width:1.0;"/></g><!--reverse link Strategy to ScatterShoot--><g id="link_Strategy_ScatterShoot"><path codeLine="21" d="M1040.9223,609.7256 C1128.2823,628.1556 1220.1,647.52 1307.5,665.95 " fill="none" id="Strategy-backto-ScatterShoot" style="stroke:#181818;stroke-width:1.0;stroke-dasharray:7.0,7.0;"/><polygon fill="none" points="1023.31,606.01,1039.6838,615.5964,1042.1609,603.8548,1023.31,606.01" style="stroke:#181818;stroke-width:1.0;"/></g><!--link Context to Strategy--><g id="link_Context_Strategy"><path codeLine="30" d="M871.5,492.42 C871.5,512.66 871.5,516.59 871.5,533.92 " fill="none" id="Context-Strategy" style="stroke:#181818;stroke-width:1.0;"/><polygon fill="none" points="871.5,480.42,867.5,486.42,871.5,492.42,875.5,486.42,871.5,480.42" style="stroke:#181818;stroke-width:1.0;"/><polygon fill="#181818" points="871.5,539.92,875.5,530.92,871.5,534.92,867.5,530.92,871.5,539.92" style="stroke:#181818;stroke-width:1.0;"/></g><!--link HeroAircraft to Context--><g id="link_HeroAircraft_Context"><path codeLine="50" d="M871.5,314.06 C871.5,335.28 871.5,338 871.5,356 " fill="none" id="HeroAircraft-Context" style="stroke:#181818;stroke-width:1.0;"/><polygon fill="none" points="871.5,302.06,867.5,308.06,871.5,314.06,875.5,308.06,871.5,302.06" style="stroke:#181818;stroke-width:1.0;"/><polygon fill="#181818" points="871.5,362,875.5,353,871.5,357,867.5,353,871.5,362" style="stroke:#181818;stroke-width:1.0;"/></g><!--link HeroAircraft to HeroAircraft--><g id="link_HeroAircraft_HeroAircraft"><path codeLine="51" d="M1103.58,114.69 C1125,122.92 1138.5,136.19 1138.5,154.5 C1138.5,172.81 1130.6008,183.9281 1109.1808,192.1581 " fill="none" id="HeroAircraft-to-HeroAircraft" style="stroke:#181818;stroke-width:1.0;"/><polygon fill="#181818" points="1103.58,194.31,1113.4159,194.816,1108.2473,192.5167,1110.5466,187.3482,1103.58,194.31" style="stroke:#181818;stroke-width:1.0;"/></g><!--SRC=[lLJ9Ri8m4BtdA-OOnF814KA2zj1ALI_qG4-LSGPYARMHFHGgoh_N2MDZbfweo2MUnVFUl9b4QKAx419XIbOGBhzt6VYd2pinTzubQG-kCeRoCTjZPQKL2mB1XvxI1AMoA4aPtLehiq7Rdjgxh-lFJl6Y70qdmk5aNTT8esoVPR8Mpi63BrJZjCaCwFy32NzZFhQNxuivbOAytFS23HE5uSzWa3Py5adaFukaXEEmZ5-PBVFlWmiNYhX1t1advh5aIEs4rf52x4gIB_XbLCcvk4Mv9epvDme6buf18nbp1jFlZuxzSETFQ4t4u_vtZWGfkOSg2HPfPj29eGlFWrqjhyIEhAEl2_90g61YwT9GPL6K1RorxwYJR-iZZS-DgL7eZ45IQdcZIMtya3teh0Uf-NumtGgnd2LdzbUhCCMem1BfMNj3IymRWIz4wCB2s8smPTufaj4Ule0h_uVZbh1sUPoXRfO-gM7HfvsKZRJQq94ORvMVzSaucu47ZKy2tf_Qlm00]--></g></svg>