<?xml version="1.0" encoding="us-ascii" standalone="no"?><svg xmlns="http://www.w3.org/2000/svg" xmlns:xlink="http://www.w3.org/1999/xlink" contentStyleType="text/css" height="612px" preserveAspectRatio="none" style="width:2088px;height:612px;background:#FFFFFF;" version="1.1" viewBox="0 0 2088 612" width="2088px" zoomAndPan="magnify"><defs/><g><!--class Observer--><g id="elem_Observer"><rect codeLine="3" fill="#F1F1F1" height="65.6094" id="Observer" rx="2.5" ry="2.5" style="stroke:#181818;stroke-width:0.5;" width="109" x="1022.5" y="425.5"/><ellipse cx="1046.05" cy="441.5" fill="#B4A7E5" rx="11" ry="11" style="stroke:#181818;stroke-width:1.0;"/><path d="M1047.0031,438.1406 L1047.0031,444.7969 L1048.7219,444.7969 Q1049.3313,444.7969 1049.5969,445.0313 Q1049.8625,445.2656 1049.8625,445.6563 Q1049.8625,446.0313 1049.5969,446.2656 Q1049.3313,446.5 1048.7219,446.5 L1043.5813,446.5 Q1042.9719,446.5 1042.7063,446.2656 Q1042.4406,446.0313 1042.4406,445.6406 Q1042.4406,445.2656 1042.7063,445.0313 Q1042.9719,444.7969 1043.5813,444.7969 L1045.3,444.7969 L1045.3,438.1406 L1043.5813,438.1406 Q1042.9719,438.1406 1042.7063,437.9063 Q1042.4406,437.6719 1042.4406,437.2813 Q1042.4406,436.9063 1042.7063,436.6719 Q1042.9719,436.4375 1043.5813,436.4375 L1048.7219,436.4375 Q1049.3313,436.4375 1049.5969,436.6719 Q1049.8625,436.9063 1049.8625,437.2813 Q1049.8625,437.6719 1049.5969,437.9063 Q1049.3313,438.1406 1048.7219,438.1406 L1047.0031,438.1406 Z " fill="#000000"/><text fill="#000000" font-family="sans-serif" font-size="14" font-style="italic" lengthAdjust="spacing" textLength="58" x="1061.95" y="447.2285">Observer</text><line style="stroke:#181818;stroke-width:0.5;" x1="1023.5" x2="1130.5" y1="457.5" y2="457.5"/><line style="stroke:#181818;stroke-width:0.5;" x1="1023.5" x2="1130.5" y1="465.5" y2="465.5"/><ellipse cx="1033.5" cy="479.8047" fill="#84BE84" rx="3" ry="3" style="stroke:#038048;stroke-width:1.0;"/><text fill="#000000" font-family="sans-serif" font-size="14" font-style="italic" lengthAdjust="spacing" textLength="83" x="1042.5" y="484.0332">update():void</text></g><!--class AbstractEnemyAircraft--><g id="elem_AbstractEnemyAircraft"><rect codeLine="7" fill="#F1F1F1" height="118.4375" id="AbstractEnemyAircraft" rx="2.5" ry="2.5" style="stroke:#181818;stroke-width:0.5;" width="591" x="781.5" y="133"/><ellipse cx="1002.75" cy="149" fill="#A9DCDF" rx="11" ry="11" style="stroke:#181818;stroke-width:1.0;"/><path d="M1004.9375,150.7656 L1000.7969,150.7656 L1000.375,151.7969 L1000.7969,151.7969 Q1001.4063,151.7969 1001.6719,152.0313 Q1001.9375,152.2656 1001.9375,152.6563 Q1001.9375,153.0313 1001.6719,153.2656 Q1001.4063,153.5 1000.7969,153.5 L998.5,153.5 Q997.8906,153.5 997.6406,153.2656 Q997.375,153.0313 997.375,152.6406 Q997.375,152.2656 997.6563,152.0313 Q997.9219,151.7813 998.5469,151.7969 L1001.2188,145.1406 L1000.1094,145.1406 Q999.5,145.1406 999.2344,144.9063 Q998.9688,144.6719 998.9688,144.2813 Q998.9688,143.9063 999.2344,143.6719 Q999.5,143.4375 1000.1094,143.4375 L1003.7813,143.4375 L1007.1719,151.7969 Q1007.7656,151.7969 1007.9531,151.9375 Q1008.3438,152.2031 1008.3438,152.6563 Q1008.3438,153.0313 1008.0781,153.2656 Q1007.8281,153.5 1007.2188,153.5 L1004.9219,153.5 Q1004.3125,153.5 1004.0469,153.2656 Q1003.7813,153.0313 1003.7813,152.6406 Q1003.7813,152.2656 1004.0469,152.0313 Q1004.3125,151.7969 1004.9219,151.7969 L1005.3438,151.7969 L1004.9375,150.7656 Z M1004.2188,149.0625 L1002.8594,145.6875 L1001.4844,149.0625 L1004.2188,149.0625 Z " fill="#000000"/><text fill="#000000" font-family="sans-serif" font-size="14" font-style="italic" lengthAdjust="spacing" textLength="140" x="1023.25" y="154.7285">AbstractEnemyAircraft</text><line style="stroke:#181818;stroke-width:0.5;" x1="782.5" x2="1371.5" y1="165" y2="165"/><polygon fill="none" points="792.5,174.3047,796.5,178.3047,792.5,182.3047,788.5,178.3047" style="stroke:#B38D22;stroke-width:1.0;"/><text fill="#000000" font-family="sans-serif" font-size="14" lengthAdjust="spacing" textLength="54" x="801.5" y="183.5332">score:int</text><line style="stroke:#181818;stroke-width:0.5;" x1="782.5" x2="1371.5" y1="190.6094" y2="190.6094"/><ellipse cx="792.5" cy="204.9141" fill="#84BE84" rx="3" ry="3" style="stroke:#038048;stroke-width:1.0;"/><text fill="#000000" font-family="sans-serif" font-size="14" lengthAdjust="spacing" textLength="565" x="801.5" y="209.1426">AbstractEnemyAircraft(int locationX, int locationY, int speedX, int speedY, int hp, int score)</text><ellipse cx="792.5" cy="222.5234" fill="#84BE84" rx="3" ry="3" style="stroke:#038048;stroke-width:1.0;"/><text fill="#000000" font-family="sans-serif" font-size="14" font-style="italic" lengthAdjust="spacing" textLength="208" x="801.5" y="226.752">generate_prop():List&lt;BaseProp&gt;</text><ellipse cx="792.5" cy="240.1328" fill="#84BE84" rx="3" ry="3" style="stroke:#038048;stroke-width:1.0;"/><text fill="#000000" font-family="sans-serif" font-size="14" lengthAdjust="spacing" textLength="90" x="801.5" y="244.3613">getScore(): int</text></g><!--class MobEnemy--><g id="elem_MobEnemy"><rect codeLine="17" fill="#F1F1F1" height="171.2656" id="MobEnemy" rx="2.5" ry="2.5" style="stroke:#181818;stroke-width:0.5;" width="459" x="528.5" y="373"/><ellipse cx="718.75" cy="389" fill="#ADD1B2" rx="11" ry="11" style="stroke:#181818;stroke-width:1.0;"/><path d="M721.5156,384.875 Q721.6719,384.6563 721.8594,384.5469 Q722.0469,384.4375 722.2656,384.4375 Q722.6406,384.4375 722.875,384.7031 Q723.1094,384.9531 723.1094,385.5625 L723.1094,387.0156 Q723.1094,387.625 722.875,387.8906 Q722.6406,388.1563 722.2656,388.1563 Q721.9219,388.1563 721.7188,387.9531 Q721.5156,387.7656 721.4063,387.25 Q721.3594,386.8906 721.1719,386.7031 Q720.8438,386.3281 720.2344,386.1094 Q719.625,385.8906 719,385.8906 Q718.2344,385.8906 717.5938,386.2188 Q716.9688,386.5469 716.4688,387.2969 Q715.9844,388.0469 715.9844,389.0781 L715.9844,390.1719 Q715.9844,391.4063 716.875,392.2344 Q717.7656,393.0469 719.3594,393.0469 Q720.2969,393.0469 720.9531,392.7969 Q721.3438,392.6406 721.7656,392.2031 Q722.0313,391.9375 722.1719,391.8594 Q722.3281,391.7813 722.5313,391.7813 Q722.8594,391.7813 723.1094,392.0469 Q723.375,392.2969 723.375,392.6406 Q723.375,392.9844 723.0313,393.3906 Q722.5313,393.9688 721.7344,394.2969 Q720.6563,394.75 719.3594,394.75 Q717.8438,394.75 716.6406,394.125 Q715.6563,393.625 714.9688,392.5625 Q714.2813,391.4844 714.2813,390.2031 L714.2813,389.0469 Q714.2813,387.7188 714.8906,386.5781 Q715.5156,385.4219 716.6094,384.8125 Q717.7031,384.1875 718.9375,384.1875 Q719.6719,384.1875 720.3125,384.3594 Q720.9688,384.5156 721.5156,384.875 Z " fill="#000000"/><text fill="#000000" font-family="sans-serif" font-size="14" lengthAdjust="spacing" textLength="70" x="739.25" y="394.7285">MobEnemy</text><line style="stroke:#181818;stroke-width:0.5;" x1="529.5" x2="986.5" y1="405" y2="405"/><rect fill="none" height="6" style="stroke:#C82930;stroke-width:1.0;" width="6" x="536.5" y="416.3047"/><text fill="#000000" font-family="sans-serif" font-size="14" lengthAdjust="spacing" textLength="95" x="548.5" y="423.5332">prop:BaseProp</text><rect fill="none" height="6" style="stroke:#C82930;stroke-width:1.0;" width="6" x="536.5" y="433.9141"/><text fill="#000000" font-family="sans-serif" font-size="14" lengthAdjust="spacing" textLength="144" x="548.5" y="441.1426">props: List&lt;BaseProp&gt;</text><line style="stroke:#181818;stroke-width:0.5;" x1="529.5" x2="986.5" y1="448.2188" y2="448.2188"/><ellipse cx="539.5" cy="462.5234" fill="#84BE84" rx="3" ry="3" style="stroke:#038048;stroke-width:1.0;"/><text fill="#000000" font-family="sans-serif" font-size="14" lengthAdjust="spacing" textLength="433" x="548.5" y="466.752">MobEnemy(int locationX, int locationY, int speedX, int speedY, int hp)</text><ellipse cx="539.5" cy="480.1328" fill="#84BE84" rx="3" ry="3" style="stroke:#038048;stroke-width:1.0;"/><text fill="#000000" font-family="sans-serif" font-size="14" lengthAdjust="spacing" textLength="87" x="548.5" y="484.3613">forward():void</text><ellipse cx="539.5" cy="497.7422" fill="#84BE84" rx="3" ry="3" style="stroke:#038048;stroke-width:1.0;"/><text fill="#000000" font-family="sans-serif" font-size="14" lengthAdjust="spacing" textLength="154" x="548.5" y="501.9707">shoot():List&lt;BaseBullet&gt;</text><ellipse cx="539.5" cy="515.3516" fill="#84BE84" rx="3" ry="3" style="stroke:#038048;stroke-width:1.0;"/><text fill="#000000" font-family="sans-serif" font-size="14" lengthAdjust="spacing" textLength="84" x="548.5" y="519.5801">update():void</text><ellipse cx="539.5" cy="532.9609" fill="#84BE84" rx="3" ry="3" style="stroke:#038048;stroke-width:1.0;"/><text fill="#000000" font-family="sans-serif" font-size="14" lengthAdjust="spacing" textLength="212" x="548.5" y="537.1895">generate_prop(): List&lt;BaseProp&gt;</text></g><!--class EliteEnemy--><g id="elem_EliteEnemy"><rect codeLine="28" fill="#F1F1F1" height="294.5313" id="EliteEnemy" rx="2.5" ry="2.5" style="stroke:#181818;stroke-width:0.5;" width="459" x="1166.5" y="311"/><ellipse cx="1356.75" cy="327" fill="#ADD1B2" rx="11" ry="11" style="stroke:#181818;stroke-width:1.0;"/><path d="M1359.5156,322.875 Q1359.6719,322.6563 1359.8594,322.5469 Q1360.0469,322.4375 1360.2656,322.4375 Q1360.6406,322.4375 1360.875,322.7031 Q1361.1094,322.9531 1361.1094,323.5625 L1361.1094,325.0156 Q1361.1094,325.625 1360.875,325.8906 Q1360.6406,326.1563 1360.2656,326.1563 Q1359.9219,326.1563 1359.7188,325.9531 Q1359.5156,325.7656 1359.4063,325.25 Q1359.3594,324.8906 1359.1719,324.7031 Q1358.8438,324.3281 1358.2344,324.1094 Q1357.625,323.8906 1357,323.8906 Q1356.2344,323.8906 1355.5938,324.2188 Q1354.9688,324.5469 1354.4688,325.2969 Q1353.9844,326.0469 1353.9844,327.0781 L1353.9844,328.1719 Q1353.9844,329.4063 1354.875,330.2344 Q1355.7656,331.0469 1357.3594,331.0469 Q1358.2969,331.0469 1358.9531,330.7969 Q1359.3438,330.6406 1359.7656,330.2031 Q1360.0313,329.9375 1360.1719,329.8594 Q1360.3281,329.7813 1360.5313,329.7813 Q1360.8594,329.7813 1361.1094,330.0469 Q1361.375,330.2969 1361.375,330.6406 Q1361.375,330.9844 1361.0313,331.3906 Q1360.5313,331.9688 1359.7344,332.2969 Q1358.6563,332.75 1357.3594,332.75 Q1355.8438,332.75 1354.6406,332.125 Q1353.6563,331.625 1352.9688,330.5625 Q1352.2813,329.4844 1352.2813,328.2031 L1352.2813,327.0469 Q1352.2813,325.7188 1352.8906,324.5781 Q1353.5156,323.4219 1354.6094,322.8125 Q1355.7031,322.1875 1356.9375,322.1875 Q1357.6719,322.1875 1358.3125,322.3594 Q1358.9688,322.5156 1359.5156,322.875 Z " fill="#000000"/><text fill="#000000" font-family="sans-serif" font-size="14" lengthAdjust="spacing" textLength="70" x="1377.25" y="332.7285">EliteEnemy</text><line style="stroke:#181818;stroke-width:0.5;" x1="1167.5" x2="1624.5" y1="343" y2="343"/><rect fill="none" height="6" style="stroke:#C82930;stroke-width:1.0;" width="6" x="1174.5" y="354.3047"/><text fill="#000000" font-family="sans-serif" font-size="14" lengthAdjust="spacing" textLength="86" x="1186.5" y="361.5332">shootNum :int</text><rect fill="none" height="6" style="stroke:#C82930;stroke-width:1.0;" width="6" x="1174.5" y="371.9141"/><text fill="#000000" font-family="sans-serif" font-size="14" lengthAdjust="spacing" textLength="61" x="1186.5" y="379.1426">power: int</text><rect fill="none" height="6" style="stroke:#C82930;stroke-width:1.0;" width="6" x="1174.5" y="389.5234"/><text fill="#000000" font-family="sans-serif" font-size="14" lengthAdjust="spacing" textLength="77" x="1186.5" y="396.752">direction: int</text><rect fill="none" height="6" style="stroke:#C82930;stroke-width:1.0;" width="6" x="1174.5" y="407.1328"/><text fill="#000000" font-family="sans-serif" font-size="14" lengthAdjust="spacing" textLength="90" x="1186.5" y="414.3613">prop_kind : int</text><rect fill="none" height="6" style="stroke:#C82930;stroke-width:1.0;" width="6" x="1174.5" y="424.7422"/><text fill="#000000" font-family="sans-serif" font-size="14" lengthAdjust="spacing" textLength="167" x="1186.5" y="431.9707">propFactory : PropFactory</text><rect fill="none" height="6" style="stroke:#C82930;stroke-width:1.0;" width="6" x="1174.5" y="442.3516"/><text fill="#000000" font-family="sans-serif" font-size="14" lengthAdjust="spacing" textLength="103" x="1186.5" y="449.5801">prop : BaseProp</text><rect fill="none" height="6" style="stroke:#C82930;stroke-width:1.0;" width="6" x="1174.5" y="459.9609"/><text fill="#000000" font-family="sans-serif" font-size="14" lengthAdjust="spacing" textLength="144" x="1186.5" y="467.1895">props: List&lt;BaseProp&gt;</text><rect fill="none" height="6" style="stroke:#C82930;stroke-width:1.0;" width="6" x="1174.5" y="477.5703"/><text fill="#000000" font-family="sans-serif" font-size="14" lengthAdjust="spacing" textLength="97" x="1186.5" y="484.7988">context:Context</text><rect fill="none" height="6" style="stroke:#C82930;stroke-width:1.0;" width="6" x="1174.5" y="495.1797"/><text fill="#000000" font-family="sans-serif" font-size="14" lengthAdjust="spacing" text-decoration="underline" textLength="109" x="1186.5" y="502.4082">random: Random</text><line style="stroke:#181818;stroke-width:0.5;" x1="1167.5" x2="1624.5" y1="509.4844" y2="509.4844"/><ellipse cx="1177.5" cy="523.7891" fill="#84BE84" rx="3" ry="3" style="stroke:#038048;stroke-width:1.0;"/><text fill="#000000" font-family="sans-serif" font-size="14" lengthAdjust="spacing" textLength="433" x="1186.5" y="528.0176">EliteEnemy(int locationX, int locationY, int speedX, int speedY, int hp)</text><ellipse cx="1177.5" cy="541.3984" fill="#84BE84" rx="3" ry="3" style="stroke:#038048;stroke-width:1.0;"/><text fill="#000000" font-family="sans-serif" font-size="14" lengthAdjust="spacing" textLength="95" x="1186.5" y="545.627">forward() : void</text><ellipse cx="1177.5" cy="559.0078" fill="#84BE84" rx="3" ry="3" style="stroke:#038048;stroke-width:1.0;"/><text fill="#000000" font-family="sans-serif" font-size="14" lengthAdjust="spacing" textLength="154" x="1186.5" y="563.2363">shoot():List&lt;BaseBullet&gt;</text><ellipse cx="1177.5" cy="576.6172" fill="#84BE84" rx="3" ry="3" style="stroke:#038048;stroke-width:1.0;"/><text fill="#000000" font-family="sans-serif" font-size="14" lengthAdjust="spacing" textLength="216" x="1186.5" y="580.8457">generate_prop() : List&lt;BaseProp&gt;</text><ellipse cx="1177.5" cy="594.2266" fill="#84BE84" rx="3" ry="3" style="stroke:#038048;stroke-width:1.0;"/><text fill="#000000" font-family="sans-serif" font-size="14" lengthAdjust="spacing" textLength="84" x="1186.5" y="598.4551">update():void</text></g><!--class ElitePlusEnemy--><g id="elem_ElitePlusEnemy"><rect codeLine="48" fill="#F1F1F1" height="294.5313" id="ElitePlusEnemy" rx="2.5" ry="2.5" style="stroke:#181818;stroke-width:0.5;" width="486" x="7" y="311"/><ellipse cx="197.25" cy="327" fill="#ADD1B2" rx="11" ry="11" style="stroke:#181818;stroke-width:1.0;"/><path d="M200.0156,322.875 Q200.1719,322.6563 200.3594,322.5469 Q200.5469,322.4375 200.7656,322.4375 Q201.1406,322.4375 201.375,322.7031 Q201.6094,322.9531 201.6094,323.5625 L201.6094,325.0156 Q201.6094,325.625 201.375,325.8906 Q201.1406,326.1563 200.7656,326.1563 Q200.4219,326.1563 200.2188,325.9531 Q200.0156,325.7656 199.9063,325.25 Q199.8594,324.8906 199.6719,324.7031 Q199.3438,324.3281 198.7344,324.1094 Q198.125,323.8906 197.5,323.8906 Q196.7344,323.8906 196.0938,324.2188 Q195.4688,324.5469 194.9688,325.2969 Q194.4844,326.0469 194.4844,327.0781 L194.4844,328.1719 Q194.4844,329.4063 195.375,330.2344 Q196.2656,331.0469 197.8594,331.0469 Q198.7969,331.0469 199.4531,330.7969 Q199.8438,330.6406 200.2656,330.2031 Q200.5313,329.9375 200.6719,329.8594 Q200.8281,329.7813 201.0313,329.7813 Q201.3594,329.7813 201.6094,330.0469 Q201.875,330.2969 201.875,330.6406 Q201.875,330.9844 201.5313,331.3906 Q201.0313,331.9688 200.2344,332.2969 Q199.1563,332.75 197.8594,332.75 Q196.3438,332.75 195.1406,332.125 Q194.1563,331.625 193.4688,330.5625 Q192.7813,329.4844 192.7813,328.2031 L192.7813,327.0469 Q192.7813,325.7188 193.3906,324.5781 Q194.0156,323.4219 195.1094,322.8125 Q196.2031,322.1875 197.4375,322.1875 Q198.1719,322.1875 198.8125,322.3594 Q199.4688,322.5156 200.0156,322.875 Z " fill="#000000"/><text fill="#000000" font-family="sans-serif" font-size="14" lengthAdjust="spacing" textLength="97" x="217.75" y="332.7285">ElitePlusEnemy</text><line style="stroke:#181818;stroke-width:0.5;" x1="8" x2="492" y1="343" y2="343"/><rect fill="none" height="6" style="stroke:#C82930;stroke-width:1.0;" width="6" x="15" y="354.3047"/><text fill="#000000" font-family="sans-serif" font-size="14" lengthAdjust="spacing" textLength="86" x="27" y="361.5332">shootNum :int</text><rect fill="none" height="6" style="stroke:#C82930;stroke-width:1.0;" width="6" x="15" y="371.9141"/><text fill="#000000" font-family="sans-serif" font-size="14" lengthAdjust="spacing" textLength="61" x="27" y="379.1426">power: int</text><rect fill="none" height="6" style="stroke:#C82930;stroke-width:1.0;" width="6" x="15" y="389.5234"/><text fill="#000000" font-family="sans-serif" font-size="14" lengthAdjust="spacing" textLength="77" x="27" y="396.752">direction: int</text><rect fill="none" height="6" style="stroke:#C82930;stroke-width:1.0;" width="6" x="15" y="407.1328"/><text fill="#000000" font-family="sans-serif" font-size="14" lengthAdjust="spacing" textLength="90" x="27" y="414.3613">prop_kind : int</text><rect fill="none" height="6" style="stroke:#C82930;stroke-width:1.0;" width="6" x="15" y="424.7422"/><text fill="#000000" font-family="sans-serif" font-size="14" lengthAdjust="spacing" textLength="167" x="27" y="431.9707">propFactory : PropFactory</text><rect fill="none" height="6" style="stroke:#C82930;stroke-width:1.0;" width="6" x="15" y="442.3516"/><text fill="#000000" font-family="sans-serif" font-size="14" lengthAdjust="spacing" textLength="103" x="27" y="449.5801">prop : BaseProp</text><rect fill="none" height="6" style="stroke:#C82930;stroke-width:1.0;" width="6" x="15" y="459.9609"/><text fill="#000000" font-family="sans-serif" font-size="14" lengthAdjust="spacing" textLength="144" x="27" y="467.1895">props: List&lt;BaseProp&gt;</text><rect fill="none" height="6" style="stroke:#C82930;stroke-width:1.0;" width="6" x="15" y="477.5703"/><text fill="#000000" font-family="sans-serif" font-size="14" lengthAdjust="spacing" textLength="97" x="27" y="484.7988">context:Context</text><rect fill="none" height="6" style="stroke:#C82930;stroke-width:1.0;" width="6" x="15" y="495.1797"/><text fill="#000000" font-family="sans-serif" font-size="14" lengthAdjust="spacing" text-decoration="underline" textLength="109" x="27" y="502.4082">random: Random</text><line style="stroke:#181818;stroke-width:0.5;" x1="8" x2="492" y1="509.4844" y2="509.4844"/><ellipse cx="18" cy="523.7891" fill="#84BE84" rx="3" ry="3" style="stroke:#038048;stroke-width:1.0;"/><text fill="#000000" font-family="sans-serif" font-size="14" lengthAdjust="spacing" textLength="460" x="27" y="528.0176">ElitePlusEnemy(int locationX, int locationY, int speedX, int speedY, int hp)</text><ellipse cx="18" cy="541.3984" fill="#84BE84" rx="3" ry="3" style="stroke:#038048;stroke-width:1.0;"/><text fill="#000000" font-family="sans-serif" font-size="14" lengthAdjust="spacing" textLength="95" x="27" y="545.627">forward() : void</text><ellipse cx="18" cy="559.0078" fill="#84BE84" rx="3" ry="3" style="stroke:#038048;stroke-width:1.0;"/><text fill="#000000" font-family="sans-serif" font-size="14" lengthAdjust="spacing" textLength="154" x="27" y="563.2363">shoot():List&lt;BaseBullet&gt;</text><ellipse cx="18" cy="576.6172" fill="#84BE84" rx="3" ry="3" style="stroke:#038048;stroke-width:1.0;"/><text fill="#000000" font-family="sans-serif" font-size="14" lengthAdjust="spacing" textLength="216" x="27" y="580.8457">generate_prop() : List&lt;BaseProp&gt;</text><ellipse cx="18" cy="594.2266" fill="#84BE84" rx="3" ry="3" style="stroke:#038048;stroke-width:1.0;"/><text fill="#000000" font-family="sans-serif" font-size="14" lengthAdjust="spacing" textLength="84" x="27" y="598.4551">update():void</text></g><!--class Boss--><g id="elem_Boss"><rect codeLine="67" fill="#F1F1F1" height="294.5313" id="Boss" rx="2.5" ry="2.5" style="stroke:#181818;stroke-width:0.5;" width="420" x="1661" y="311"/><ellipse cx="1851.25" cy="327" fill="#ADD1B2" rx="11" ry="11" style="stroke:#181818;stroke-width:1.0;"/><path d="M1854.0156,322.875 Q1854.1719,322.6563 1854.3594,322.5469 Q1854.5469,322.4375 1854.7656,322.4375 Q1855.1406,322.4375 1855.375,322.7031 Q1855.6094,322.9531 1855.6094,323.5625 L1855.6094,325.0156 Q1855.6094,325.625 1855.375,325.8906 Q1855.1406,326.1563 1854.7656,326.1563 Q1854.4219,326.1563 1854.2188,325.9531 Q1854.0156,325.7656 1853.9063,325.25 Q1853.8594,324.8906 1853.6719,324.7031 Q1853.3438,324.3281 1852.7344,324.1094 Q1852.125,323.8906 1851.5,323.8906 Q1850.7344,323.8906 1850.0938,324.2188 Q1849.4688,324.5469 1848.9688,325.2969 Q1848.4844,326.0469 1848.4844,327.0781 L1848.4844,328.1719 Q1848.4844,329.4063 1849.375,330.2344 Q1850.2656,331.0469 1851.8594,331.0469 Q1852.7969,331.0469 1853.4531,330.7969 Q1853.8438,330.6406 1854.2656,330.2031 Q1854.5313,329.9375 1854.6719,329.8594 Q1854.8281,329.7813 1855.0313,329.7813 Q1855.3594,329.7813 1855.6094,330.0469 Q1855.875,330.2969 1855.875,330.6406 Q1855.875,330.9844 1855.5313,331.3906 Q1855.0313,331.9688 1854.2344,332.2969 Q1853.1563,332.75 1851.8594,332.75 Q1850.3438,332.75 1849.1406,332.125 Q1848.1563,331.625 1847.4688,330.5625 Q1846.7813,329.4844 1846.7813,328.2031 L1846.7813,327.0469 Q1846.7813,325.7188 1847.3906,324.5781 Q1848.0156,323.4219 1849.1094,322.8125 Q1850.2031,322.1875 1851.4375,322.1875 Q1852.1719,322.1875 1852.8125,322.3594 Q1853.4688,322.5156 1854.0156,322.875 Z " fill="#000000"/><text fill="#000000" font-family="sans-serif" font-size="14" lengthAdjust="spacing" textLength="31" x="1871.75" y="332.7285">Boss</text><line style="stroke:#181818;stroke-width:0.5;" x1="1662" x2="2080" y1="343" y2="343"/><rect fill="none" height="6" style="stroke:#C82930;stroke-width:1.0;" width="6" x="1669" y="354.3047"/><text fill="#000000" font-family="sans-serif" font-size="14" lengthAdjust="spacing" textLength="86" x="1681" y="361.5332">shootNum :int</text><rect fill="none" height="6" style="stroke:#C82930;stroke-width:1.0;" width="6" x="1669" y="371.9141"/><text fill="#000000" font-family="sans-serif" font-size="14" lengthAdjust="spacing" textLength="61" x="1681" y="379.1426">power: int</text><rect fill="none" height="6" style="stroke:#C82930;stroke-width:1.0;" width="6" x="1669" y="389.5234"/><text fill="#000000" font-family="sans-serif" font-size="14" lengthAdjust="spacing" textLength="77" x="1681" y="396.752">direction: int</text><rect fill="none" height="6" style="stroke:#C82930;stroke-width:1.0;" width="6" x="1669" y="407.1328"/><text fill="#000000" font-family="sans-serif" font-size="14" lengthAdjust="spacing" textLength="90" x="1681" y="414.3613">prop_kind : int</text><rect fill="none" height="6" style="stroke:#C82930;stroke-width:1.0;" width="6" x="1669" y="424.7422"/><text fill="#000000" font-family="sans-serif" font-size="14" lengthAdjust="spacing" textLength="167" x="1681" y="431.9707">propFactory : PropFactory</text><rect fill="none" height="6" style="stroke:#C82930;stroke-width:1.0;" width="6" x="1669" y="442.3516"/><text fill="#000000" font-family="sans-serif" font-size="14" lengthAdjust="spacing" textLength="103" x="1681" y="449.5801">prop : BaseProp</text><rect fill="none" height="6" style="stroke:#C82930;stroke-width:1.0;" width="6" x="1669" y="459.9609"/><text fill="#000000" font-family="sans-serif" font-size="14" lengthAdjust="spacing" textLength="144" x="1681" y="467.1895">props: List&lt;BaseProp&gt;</text><rect fill="none" height="6" style="stroke:#C82930;stroke-width:1.0;" width="6" x="1669" y="477.5703"/><text fill="#000000" font-family="sans-serif" font-size="14" lengthAdjust="spacing" textLength="97" x="1681" y="484.7988">context:Context</text><rect fill="none" height="6" style="stroke:#C82930;stroke-width:1.0;" width="6" x="1669" y="495.1797"/><text fill="#000000" font-family="sans-serif" font-size="14" lengthAdjust="spacing" text-decoration="underline" textLength="109" x="1681" y="502.4082">random: Random</text><line style="stroke:#181818;stroke-width:0.5;" x1="1662" x2="2080" y1="509.4844" y2="509.4844"/><ellipse cx="1672" cy="523.7891" fill="#84BE84" rx="3" ry="3" style="stroke:#038048;stroke-width:1.0;"/><text fill="#000000" font-family="sans-serif" font-size="14" lengthAdjust="spacing" textLength="394" x="1681" y="528.0176">Boss(int locationX, int locationY, int speedX, int speedY, int hp)</text><ellipse cx="1672" cy="541.3984" fill="#84BE84" rx="3" ry="3" style="stroke:#038048;stroke-width:1.0;"/><text fill="#000000" font-family="sans-serif" font-size="14" lengthAdjust="spacing" textLength="95" x="1681" y="545.627">forward() : void</text><ellipse cx="1672" cy="559.0078" fill="#84BE84" rx="3" ry="3" style="stroke:#038048;stroke-width:1.0;"/><text fill="#000000" font-family="sans-serif" font-size="14" lengthAdjust="spacing" textLength="154" x="1681" y="563.2363">shoot():List&lt;BaseBullet&gt;</text><ellipse cx="1672" cy="576.6172" fill="#84BE84" rx="3" ry="3" style="stroke:#038048;stroke-width:1.0;"/><text fill="#000000" font-family="sans-serif" font-size="14" lengthAdjust="spacing" textLength="216" x="1681" y="580.8457">generate_prop() : List&lt;BaseProp&gt;</text><ellipse cx="1672" cy="594.2266" fill="#84BE84" rx="3" ry="3" style="stroke:#038048;stroke-width:1.0;"/><text fill="#000000" font-family="sans-serif" font-size="14" lengthAdjust="spacing" textLength="84" x="1681" y="598.4551">update():void</text></g><!--class EnemyFactory--><g id="elem_EnemyFactory"><rect codeLine="87" fill="#F1F1F1" height="65.6094" id="EnemyFactory" rx="2.5" ry="2.5" style="stroke:#181818;stroke-width:0.5;" width="228" x="963" y="7"/><ellipse cx="1027.25" cy="23" fill="#B4A7E5" rx="11" ry="11" style="stroke:#181818;stroke-width:1.0;"/><path d="M1028.2031,19.6406 L1028.2031,26.2969 L1029.9219,26.2969 Q1030.5313,26.2969 1030.7969,26.5313 Q1031.0625,26.7656 1031.0625,27.1563 Q1031.0625,27.5313 1030.7969,27.7656 Q1030.5313,28 1029.9219,28 L1024.7813,28 Q1024.1719,28 1023.9063,27.7656 Q1023.6406,27.5313 1023.6406,27.1406 Q1023.6406,26.7656 1023.9063,26.5313 Q1024.1719,26.2969 1024.7813,26.2969 L1026.5,26.2969 L1026.5,19.6406 L1024.7813,19.6406 Q1024.1719,19.6406 1023.9063,19.4063 Q1023.6406,19.1719 1023.6406,18.7813 Q1023.6406,18.4063 1023.9063,18.1719 Q1024.1719,17.9375 1024.7813,17.9375 L1029.9219,17.9375 Q1030.5313,17.9375 1030.7969,18.1719 Q1031.0625,18.4063 1031.0625,18.7813 Q1031.0625,19.1719 1030.7969,19.4063 Q1030.5313,19.6406 1029.9219,19.6406 L1028.2031,19.6406 Z " fill="#000000"/><text fill="#000000" font-family="sans-serif" font-size="14" font-style="italic" lengthAdjust="spacing" textLength="91" x="1047.75" y="28.7285">EnemyFactory</text><line style="stroke:#181818;stroke-width:0.5;" x1="964" x2="1190" y1="39" y2="39"/><line style="stroke:#181818;stroke-width:0.5;" x1="964" x2="1190" y1="47" y2="47"/><ellipse cx="974" cy="61.3047" fill="#84BE84" rx="3" ry="3" style="stroke:#038048;stroke-width:1.0;"/><text fill="#000000" font-family="sans-serif" font-size="14" font-style="italic" lengthAdjust="spacing" textLength="202" x="983" y="65.5332">createEnemy() : AbstractAircraft</text></g><!--class MobFactory--><g id="elem_MobFactory"><rect codeLine="91" fill="#F1F1F1" height="65.6094" id="MobFactory" rx="2.5" ry="2.5" style="stroke:#181818;stroke-width:0.5;" width="197" x="549.5" y="159"/><ellipse cx="606.25" cy="175" fill="#ADD1B2" rx="11" ry="11" style="stroke:#181818;stroke-width:1.0;"/><path d="M609.0156,170.875 Q609.1719,170.6563 609.3594,170.5469 Q609.5469,170.4375 609.7656,170.4375 Q610.1406,170.4375 610.375,170.7031 Q610.6094,170.9531 610.6094,171.5625 L610.6094,173.0156 Q610.6094,173.625 610.375,173.8906 Q610.1406,174.1563 609.7656,174.1563 Q609.4219,174.1563 609.2188,173.9531 Q609.0156,173.7656 608.9063,173.25 Q608.8594,172.8906 608.6719,172.7031 Q608.3438,172.3281 607.7344,172.1094 Q607.125,171.8906 606.5,171.8906 Q605.7344,171.8906 605.0938,172.2188 Q604.4688,172.5469 603.9688,173.2969 Q603.4844,174.0469 603.4844,175.0781 L603.4844,176.1719 Q603.4844,177.4063 604.375,178.2344 Q605.2656,179.0469 606.8594,179.0469 Q607.7969,179.0469 608.4531,178.7969 Q608.8438,178.6406 609.2656,178.2031 Q609.5313,177.9375 609.6719,177.8594 Q609.8281,177.7813 610.0313,177.7813 Q610.3594,177.7813 610.6094,178.0469 Q610.875,178.2969 610.875,178.6406 Q610.875,178.9844 610.5313,179.3906 Q610.0313,179.9688 609.2344,180.2969 Q608.1563,180.75 606.8594,180.75 Q605.3438,180.75 604.1406,180.125 Q603.1563,179.625 602.4688,178.5625 Q601.7813,177.4844 601.7813,176.2031 L601.7813,175.0469 Q601.7813,173.7188 602.3906,172.5781 Q603.0156,171.4219 604.1094,170.8125 Q605.2031,170.1875 606.4375,170.1875 Q607.1719,170.1875 607.8125,170.3594 Q608.4688,170.5156 609.0156,170.875 Z " fill="#000000"/><text fill="#000000" font-family="sans-serif" font-size="14" lengthAdjust="spacing" textLength="75" x="626.75" y="180.7285">MobFactory</text><line style="stroke:#181818;stroke-width:0.5;" x1="550.5" x2="745.5" y1="191" y2="191"/><line style="stroke:#181818;stroke-width:0.5;" x1="550.5" x2="745.5" y1="199" y2="199"/><ellipse cx="560.5" cy="213.3047" fill="#84BE84" rx="3" ry="3" style="stroke:#038048;stroke-width:1.0;"/><text fill="#000000" font-family="sans-serif" font-size="14" lengthAdjust="spacing" textLength="171" x="569.5" y="217.5332">createEnemy(): MobEnemy</text></g><!--class EliteFactory--><g id="elem_EliteFactory"><rect codeLine="94" fill="#F1F1F1" height="65.6094" id="EliteFactory" rx="2.5" ry="2.5" style="stroke:#181818;stroke-width:0.5;" width="197" x="1407.5" y="159"/><ellipse cx="1464.25" cy="175" fill="#ADD1B2" rx="11" ry="11" style="stroke:#181818;stroke-width:1.0;"/><path d="M1467.0156,170.875 Q1467.1719,170.6563 1467.3594,170.5469 Q1467.5469,170.4375 1467.7656,170.4375 Q1468.1406,170.4375 1468.375,170.7031 Q1468.6094,170.9531 1468.6094,171.5625 L1468.6094,173.0156 Q1468.6094,173.625 1468.375,173.8906 Q1468.1406,174.1563 1467.7656,174.1563 Q1467.4219,174.1563 1467.2188,173.9531 Q1467.0156,173.7656 1466.9063,173.25 Q1466.8594,172.8906 1466.6719,172.7031 Q1466.3438,172.3281 1465.7344,172.1094 Q1465.125,171.8906 1464.5,171.8906 Q1463.7344,171.8906 1463.0938,172.2188 Q1462.4688,172.5469 1461.9688,173.2969 Q1461.4844,174.0469 1461.4844,175.0781 L1461.4844,176.1719 Q1461.4844,177.4063 1462.375,178.2344 Q1463.2656,179.0469 1464.8594,179.0469 Q1465.7969,179.0469 1466.4531,178.7969 Q1466.8438,178.6406 1467.2656,178.2031 Q1467.5313,177.9375 1467.6719,177.8594 Q1467.8281,177.7813 1468.0313,177.7813 Q1468.3594,177.7813 1468.6094,178.0469 Q1468.875,178.2969 1468.875,178.6406 Q1468.875,178.9844 1468.5313,179.3906 Q1468.0313,179.9688 1467.2344,180.2969 Q1466.1563,180.75 1464.8594,180.75 Q1463.3438,180.75 1462.1406,180.125 Q1461.1563,179.625 1460.4688,178.5625 Q1459.7813,177.4844 1459.7813,176.2031 L1459.7813,175.0469 Q1459.7813,173.7188 1460.3906,172.5781 Q1461.0156,171.4219 1462.1094,170.8125 Q1463.2031,170.1875 1464.4375,170.1875 Q1465.1719,170.1875 1465.8125,170.3594 Q1466.4688,170.5156 1467.0156,170.875 Z " fill="#000000"/><text fill="#000000" font-family="sans-serif" font-size="14" lengthAdjust="spacing" textLength="75" x="1484.75" y="180.7285">EliteFactory</text><line style="stroke:#181818;stroke-width:0.5;" x1="1408.5" x2="1603.5" y1="191" y2="191"/><line style="stroke:#181818;stroke-width:0.5;" x1="1408.5" x2="1603.5" y1="199" y2="199"/><ellipse cx="1418.5" cy="213.3047" fill="#84BE84" rx="3" ry="3" style="stroke:#038048;stroke-width:1.0;"/><text fill="#000000" font-family="sans-serif" font-size="14" lengthAdjust="spacing" textLength="171" x="1427.5" y="217.5332">createEnemy(): EliteEnemy</text></g><!--class BossFactory--><g id="elem_BossFactory"><rect codeLine="97" fill="#F1F1F1" height="65.6094" id="BossFactory" rx="2.5" ry="2.5" style="stroke:#181818;stroke-width:0.5;" width="158" x="1716" y="159"/><ellipse cx="1752.15" cy="175" fill="#ADD1B2" rx="11" ry="11" style="stroke:#181818;stroke-width:1.0;"/><path d="M1754.9156,170.875 Q1755.0719,170.6563 1755.2594,170.5469 Q1755.4469,170.4375 1755.6656,170.4375 Q1756.0406,170.4375 1756.275,170.7031 Q1756.5094,170.9531 1756.5094,171.5625 L1756.5094,173.0156 Q1756.5094,173.625 1756.275,173.8906 Q1756.0406,174.1563 1755.6656,174.1563 Q1755.3219,174.1563 1755.1188,173.9531 Q1754.9156,173.7656 1754.8063,173.25 Q1754.7594,172.8906 1754.5719,172.7031 Q1754.2438,172.3281 1753.6344,172.1094 Q1753.025,171.8906 1752.4,171.8906 Q1751.6344,171.8906 1750.9938,172.2188 Q1750.3688,172.5469 1749.8688,173.2969 Q1749.3844,174.0469 1749.3844,175.0781 L1749.3844,176.1719 Q1749.3844,177.4063 1750.275,178.2344 Q1751.1656,179.0469 1752.7594,179.0469 Q1753.6969,179.0469 1754.3531,178.7969 Q1754.7438,178.6406 1755.1656,178.2031 Q1755.4313,177.9375 1755.5719,177.8594 Q1755.7281,177.7813 1755.9313,177.7813 Q1756.2594,177.7813 1756.5094,178.0469 Q1756.775,178.2969 1756.775,178.6406 Q1756.775,178.9844 1756.4313,179.3906 Q1755.9313,179.9688 1755.1344,180.2969 Q1754.0563,180.75 1752.7594,180.75 Q1751.2438,180.75 1750.0406,180.125 Q1749.0563,179.625 1748.3688,178.5625 Q1747.6813,177.4844 1747.6813,176.2031 L1747.6813,175.0469 Q1747.6813,173.7188 1748.2906,172.5781 Q1748.9156,171.4219 1750.0094,170.8125 Q1751.1031,170.1875 1752.3375,170.1875 Q1753.0719,170.1875 1753.7125,170.3594 Q1754.3688,170.5156 1754.9156,170.875 Z " fill="#000000"/><text fill="#000000" font-family="sans-serif" font-size="14" lengthAdjust="spacing" textLength="79" x="1770.85" y="180.7285">BossFactory</text><line style="stroke:#181818;stroke-width:0.5;" x1="1717" x2="1873" y1="191" y2="191"/><line style="stroke:#181818;stroke-width:0.5;" x1="1717" x2="1873" y1="199" y2="199"/><ellipse cx="1727" cy="213.3047" fill="#84BE84" rx="3" ry="3" style="stroke:#038048;stroke-width:1.0;"/><text fill="#000000" font-family="sans-serif" font-size="14" lengthAdjust="spacing" textLength="132" x="1736" y="217.5332">createEnemy(): Boss</text></g><!--class ElitePlusFactory--><g id="elem_ElitePlusFactory"><rect codeLine="100" fill="#F1F1F1" height="65.6094" id="ElitePlusFactory" rx="2.5" ry="2.5" style="stroke:#181818;stroke-width:0.5;" width="224" x="214" y="159"/><ellipse cx="270.75" cy="175" fill="#ADD1B2" rx="11" ry="11" style="stroke:#181818;stroke-width:1.0;"/><path d="M273.5156,170.875 Q273.6719,170.6563 273.8594,170.5469 Q274.0469,170.4375 274.2656,170.4375 Q274.6406,170.4375 274.875,170.7031 Q275.1094,170.9531 275.1094,171.5625 L275.1094,173.0156 Q275.1094,173.625 274.875,173.8906 Q274.6406,174.1563 274.2656,174.1563 Q273.9219,174.1563 273.7188,173.9531 Q273.5156,173.7656 273.4063,173.25 Q273.3594,172.8906 273.1719,172.7031 Q272.8438,172.3281 272.2344,172.1094 Q271.625,171.8906 271,171.8906 Q270.2344,171.8906 269.5938,172.2188 Q268.9688,172.5469 268.4688,173.2969 Q267.9844,174.0469 267.9844,175.0781 L267.9844,176.1719 Q267.9844,177.4063 268.875,178.2344 Q269.7656,179.0469 271.3594,179.0469 Q272.2969,179.0469 272.9531,178.7969 Q273.3438,178.6406 273.7656,178.2031 Q274.0313,177.9375 274.1719,177.8594 Q274.3281,177.7813 274.5313,177.7813 Q274.8594,177.7813 275.1094,178.0469 Q275.375,178.2969 275.375,178.6406 Q275.375,178.9844 275.0313,179.3906 Q274.5313,179.9688 273.7344,180.2969 Q272.6563,180.75 271.3594,180.75 Q269.8438,180.75 268.6406,180.125 Q267.6563,179.625 266.9688,178.5625 Q266.2813,177.4844 266.2813,176.2031 L266.2813,175.0469 Q266.2813,173.7188 266.8906,172.5781 Q267.5156,171.4219 268.6094,170.8125 Q269.7031,170.1875 270.9375,170.1875 Q271.6719,170.1875 272.3125,170.3594 Q272.9688,170.5156 273.5156,170.875 Z " fill="#000000"/><text fill="#000000" font-family="sans-serif" font-size="14" lengthAdjust="spacing" textLength="102" x="291.25" y="180.7285">ElitePlusFactory</text><line style="stroke:#181818;stroke-width:0.5;" x1="215" x2="437" y1="191" y2="191"/><line style="stroke:#181818;stroke-width:0.5;" x1="215" x2="437" y1="199" y2="199"/><ellipse cx="225" cy="213.3047" fill="#84BE84" rx="3" ry="3" style="stroke:#038048;stroke-width:1.0;"/><text fill="#000000" font-family="sans-serif" font-size="14" lengthAdjust="spacing" textLength="198" x="234" y="217.5332">createEnemy(): ElitePlusEnemy</text></g><!--link AbstractEnemyAircraft to Observer--><g id="link_AbstractEnemyAircraft_Observer"><path codeLine="15" d="M1077,251.05 C1077,304.57 1077,364.08 1077,407.3 " fill="none" id="AbstractEnemyAircraft-to-Observer" style="stroke:#181818;stroke-width:1.0;stroke-dasharray:7.0,7.0;"/><polygon fill="none" points="1077,425.3,1083,407.3,1071,407.3,1077,425.3" style="stroke:#181818;stroke-width:1.0;"/></g><!--reverse link AbstractEnemyAircraft to MobEnemy--><g id="link_AbstractEnemyAircraft_MobEnemy"><path codeLine="26" d="M993.1325,262.5379 C950.0325,298.2679 907.9,333.21 859.94,372.98 " fill="none" id="AbstractEnemyAircraft-backto-MobEnemy" style="stroke:#181818;stroke-width:1.0;"/><polygon fill="none" points="1006.99,251.05,989.3033,257.9187,996.9618,267.157,1006.99,251.05" style="stroke:#181818;stroke-width:1.0;"/></g><!--reverse link AbstractEnemyAircraft to EliteEnemy--><g id="link_AbstractEnemyAircraft_EliteEnemy"><path codeLine="45" d="M1160.8673,262.538 C1182.5073,280.478 1193.54,289.63 1219.03,310.77 " fill="none" id="AbstractEnemyAircraft-backto-EliteEnemy" style="stroke:#181818;stroke-width:1.0;"/><polygon fill="none" points="1147.01,251.05,1157.038,267.1571,1164.6967,257.9189,1147.01,251.05" style="stroke:#181818;stroke-width:1.0;"/></g><!--reverse link AbstractEnemyAircraft to ElitePlusEnemy--><g id="link_AbstractEnemyAircraft_ElitePlusEnemy"><path codeLine="65" d="M763.493,254.1775 C640.923,278.8175 538.43,300.72 511,311 C505.04,313.23 499.05,315.59 493.05,318.05 " fill="none" id="AbstractEnemyAircraft-backto-ElitePlusEnemy" style="stroke:#181818;stroke-width:1.0;"/><polygon fill="none" points="781.14,250.63,762.3105,248.2952,764.6756,260.0599,781.14,250.63" style="stroke:#181818;stroke-width:1.0;"/></g><!--reverse link AbstractEnemyAircraft to Boss--><g id="link_AbstractEnemyAircraft_Boss"><path codeLine="84" d="M1390.4019,253.3526 C1513.1719,277.8526 1615.85,299.89 1643,311 C1648.99,313.45 1654.99,316.06 1660.99,318.8 " fill="none" id="AbstractEnemyAircraft-backto-Boss" style="stroke:#181818;stroke-width:1.0;"/><polygon fill="none" points="1372.75,249.83,1389.2277,259.2366,1391.5762,247.4686,1372.75,249.83" style="stroke:#181818;stroke-width:1.0;"/></g><!--reverse link EnemyFactory to MobFactory--><g id="link_EnemyFactory_MobFactory"><path codeLine="105" d="M945.3519,74.0305 C885.3319,90.2305 828.44,107.65 764,133 C745.04,140.46 724.98,149.89 706.98,158.97 " fill="none" id="EnemyFactory-backto-MobFactory" style="stroke:#181818;stroke-width:1.0;stroke-dasharray:7.0,7.0;"/><polygon fill="none" points="962.73,69.34,943.7884,68.2378,946.9154,79.8232,962.73,69.34" style="stroke:#181818;stroke-width:1.0;"/></g><!--reverse link EnemyFactory to EliteFactory--><g id="link_EnemyFactory_EliteFactory"><path codeLine="106" d="M1208.6481,74.0305 C1268.6681,90.2305 1325.56,107.65 1390,133 C1408.96,140.46 1429.02,149.89 1447.02,158.97 " fill="none" id="EnemyFactory-backto-EliteFactory" style="stroke:#181818;stroke-width:1.0;stroke-dasharray:7.0,7.0;"/><polygon fill="none" points="1191.27,69.34,1207.0846,79.8232,1210.2116,68.2378,1191.27,69.34" style="stroke:#181818;stroke-width:1.0;"/></g><!--reverse link EnemyFactory to ElitePlusFactory--><g id="link_EnemyFactory_ElitePlusFactory"><path codeLine="107" d="M944.9754,59.2169 C834.2254,75.2369 679.58,99.87 532,133 C499.1,140.39 463.64,149.82 431.57,158.93 " fill="none" id="EnemyFactory-backto-ElitePlusFactory" style="stroke:#181818;stroke-width:1.0;stroke-dasharray:7.0,7.0;"/><polygon fill="none" points="962.79,56.64,944.1164,53.2787,945.8344,65.1551,962.79,56.64" style="stroke:#181818;stroke-width:1.0;"/></g><!--reverse link EnemyFactory to BossFactory--><g id="link_EnemyFactory_BossFactory"><path codeLine="108" d="M1208.9015,57.3535 C1319.9115,72.1835 1475.05,96.2 1622,133 C1653.04,140.77 1686.51,151.44 1715.67,161.51 " fill="none" id="EnemyFactory-backto-BossFactory" style="stroke:#181818;stroke-width:1.0;stroke-dasharray:7.0,7.0;"/><polygon fill="none" points="1191.06,54.97,1208.107,63.3006,1209.696,51.4063,1191.06,54.97" style="stroke:#181818;stroke-width:1.0;"/></g><!--link MobFactory to MobEnemy--><g id="link_MobFactory_MobEnemy"><path codeLine="110" d="M661.38,225.17 C676.55,261.65 699.5957,317.0701 720.5257,367.3901 " fill="none" id="MobFactory-to-MobEnemy" style="stroke:#181818;stroke-width:1.0;stroke-dasharray:7.0,7.0;"/><polygon fill="#181818" points="722.83,372.93,723.0669,363.084,720.9098,368.3134,715.6804,366.1563,722.83,372.93" style="stroke:#181818;stroke-width:1.0;"/></g><!--link EliteFactory to EliteEnemy--><g id="link_EliteFactory_EliteEnemy"><path codeLine="111" d="M1492.62,225.17 C1483.4,247.33 1472.7343,272.9901 1459.2743,305.3501 " fill="none" id="EliteFactory-to-EliteEnemy" style="stroke:#181818;stroke-width:1.0;stroke-dasharray:7.0,7.0;"/><polygon fill="#181818" points="1456.97,310.89,1464.1197,304.1164,1458.8902,306.2734,1456.7332,301.044,1456.97,310.89" style="stroke:#181818;stroke-width:1.0;"/></g><!--link ElitePlusFactory to ElitePlusEnemy--><g id="link_ElitePlusFactory_ElitePlusEnemy"><path codeLine="112" d="M316.76,225.17 C310.39,247.33 303.0756,272.7629 293.7856,305.1229 " fill="none" id="ElitePlusFactory-to-ElitePlusEnemy" style="stroke:#181818;stroke-width:1.0;stroke-dasharray:7.0,7.0;"/><polygon fill="#181818" points="292.13,310.89,298.4581,303.3432,293.5097,306.0841,290.7687,301.1357,292.13,310.89" style="stroke:#181818;stroke-width:1.0;"/></g><!--link BossFactory to Boss--><g id="link_BossFactory_Boss"><path codeLine="113" d="M1804.24,225.17 C1810.61,247.33 1817.9244,272.7629 1827.2144,305.1229 " fill="none" id="BossFactory-to-Boss" style="stroke:#181818;stroke-width:1.0;stroke-dasharray:7.0,7.0;"/><polygon fill="#181818" points="1828.87,310.89,1830.2313,301.1357,1827.4903,306.0841,1822.5419,303.3432,1828.87,310.89" style="stroke:#181818;stroke-width:1.0;"/></g><!--SRC=[vLPDRzim3BthLn3OfSMM_02Z2D0CtQdRWktIdGf5PbgXZcL8IhiYzNyV9LasOxX1WEsKvUBmGoBVUxHaNNkq6waGlgyTscUqUm7q-mXxkNRUIkLRs3Mbz7XnMJmRNOfMY1m2LKdduBepRshSlbvhgwpSU94s-W1E6Ok5hZrqEq-cNuI4oYZfjQdlFW4tVoNJDOZb7VlV-H-RpXSANQOYhFi7hD5I__UDDGs1kDNENosbmnNPYvJ-WFvdM4rXI9qIoia-OJv_M_Ha2P4O-6hMCGiIw1c4MaKkmdokWAdw_GP_HKE77JR6laXRPi6IqpqQupdyvQwgqES63ZNkI3aaRjGvq2HCKtJrDflrY395DvNs63sPezZHjzqMmd1aZimBsgn1z9JQeWhmevTHUV-awnB6tY_KZR6lv5yD5ejJu1HPSdLbw0NvxOlFwTbvzywJ8ge5A-lIR0lu4Pzvm0Ue_rPEwlrqGKVgmJJ2iV17DHrmYGDLLzNE_KVAzd3FKDqUMnPuQPmxUra3oFCICo2YbrJtrtjCwTYTkEALHPdFhD10thc_pLjsrOssELXR30T_oy-8uslOoTAomJk-A69inmVH2OM68ITKWZD3tCtd3E94aADvBypwc4XXo8GOQj6NnM8WZvU94KRHk4Q8Zu2n6Y6Qnk4F]--></g></svg>