<?xml version="1.0" encoding="us-ascii" standalone="no"?><svg xmlns="http://www.w3.org/2000/svg" xmlns:xlink="http://www.w3.org/1999/xlink" contentStyleType="text/css" height="771px" preserveAspectRatio="none" style="width:541px;height:771px;background:#FFFFFF;" version="1.1" viewBox="0 0 541 771" width="541px" zoomAndPan="magnify"><defs/><g><!--class User--><g id="elem_User"><rect codeLine="2" fill="#F1F1F1" height="259.3125" id="User" rx="2.5" ry="2.5" style="stroke:#181818;stroke-width:0.5;" width="370" x="153" y="505"/><ellipse cx="319.25" cy="521" fill="#ADD1B2" rx="11" ry="11" style="stroke:#181818;stroke-width:1.0;"/><path d="M322.0156,516.875 Q322.1719,516.6563 322.3594,516.5469 Q322.5469,516.4375 322.7656,516.4375 Q323.1406,516.4375 323.375,516.7031 Q323.6094,516.9531 323.6094,517.5625 L323.6094,519.0156 Q323.6094,519.625 323.375,519.8906 Q323.1406,520.1563 322.7656,520.1563 Q322.4219,520.1563 322.2188,519.9531 Q322.0156,519.7656 321.9063,519.25 Q321.8594,518.8906 321.6719,518.7031 Q321.3438,518.3281 320.7344,518.1094 Q320.125,517.8906 319.5,517.8906 Q318.7344,517.8906 318.0938,518.2188 Q317.4688,518.5469 316.9688,519.2969 Q316.4844,520.0469 316.4844,521.0781 L316.4844,522.1719 Q316.4844,523.4063 317.375,524.2344 Q318.2656,525.0469 319.8594,525.0469 Q320.7969,525.0469 321.4531,524.7969 Q321.8438,524.6406 322.2656,524.2031 Q322.5313,523.9375 322.6719,523.8594 Q322.8281,523.7813 323.0313,523.7813 Q323.3594,523.7813 323.6094,524.0469 Q323.875,524.2969 323.875,524.6406 Q323.875,524.9844 323.5313,525.3906 Q323.0313,525.9688 322.2344,526.2969 Q321.1563,526.75 319.8594,526.75 Q318.3438,526.75 317.1406,526.125 Q316.1563,525.625 315.4688,524.5625 Q314.7813,523.4844 314.7813,522.2031 L314.7813,521.0469 Q314.7813,519.7188 315.3906,518.5781 Q316.0156,517.4219 317.1094,516.8125 Q318.2031,516.1875 319.4375,516.1875 Q320.1719,516.1875 320.8125,516.3594 Q321.4688,516.5156 322.0156,516.875 Z " fill="#000000"/><text fill="#000000" font-family="sans-serif" font-size="14" lengthAdjust="spacing" textLength="29" x="339.75" y="526.7285">User</text><line style="stroke:#181818;stroke-width:0.5;" x1="154" x2="522" y1="537" y2="537"/><rect fill="none" height="6" style="stroke:#C82930;stroke-width:1.0;" width="6" x="161" y="548.3047"/><text fill="#000000" font-family="sans-serif" font-size="14" lengthAdjust="spacing" textLength="109" x="173" y="555.5332">userName: String</text><rect fill="none" height="6" style="stroke:#C82930;stroke-width:1.0;" width="6" x="161" y="565.9141"/><text fill="#000000" font-family="sans-serif" font-size="14" lengthAdjust="spacing" textLength="88" x="173" y="573.1426">userScore: int</text><rect fill="none" height="6" style="stroke:#C82930;stroke-width:1.0;" width="6" x="161" y="583.5234"/><text fill="#000000" font-family="sans-serif" font-size="14" lengthAdjust="spacing" textLength="104" x="173" y="590.752">userTime: String</text><line style="stroke:#181818;stroke-width:0.5;" x1="154" x2="522" y1="597.8281" y2="597.8281"/><ellipse cx="164" cy="612.1328" fill="#84BE84" rx="3" ry="3" style="stroke:#038048;stroke-width:1.0;"/><text fill="#000000" font-family="sans-serif" font-size="14" lengthAdjust="spacing" textLength="344" x="173" y="616.3613">User(String userName, int userScore, String userTime)</text><ellipse cx="164" cy="629.7422" fill="#84BE84" rx="3" ry="3" style="stroke:#038048;stroke-width:1.0;"/><text fill="#000000" font-family="sans-serif" font-size="14" lengthAdjust="spacing" textLength="123" x="173" y="633.9707">getUserScore() : int</text><ellipse cx="164" cy="647.3516" fill="#84BE84" rx="3" ry="3" style="stroke:#038048;stroke-width:1.0;"/><text fill="#000000" font-family="sans-serif" font-size="14" lengthAdjust="spacing" textLength="215" x="173" y="651.5801">setUserScore(int userscore) : void</text><ellipse cx="164" cy="664.9609" fill="#84BE84" rx="3" ry="3" style="stroke:#038048;stroke-width:1.0;"/><text fill="#000000" font-family="sans-serif" font-size="14" lengthAdjust="spacing" textLength="140" x="173" y="669.1895">getUserName(): String</text><ellipse cx="164" cy="682.5703" fill="#84BE84" rx="3" ry="3" style="stroke:#038048;stroke-width:1.0;"/><text fill="#000000" font-family="sans-serif" font-size="14" lengthAdjust="spacing" textLength="205" x="173" y="686.7988">setUserName(String Name): void</text><ellipse cx="164" cy="700.1797" fill="#84BE84" rx="3" ry="3" style="stroke:#038048;stroke-width:1.0;"/><text fill="#000000" font-family="sans-serif" font-size="14" lengthAdjust="spacing" textLength="139" x="173" y="704.4082">getUserTime() : String</text><ellipse cx="164" cy="717.7891" fill="#84BE84" rx="3" ry="3" style="stroke:#038048;stroke-width:1.0;"/><text fill="#000000" font-family="sans-serif" font-size="14" lengthAdjust="spacing" textLength="190" x="173" y="722.0176">setUserTime(String time): void</text><ellipse cx="164" cy="735.3984" fill="#84BE84" rx="3" ry="3" style="stroke:#038048;stroke-width:1.0;"/><text fill="#000000" font-family="sans-serif" font-size="14" lengthAdjust="spacing" textLength="104" x="173" y="739.627">toString(): String</text><ellipse cx="164" cy="753.0078" fill="#84BE84" rx="3" ry="3" style="stroke:#038048;stroke-width:1.0;"/><text fill="#000000" font-family="sans-serif" font-size="14" lengthAdjust="spacing" textLength="171" x="173" y="757.2363">compareTo(User other): int</text></g><!--class UserDao--><g id="elem_UserDao"><rect codeLine="17" fill="#F1F1F1" height="153.6563" id="UserDao" rx="2.5" ry="2.5" style="stroke:#181818;stroke-width:0.5;" width="240" x="9" y="7"/><ellipse cx="96.75" cy="23" fill="#B4A7E5" rx="11" ry="11" style="stroke:#181818;stroke-width:1.0;"/><path d="M97.7031,19.6406 L97.7031,26.2969 L99.4219,26.2969 Q100.0313,26.2969 100.2969,26.5313 Q100.5625,26.7656 100.5625,27.1563 Q100.5625,27.5313 100.2969,27.7656 Q100.0313,28 99.4219,28 L94.2813,28 Q93.6719,28 93.4063,27.7656 Q93.1406,27.5313 93.1406,27.1406 Q93.1406,26.7656 93.4063,26.5313 Q93.6719,26.2969 94.2813,26.2969 L96,26.2969 L96,19.6406 L94.2813,19.6406 Q93.6719,19.6406 93.4063,19.4063 Q93.1406,19.1719 93.1406,18.7813 Q93.1406,18.4063 93.4063,18.1719 Q93.6719,17.9375 94.2813,17.9375 L99.4219,17.9375 Q100.0313,17.9375 100.2969,18.1719 Q100.5625,18.4063 100.5625,18.7813 Q100.5625,19.1719 100.2969,19.4063 Q100.0313,19.6406 99.4219,19.6406 L97.7031,19.6406 Z " fill="#000000"/><text fill="#000000" font-family="sans-serif" font-size="14" font-style="italic" lengthAdjust="spacing" textLength="56" x="117.25" y="28.7285">UserDao</text><line style="stroke:#181818;stroke-width:0.5;" x1="10" x2="248" y1="39" y2="39"/><line style="stroke:#181818;stroke-width:0.5;" x1="10" x2="248" y1="47" y2="47"/><ellipse cx="20" cy="61.3047" fill="#84BE84" rx="3" ry="3" style="stroke:#038048;stroke-width:1.0;"/><text fill="#000000" font-family="sans-serif" font-size="14" font-style="italic" lengthAdjust="spacing" textLength="155" x="29" y="65.5332">getAllUser():  List&lt;User&gt;</text><ellipse cx="20" cy="78.9141" fill="#84BE84" rx="3" ry="3" style="stroke:#038048;stroke-width:1.0;"/><text fill="#000000" font-family="sans-serif" font-size="14" font-style="italic" lengthAdjust="spacing" textLength="156" x="29" y="83.1426">AddUser(User user):void</text><ellipse cx="20" cy="96.5234" fill="#84BE84" rx="3" ry="3" style="stroke:#038048;stroke-width:1.0;"/><text fill="#000000" font-family="sans-serif" font-size="14" font-style="italic" lengthAdjust="spacing" textLength="214" x="29" y="100.752">DeleteUser(String username):void</text><ellipse cx="20" cy="114.1328" fill="#84BE84" rx="3" ry="3" style="stroke:#038048;stroke-width:1.0;"/><text fill="#000000" font-family="sans-serif" font-size="14" font-style="italic" lengthAdjust="spacing" textLength="205" x="29" y="118.3613">findUser(String username): User</text><ellipse cx="20" cy="131.7422" fill="#84BE84" rx="3" ry="3" style="stroke:#038048;stroke-width:1.0;"/><text fill="#000000" font-family="sans-serif" font-size="14" font-style="italic" lengthAdjust="spacing" textLength="72" x="29" y="135.9707">save(): void</text><ellipse cx="20" cy="149.3516" fill="#84BE84" rx="3" ry="3" style="stroke:#038048;stroke-width:1.0;"/><text fill="#000000" font-family="sans-serif" font-size="14" font-style="italic" lengthAdjust="spacing" textLength="108" x="29" y="153.5801">printScore(): void</text></g><!--class UserDaoImpl--><g id="elem_UserDaoImpl"><rect codeLine="28" fill="#F1F1F1" height="224.0938" id="UserDaoImpl" rx="2.5" ry="2.5" style="stroke:#181818;stroke-width:0.5;" width="244" x="7" y="221"/><ellipse cx="84.75" cy="237" fill="#ADD1B2" rx="11" ry="11" style="stroke:#181818;stroke-width:1.0;"/><path d="M87.5156,232.875 Q87.6719,232.6563 87.8594,232.5469 Q88.0469,232.4375 88.2656,232.4375 Q88.6406,232.4375 88.875,232.7031 Q89.1094,232.9531 89.1094,233.5625 L89.1094,235.0156 Q89.1094,235.625 88.875,235.8906 Q88.6406,236.1563 88.2656,236.1563 Q87.9219,236.1563 87.7188,235.9531 Q87.5156,235.7656 87.4063,235.25 Q87.3594,234.8906 87.1719,234.7031 Q86.8438,234.3281 86.2344,234.1094 Q85.625,233.8906 85,233.8906 Q84.2344,233.8906 83.5938,234.2188 Q82.9688,234.5469 82.4688,235.2969 Q81.9844,236.0469 81.9844,237.0781 L81.9844,238.1719 Q81.9844,239.4063 82.875,240.2344 Q83.7656,241.0469 85.3594,241.0469 Q86.2969,241.0469 86.9531,240.7969 Q87.3438,240.6406 87.7656,240.2031 Q88.0313,239.9375 88.1719,239.8594 Q88.3281,239.7813 88.5313,239.7813 Q88.8594,239.7813 89.1094,240.0469 Q89.375,240.2969 89.375,240.6406 Q89.375,240.9844 89.0313,241.3906 Q88.5313,241.9688 87.7344,242.2969 Q86.6563,242.75 85.3594,242.75 Q83.8438,242.75 82.6406,242.125 Q81.6563,241.625 80.9688,240.5625 Q80.2813,239.4844 80.2813,238.2031 L80.2813,237.0469 Q80.2813,235.7188 80.8906,234.5781 Q81.5156,233.4219 82.6094,232.8125 Q83.7031,232.1875 84.9375,232.1875 Q85.6719,232.1875 86.3125,232.3594 Q86.9688,232.5156 87.5156,232.875 Z " fill="#000000"/><text fill="#000000" font-family="sans-serif" font-size="14" lengthAdjust="spacing" textLength="80" x="105.25" y="242.7285">UserDaoImpl</text><line style="stroke:#181818;stroke-width:0.5;" x1="8" x2="250" y1="253" y2="253"/><rect fill="none" height="6" style="stroke:#C82930;stroke-width:1.0;" width="6" x="15" y="264.3047"/><text fill="#000000" font-family="sans-serif" font-size="14" lengthAdjust="spacing" textLength="148" x="27" y="271.5332">users:  ArrayList&lt;User&gt;</text><rect fill="none" height="6" style="stroke:#C82930;stroke-width:1.0;" width="6" x="15" y="281.9141"/><text fill="#000000" font-family="sans-serif" font-size="14" lengthAdjust="spacing" textLength="95" x="27" y="289.1426">savepath: Path</text><rect fill="none" height="6" style="stroke:#C82930;stroke-width:1.0;" width="6" x="15" y="299.5234"/><text fill="#000000" font-family="sans-serif" font-size="14" lengthAdjust="spacing" textLength="84" x="27" y="306.752">filePath: Path</text><line style="stroke:#181818;stroke-width:0.5;" x1="8" x2="250" y1="313.8281" y2="313.8281"/><ellipse cx="18" cy="328.1328" fill="#84BE84" rx="3" ry="3" style="stroke:#038048;stroke-width:1.0;"/><text fill="#000000" font-family="sans-serif" font-size="14" lengthAdjust="spacing" textLength="151" x="27" y="332.3613">UserDaoImpl(Path path)</text><ellipse cx="18" cy="345.7422" fill="#84BE84" rx="3" ry="3" style="stroke:#038048;stroke-width:1.0;"/><text fill="#000000" font-family="sans-serif" font-size="14" lengthAdjust="spacing" textLength="149" x="27" y="349.9707">getAllUser(): List&lt;User&gt;</text><ellipse cx="18" cy="363.3516" fill="#84BE84" rx="3" ry="3" style="stroke:#038048;stroke-width:1.0;"/><text fill="#000000" font-family="sans-serif" font-size="14" lengthAdjust="spacing" textLength="163" x="27" y="367.5801">AddUser(User user) : void</text><ellipse cx="18" cy="380.9609" fill="#84BE84" rx="3" ry="3" style="stroke:#038048;stroke-width:1.0;"/><text fill="#000000" font-family="sans-serif" font-size="14" lengthAdjust="spacing" textLength="218" x="27" y="385.1895">DeleteUser(String username): void</text><ellipse cx="18" cy="398.5703" fill="#84BE84" rx="3" ry="3" style="stroke:#038048;stroke-width:1.0;"/><text fill="#000000" font-family="sans-serif" font-size="14" lengthAdjust="spacing" textLength="203" x="27" y="402.7988">findUser(String username): User</text><ellipse cx="18" cy="416.1797" fill="#84BE84" rx="3" ry="3" style="stroke:#038048;stroke-width:1.0;"/><text fill="#000000" font-family="sans-serif" font-size="14" lengthAdjust="spacing" textLength="74" x="27" y="420.4082">save(): void</text><ellipse cx="18" cy="433.7891" fill="#84BE84" rx="3" ry="3" style="stroke:#038048;stroke-width:1.0;"/><text fill="#000000" font-family="sans-serif" font-size="14" lengthAdjust="spacing" textLength="113" x="27" y="438.0176">printScore() : void</text></g><!--class Serializable--><g id="elem_Serializable"><rect fill="#F1F1F1" height="48" id="Serializable" rx="2.5" ry="2.5" style="stroke:#181818;stroke-width:0.5;" width="104" x="286" y="309"/><ellipse cx="301" cy="325" fill="#ADD1B2" rx="11" ry="11" style="stroke:#181818;stroke-width:1.0;"/><path d="M303.7656,320.875 Q303.9219,320.6563 304.1094,320.5469 Q304.2969,320.4375 304.5156,320.4375 Q304.8906,320.4375 305.125,320.7031 Q305.3594,320.9531 305.3594,321.5625 L305.3594,323.0156 Q305.3594,323.625 305.125,323.8906 Q304.8906,324.1563 304.5156,324.1563 Q304.1719,324.1563 303.9688,323.9531 Q303.7656,323.7656 303.6563,323.25 Q303.6094,322.8906 303.4219,322.7031 Q303.0938,322.3281 302.4844,322.1094 Q301.875,321.8906 301.25,321.8906 Q300.4844,321.8906 299.8438,322.2188 Q299.2188,322.5469 298.7188,323.2969 Q298.2344,324.0469 298.2344,325.0781 L298.2344,326.1719 Q298.2344,327.4063 299.125,328.2344 Q300.0156,329.0469 301.6094,329.0469 Q302.5469,329.0469 303.2031,328.7969 Q303.5938,328.6406 304.0156,328.2031 Q304.2813,327.9375 304.4219,327.8594 Q304.5781,327.7813 304.7813,327.7813 Q305.1094,327.7813 305.3594,328.0469 Q305.625,328.2969 305.625,328.6406 Q305.625,328.9844 305.2813,329.3906 Q304.7813,329.9688 303.9844,330.2969 Q302.9063,330.75 301.6094,330.75 Q300.0938,330.75 298.8906,330.125 Q297.9063,329.625 297.2188,328.5625 Q296.5313,327.4844 296.5313,326.2031 L296.5313,325.0469 Q296.5313,323.7188 297.1406,322.5781 Q297.7656,321.4219 298.8594,320.8125 Q299.9531,320.1875 301.1875,320.1875 Q301.9219,320.1875 302.5625,320.3594 Q303.2188,320.5156 303.7656,320.875 Z " fill="#000000"/><text fill="#000000" font-family="sans-serif" font-size="14" lengthAdjust="spacing" textLength="72" x="315" y="330.7285">Serializable</text><line style="stroke:#181818;stroke-width:0.5;" x1="287" x2="389" y1="341" y2="341"/><line style="stroke:#181818;stroke-width:0.5;" x1="287" x2="389" y1="349" y2="349"/></g><!--class Comparable--><g id="elem_Comparable"><rect fill="#F1F1F1" height="48" id="Comparable" rx="2.5" ry="2.5" style="stroke:#181818;stroke-width:0.5;" width="109" x="425.5" y="309"/><ellipse cx="440.5" cy="325" fill="#ADD1B2" rx="11" ry="11" style="stroke:#181818;stroke-width:1.0;"/><path d="M443.2656,320.875 Q443.4219,320.6563 443.6094,320.5469 Q443.7969,320.4375 444.0156,320.4375 Q444.3906,320.4375 444.625,320.7031 Q444.8594,320.9531 444.8594,321.5625 L444.8594,323.0156 Q444.8594,323.625 444.625,323.8906 Q444.3906,324.1563 444.0156,324.1563 Q443.6719,324.1563 443.4688,323.9531 Q443.2656,323.7656 443.1563,323.25 Q443.1094,322.8906 442.9219,322.7031 Q442.5938,322.3281 441.9844,322.1094 Q441.375,321.8906 440.75,321.8906 Q439.9844,321.8906 439.3438,322.2188 Q438.7188,322.5469 438.2188,323.2969 Q437.7344,324.0469 437.7344,325.0781 L437.7344,326.1719 Q437.7344,327.4063 438.625,328.2344 Q439.5156,329.0469 441.1094,329.0469 Q442.0469,329.0469 442.7031,328.7969 Q443.0938,328.6406 443.5156,328.2031 Q443.7813,327.9375 443.9219,327.8594 Q444.0781,327.7813 444.2813,327.7813 Q444.6094,327.7813 444.8594,328.0469 Q445.125,328.2969 445.125,328.6406 Q445.125,328.9844 444.7813,329.3906 Q444.2813,329.9688 443.4844,330.2969 Q442.4063,330.75 441.1094,330.75 Q439.5938,330.75 438.3906,330.125 Q437.4063,329.625 436.7188,328.5625 Q436.0313,327.4844 436.0313,326.2031 L436.0313,325.0469 Q436.0313,323.7188 436.6406,322.5781 Q437.2656,321.4219 438.3594,320.8125 Q439.4531,320.1875 440.6875,320.1875 Q441.4219,320.1875 442.0625,320.3594 Q442.7188,320.5156 443.2656,320.875 Z " fill="#000000"/><text fill="#000000" font-family="sans-serif" font-size="14" lengthAdjust="spacing" textLength="77" x="454.5" y="330.7285">Comparable</text><line style="stroke:#181818;stroke-width:0.5;" x1="426.5" x2="533.5" y1="341" y2="341"/><line style="stroke:#181818;stroke-width:0.5;" x1="426.5" x2="533.5" y1="349" y2="349"/></g><!--reverse link UserDao to UserDaoImpl--><g id="link_UserDao_UserDaoImpl"><path codeLine="41" d="M129,179.12 C129,197.98 129,200.56 129,220.71 " fill="none" id="UserDao-backto-UserDaoImpl" style="stroke:#181818;stroke-width:1.0;stroke-dasharray:7.0,7.0;"/><polygon fill="none" points="129,161.12,123,179.12,135,179.12,129,161.12" style="stroke:#181818;stroke-width:1.0;"/></g><!--link UserDaoImpl to User--><g id="link_UserDaoImpl_User"><path codeLine="42" d="M206.53,445.1 C220.12,464.57 230.9259,480.07 244.8159,499.97 " fill="none" id="UserDaoImpl-to-User" style="stroke:#181818;stroke-width:1.0;"/><polygon fill="#181818" points="248.25,504.89,246.3788,495.2205,245.3882,500.79,239.8188,499.7994,248.25,504.89" style="stroke:#181818;stroke-width:1.0;"/></g><!--reverse link Serializable to User--><g id="link_Serializable_User"><path codeLine="44" d="M338,375 C338,406.85 338,448.79 338,504.74 " fill="none" id="Serializable-backto-User" style="stroke:#181818;stroke-width:1.0;stroke-dasharray:7.0,7.0;"/><polygon fill="none" points="338,357,332,375,344,375,338,357" style="stroke:#181818;stroke-width:1.0;"/></g><!--reverse link Comparable to User--><g id="link_Comparable_User"><path codeLine="45" d="M461.379,373.2647 C446.279,405.1147 425.58,448.79 399.05,504.74 " fill="none" id="Comparable-backto-User" style="stroke:#181818;stroke-width:1.0;stroke-dasharray:7.0,7.0;"/><polygon fill="none" points="469.09,357,455.9574,370.6943,466.8005,375.835,469.09,357" style="stroke:#181818;stroke-width:1.0;"/></g><!--SRC=[ZLB1Ri8m3BtdAtniLU03AeHKZSiaD2417n3Q0952KoKPqiRuzyLfeAP4qtfec-VdP_l5jUBMmiuA0rS6_fd2fpzyyBCeOUECR8y4tjJQU5osZe1REU8M40Ip7dheJJ1la9a0YQD67fEFmktkf2o7eLm1beRkQXPFoBjesJnhODai7pLdIIosWFzvIW3x2Zsa548mAZWvLd2w3xtKh_MvuqPiTHPir-uaJDvFUMFCVuGvy5e43vTSzzTINFdUEiDhTmDihb8gUEmJOIMjc-DfyKgjcYRmGYbqAo-77WbnAPHmOdnjRV0bcN2GRPEcXyPV-9PVmbKanJeluUA5HmfwmUh7TdeZti-TeZjg_UYLCVnhc1zY68jrt9rAMFjt10zIYVKpM53j3670DBA9nETncI9XxlCM_cKgvVtBouI3rBPxPMzRd0dcFxCP7P2HVvXE5xqusmWZkPBVVA_4aCFUmfgEm5y0]--></g></svg>