<?xml version="1.0" encoding="us-ascii" standalone="no"?><svg xmlns="http://www.w3.org/2000/svg" xmlns:xlink="http://www.w3.org/1999/xlink" contentStyleType="text/css" height="717px" preserveAspectRatio="none" style="width:2080px;height:717px;background:#FFFFFF;" version="1.1" viewBox="0 0 2080 717" width="2080px" zoomAndPan="magnify"><defs/><g><!--class Observer--><g id="elem_Observer"><rect codeLine="2" fill="#F1F1F1" height="65.6094" id="Observer" rx="2.5" ry="2.5" style="stroke:#181818;stroke-width:0.5;" width="109" x="455" y="530.5"/><ellipse cx="478.55" cy="546.5" fill="#B4A7E5" rx="11" ry="11" style="stroke:#181818;stroke-width:1.0;"/><path d="M479.5031,543.1406 L479.5031,549.7969 L481.2219,549.7969 Q481.8313,549.7969 482.0969,550.0313 Q482.3625,550.2656 482.3625,550.6563 Q482.3625,551.0313 482.0969,551.2656 Q481.8313,551.5 481.2219,551.5 L476.0813,551.5 Q475.4719,551.5 475.2063,551.2656 Q474.9406,551.0313 474.9406,550.6406 Q474.9406,550.2656 475.2063,550.0313 Q475.4719,549.7969 476.0813,549.7969 L477.8,549.7969 L477.8,543.1406 L476.0813,543.1406 Q475.4719,543.1406 475.2063,542.9063 Q474.9406,542.6719 474.9406,542.2813 Q474.9406,541.9063 475.2063,541.6719 Q475.4719,541.4375 476.0813,541.4375 L481.2219,541.4375 Q481.8313,541.4375 482.0969,541.6719 Q482.3625,541.9063 482.3625,542.2813 Q482.3625,542.6719 482.0969,542.9063 Q481.8313,543.1406 481.2219,543.1406 L479.5031,543.1406 Z " fill="#000000"/><text fill="#000000" font-family="sans-serif" font-size="14" font-style="italic" lengthAdjust="spacing" textLength="58" x="494.45" y="552.2285">Observer</text><line style="stroke:#181818;stroke-width:0.5;" x1="456" x2="563" y1="562.5" y2="562.5"/><line style="stroke:#181818;stroke-width:0.5;" x1="456" x2="563" y1="570.5" y2="570.5"/><ellipse cx="466" cy="584.8047" fill="#84BE84" rx="3" ry="3" style="stroke:#038048;stroke-width:1.0;"/><text fill="#000000" font-family="sans-serif" font-size="14" font-style="italic" lengthAdjust="spacing" textLength="83" x="475" y="589.0332">update():void</text></g><!--class AbstractEnemyAircraft--><g id="elem_AbstractEnemyAircraft"><rect codeLine="5" fill="#F1F1F1" height="118.4375" id="AbstractEnemyAircraft" rx="2.5" ry="2.5" style="stroke:#181818;stroke-width:0.5;" width="591" x="709" y="238"/><ellipse cx="930.25" cy="254" fill="#A9DCDF" rx="11" ry="11" style="stroke:#181818;stroke-width:1.0;"/><path d="M932.4375,255.7656 L928.2969,255.7656 L927.875,256.7969 L928.2969,256.7969 Q928.9063,256.7969 929.1719,257.0313 Q929.4375,257.2656 929.4375,257.6563 Q929.4375,258.0313 929.1719,258.2656 Q928.9063,258.5 928.2969,258.5 L926,258.5 Q925.3906,258.5 925.1406,258.2656 Q924.875,258.0313 924.875,257.6406 Q924.875,257.2656 925.1563,257.0313 Q925.4219,256.7813 926.0469,256.7969 L928.7188,250.1406 L927.6094,250.1406 Q927,250.1406 926.7344,249.9063 Q926.4688,249.6719 926.4688,249.2813 Q926.4688,248.9063 926.7344,248.6719 Q927,248.4375 927.6094,248.4375 L931.2813,248.4375 L934.6719,256.7969 Q935.2656,256.7969 935.4531,256.9375 Q935.8438,257.2031 935.8438,257.6563 Q935.8438,258.0313 935.5781,258.2656 Q935.3281,258.5 934.7188,258.5 L932.4219,258.5 Q931.8125,258.5 931.5469,258.2656 Q931.2813,258.0313 931.2813,257.6406 Q931.2813,257.2656 931.5469,257.0313 Q931.8125,256.7969 932.4219,256.7969 L932.8438,256.7969 L932.4375,255.7656 Z M931.7188,254.0625 L930.3594,250.6875 L928.9844,254.0625 L931.7188,254.0625 Z " fill="#000000"/><text fill="#000000" font-family="sans-serif" font-size="14" font-style="italic" lengthAdjust="spacing" textLength="140" x="950.75" y="259.7285">AbstractEnemyAircraft</text><line style="stroke:#181818;stroke-width:0.5;" x1="710" x2="1299" y1="270" y2="270"/><polygon fill="none" points="720,279.3047,724,283.3047,720,287.3047,716,283.3047" style="stroke:#B38D22;stroke-width:1.0;"/><text fill="#000000" font-family="sans-serif" font-size="14" lengthAdjust="spacing" textLength="54" x="729" y="288.5332">score:int</text><line style="stroke:#181818;stroke-width:0.5;" x1="710" x2="1299" y1="295.6094" y2="295.6094"/><ellipse cx="720" cy="309.9141" fill="#84BE84" rx="3" ry="3" style="stroke:#038048;stroke-width:1.0;"/><text fill="#000000" font-family="sans-serif" font-size="14" lengthAdjust="spacing" textLength="565" x="729" y="314.1426">AbstractEnemyAircraft(int locationX, int locationY, int speedX, int speedY, int hp, int score)</text><ellipse cx="720" cy="327.5234" fill="#84BE84" rx="3" ry="3" style="stroke:#038048;stroke-width:1.0;"/><text fill="#000000" font-family="sans-serif" font-size="14" font-style="italic" lengthAdjust="spacing" textLength="208" x="729" y="331.752">generate_prop():List&lt;BaseProp&gt;</text><ellipse cx="720" cy="345.1328" fill="#84BE84" rx="3" ry="3" style="stroke:#038048;stroke-width:1.0;"/><text fill="#000000" font-family="sans-serif" font-size="14" lengthAdjust="spacing" textLength="90" x="729" y="349.3613">getScore(): int</text></g><!--class BombProp--><g id="elem_BombProp"><rect codeLine="15" fill="#F1F1F1" height="171.2656" id="BombProp" rx="2.5" ry="2.5" style="stroke:#181818;stroke-width:0.5;" width="474" x="531.5" y="7"/><ellipse cx="731.25" cy="23" fill="#ADD1B2" rx="11" ry="11" style="stroke:#181818;stroke-width:1.0;"/><path d="M734.0156,18.875 Q734.1719,18.6563 734.3594,18.5469 Q734.5469,18.4375 734.7656,18.4375 Q735.1406,18.4375 735.375,18.7031 Q735.6094,18.9531 735.6094,19.5625 L735.6094,21.0156 Q735.6094,21.625 735.375,21.8906 Q735.1406,22.1563 734.7656,22.1563 Q734.4219,22.1563 734.2188,21.9531 Q734.0156,21.7656 733.9063,21.25 Q733.8594,20.8906 733.6719,20.7031 Q733.3438,20.3281 732.7344,20.1094 Q732.125,19.8906 731.5,19.8906 Q730.7344,19.8906 730.0938,20.2188 Q729.4688,20.5469 728.9688,21.2969 Q728.4844,22.0469 728.4844,23.0781 L728.4844,24.1719 Q728.4844,25.4063 729.375,26.2344 Q730.2656,27.0469 731.8594,27.0469 Q732.7969,27.0469 733.4531,26.7969 Q733.8438,26.6406 734.2656,26.2031 Q734.5313,25.9375 734.6719,25.8594 Q734.8281,25.7813 735.0313,25.7813 Q735.3594,25.7813 735.6094,26.0469 Q735.875,26.2969 735.875,26.6406 Q735.875,26.9844 735.5313,27.3906 Q735.0313,27.9688 734.2344,28.2969 Q733.1563,28.75 731.8594,28.75 Q730.3438,28.75 729.1406,28.125 Q728.1563,27.625 727.4688,26.5625 Q726.7813,25.4844 726.7813,24.2031 L726.7813,23.0469 Q726.7813,21.7188 727.3906,20.5781 Q728.0156,19.4219 729.1094,18.8125 Q730.2031,18.1875 731.4375,18.1875 Q732.1719,18.1875 732.8125,18.3594 Q733.4688,18.5156 734.0156,18.875 Z " fill="#000000"/><text fill="#000000" font-family="sans-serif" font-size="14" lengthAdjust="spacing" textLength="66" x="751.75" y="28.7285">BombProp</text><line style="stroke:#181818;stroke-width:0.5;" x1="532.5" x2="1004.5" y1="39" y2="39"/><rect fill="none" height="6" style="stroke:#C82930;stroke-width:1.0;" width="6" x="539.5" y="50.3047"/><text fill="#000000" font-family="sans-serif" font-size="14" lengthAdjust="spacing" textLength="190" x="551.5" y="57.5332">enemyBullet: List&lt;BaseBullet&gt;</text><rect fill="none" height="6" style="stroke:#C82930;stroke-width:1.0;" width="6" x="539.5" y="67.9141"/><text fill="#000000" font-family="sans-serif" font-size="14" lengthAdjust="spacing" textLength="280" x="551.5" y="75.1426">enemyAircrafts: List&lt;AbstractEnemyAircraft&gt;</text><line style="stroke:#181818;stroke-width:0.5;" x1="532.5" x2="1004.5" y1="82.2188" y2="82.2188"/><ellipse cx="542.5" cy="96.5234" fill="#84BE84" rx="3" ry="3" style="stroke:#038048;stroke-width:1.0;"/><text fill="#000000" font-family="sans-serif" font-size="14" lengthAdjust="spacing" textLength="386" x="551.5" y="100.752">BombProp(int locationX, int locationY, int speedX, int speedY)</text><ellipse cx="542.5" cy="114.1328" fill="#84BE84" rx="3" ry="3" style="stroke:#038048;stroke-width:1.0;"/><text fill="#000000" font-family="sans-serif" font-size="14" lengthAdjust="spacing" textLength="299" x="551.5" y="118.3613">work(HeroAircraft hero,boolean usemusic): void</text><ellipse cx="542.5" cy="131.7422" fill="#84BE84" rx="3" ry="3" style="stroke:#038048;stroke-width:1.0;"/><text fill="#000000" font-family="sans-serif" font-size="14" lengthAdjust="spacing" textLength="260" x="551.5" y="135.9707">addBullets(List&lt;BaseBullet&gt; bullets): void</text><ellipse cx="542.5" cy="149.3516" fill="#84BE84" rx="3" ry="3" style="stroke:#038048;stroke-width:1.0;"/><text fill="#000000" font-family="sans-serif" font-size="14" lengthAdjust="spacing" textLength="448" x="551.5" y="153.5801">addAircrafts(List&lt;AbstractEnemyAircraft&gt; abstractEnemyAircrafts): void</text><ellipse cx="542.5" cy="166.9609" fill="#84BE84" rx="3" ry="3" style="stroke:#038048;stroke-width:1.0;"/><text fill="#000000" font-family="sans-serif" font-size="14" lengthAdjust="spacing" textLength="130" x="551.5" y="171.1895">notify_update(): void</text></g><!--class MobEnemy--><g id="elem_MobEnemy"><rect codeLine="25" fill="#F1F1F1" height="171.2656" id="MobEnemy" rx="2.5" ry="2.5" style="stroke:#181818;stroke-width:0.5;" width="459" x="599" y="478"/><ellipse cx="789.25" cy="494" fill="#ADD1B2" rx="11" ry="11" style="stroke:#181818;stroke-width:1.0;"/><path d="M792.0156,489.875 Q792.1719,489.6563 792.3594,489.5469 Q792.5469,489.4375 792.7656,489.4375 Q793.1406,489.4375 793.375,489.7031 Q793.6094,489.9531 793.6094,490.5625 L793.6094,492.0156 Q793.6094,492.625 793.375,492.8906 Q793.1406,493.1563 792.7656,493.1563 Q792.4219,493.1563 792.2188,492.9531 Q792.0156,492.7656 791.9063,492.25 Q791.8594,491.8906 791.6719,491.7031 Q791.3438,491.3281 790.7344,491.1094 Q790.125,490.8906 789.5,490.8906 Q788.7344,490.8906 788.0938,491.2188 Q787.4688,491.5469 786.9688,492.2969 Q786.4844,493.0469 786.4844,494.0781 L786.4844,495.1719 Q786.4844,496.4063 787.375,497.2344 Q788.2656,498.0469 789.8594,498.0469 Q790.7969,498.0469 791.4531,497.7969 Q791.8438,497.6406 792.2656,497.2031 Q792.5313,496.9375 792.6719,496.8594 Q792.8281,496.7813 793.0313,496.7813 Q793.3594,496.7813 793.6094,497.0469 Q793.875,497.2969 793.875,497.6406 Q793.875,497.9844 793.5313,498.3906 Q793.0313,498.9688 792.2344,499.2969 Q791.1563,499.75 789.8594,499.75 Q788.3438,499.75 787.1406,499.125 Q786.1563,498.625 785.4688,497.5625 Q784.7813,496.4844 784.7813,495.2031 L784.7813,494.0469 Q784.7813,492.7188 785.3906,491.5781 Q786.0156,490.4219 787.1094,489.8125 Q788.2031,489.1875 789.4375,489.1875 Q790.1719,489.1875 790.8125,489.3594 Q791.4688,489.5156 792.0156,489.875 Z " fill="#000000"/><text fill="#000000" font-family="sans-serif" font-size="14" lengthAdjust="spacing" textLength="70" x="809.75" y="499.7285">MobEnemy</text><line style="stroke:#181818;stroke-width:0.5;" x1="600" x2="1057" y1="510" y2="510"/><rect fill="none" height="6" style="stroke:#C82930;stroke-width:1.0;" width="6" x="607" y="521.3047"/><text fill="#000000" font-family="sans-serif" font-size="14" lengthAdjust="spacing" textLength="95" x="619" y="528.5332">prop:BaseProp</text><rect fill="none" height="6" style="stroke:#C82930;stroke-width:1.0;" width="6" x="607" y="538.9141"/><text fill="#000000" font-family="sans-serif" font-size="14" lengthAdjust="spacing" textLength="144" x="619" y="546.1426">props: List&lt;BaseProp&gt;</text><line style="stroke:#181818;stroke-width:0.5;" x1="600" x2="1057" y1="553.2188" y2="553.2188"/><ellipse cx="610" cy="567.5234" fill="#84BE84" rx="3" ry="3" style="stroke:#038048;stroke-width:1.0;"/><text fill="#000000" font-family="sans-serif" font-size="14" lengthAdjust="spacing" textLength="433" x="619" y="571.752">MobEnemy(int locationX, int locationY, int speedX, int speedY, int hp)</text><ellipse cx="610" cy="585.1328" fill="#84BE84" rx="3" ry="3" style="stroke:#038048;stroke-width:1.0;"/><text fill="#000000" font-family="sans-serif" font-size="14" lengthAdjust="spacing" textLength="87" x="619" y="589.3613">forward():void</text><ellipse cx="610" cy="602.7422" fill="#84BE84" rx="3" ry="3" style="stroke:#038048;stroke-width:1.0;"/><text fill="#000000" font-family="sans-serif" font-size="14" lengthAdjust="spacing" textLength="154" x="619" y="606.9707">shoot():List&lt;BaseBullet&gt;</text><ellipse cx="610" cy="620.3516" fill="#84BE84" rx="3" ry="3" style="stroke:#038048;stroke-width:1.0;"/><text fill="#000000" font-family="sans-serif" font-size="14" lengthAdjust="spacing" textLength="84" x="619" y="624.5801">update():void</text><ellipse cx="610" cy="637.9609" fill="#84BE84" rx="3" ry="3" style="stroke:#038048;stroke-width:1.0;"/><text fill="#000000" font-family="sans-serif" font-size="14" lengthAdjust="spacing" textLength="212" x="619" y="642.1895">generate_prop(): List&lt;BaseProp&gt;</text></g><!--class EliteEnemy--><g id="elem_EliteEnemy"><rect codeLine="36" fill="#F1F1F1" height="294.5313" id="EliteEnemy" rx="2.5" ry="2.5" style="stroke:#181818;stroke-width:0.5;" width="459" x="1093" y="416"/><ellipse cx="1283.25" cy="432" fill="#ADD1B2" rx="11" ry="11" style="stroke:#181818;stroke-width:1.0;"/><path d="M1286.0156,427.875 Q1286.1719,427.6563 1286.3594,427.5469 Q1286.5469,427.4375 1286.7656,427.4375 Q1287.1406,427.4375 1287.375,427.7031 Q1287.6094,427.9531 1287.6094,428.5625 L1287.6094,430.0156 Q1287.6094,430.625 1287.375,430.8906 Q1287.1406,431.1563 1286.7656,431.1563 Q1286.4219,431.1563 1286.2188,430.9531 Q1286.0156,430.7656 1285.9063,430.25 Q1285.8594,429.8906 1285.6719,429.7031 Q1285.3438,429.3281 1284.7344,429.1094 Q1284.125,428.8906 1283.5,428.8906 Q1282.7344,428.8906 1282.0938,429.2188 Q1281.4688,429.5469 1280.9688,430.2969 Q1280.4844,431.0469 1280.4844,432.0781 L1280.4844,433.1719 Q1280.4844,434.4063 1281.375,435.2344 Q1282.2656,436.0469 1283.8594,436.0469 Q1284.7969,436.0469 1285.4531,435.7969 Q1285.8438,435.6406 1286.2656,435.2031 Q1286.5313,434.9375 1286.6719,434.8594 Q1286.8281,434.7813 1287.0313,434.7813 Q1287.3594,434.7813 1287.6094,435.0469 Q1287.875,435.2969 1287.875,435.6406 Q1287.875,435.9844 1287.5313,436.3906 Q1287.0313,436.9688 1286.2344,437.2969 Q1285.1563,437.75 1283.8594,437.75 Q1282.3438,437.75 1281.1406,437.125 Q1280.1563,436.625 1279.4688,435.5625 Q1278.7813,434.4844 1278.7813,433.2031 L1278.7813,432.0469 Q1278.7813,430.7188 1279.3906,429.5781 Q1280.0156,428.4219 1281.1094,427.8125 Q1282.2031,427.1875 1283.4375,427.1875 Q1284.1719,427.1875 1284.8125,427.3594 Q1285.4688,427.5156 1286.0156,427.875 Z " fill="#000000"/><text fill="#000000" font-family="sans-serif" font-size="14" lengthAdjust="spacing" textLength="70" x="1303.75" y="437.7285">EliteEnemy</text><line style="stroke:#181818;stroke-width:0.5;" x1="1094" x2="1551" y1="448" y2="448"/><rect fill="none" height="6" style="stroke:#C82930;stroke-width:1.0;" width="6" x="1101" y="459.3047"/><text fill="#000000" font-family="sans-serif" font-size="14" lengthAdjust="spacing" textLength="86" x="1113" y="466.5332">shootNum :int</text><rect fill="none" height="6" style="stroke:#C82930;stroke-width:1.0;" width="6" x="1101" y="476.9141"/><text fill="#000000" font-family="sans-serif" font-size="14" lengthAdjust="spacing" textLength="61" x="1113" y="484.1426">power: int</text><rect fill="none" height="6" style="stroke:#C82930;stroke-width:1.0;" width="6" x="1101" y="494.5234"/><text fill="#000000" font-family="sans-serif" font-size="14" lengthAdjust="spacing" textLength="77" x="1113" y="501.752">direction: int</text><rect fill="none" height="6" style="stroke:#C82930;stroke-width:1.0;" width="6" x="1101" y="512.1328"/><text fill="#000000" font-family="sans-serif" font-size="14" lengthAdjust="spacing" textLength="90" x="1113" y="519.3613">prop_kind : int</text><rect fill="none" height="6" style="stroke:#C82930;stroke-width:1.0;" width="6" x="1101" y="529.7422"/><text fill="#000000" font-family="sans-serif" font-size="14" lengthAdjust="spacing" textLength="167" x="1113" y="536.9707">propFactory : PropFactory</text><rect fill="none" height="6" style="stroke:#C82930;stroke-width:1.0;" width="6" x="1101" y="547.3516"/><text fill="#000000" font-family="sans-serif" font-size="14" lengthAdjust="spacing" textLength="103" x="1113" y="554.5801">prop : BaseProp</text><rect fill="none" height="6" style="stroke:#C82930;stroke-width:1.0;" width="6" x="1101" y="564.9609"/><text fill="#000000" font-family="sans-serif" font-size="14" lengthAdjust="spacing" textLength="144" x="1113" y="572.1895">props: List&lt;BaseProp&gt;</text><rect fill="none" height="6" style="stroke:#C82930;stroke-width:1.0;" width="6" x="1101" y="582.5703"/><text fill="#000000" font-family="sans-serif" font-size="14" lengthAdjust="spacing" textLength="97" x="1113" y="589.7988">context:Context</text><rect fill="none" height="6" style="stroke:#C82930;stroke-width:1.0;" width="6" x="1101" y="600.1797"/><text fill="#000000" font-family="sans-serif" font-size="14" lengthAdjust="spacing" text-decoration="underline" textLength="109" x="1113" y="607.4082">random: Random</text><line style="stroke:#181818;stroke-width:0.5;" x1="1094" x2="1551" y1="614.4844" y2="614.4844"/><ellipse cx="1104" cy="628.7891" fill="#84BE84" rx="3" ry="3" style="stroke:#038048;stroke-width:1.0;"/><text fill="#000000" font-family="sans-serif" font-size="14" lengthAdjust="spacing" textLength="433" x="1113" y="633.0176">EliteEnemy(int locationX, int locationY, int speedX, int speedY, int hp)</text><ellipse cx="1104" cy="646.3984" fill="#84BE84" rx="3" ry="3" style="stroke:#038048;stroke-width:1.0;"/><text fill="#000000" font-family="sans-serif" font-size="14" lengthAdjust="spacing" textLength="95" x="1113" y="650.627">forward() : void</text><ellipse cx="1104" cy="664.0078" fill="#84BE84" rx="3" ry="3" style="stroke:#038048;stroke-width:1.0;"/><text fill="#000000" font-family="sans-serif" font-size="14" lengthAdjust="spacing" textLength="154" x="1113" y="668.2363">shoot():List&lt;BaseBullet&gt;</text><ellipse cx="1104" cy="681.6172" fill="#84BE84" rx="3" ry="3" style="stroke:#038048;stroke-width:1.0;"/><text fill="#000000" font-family="sans-serif" font-size="14" lengthAdjust="spacing" textLength="216" x="1113" y="685.8457">generate_prop() : List&lt;BaseProp&gt;</text><ellipse cx="1104" cy="699.2266" fill="#84BE84" rx="3" ry="3" style="stroke:#038048;stroke-width:1.0;"/><text fill="#000000" font-family="sans-serif" font-size="14" lengthAdjust="spacing" textLength="84" x="1113" y="703.4551">update():void</text></g><!--class ElitePlusEnemy--><g id="elem_ElitePlusEnemy"><rect codeLine="56" fill="#F1F1F1" height="294.5313" id="ElitePlusEnemy" rx="2.5" ry="2.5" style="stroke:#181818;stroke-width:0.5;" width="486" x="1587.5" y="416"/><ellipse cx="1777.75" cy="432" fill="#ADD1B2" rx="11" ry="11" style="stroke:#181818;stroke-width:1.0;"/><path d="M1780.5156,427.875 Q1780.6719,427.6563 1780.8594,427.5469 Q1781.0469,427.4375 1781.2656,427.4375 Q1781.6406,427.4375 1781.875,427.7031 Q1782.1094,427.9531 1782.1094,428.5625 L1782.1094,430.0156 Q1782.1094,430.625 1781.875,430.8906 Q1781.6406,431.1563 1781.2656,431.1563 Q1780.9219,431.1563 1780.7188,430.9531 Q1780.5156,430.7656 1780.4063,430.25 Q1780.3594,429.8906 1780.1719,429.7031 Q1779.8438,429.3281 1779.2344,429.1094 Q1778.625,428.8906 1778,428.8906 Q1777.2344,428.8906 1776.5938,429.2188 Q1775.9688,429.5469 1775.4688,430.2969 Q1774.9844,431.0469 1774.9844,432.0781 L1774.9844,433.1719 Q1774.9844,434.4063 1775.875,435.2344 Q1776.7656,436.0469 1778.3594,436.0469 Q1779.2969,436.0469 1779.9531,435.7969 Q1780.3438,435.6406 1780.7656,435.2031 Q1781.0313,434.9375 1781.1719,434.8594 Q1781.3281,434.7813 1781.5313,434.7813 Q1781.8594,434.7813 1782.1094,435.0469 Q1782.375,435.2969 1782.375,435.6406 Q1782.375,435.9844 1782.0313,436.3906 Q1781.5313,436.9688 1780.7344,437.2969 Q1779.6563,437.75 1778.3594,437.75 Q1776.8438,437.75 1775.6406,437.125 Q1774.6563,436.625 1773.9688,435.5625 Q1773.2813,434.4844 1773.2813,433.2031 L1773.2813,432.0469 Q1773.2813,430.7188 1773.8906,429.5781 Q1774.5156,428.4219 1775.6094,427.8125 Q1776.7031,427.1875 1777.9375,427.1875 Q1778.6719,427.1875 1779.3125,427.3594 Q1779.9688,427.5156 1780.5156,427.875 Z " fill="#000000"/><text fill="#000000" font-family="sans-serif" font-size="14" lengthAdjust="spacing" textLength="97" x="1798.25" y="437.7285">ElitePlusEnemy</text><line style="stroke:#181818;stroke-width:0.5;" x1="1588.5" x2="2072.5" y1="448" y2="448"/><rect fill="none" height="6" style="stroke:#C82930;stroke-width:1.0;" width="6" x="1595.5" y="459.3047"/><text fill="#000000" font-family="sans-serif" font-size="14" lengthAdjust="spacing" textLength="86" x="1607.5" y="466.5332">shootNum :int</text><rect fill="none" height="6" style="stroke:#C82930;stroke-width:1.0;" width="6" x="1595.5" y="476.9141"/><text fill="#000000" font-family="sans-serif" font-size="14" lengthAdjust="spacing" textLength="61" x="1607.5" y="484.1426">power: int</text><rect fill="none" height="6" style="stroke:#C82930;stroke-width:1.0;" width="6" x="1595.5" y="494.5234"/><text fill="#000000" font-family="sans-serif" font-size="14" lengthAdjust="spacing" textLength="77" x="1607.5" y="501.752">direction: int</text><rect fill="none" height="6" style="stroke:#C82930;stroke-width:1.0;" width="6" x="1595.5" y="512.1328"/><text fill="#000000" font-family="sans-serif" font-size="14" lengthAdjust="spacing" textLength="90" x="1607.5" y="519.3613">prop_kind : int</text><rect fill="none" height="6" style="stroke:#C82930;stroke-width:1.0;" width="6" x="1595.5" y="529.7422"/><text fill="#000000" font-family="sans-serif" font-size="14" lengthAdjust="spacing" textLength="167" x="1607.5" y="536.9707">propFactory : PropFactory</text><rect fill="none" height="6" style="stroke:#C82930;stroke-width:1.0;" width="6" x="1595.5" y="547.3516"/><text fill="#000000" font-family="sans-serif" font-size="14" lengthAdjust="spacing" textLength="103" x="1607.5" y="554.5801">prop : BaseProp</text><rect fill="none" height="6" style="stroke:#C82930;stroke-width:1.0;" width="6" x="1595.5" y="564.9609"/><text fill="#000000" font-family="sans-serif" font-size="14" lengthAdjust="spacing" textLength="144" x="1607.5" y="572.1895">props: List&lt;BaseProp&gt;</text><rect fill="none" height="6" style="stroke:#C82930;stroke-width:1.0;" width="6" x="1595.5" y="582.5703"/><text fill="#000000" font-family="sans-serif" font-size="14" lengthAdjust="spacing" textLength="97" x="1607.5" y="589.7988">context:Context</text><rect fill="none" height="6" style="stroke:#C82930;stroke-width:1.0;" width="6" x="1595.5" y="600.1797"/><text fill="#000000" font-family="sans-serif" font-size="14" lengthAdjust="spacing" text-decoration="underline" textLength="109" x="1607.5" y="607.4082">random: Random</text><line style="stroke:#181818;stroke-width:0.5;" x1="1588.5" x2="2072.5" y1="614.4844" y2="614.4844"/><ellipse cx="1598.5" cy="628.7891" fill="#84BE84" rx="3" ry="3" style="stroke:#038048;stroke-width:1.0;"/><text fill="#000000" font-family="sans-serif" font-size="14" lengthAdjust="spacing" textLength="460" x="1607.5" y="633.0176">ElitePlusEnemy(int locationX, int locationY, int speedX, int speedY, int hp)</text><ellipse cx="1598.5" cy="646.3984" fill="#84BE84" rx="3" ry="3" style="stroke:#038048;stroke-width:1.0;"/><text fill="#000000" font-family="sans-serif" font-size="14" lengthAdjust="spacing" textLength="95" x="1607.5" y="650.627">forward() : void</text><ellipse cx="1598.5" cy="664.0078" fill="#84BE84" rx="3" ry="3" style="stroke:#038048;stroke-width:1.0;"/><text fill="#000000" font-family="sans-serif" font-size="14" lengthAdjust="spacing" textLength="154" x="1607.5" y="668.2363">shoot():List&lt;BaseBullet&gt;</text><ellipse cx="1598.5" cy="681.6172" fill="#84BE84" rx="3" ry="3" style="stroke:#038048;stroke-width:1.0;"/><text fill="#000000" font-family="sans-serif" font-size="14" lengthAdjust="spacing" textLength="216" x="1607.5" y="685.8457">generate_prop() : List&lt;BaseProp&gt;</text><ellipse cx="1598.5" cy="699.2266" fill="#84BE84" rx="3" ry="3" style="stroke:#038048;stroke-width:1.0;"/><text fill="#000000" font-family="sans-serif" font-size="14" lengthAdjust="spacing" textLength="84" x="1607.5" y="703.4551">update():void</text></g><!--class BaseBullet--><g id="elem_BaseBullet"><rect codeLine="76" fill="#F1F1F1" height="118.4375" id="BaseBullet" rx="2.5" ry="2.5" style="stroke:#181818;stroke-width:0.5;" width="478" x="124.5" y="238"/><ellipse cx="325.75" cy="254" fill="#A9DCDF" rx="11" ry="11" style="stroke:#181818;stroke-width:1.0;"/><path d="M327.9375,255.7656 L323.7969,255.7656 L323.375,256.7969 L323.7969,256.7969 Q324.4063,256.7969 324.6719,257.0313 Q324.9375,257.2656 324.9375,257.6563 Q324.9375,258.0313 324.6719,258.2656 Q324.4063,258.5 323.7969,258.5 L321.5,258.5 Q320.8906,258.5 320.6406,258.2656 Q320.375,258.0313 320.375,257.6406 Q320.375,257.2656 320.6563,257.0313 Q320.9219,256.7813 321.5469,256.7969 L324.2188,250.1406 L323.1094,250.1406 Q322.5,250.1406 322.2344,249.9063 Q321.9688,249.6719 321.9688,249.2813 Q321.9688,248.9063 322.2344,248.6719 Q322.5,248.4375 323.1094,248.4375 L326.7813,248.4375 L330.1719,256.7969 Q330.7656,256.7969 330.9531,256.9375 Q331.3438,257.2031 331.3438,257.6563 Q331.3438,258.0313 331.0781,258.2656 Q330.8281,258.5 330.2188,258.5 L327.9219,258.5 Q327.3125,258.5 327.0469,258.2656 Q326.7813,258.0313 326.7813,257.6406 Q326.7813,257.2656 327.0469,257.0313 Q327.3125,256.7969 327.9219,256.7969 L328.3438,256.7969 L327.9375,255.7656 Z M327.2188,254.0625 L325.8594,250.6875 L324.4844,254.0625 L327.2188,254.0625 Z " fill="#000000"/><text fill="#000000" font-family="sans-serif" font-size="14" font-style="italic" lengthAdjust="spacing" textLength="67" x="346.25" y="259.7285">BaseBullet</text><line style="stroke:#181818;stroke-width:0.5;" x1="125.5" x2="601.5" y1="270" y2="270"/><rect fill="none" height="6" style="stroke:#C82930;stroke-width:1.0;" width="6" x="132.5" y="281.3047"/><text fill="#000000" font-family="sans-serif" font-size="14" lengthAdjust="spacing" textLength="61" x="144.5" y="288.5332">power: int</text><line style="stroke:#181818;stroke-width:0.5;" x1="125.5" x2="601.5" y1="295.6094" y2="295.6094"/><ellipse cx="135.5" cy="309.9141" fill="#84BE84" rx="3" ry="3" style="stroke:#038048;stroke-width:1.0;"/><text fill="#000000" font-family="sans-serif" font-size="14" lengthAdjust="spacing" textLength="452" x="144.5" y="314.1426">BaseBullet(int locationX, int locationY, int speedX, int speedY, int power)</text><ellipse cx="135.5" cy="327.5234" fill="#84BE84" rx="3" ry="3" style="stroke:#038048;stroke-width:1.0;"/><text fill="#000000" font-family="sans-serif" font-size="14" lengthAdjust="spacing" textLength="87" x="144.5" y="331.752">forward():void</text><ellipse cx="135.5" cy="345.1328" fill="#84BE84" rx="3" ry="3" style="stroke:#038048;stroke-width:1.0;"/><text fill="#000000" font-family="sans-serif" font-size="14" lengthAdjust="spacing" textLength="88" x="144.5" y="349.3613">getPower():int</text></g><!--class EnemyBullet--><g id="elem_EnemyBullet"><rect codeLine="85" fill="#F1F1F1" height="83.2188" id="EnemyBullet" rx="2.5" ry="2.5" style="stroke:#181818;stroke-width:0.5;" width="489" x="7" y="51"/><ellipse cx="208.25" cy="67" fill="#ADD1B2" rx="11" ry="11" style="stroke:#181818;stroke-width:1.0;"/><path d="M211.0156,62.875 Q211.1719,62.6563 211.3594,62.5469 Q211.5469,62.4375 211.7656,62.4375 Q212.1406,62.4375 212.375,62.7031 Q212.6094,62.9531 212.6094,63.5625 L212.6094,65.0156 Q212.6094,65.625 212.375,65.8906 Q212.1406,66.1563 211.7656,66.1563 Q211.4219,66.1563 211.2188,65.9531 Q211.0156,65.7656 210.9063,65.25 Q210.8594,64.8906 210.6719,64.7031 Q210.3438,64.3281 209.7344,64.1094 Q209.125,63.8906 208.5,63.8906 Q207.7344,63.8906 207.0938,64.2188 Q206.4688,64.5469 205.9688,65.2969 Q205.4844,66.0469 205.4844,67.0781 L205.4844,68.1719 Q205.4844,69.4063 206.375,70.2344 Q207.2656,71.0469 208.8594,71.0469 Q209.7969,71.0469 210.4531,70.7969 Q210.8438,70.6406 211.2656,70.2031 Q211.5313,69.9375 211.6719,69.8594 Q211.8281,69.7813 212.0313,69.7813 Q212.3594,69.7813 212.6094,70.0469 Q212.875,70.2969 212.875,70.6406 Q212.875,70.9844 212.5313,71.3906 Q212.0313,71.9688 211.2344,72.2969 Q210.1563,72.75 208.8594,72.75 Q207.3438,72.75 206.1406,72.125 Q205.1563,71.625 204.4688,70.5625 Q203.7813,69.4844 203.7813,68.2031 L203.7813,67.0469 Q203.7813,65.7188 204.3906,64.5781 Q205.0156,63.4219 206.1094,62.8125 Q207.2031,62.1875 208.4375,62.1875 Q209.1719,62.1875 209.8125,62.3594 Q210.4688,62.5156 211.0156,62.875 Z " fill="#000000"/><text fill="#000000" font-family="sans-serif" font-size="14" lengthAdjust="spacing" textLength="78" x="228.75" y="72.7285">EnemyBullet</text><line style="stroke:#181818;stroke-width:0.5;" x1="8" x2="495" y1="83" y2="83"/><line style="stroke:#181818;stroke-width:0.5;" x1="8" x2="495" y1="91" y2="91"/><ellipse cx="18" cy="105.3047" fill="#84BE84" rx="3" ry="3" style="stroke:#038048;stroke-width:1.0;"/><text fill="#000000" font-family="sans-serif" font-size="14" lengthAdjust="spacing" textLength="463" x="27" y="109.5332">EnemyBullet(int locationX, int locationY, int speedX, int speedY, int power)</text><ellipse cx="18" cy="122.9141" fill="#84BE84" rx="3" ry="3" style="stroke:#038048;stroke-width:1.0;"/><text fill="#000000" font-family="sans-serif" font-size="14" lengthAdjust="spacing" textLength="84" x="27" y="127.1426">update():void</text></g><!--link AbstractEnemyAircraft to Observer--><g id="link_AbstractEnemyAircraft_Observer"><path codeLine="13" d="M708.75,345.75 C662.83,362.58 618.45,385.31 581.5,416 C545.96,445.51 531.3952,479.5113 521.9352,512.9113 " fill="none" id="AbstractEnemyAircraft-to-Observer" style="stroke:#181818;stroke-width:1.0;stroke-dasharray:7.0,7.0;"/><polygon fill="none" points="517.03,530.23,527.7082,514.5463,516.1623,511.2762,517.03,530.23" style="stroke:#181818;stroke-width:1.0;"/></g><!--reverse link AbstractEnemyAircraft to MobEnemy--><g id="link_AbstractEnemyAircraft_MobEnemy"><path codeLine="34" d="M955.907,371.0346 C932.127,406.7646 911.21,438.21 884.74,477.98 " fill="none" id="AbstractEnemyAircraft-backto-MobEnemy" style="stroke:#181818;stroke-width:1.0;"/><polygon fill="none" points="965.88,356.05,950.9121,367.7103,960.9019,374.359,965.88,356.05" style="stroke:#181818;stroke-width:1.0;"/></g><!--reverse link AbstractEnemyAircraft to EliteEnemy--><g id="link_AbstractEnemyAircraft_EliteEnemy"><path codeLine="53" d="M1088.129,367.5601 C1109.699,385.5001 1120.67,394.63 1146.09,415.77 " fill="none" id="AbstractEnemyAircraft-backto-EliteEnemy" style="stroke:#181818;stroke-width:1.0;"/><polygon fill="none" points="1074.29,356.05,1084.2923,372.1731,1091.9657,362.9471,1074.29,356.05" style="stroke:#181818;stroke-width:1.0;"/></g><!--reverse link AbstractEnemyAircraft to ElitePlusEnemy--><g id="link_AbstractEnemyAircraft_ElitePlusEnemy"><path codeLine="73" d="M1317.6733,345.6154 C1405.9533,363.4554 1484.23,384.03 1569.5,416 C1575.46,418.23 1581.45,420.59 1587.45,423.05 " fill="none" id="AbstractEnemyAircraft-backto-ElitePlusEnemy" style="stroke:#181818;stroke-width:1.0;"/><polygon fill="none" points="1300.03,342.05,1316.4849,351.4966,1318.8618,339.7343,1300.03,342.05" style="stroke:#181818;stroke-width:1.0;"/></g><!--link BaseBullet to Observer--><g id="link_BaseBullet_Observer"><path codeLine="84" d="M395.54,356.05 C425.09,409.57 459.1706,471.3218 483.0306,514.5418 " fill="none" id="BaseBullet-to-Observer" style="stroke:#181818;stroke-width:1.0;stroke-dasharray:7.0,7.0;"/><polygon fill="none" points="491.73,530.3,488.2833,511.642,477.7778,517.4416,491.73,530.3" style="stroke:#181818;stroke-width:1.0;"/></g><!--link EnemyBullet to BaseBullet--><g id="link_EnemyBullet_BaseBullet"><path codeLine="90" d="M274.16,134.48 C290.59,164.18 304.328,189.0088 322.608,222.0588 " fill="none" id="EnemyBullet-to-BaseBullet" style="stroke:#181818;stroke-width:1.0;"/><polygon fill="none" points="331.32,237.81,327.8584,219.1548,317.3576,224.9628,331.32,237.81" style="stroke:#181818;stroke-width:1.0;"/></g><!--link BombProp to Observer--><g id="link_BombProp_Observer"><path codeLine="92" d="M716.0337,188.5096 C687.1637,240.2596 654.82,297.14 619.5,356 C603.26,383.07 596.93,388.46 581.5,416 C559.96,454.45 540.5403,494.795 526.6403,524.825 " fill="none" id="BombProp-Observer" style="stroke:#181818;stroke-width:1.0;"/><polygon fill="none" points="721.88,178.03,715.4637,181.321,716.0337,188.5096,722.45,185.2185,721.88,178.03" style="stroke:#181818;stroke-width:1.0;"/><polygon fill="#181818" points="524.12,530.27,531.5305,523.7827,526.2203,525.7325,524.2705,520.4223,524.12,530.27" style="stroke:#181818;stroke-width:1.0;"/></g><!--link BombProp to BaseBullet--><g id="link_BombProp_BaseBullet"><path codeLine="93" d="M588.6469,183.4266 C548.3069,203.5966 522.2466,216.6267 484.9066,235.2967 " fill="none" id="BombProp-BaseBullet" style="stroke:#181818;stroke-width:1.0;"/><polygon fill="none" points="599.38,178.06,592.2246,177.1656,588.6469,183.4266,595.8023,184.321,599.38,178.06" style="stroke:#181818;stroke-width:1.0;"/><polygon fill="#181818" points="479.54,237.98,489.3787,237.5328,484.0121,235.7439,485.801,230.3774,479.54,237.98" style="stroke:#181818;stroke-width:1.0;"/></g><!--link BombProp to AbstractEnemyAircraft--><g id="link_BombProp_AbstractEnemyAircraft"><path codeLine="94" d="M876.3239,186.0178 C899.6839,206.0778 910.4367,215.2827 932.0767,233.8527 " fill="none" id="BombProp-AbstractEnemyAircraft" style="stroke:#181818;stroke-width:1.0;"/><polygon fill="none" points="867.22,178.2,869.166,185.1436,876.3239,186.0178,874.3779,179.0743,867.22,178.2" style="stroke:#181818;stroke-width:1.0;"/><polygon fill="#181818" points="936.63,237.76,932.4049,228.8634,932.8356,234.5039,927.1951,234.9345,936.63,237.76" style="stroke:#181818;stroke-width:1.0;"/></g><!--SRC=[vLPDRzim33rFluB0BWvIzmSOXO6cwB33FeBjqfq2sMOQeRPbI7Ap8Cb_dsnzM7QDR5Xxsd9nz4IHV7oqQ5Oh55kQ8tpD98fd54S2-hU48ysa4ZHNPsYRWYgC5iapPmKv4xS3UKcbX5kxlA-nEjmoaGkwLSJuUGyovm8JLYkmZcVDeywWv3bLZDSFLn0kVvYbR12BX-2_nNUDnRf02nCaIFuHQnGw_KqZUACvV69ItQoenBLUfyRy4TNtxhJU1fFfcP3PFE7w-fJwMX5YAh3YLTQv0qCw1kpEhDgoH9M0ZsY0DBHnVgKrcmrgi_HX_gfO2_9k2NikdgAFABZdizEBgupp4caDhSIgbIpNPUYbDc5fKPZCPJIb0fdPU770yuekq08w1q-SrLonxM7ZUn1i4zhIV-PPVzgNlfCvSVe6c0o42AJt3bxLWRRjOCl5deh2lIe6b3lELTXvOHyi9s-NxSTnpquo1qr_lZjlJd7i6RaItPTCOO-u6lKPVMahwDvBLoE-H-7QlqSA9Z3lwFTeKChD4wiBcA8VT3PS73I-7bR1ljxu4rbSz9phg-cdIkxCqw97gRGY-Ha4hGjU9V2jVxgxPQ3wjdB2g2L_8-X4FPXdE1N-egO3Bp9ITLssyZzIrjFz1zNrtBJ2am4x946EBpHriy7RlA8slTUBTvcUbElEIADTR7qD3u4diz6swJ09RVBB07gZNASVA444YEDJ6XIG-5dDupZroOxGiE3ZZLaDVm40]--></g></svg>