<?xml version="1.0" encoding="us-ascii" standalone="no"?><svg xmlns="http://www.w3.org/2000/svg" xmlns:xlink="http://www.w3.org/1999/xlink" contentStyleType="text/css" height="823px" preserveAspectRatio="none" style="width:2778px;height:823px;background:#FFFFFF;" version="1.1" viewBox="0 0 2778 823" width="2778px" zoomAndPan="magnify"><defs/><g><!--class AbstractFlyingObject--><g id="elem_AbstractFlyingObject"><rect codeLine="1" fill="#F1F1F1" height="400.1875" id="AbstractFlyingObject" rx="2.5" ry="2.5" style="stroke:#181818;stroke-width:0.5;" width="477" x="1125.5" y="7"/><ellipse cx="1294.25" cy="23" fill="#A9DCDF" rx="11" ry="11" style="stroke:#181818;stroke-width:1.0;"/><path d="M1296.4375,24.7656 L1292.2969,24.7656 L1291.875,25.7969 L1292.2969,25.7969 Q1292.9063,25.7969 1293.1719,26.0313 Q1293.4375,26.2656 1293.4375,26.6563 Q1293.4375,27.0313 1293.1719,27.2656 Q1292.9063,27.5 1292.2969,27.5 L1290,27.5 Q1289.3906,27.5 1289.1406,27.2656 Q1288.875,27.0313 1288.875,26.6406 Q1288.875,26.2656 1289.1563,26.0313 Q1289.4219,25.7813 1290.0469,25.7969 L1292.7188,19.1406 L1291.6094,19.1406 Q1291,19.1406 1290.7344,18.9063 Q1290.4688,18.6719 1290.4688,18.2813 Q1290.4688,17.9063 1290.7344,17.6719 Q1291,17.4375 1291.6094,17.4375 L1295.2813,17.4375 L1298.6719,25.7969 Q1299.2656,25.7969 1299.4531,25.9375 Q1299.8438,26.2031 1299.8438,26.6563 Q1299.8438,27.0313 1299.5781,27.2656 Q1299.3281,27.5 1298.7188,27.5 L1296.4219,27.5 Q1295.8125,27.5 1295.5469,27.2656 Q1295.2813,27.0313 1295.2813,26.6406 Q1295.2813,26.2656 1295.5469,26.0313 Q1295.8125,25.7969 1296.4219,25.7969 L1296.8438,25.7969 L1296.4375,24.7656 Z M1295.7188,23.0625 L1294.3594,19.6875 L1292.9844,23.0625 L1295.7188,23.0625 Z " fill="#000000"/><text fill="#000000" font-family="sans-serif" font-size="14" font-style="italic" lengthAdjust="spacing" textLength="131" x="1314.75" y="28.7285">AbstractFlyingObject</text><line style="stroke:#181818;stroke-width:0.5;" x1="1126.5" x2="1601.5" y1="39" y2="39"/><polygon fill="none" points="1136.5,48.3047,1140.5,52.3047,1136.5,56.3047,1132.5,52.3047" style="stroke:#B38D22;stroke-width:1.0;"/><text fill="#000000" font-family="sans-serif" font-size="14" lengthAdjust="spacing" textLength="76" x="1145.5" y="57.5332">locationX:int</text><polygon fill="none" points="1136.5,65.9141,1140.5,69.9141,1136.5,73.9141,1132.5,69.9141" style="stroke:#B38D22;stroke-width:1.0;"/><text fill="#000000" font-family="sans-serif" font-size="14" lengthAdjust="spacing" textLength="77" x="1145.5" y="75.1426">locationY:int</text><polygon fill="none" points="1136.5,83.5234,1140.5,87.5234,1136.5,91.5234,1132.5,87.5234" style="stroke:#B38D22;stroke-width:1.0;"/><text fill="#000000" font-family="sans-serif" font-size="14" lengthAdjust="spacing" textLength="66" x="1145.5" y="92.752">speedX:int</text><polygon fill="none" points="1136.5,101.1328,1140.5,105.1328,1136.5,109.1328,1132.5,105.1328" style="stroke:#B38D22;stroke-width:1.0;"/><text fill="#000000" font-family="sans-serif" font-size="14" lengthAdjust="spacing" textLength="67" x="1145.5" y="110.3613">speedY:int</text><polygon fill="none" points="1136.5,118.7422,1140.5,122.7422,1136.5,126.7422,1132.5,122.7422" style="stroke:#B38D22;stroke-width:1.0;"/><text fill="#000000" font-family="sans-serif" font-size="14" lengthAdjust="spacing" textLength="134" x="1145.5" y="127.9707">image:BufferedImage</text><polygon fill="none" points="1136.5,136.3516,1140.5,140.3516,1136.5,144.3516,1132.5,140.3516" style="stroke:#B38D22;stroke-width:1.0;"/><text fill="#000000" font-family="sans-serif" font-size="14" lengthAdjust="spacing" textLength="51" x="1145.5" y="145.5801">width:int</text><polygon fill="none" points="1136.5,153.9609,1140.5,157.9609,1136.5,161.9609,1132.5,157.9609" style="stroke:#B38D22;stroke-width:1.0;"/><text fill="#000000" font-family="sans-serif" font-size="14" lengthAdjust="spacing" textLength="58" x="1145.5" y="163.1895">height:int</text><polygon fill="none" points="1136.5,171.5703,1140.5,175.5703,1136.5,179.5703,1132.5,175.5703" style="stroke:#B38D22;stroke-width:1.0;"/><text fill="#000000" font-family="sans-serif" font-size="14" lengthAdjust="spacing" textLength="96" x="1145.5" y="180.7988">isValid:boolean</text><line style="stroke:#181818;stroke-width:0.5;" x1="1126.5" x2="1601.5" y1="187.875" y2="187.875"/><ellipse cx="1136.5" cy="202.1797" fill="#84BE84" rx="3" ry="3" style="stroke:#038048;stroke-width:1.0;"/><text fill="#000000" font-family="sans-serif" font-size="14" lengthAdjust="spacing" textLength="451" x="1145.5" y="206.4082">AbstractFlyingObject(int locationX, int locationY, int speedX, int speedY)</text><ellipse cx="1136.5" cy="219.7891" fill="#84BE84" rx="3" ry="3" style="stroke:#038048;stroke-width:1.0;"/><text fill="#000000" font-family="sans-serif" font-size="14" lengthAdjust="spacing" textLength="87" x="1145.5" y="224.0176">forward():void</text><ellipse cx="1136.5" cy="237.3984" fill="#84BE84" rx="3" ry="3" style="stroke:#038048;stroke-width:1.0;"/><text fill="#000000" font-family="sans-serif" font-size="14" lengthAdjust="spacing" textLength="309" x="1145.5" y="241.627">crash(AbstractFlyingObject flyingObject):boolean</text><ellipse cx="1136.5" cy="255.0078" fill="#84BE84" rx="3" ry="3" style="stroke:#038048;stroke-width:1.0;"/><text fill="#000000" font-family="sans-serif" font-size="14" lengthAdjust="spacing" textLength="330" x="1145.5" y="259.2363">setLocation(double locationX, double locationY):void</text><ellipse cx="1136.5" cy="272.6172" fill="#84BE84" rx="3" ry="3" style="stroke:#038048;stroke-width:1.0;"/><text fill="#000000" font-family="sans-serif" font-size="14" lengthAdjust="spacing" textLength="111" x="1145.5" y="276.8457">getLocationX():int</text><ellipse cx="1136.5" cy="290.2266" fill="#84BE84" rx="3" ry="3" style="stroke:#038048;stroke-width:1.0;"/><text fill="#000000" font-family="sans-serif" font-size="14" lengthAdjust="spacing" textLength="112" x="1145.5" y="294.4551">getLocationY():int</text><ellipse cx="1136.5" cy="307.8359" fill="#84BE84" rx="3" ry="3" style="stroke:#038048;stroke-width:1.0;"/><text fill="#000000" font-family="sans-serif" font-size="14" lengthAdjust="spacing" textLength="99" x="1145.5" y="312.0645">getSpeedY():int</text><ellipse cx="1136.5" cy="325.4453" fill="#84BE84" rx="3" ry="3" style="stroke:#038048;stroke-width:1.0;"/><text fill="#000000" font-family="sans-serif" font-size="14" lengthAdjust="spacing" textLength="164" x="1145.5" y="329.6738">getImage():BufferedImage</text><ellipse cx="1136.5" cy="343.0547" fill="#84BE84" rx="3" ry="3" style="stroke:#038048;stroke-width:1.0;"/><text fill="#000000" font-family="sans-serif" font-size="14" lengthAdjust="spacing" textLength="85" x="1145.5" y="347.2832">getWidth():int</text><ellipse cx="1136.5" cy="360.6641" fill="#84BE84" rx="3" ry="3" style="stroke:#038048;stroke-width:1.0;"/><text fill="#000000" font-family="sans-serif" font-size="14" lengthAdjust="spacing" textLength="89" x="1145.5" y="364.8926">getHeight():int</text><ellipse cx="1136.5" cy="378.2734" fill="#84BE84" rx="3" ry="3" style="stroke:#038048;stroke-width:1.0;"/><text fill="#000000" font-family="sans-serif" font-size="14" lengthAdjust="spacing" textLength="116" x="1145.5" y="382.502">notValid():boolean</text><ellipse cx="1136.5" cy="395.8828" fill="#84BE84" rx="3" ry="3" style="stroke:#038048;stroke-width:1.0;"/><text fill="#000000" font-family="sans-serif" font-size="14" lengthAdjust="spacing" textLength="81" x="1145.5" y="400.1113">vanish():void</text></g><!--class BaseProp--><g id="elem_BaseProp"><rect codeLine="27" fill="#F1F1F1" height="118.4375" id="BaseProp" rx="2.5" ry="2.5" style="stroke:#181818;stroke-width:0.5;" width="408" x="1160" y="467"/><ellipse cx="1328.75" cy="483" fill="#A9DCDF" rx="11" ry="11" style="stroke:#181818;stroke-width:1.0;"/><path d="M1330.9375,484.7656 L1326.7969,484.7656 L1326.375,485.7969 L1326.7969,485.7969 Q1327.4063,485.7969 1327.6719,486.0313 Q1327.9375,486.2656 1327.9375,486.6563 Q1327.9375,487.0313 1327.6719,487.2656 Q1327.4063,487.5 1326.7969,487.5 L1324.5,487.5 Q1323.8906,487.5 1323.6406,487.2656 Q1323.375,487.0313 1323.375,486.6406 Q1323.375,486.2656 1323.6563,486.0313 Q1323.9219,485.7813 1324.5469,485.7969 L1327.2188,479.1406 L1326.1094,479.1406 Q1325.5,479.1406 1325.2344,478.9063 Q1324.9688,478.6719 1324.9688,478.2813 Q1324.9688,477.9063 1325.2344,477.6719 Q1325.5,477.4375 1326.1094,477.4375 L1329.7813,477.4375 L1333.1719,485.7969 Q1333.7656,485.7969 1333.9531,485.9375 Q1334.3438,486.2031 1334.3438,486.6563 Q1334.3438,487.0313 1334.0781,487.2656 Q1333.8281,487.5 1333.2188,487.5 L1330.9219,487.5 Q1330.3125,487.5 1330.0469,487.2656 Q1329.7813,487.0313 1329.7813,486.6406 Q1329.7813,486.2656 1330.0469,486.0313 Q1330.3125,485.7969 1330.9219,485.7969 L1331.3438,485.7969 L1330.9375,484.7656 Z M1330.2188,483.0625 L1328.8594,479.6875 L1327.4844,483.0625 L1330.2188,483.0625 Z " fill="#000000"/><text fill="#000000" font-family="sans-serif" font-size="14" font-style="italic" lengthAdjust="spacing" textLength="62" x="1349.25" y="488.7285">BaseProp</text><line style="stroke:#181818;stroke-width:0.5;" x1="1161" x2="1567" y1="499" y2="499"/><polygon fill="none" points="1171,508.3047,1175,512.3047,1171,516.3047,1167,512.3047" style="stroke:#B38D22;stroke-width:1.0;"/><text fill="#000000" font-family="sans-serif" font-size="14" lengthAdjust="spacing" textLength="113" x="1180" y="517.5332">bgm:MusicThread</text><line style="stroke:#181818;stroke-width:0.5;" x1="1161" x2="1567" y1="524.6094" y2="524.6094"/><ellipse cx="1171" cy="538.9141" fill="#84BE84" rx="3" ry="3" style="stroke:#038048;stroke-width:1.0;"/><text fill="#000000" font-family="sans-serif" font-size="14" lengthAdjust="spacing" textLength="382" x="1180" y="543.1426">BaseProp(int locationX, int locationY, int speedX, int speedY)</text><ellipse cx="1171" cy="556.5234" fill="#84BE84" rx="3" ry="3" style="stroke:#038048;stroke-width:1.0;"/><text fill="#000000" font-family="sans-serif" font-size="14" lengthAdjust="spacing" textLength="91" x="1180" y="560.752">forward(): void</text><ellipse cx="1171" cy="574.1328" fill="#84BE84" rx="3" ry="3" style="stroke:#038048;stroke-width:1.0;"/><text fill="#000000" font-family="sans-serif" font-size="14" font-style="italic" lengthAdjust="spacing" textLength="300" x="1180" y="578.3613">work(HeroAircraft hero,boolean usemusic): void</text></g><!--class BloodProp--><g id="elem_BloodProp"><rect codeLine="35" fill="#F1F1F1" height="118.4375" id="BloodProp" rx="2.5" ry="2.5" style="stroke:#181818;stroke-width:0.5;" width="412" x="7" y="671.5"/><ellipse cx="175.75" cy="687.5" fill="#ADD1B2" rx="11" ry="11" style="stroke:#181818;stroke-width:1.0;"/><path d="M178.5156,683.375 Q178.6719,683.1563 178.8594,683.0469 Q179.0469,682.9375 179.2656,682.9375 Q179.6406,682.9375 179.875,683.2031 Q180.1094,683.4531 180.1094,684.0625 L180.1094,685.5156 Q180.1094,686.125 179.875,686.3906 Q179.6406,686.6563 179.2656,686.6563 Q178.9219,686.6563 178.7188,686.4531 Q178.5156,686.2656 178.4063,685.75 Q178.3594,685.3906 178.1719,685.2031 Q177.8438,684.8281 177.2344,684.6094 Q176.625,684.3906 176,684.3906 Q175.2344,684.3906 174.5938,684.7188 Q173.9688,685.0469 173.4688,685.7969 Q172.9844,686.5469 172.9844,687.5781 L172.9844,688.6719 Q172.9844,689.9063 173.875,690.7344 Q174.7656,691.5469 176.3594,691.5469 Q177.2969,691.5469 177.9531,691.2969 Q178.3438,691.1406 178.7656,690.7031 Q179.0313,690.4375 179.1719,690.3594 Q179.3281,690.2813 179.5313,690.2813 Q179.8594,690.2813 180.1094,690.5469 Q180.375,690.7969 180.375,691.1406 Q180.375,691.4844 180.0313,691.8906 Q179.5313,692.4688 178.7344,692.7969 Q177.6563,693.25 176.3594,693.25 Q174.8438,693.25 173.6406,692.625 Q172.6563,692.125 171.9688,691.0625 Q171.2813,689.9844 171.2813,688.7031 L171.2813,687.5469 Q171.2813,686.2188 171.8906,685.0781 Q172.5156,683.9219 173.6094,683.3125 Q174.7031,682.6875 175.9375,682.6875 Q176.6719,682.6875 177.3125,682.8594 Q177.9688,683.0156 178.5156,683.375 Z " fill="#000000"/><text fill="#000000" font-family="sans-serif" font-size="14" lengthAdjust="spacing" textLength="66" x="196.25" y="693.2285">BloodProp</text><line style="stroke:#181818;stroke-width:0.5;" x1="8" x2="418" y1="703.5" y2="703.5"/><rect fill="none" height="6" style="stroke:#C82930;stroke-width:1.0;" width="6" x="15" y="714.8047"/><text fill="#000000" font-family="sans-serif" font-size="14" lengthAdjust="spacing" textLength="90" x="27" y="722.0332">add_blood :int</text><line style="stroke:#181818;stroke-width:0.5;" x1="8" x2="418" y1="729.1094" y2="729.1094"/><ellipse cx="18" cy="743.4141" fill="#84BE84" rx="3" ry="3" style="stroke:#038048;stroke-width:1.0;"/><text fill="#000000" font-family="sans-serif" font-size="14" lengthAdjust="spacing" textLength="386" x="27" y="747.6426">BloodProp(int locationX, int locationY, int speedX, int speedY)</text><ellipse cx="18" cy="761.0234" fill="#84BE84" rx="3" ry="3" style="stroke:#038048;stroke-width:1.0;"/><text fill="#000000" font-family="sans-serif" font-size="14" lengthAdjust="spacing" textLength="122" x="27" y="765.252">get_AddBlood(): int</text><ellipse cx="18" cy="778.6328" fill="#84BE84" rx="3" ry="3" style="stroke:#038048;stroke-width:1.0;"/><text fill="#000000" font-family="sans-serif" font-size="14" lengthAdjust="spacing" textLength="299" x="27" y="782.8613">work(HeroAircraft hero,boolean usemusic): void</text></g><!--class BloodPlusProp--><g id="elem_BloodPlusProp"><rect codeLine="42" fill="#F1F1F1" height="118.4375" id="BloodPlusProp" rx="2.5" ry="2.5" style="stroke:#181818;stroke-width:0.5;" width="439" x="454.5" y="671.5"/><ellipse cx="623.25" cy="687.5" fill="#ADD1B2" rx="11" ry="11" style="stroke:#181818;stroke-width:1.0;"/><path d="M626.0156,683.375 Q626.1719,683.1563 626.3594,683.0469 Q626.5469,682.9375 626.7656,682.9375 Q627.1406,682.9375 627.375,683.2031 Q627.6094,683.4531 627.6094,684.0625 L627.6094,685.5156 Q627.6094,686.125 627.375,686.3906 Q627.1406,686.6563 626.7656,686.6563 Q626.4219,686.6563 626.2188,686.4531 Q626.0156,686.2656 625.9063,685.75 Q625.8594,685.3906 625.6719,685.2031 Q625.3438,684.8281 624.7344,684.6094 Q624.125,684.3906 623.5,684.3906 Q622.7344,684.3906 622.0938,684.7188 Q621.4688,685.0469 620.9688,685.7969 Q620.4844,686.5469 620.4844,687.5781 L620.4844,688.6719 Q620.4844,689.9063 621.375,690.7344 Q622.2656,691.5469 623.8594,691.5469 Q624.7969,691.5469 625.4531,691.2969 Q625.8438,691.1406 626.2656,690.7031 Q626.5313,690.4375 626.6719,690.3594 Q626.8281,690.2813 627.0313,690.2813 Q627.3594,690.2813 627.6094,690.5469 Q627.875,690.7969 627.875,691.1406 Q627.875,691.4844 627.5313,691.8906 Q627.0313,692.4688 626.2344,692.7969 Q625.1563,693.25 623.8594,693.25 Q622.3438,693.25 621.1406,692.625 Q620.1563,692.125 619.4688,691.0625 Q618.7813,689.9844 618.7813,688.7031 L618.7813,687.5469 Q618.7813,686.2188 619.3906,685.0781 Q620.0156,683.9219 621.1094,683.3125 Q622.2031,682.6875 623.4375,682.6875 Q624.1719,682.6875 624.8125,682.8594 Q625.4688,683.0156 626.0156,683.375 Z " fill="#000000"/><text fill="#000000" font-family="sans-serif" font-size="14" lengthAdjust="spacing" textLength="93" x="643.75" y="693.2285">BloodPlusProp</text><line style="stroke:#181818;stroke-width:0.5;" x1="455.5" x2="892.5" y1="703.5" y2="703.5"/><rect fill="none" height="6" style="stroke:#C82930;stroke-width:1.0;" width="6" x="462.5" y="714.8047"/><text fill="#000000" font-family="sans-serif" font-size="14" lengthAdjust="spacing" textLength="90" x="474.5" y="722.0332">add_blood :int</text><line style="stroke:#181818;stroke-width:0.5;" x1="455.5" x2="892.5" y1="729.1094" y2="729.1094"/><ellipse cx="465.5" cy="743.4141" fill="#84BE84" rx="3" ry="3" style="stroke:#038048;stroke-width:1.0;"/><text fill="#000000" font-family="sans-serif" font-size="14" lengthAdjust="spacing" textLength="413" x="474.5" y="747.6426">BloodPlusProp(int locationX, int locationY, int speedX, int speedY)</text><ellipse cx="465.5" cy="761.0234" fill="#84BE84" rx="3" ry="3" style="stroke:#038048;stroke-width:1.0;"/><text fill="#000000" font-family="sans-serif" font-size="14" lengthAdjust="spacing" textLength="122" x="474.5" y="765.252">get_AddBlood(): int</text><ellipse cx="465.5" cy="778.6328" fill="#84BE84" rx="3" ry="3" style="stroke:#038048;stroke-width:1.0;"/><text fill="#000000" font-family="sans-serif" font-size="14" lengthAdjust="spacing" textLength="299" x="474.5" y="782.8613">work(HeroAircraft hero,boolean usemusic): void</text></g><!--class BulletProp--><g id="elem_BulletProp"><rect codeLine="49" fill="#F1F1F1" height="83.2188" id="BulletProp" rx="2.5" ry="2.5" style="stroke:#181818;stroke-width:0.5;" width="411" x="928.5" y="689"/><ellipse cx="1097.25" cy="705" fill="#ADD1B2" rx="11" ry="11" style="stroke:#181818;stroke-width:1.0;"/><path d="M1100.0156,700.875 Q1100.1719,700.6563 1100.3594,700.5469 Q1100.5469,700.4375 1100.7656,700.4375 Q1101.1406,700.4375 1101.375,700.7031 Q1101.6094,700.9531 1101.6094,701.5625 L1101.6094,703.0156 Q1101.6094,703.625 1101.375,703.8906 Q1101.1406,704.1563 1100.7656,704.1563 Q1100.4219,704.1563 1100.2188,703.9531 Q1100.0156,703.7656 1099.9063,703.25 Q1099.8594,702.8906 1099.6719,702.7031 Q1099.3438,702.3281 1098.7344,702.1094 Q1098.125,701.8906 1097.5,701.8906 Q1096.7344,701.8906 1096.0938,702.2188 Q1095.4688,702.5469 1094.9688,703.2969 Q1094.4844,704.0469 1094.4844,705.0781 L1094.4844,706.1719 Q1094.4844,707.4063 1095.375,708.2344 Q1096.2656,709.0469 1097.8594,709.0469 Q1098.7969,709.0469 1099.4531,708.7969 Q1099.8438,708.6406 1100.2656,708.2031 Q1100.5313,707.9375 1100.6719,707.8594 Q1100.8281,707.7813 1101.0313,707.7813 Q1101.3594,707.7813 1101.6094,708.0469 Q1101.875,708.2969 1101.875,708.6406 Q1101.875,708.9844 1101.5313,709.3906 Q1101.0313,709.9688 1100.2344,710.2969 Q1099.1563,710.75 1097.8594,710.75 Q1096.3438,710.75 1095.1406,710.125 Q1094.1563,709.625 1093.4688,708.5625 Q1092.7813,707.4844 1092.7813,706.2031 L1092.7813,705.0469 Q1092.7813,703.7188 1093.3906,702.5781 Q1094.0156,701.4219 1095.1094,700.8125 Q1096.2031,700.1875 1097.4375,700.1875 Q1098.1719,700.1875 1098.8125,700.3594 Q1099.4688,700.5156 1100.0156,700.875 Z " fill="#000000"/><text fill="#000000" font-family="sans-serif" font-size="14" lengthAdjust="spacing" textLength="65" x="1117.75" y="710.7285">BulletProp</text><line style="stroke:#181818;stroke-width:0.5;" x1="929.5" x2="1338.5" y1="721" y2="721"/><line style="stroke:#181818;stroke-width:0.5;" x1="929.5" x2="1338.5" y1="729" y2="729"/><ellipse cx="939.5" cy="743.3047" fill="#84BE84" rx="3" ry="3" style="stroke:#038048;stroke-width:1.0;"/><text fill="#000000" font-family="sans-serif" font-size="14" lengthAdjust="spacing" textLength="385" x="948.5" y="747.5332">BulletProp(int locationX, int locationY, int speedX, int speedY)</text><ellipse cx="939.5" cy="760.9141" fill="#84BE84" rx="3" ry="3" style="stroke:#038048;stroke-width:1.0;"/><text fill="#000000" font-family="sans-serif" font-size="14" lengthAdjust="spacing" textLength="299" x="948.5" y="765.1426">work(HeroAircraft hero,boolean usemusic): void</text></g><!--class BulletPlusProp--><g id="elem_BulletPlusProp"><rect codeLine="54" fill="#F1F1F1" height="83.2188" id="BulletPlusProp" rx="2.5" ry="2.5" style="stroke:#181818;stroke-width:0.5;" width="438" x="1375" y="689"/><ellipse cx="1543.75" cy="705" fill="#ADD1B2" rx="11" ry="11" style="stroke:#181818;stroke-width:1.0;"/><path d="M1546.5156,700.875 Q1546.6719,700.6563 1546.8594,700.5469 Q1547.0469,700.4375 1547.2656,700.4375 Q1547.6406,700.4375 1547.875,700.7031 Q1548.1094,700.9531 1548.1094,701.5625 L1548.1094,703.0156 Q1548.1094,703.625 1547.875,703.8906 Q1547.6406,704.1563 1547.2656,704.1563 Q1546.9219,704.1563 1546.7188,703.9531 Q1546.5156,703.7656 1546.4063,703.25 Q1546.3594,702.8906 1546.1719,702.7031 Q1545.8438,702.3281 1545.2344,702.1094 Q1544.625,701.8906 1544,701.8906 Q1543.2344,701.8906 1542.5938,702.2188 Q1541.9688,702.5469 1541.4688,703.2969 Q1540.9844,704.0469 1540.9844,705.0781 L1540.9844,706.1719 Q1540.9844,707.4063 1541.875,708.2344 Q1542.7656,709.0469 1544.3594,709.0469 Q1545.2969,709.0469 1545.9531,708.7969 Q1546.3438,708.6406 1546.7656,708.2031 Q1547.0313,707.9375 1547.1719,707.8594 Q1547.3281,707.7813 1547.5313,707.7813 Q1547.8594,707.7813 1548.1094,708.0469 Q1548.375,708.2969 1548.375,708.6406 Q1548.375,708.9844 1548.0313,709.3906 Q1547.5313,709.9688 1546.7344,710.2969 Q1545.6563,710.75 1544.3594,710.75 Q1542.8438,710.75 1541.6406,710.125 Q1540.6563,709.625 1539.9688,708.5625 Q1539.2813,707.4844 1539.2813,706.2031 L1539.2813,705.0469 Q1539.2813,703.7188 1539.8906,702.5781 Q1540.5156,701.4219 1541.6094,700.8125 Q1542.7031,700.1875 1543.9375,700.1875 Q1544.6719,700.1875 1545.3125,700.3594 Q1545.9688,700.5156 1546.5156,700.875 Z " fill="#000000"/><text fill="#000000" font-family="sans-serif" font-size="14" lengthAdjust="spacing" textLength="92" x="1564.25" y="710.7285">BulletPlusProp</text><line style="stroke:#181818;stroke-width:0.5;" x1="1376" x2="1812" y1="721" y2="721"/><line style="stroke:#181818;stroke-width:0.5;" x1="1376" x2="1812" y1="729" y2="729"/><ellipse cx="1386" cy="743.3047" fill="#84BE84" rx="3" ry="3" style="stroke:#038048;stroke-width:1.0;"/><text fill="#000000" font-family="sans-serif" font-size="14" lengthAdjust="spacing" textLength="412" x="1395" y="747.5332">BulletPlusProp(int locationX, int locationY, int speedX, int speedY)</text><ellipse cx="1386" cy="760.9141" fill="#84BE84" rx="3" ry="3" style="stroke:#038048;stroke-width:1.0;"/><text fill="#000000" font-family="sans-serif" font-size="14" lengthAdjust="spacing" textLength="299" x="1395" y="765.1426">work(HeroAircraft hero,boolean usemusic): void</text></g><!--class ScoreProp--><g id="elem_ScoreProp"><rect codeLine="59" fill="#F1F1F1" height="100.8281" id="ScoreProp" rx="2.5" ry="2.5" style="stroke:#181818;stroke-width:0.5;" width="413" x="1848.5" y="680"/><ellipse cx="2017.25" cy="696" fill="#ADD1B2" rx="11" ry="11" style="stroke:#181818;stroke-width:1.0;"/><path d="M2020.0156,691.875 Q2020.1719,691.6563 2020.3594,691.5469 Q2020.5469,691.4375 2020.7656,691.4375 Q2021.1406,691.4375 2021.375,691.7031 Q2021.6094,691.9531 2021.6094,692.5625 L2021.6094,694.0156 Q2021.6094,694.625 2021.375,694.8906 Q2021.1406,695.1563 2020.7656,695.1563 Q2020.4219,695.1563 2020.2188,694.9531 Q2020.0156,694.7656 2019.9063,694.25 Q2019.8594,693.8906 2019.6719,693.7031 Q2019.3438,693.3281 2018.7344,693.1094 Q2018.125,692.8906 2017.5,692.8906 Q2016.7344,692.8906 2016.0938,693.2188 Q2015.4688,693.5469 2014.9688,694.2969 Q2014.4844,695.0469 2014.4844,696.0781 L2014.4844,697.1719 Q2014.4844,698.4063 2015.375,699.2344 Q2016.2656,700.0469 2017.8594,700.0469 Q2018.7969,700.0469 2019.4531,699.7969 Q2019.8438,699.6406 2020.2656,699.2031 Q2020.5313,698.9375 2020.6719,698.8594 Q2020.8281,698.7813 2021.0313,698.7813 Q2021.3594,698.7813 2021.6094,699.0469 Q2021.875,699.2969 2021.875,699.6406 Q2021.875,699.9844 2021.5313,700.3906 Q2021.0313,700.9688 2020.2344,701.2969 Q2019.1563,701.75 2017.8594,701.75 Q2016.3438,701.75 2015.1406,701.125 Q2014.1563,700.625 2013.4688,699.5625 Q2012.7813,698.4844 2012.7813,697.2031 L2012.7813,696.0469 Q2012.7813,694.7188 2013.3906,693.5781 Q2014.0156,692.4219 2015.1094,691.8125 Q2016.2031,691.1875 2017.4375,691.1875 Q2018.1719,691.1875 2018.8125,691.3594 Q2019.4688,691.5156 2020.0156,691.875 Z " fill="#000000"/><text fill="#000000" font-family="sans-serif" font-size="14" lengthAdjust="spacing" textLength="67" x="2037.75" y="701.7285">ScoreProp</text><line style="stroke:#181818;stroke-width:0.5;" x1="1849.5" x2="2260.5" y1="712" y2="712"/><rect fill="none" height="6" style="stroke:#C82930;stroke-width:1.0;" width="6" x="1856.5" y="723.3047"/><text fill="#000000" font-family="sans-serif" font-size="14" lengthAdjust="spacing" textLength="86" x="1868.5" y="730.5332">add_score:int</text><line style="stroke:#181818;stroke-width:0.5;" x1="1849.5" x2="2260.5" y1="737.6094" y2="737.6094"/><ellipse cx="1859.5" cy="751.9141" fill="#84BE84" rx="3" ry="3" style="stroke:#038048;stroke-width:1.0;"/><text fill="#000000" font-family="sans-serif" font-size="14" lengthAdjust="spacing" textLength="387" x="1868.5" y="756.1426">ScoreProp(int locationX, int locationY, int speedX, int speedY)</text><ellipse cx="1859.5" cy="769.5234" fill="#84BE84" rx="3" ry="3" style="stroke:#038048;stroke-width:1.0;"/><text fill="#000000" font-family="sans-serif" font-size="14" lengthAdjust="spacing" textLength="299" x="1868.5" y="773.752">work(HeroAircraft hero,boolean usemusic): void</text></g><!--class BombProp--><g id="elem_BombProp"><rect codeLine="65" fill="#F1F1F1" height="171.2656" id="BombProp" rx="2.5" ry="2.5" style="stroke:#181818;stroke-width:0.5;" width="474" x="2297" y="645"/><ellipse cx="2496.75" cy="661" fill="#ADD1B2" rx="11" ry="11" style="stroke:#181818;stroke-width:1.0;"/><path d="M2499.5156,656.875 Q2499.6719,656.6563 2499.8594,656.5469 Q2500.0469,656.4375 2500.2656,656.4375 Q2500.6406,656.4375 2500.875,656.7031 Q2501.1094,656.9531 2501.1094,657.5625 L2501.1094,659.0156 Q2501.1094,659.625 2500.875,659.8906 Q2500.6406,660.1563 2500.2656,660.1563 Q2499.9219,660.1563 2499.7188,659.9531 Q2499.5156,659.7656 2499.4063,659.25 Q2499.3594,658.8906 2499.1719,658.7031 Q2498.8438,658.3281 2498.2344,658.1094 Q2497.625,657.8906 2497,657.8906 Q2496.2344,657.8906 2495.5938,658.2188 Q2494.9688,658.5469 2494.4688,659.2969 Q2493.9844,660.0469 2493.9844,661.0781 L2493.9844,662.1719 Q2493.9844,663.4063 2494.875,664.2344 Q2495.7656,665.0469 2497.3594,665.0469 Q2498.2969,665.0469 2498.9531,664.7969 Q2499.3438,664.6406 2499.7656,664.2031 Q2500.0313,663.9375 2500.1719,663.8594 Q2500.3281,663.7813 2500.5313,663.7813 Q2500.8594,663.7813 2501.1094,664.0469 Q2501.375,664.2969 2501.375,664.6406 Q2501.375,664.9844 2501.0313,665.3906 Q2500.5313,665.9688 2499.7344,666.2969 Q2498.6563,666.75 2497.3594,666.75 Q2495.8438,666.75 2494.6406,666.125 Q2493.6563,665.625 2492.9688,664.5625 Q2492.2813,663.4844 2492.2813,662.2031 L2492.2813,661.0469 Q2492.2813,659.7188 2492.8906,658.5781 Q2493.5156,657.4219 2494.6094,656.8125 Q2495.7031,656.1875 2496.9375,656.1875 Q2497.6719,656.1875 2498.3125,656.3594 Q2498.9688,656.5156 2499.5156,656.875 Z " fill="#000000"/><text fill="#000000" font-family="sans-serif" font-size="14" lengthAdjust="spacing" textLength="66" x="2517.25" y="666.7285">BombProp</text><line style="stroke:#181818;stroke-width:0.5;" x1="2298" x2="2770" y1="677" y2="677"/><rect fill="none" height="6" style="stroke:#C82930;stroke-width:1.0;" width="6" x="2305" y="688.3047"/><text fill="#000000" font-family="sans-serif" font-size="14" lengthAdjust="spacing" textLength="190" x="2317" y="695.5332">enemyBullet: List&lt;BaseBullet&gt;</text><rect fill="none" height="6" style="stroke:#C82930;stroke-width:1.0;" width="6" x="2305" y="705.9141"/><text fill="#000000" font-family="sans-serif" font-size="14" lengthAdjust="spacing" textLength="280" x="2317" y="713.1426">enemyAircrafts: List&lt;AbstractEnemyAircraft&gt;</text><line style="stroke:#181818;stroke-width:0.5;" x1="2298" x2="2770" y1="720.2188" y2="720.2188"/><ellipse cx="2308" cy="734.5234" fill="#84BE84" rx="3" ry="3" style="stroke:#038048;stroke-width:1.0;"/><text fill="#000000" font-family="sans-serif" font-size="14" lengthAdjust="spacing" textLength="386" x="2317" y="738.752">BombProp(int locationX, int locationY, int speedX, int speedY)</text><ellipse cx="2308" cy="752.1328" fill="#84BE84" rx="3" ry="3" style="stroke:#038048;stroke-width:1.0;"/><text fill="#000000" font-family="sans-serif" font-size="14" lengthAdjust="spacing" textLength="299" x="2317" y="756.3613">work(HeroAircraft hero,boolean usemusic): void</text><ellipse cx="2308" cy="769.7422" fill="#84BE84" rx="3" ry="3" style="stroke:#038048;stroke-width:1.0;"/><text fill="#000000" font-family="sans-serif" font-size="14" lengthAdjust="spacing" textLength="260" x="2317" y="773.9707">addBullets(List&lt;BaseBullet&gt; bullets): void</text><ellipse cx="2308" cy="787.3516" fill="#84BE84" rx="3" ry="3" style="stroke:#038048;stroke-width:1.0;"/><text fill="#000000" font-family="sans-serif" font-size="14" lengthAdjust="spacing" textLength="448" x="2317" y="791.5801">addAircrafts(List&lt;AbstractEnemyAircraft&gt; abstractEnemyAircrafts): void</text><ellipse cx="2308" cy="804.9609" fill="#84BE84" rx="3" ry="3" style="stroke:#038048;stroke-width:1.0;"/><text fill="#000000" font-family="sans-serif" font-size="14" lengthAdjust="spacing" textLength="130" x="2317" y="809.1895">notify_update(): void</text></g><!--reverse link BaseProp to BloodProp--><g id="link_BaseProp_BloodProp"><path codeLine="75" d="M1141.9029,540.5887 C952.3729,555.1487 681.43,584.23 437,645 C408.97,651.97 379.64,661.38 351.8,671.4 " fill="none" id="BaseProp-backto-BloodProp" style="stroke:#181818;stroke-width:1.0;"/><polygon fill="none" points="1159.85,539.21,1141.4433,534.6064,1142.3625,546.5711,1159.85,539.21" style="stroke:#181818;stroke-width:1.0;"/></g><!--reverse link BaseProp to BombProp--><g id="link_BaseProp_BombProp"><path codeLine="76" d="M1586.0508,543.6167 C1772.7908,560.0367 2037.92,590.05 2279,645 C2284.91,646.35 2290.88,647.78 2296.88,649.27 " fill="none" id="BaseProp-backto-BombProp" style="stroke:#181818;stroke-width:1.0;"/><polygon fill="none" points="1568.12,542.04,1585.5253,549.5936,1586.5764,537.6397,1568.12,542.04" style="stroke:#181818;stroke-width:1.0;"/></g><!--reverse link BaseProp to BulletProp--><g id="link_BaseProp_BulletProp"><path codeLine="77" d="M1284.5796,596.9241 C1246.8796,630.1141 1214.03,659.04 1180.21,688.81 " fill="none" id="BaseProp-backto-BulletProp" style="stroke:#181818;stroke-width:1.0;"/><polygon fill="none" points="1298.09,585.03,1280.6149,592.4207,1288.5444,601.4276,1298.09,585.03" style="stroke:#181818;stroke-width:1.0;"/></g><!--reverse link BaseProp to BulletPlusProp--><g id="link_BaseProp_BulletPlusProp"><path codeLine="78" d="M1443.4204,596.9241 C1481.1204,630.1141 1513.97,659.04 1547.79,688.81 " fill="none" id="BaseProp-backto-BulletPlusProp" style="stroke:#181818;stroke-width:1.0;"/><polygon fill="none" points="1429.91,585.03,1439.4556,601.4276,1447.3851,592.4207,1429.91,585.03" style="stroke:#181818;stroke-width:1.0;"/></g><!--reverse link BaseProp to ScoreProp--><g id="link_BaseProp_ScoreProp"><path codeLine="79" d="M1585.7495,577.5564 C1667.9695,597.5664 1745.83,618.27 1831,645 C1863.82,655.3 1898.82,667.77 1931.17,679.93 " fill="none" id="BaseProp-backto-ScoreProp" style="stroke:#181818;stroke-width:1.0;"/><polygon fill="none" points="1568.26,573.3,1584.3307,583.3863,1587.1683,571.7266,1568.26,573.3" style="stroke:#181818;stroke-width:1.0;"/></g><!--reverse link BaseProp to BloodPlusProp--><g id="link_BaseProp_BloodPlusProp"><path codeLine="80" d="M1142.5342,580.5322 C1064.2442,600.4222 991.78,620.13 911,645 C884.91,653.03 857.43,662.18 830.8,671.42 " fill="none" id="BaseProp-backto-BloodPlusProp" style="stroke:#181818;stroke-width:1.0;"/><polygon fill="none" points="1159.98,576.1,1141.0568,574.7169,1144.0116,586.3475,1159.98,576.1" style="stroke:#181818;stroke-width:1.0;"/></g><!--reverse link AbstractFlyingObject to BaseProp--><g id="link_AbstractFlyingObject_BaseProp"><path codeLine="81" d="M1364,425.41 C1364,446.87 1364,449.25 1364,466.83 " fill="none" id="AbstractFlyingObject-backto-BaseProp" style="stroke:#181818;stroke-width:1.0;"/><polygon fill="none" points="1364,407.41,1358,425.41,1370,425.41,1364,407.41" style="stroke:#181818;stroke-width:1.0;"/></g><!--SRC=[pLNHQjim57sUlqAm5uSqFs1A8OML3ZfMQDdYfo1RrxOssGgIt12w_liaIt9anPJIG3S_MUVUgtlEkRAC2wa4BXKg6POIhTtoXXreLtylVa6fakS4wUSpOhp4Yl9kaz5EHLWUO787G3On46RG5jUGNVTL1GB8LxDoaJqbgWao6w1rey9I-GCpIhA2SmQuImPuEKiyrLL7qXSeNEPsQQa6x_d2RLXniSU2f8liYLFYm59WsQHplL0LB1OZEricGTsvlYdXVS4Wf1KX-QHZVIpTQ2xUXqaWZmCFWv8O7MpMuAdjG_YdSJwkkHtidw0TLyC4qbZb4-weRBnXBqcIuEdXkiOIxWNVZGUggDliMozf-TW8m5woJtlV-D39_D30vzCIFNi-BsZFnU_q5WHVKw67MYbzq0I_S89GBw4rl7on5kCaCCw98OUiXXN2X6mBWwB0ep7jh2Ee_T-k2HasCphC_bh6UTnPBz_AtwN-Lnfwna050fO1z4wYvzEPUhgCu8-dzL1o0ITJbWOrG_QVo9Zs3upZRJ4X21sq1-jRXkweL9Vc6h30LPZZ6qcNvY_ZBs7moW_2jVamWRQjTjiobsai1HKsS58mwafVaONm71njfYzeMXss_OvW1MbWlRzOqUMVrUfuHyMuyoo6nyziFk0EUnGSZzXiSryp-qErUVwNaVm5]--></g></svg>