<?xml version="1.0" encoding="us-ascii" standalone="no"?><svg xmlns="http://www.w3.org/2000/svg" xmlns:xlink="http://www.w3.org/1999/xlink" contentStyleType="text/css" height="947px" preserveAspectRatio="none" style="width:2859px;height:947px;background:#FFFFFF;" version="1.1" viewBox="0 0 2859 947" width="2859px" zoomAndPan="magnify"><defs/><g><!--class AbstractFlyingObject--><g id="elem_AbstractFlyingObject"><rect codeLine="3" fill="#F1F1F1" height="400.1875" id="AbstractFlyingObject" rx="2.5" ry="2.5" style="stroke:#181818;stroke-width:0.5;" width="477" x="9" y="540"/><ellipse cx="177.75" cy="556" fill="#A9DCDF" rx="11" ry="11" style="stroke:#181818;stroke-width:1.0;"/><path d="M179.9375,557.7656 L175.7969,557.7656 L175.375,558.7969 L175.7969,558.7969 Q176.4063,558.7969 176.6719,559.0313 Q176.9375,559.2656 176.9375,559.6563 Q176.9375,560.0313 176.6719,560.2656 Q176.4063,560.5 175.7969,560.5 L173.5,560.5 Q172.8906,560.5 172.6406,560.2656 Q172.375,560.0313 172.375,559.6406 Q172.375,559.2656 172.6563,559.0313 Q172.9219,558.7813 173.5469,558.7969 L176.2188,552.1406 L175.1094,552.1406 Q174.5,552.1406 174.2344,551.9063 Q173.9688,551.6719 173.9688,551.2813 Q173.9688,550.9063 174.2344,550.6719 Q174.5,550.4375 175.1094,550.4375 L178.7813,550.4375 L182.1719,558.7969 Q182.7656,558.7969 182.9531,558.9375 Q183.3438,559.2031 183.3438,559.6563 Q183.3438,560.0313 183.0781,560.2656 Q182.8281,560.5 182.2188,560.5 L179.9219,560.5 Q179.3125,560.5 179.0469,560.2656 Q178.7813,560.0313 178.7813,559.6406 Q178.7813,559.2656 179.0469,559.0313 Q179.3125,558.7969 179.9219,558.7969 L180.3438,558.7969 L179.9375,557.7656 Z M179.2188,556.0625 L177.8594,552.6875 L176.4844,556.0625 L179.2188,556.0625 Z " fill="#000000"/><text fill="#000000" font-family="sans-serif" font-size="14" font-style="italic" lengthAdjust="spacing" textLength="131" x="198.25" y="561.7285">AbstractFlyingObject</text><line style="stroke:#181818;stroke-width:0.5;" x1="10" x2="485" y1="572" y2="572"/><polygon fill="none" points="20,581.3047,24,585.3047,20,589.3047,16,585.3047" style="stroke:#B38D22;stroke-width:1.0;"/><text fill="#000000" font-family="sans-serif" font-size="14" lengthAdjust="spacing" textLength="76" x="29" y="590.5332">locationX:int</text><polygon fill="none" points="20,598.9141,24,602.9141,20,606.9141,16,602.9141" style="stroke:#B38D22;stroke-width:1.0;"/><text fill="#000000" font-family="sans-serif" font-size="14" lengthAdjust="spacing" textLength="77" x="29" y="608.1426">locationY:int</text><polygon fill="none" points="20,616.5234,24,620.5234,20,624.5234,16,620.5234" style="stroke:#B38D22;stroke-width:1.0;"/><text fill="#000000" font-family="sans-serif" font-size="14" lengthAdjust="spacing" textLength="66" x="29" y="625.752">speedX:int</text><polygon fill="none" points="20,634.1328,24,638.1328,20,642.1328,16,638.1328" style="stroke:#B38D22;stroke-width:1.0;"/><text fill="#000000" font-family="sans-serif" font-size="14" lengthAdjust="spacing" textLength="67" x="29" y="643.3613">speedY:int</text><polygon fill="none" points="20,651.7422,24,655.7422,20,659.7422,16,655.7422" style="stroke:#B38D22;stroke-width:1.0;"/><text fill="#000000" font-family="sans-serif" font-size="14" lengthAdjust="spacing" textLength="134" x="29" y="660.9707">image:BufferedImage</text><polygon fill="none" points="20,669.3516,24,673.3516,20,677.3516,16,673.3516" style="stroke:#B38D22;stroke-width:1.0;"/><text fill="#000000" font-family="sans-serif" font-size="14" lengthAdjust="spacing" textLength="51" x="29" y="678.5801">width:int</text><polygon fill="none" points="20,686.9609,24,690.9609,20,694.9609,16,690.9609" style="stroke:#B38D22;stroke-width:1.0;"/><text fill="#000000" font-family="sans-serif" font-size="14" lengthAdjust="spacing" textLength="58" x="29" y="696.1895">height:int</text><polygon fill="none" points="20,704.5703,24,708.5703,20,712.5703,16,708.5703" style="stroke:#B38D22;stroke-width:1.0;"/><text fill="#000000" font-family="sans-serif" font-size="14" lengthAdjust="spacing" textLength="96" x="29" y="713.7988">isValid:boolean</text><line style="stroke:#181818;stroke-width:0.5;" x1="10" x2="485" y1="720.875" y2="720.875"/><ellipse cx="20" cy="735.1797" fill="#84BE84" rx="3" ry="3" style="stroke:#038048;stroke-width:1.0;"/><text fill="#000000" font-family="sans-serif" font-size="14" lengthAdjust="spacing" textLength="451" x="29" y="739.4082">AbstractFlyingObject(int locationX, int locationY, int speedX, int speedY)</text><ellipse cx="20" cy="752.7891" fill="#84BE84" rx="3" ry="3" style="stroke:#038048;stroke-width:1.0;"/><text fill="#000000" font-family="sans-serif" font-size="14" lengthAdjust="spacing" textLength="87" x="29" y="757.0176">forward():void</text><ellipse cx="20" cy="770.3984" fill="#84BE84" rx="3" ry="3" style="stroke:#038048;stroke-width:1.0;"/><text fill="#000000" font-family="sans-serif" font-size="14" lengthAdjust="spacing" textLength="309" x="29" y="774.627">crash(AbstractFlyingObject flyingObject):boolean</text><ellipse cx="20" cy="788.0078" fill="#84BE84" rx="3" ry="3" style="stroke:#038048;stroke-width:1.0;"/><text fill="#000000" font-family="sans-serif" font-size="14" lengthAdjust="spacing" textLength="330" x="29" y="792.2363">setLocation(double locationX, double locationY):void</text><ellipse cx="20" cy="805.6172" fill="#84BE84" rx="3" ry="3" style="stroke:#038048;stroke-width:1.0;"/><text fill="#000000" font-family="sans-serif" font-size="14" lengthAdjust="spacing" textLength="111" x="29" y="809.8457">getLocationX():int</text><ellipse cx="20" cy="823.2266" fill="#84BE84" rx="3" ry="3" style="stroke:#038048;stroke-width:1.0;"/><text fill="#000000" font-family="sans-serif" font-size="14" lengthAdjust="spacing" textLength="112" x="29" y="827.4551">getLocationY():int</text><ellipse cx="20" cy="840.8359" fill="#84BE84" rx="3" ry="3" style="stroke:#038048;stroke-width:1.0;"/><text fill="#000000" font-family="sans-serif" font-size="14" lengthAdjust="spacing" textLength="99" x="29" y="845.0645">getSpeedY():int</text><ellipse cx="20" cy="858.4453" fill="#84BE84" rx="3" ry="3" style="stroke:#038048;stroke-width:1.0;"/><text fill="#000000" font-family="sans-serif" font-size="14" lengthAdjust="spacing" textLength="164" x="29" y="862.6738">getImage():BufferedImage</text><ellipse cx="20" cy="876.0547" fill="#84BE84" rx="3" ry="3" style="stroke:#038048;stroke-width:1.0;"/><text fill="#000000" font-family="sans-serif" font-size="14" lengthAdjust="spacing" textLength="85" x="29" y="880.2832">getWidth():int</text><ellipse cx="20" cy="893.6641" fill="#84BE84" rx="3" ry="3" style="stroke:#038048;stroke-width:1.0;"/><text fill="#000000" font-family="sans-serif" font-size="14" lengthAdjust="spacing" textLength="89" x="29" y="897.8926">getHeight():int</text><ellipse cx="20" cy="911.2734" fill="#84BE84" rx="3" ry="3" style="stroke:#038048;stroke-width:1.0;"/><text fill="#000000" font-family="sans-serif" font-size="14" lengthAdjust="spacing" textLength="116" x="29" y="915.502">notValid():boolean</text><ellipse cx="20" cy="928.8828" fill="#84BE84" rx="3" ry="3" style="stroke:#038048;stroke-width:1.0;"/><text fill="#000000" font-family="sans-serif" font-size="14" lengthAdjust="spacing" textLength="81" x="29" y="933.1113">vanish():void</text></g><!--class AbstractAircraft--><g id="elem_AbstractAircraft"><rect codeLine="27" fill="#F1F1F1" height="171.2656" id="AbstractAircraft" rx="2.5" ry="2.5" style="stroke:#181818;stroke-width:0.5;" width="486" x="257.5" y="247"/><ellipse cx="447.75" cy="263" fill="#A9DCDF" rx="11" ry="11" style="stroke:#181818;stroke-width:1.0;"/><path d="M449.9375,264.7656 L445.7969,264.7656 L445.375,265.7969 L445.7969,265.7969 Q446.4063,265.7969 446.6719,266.0313 Q446.9375,266.2656 446.9375,266.6563 Q446.9375,267.0313 446.6719,267.2656 Q446.4063,267.5 445.7969,267.5 L443.5,267.5 Q442.8906,267.5 442.6406,267.2656 Q442.375,267.0313 442.375,266.6406 Q442.375,266.2656 442.6563,266.0313 Q442.9219,265.7813 443.5469,265.7969 L446.2188,259.1406 L445.1094,259.1406 Q444.5,259.1406 444.2344,258.9063 Q443.9688,258.6719 443.9688,258.2813 Q443.9688,257.9063 444.2344,257.6719 Q444.5,257.4375 445.1094,257.4375 L448.7813,257.4375 L452.1719,265.7969 Q452.7656,265.7969 452.9531,265.9375 Q453.3438,266.2031 453.3438,266.6563 Q453.3438,267.0313 453.0781,267.2656 Q452.8281,267.5 452.2188,267.5 L449.9219,267.5 Q449.3125,267.5 449.0469,267.2656 Q448.7813,267.0313 448.7813,266.6406 Q448.7813,266.2656 449.0469,266.0313 Q449.3125,265.7969 449.9219,265.7969 L450.3438,265.7969 L449.9375,264.7656 Z M449.2188,263.0625 L447.8594,259.6875 L446.4844,263.0625 L449.2188,263.0625 Z " fill="#000000"/><text fill="#000000" font-family="sans-serif" font-size="14" font-style="italic" lengthAdjust="spacing" textLength="97" x="468.25" y="268.7285">AbstractAircraft</text><line style="stroke:#181818;stroke-width:0.5;" x1="258.5" x2="742.5" y1="279" y2="279"/><polygon fill="none" points="268.5,288.3047,272.5,292.3047,268.5,296.3047,264.5,292.3047" style="stroke:#B38D22;stroke-width:1.0;"/><text fill="#000000" font-family="sans-serif" font-size="14" lengthAdjust="spacing" textLength="61" x="277.5" y="297.5332">maxHp:int</text><polygon fill="none" points="268.5,305.9141,272.5,309.9141,268.5,313.9141,264.5,309.9141" style="stroke:#B38D22;stroke-width:1.0;"/><text fill="#000000" font-family="sans-serif" font-size="14" lengthAdjust="spacing" textLength="35" x="277.5" y="315.1426">hp:int</text><line style="stroke:#181818;stroke-width:0.5;" x1="258.5" x2="742.5" y1="322.2188" y2="322.2188"/><ellipse cx="268.5" cy="336.5234" fill="#84BE84" rx="3" ry="3" style="stroke:#038048;stroke-width:1.0;"/><text fill="#000000" font-family="sans-serif" font-size="14" lengthAdjust="spacing" textLength="460" x="277.5" y="340.752">AbstractAircraft(int locationX, int locationY, int speedX, int speedY, int hp)</text><ellipse cx="268.5" cy="354.1328" fill="#84BE84" rx="3" ry="3" style="stroke:#038048;stroke-width:1.0;"/><text fill="#000000" font-family="sans-serif" font-size="14" lengthAdjust="spacing" textLength="194" x="277.5" y="358.3613">decreaseHp(int decrease):void</text><ellipse cx="268.5" cy="371.7422" fill="#84BE84" rx="3" ry="3" style="stroke:#038048;stroke-width:1.0;"/><text fill="#000000" font-family="sans-serif" font-size="14" lengthAdjust="spacing" textLength="66" x="277.5" y="375.9707">getHp():int</text><ellipse cx="268.5" cy="389.3516" fill="#84BE84" rx="3" ry="3" style="stroke:#038048;stroke-width:1.0;"/><text fill="#000000" font-family="sans-serif" font-size="14" lengthAdjust="spacing" textLength="91" x="277.5" y="393.5801">getMaxHp():int</text><ellipse cx="268.5" cy="406.9609" fill="#84BE84" rx="3" ry="3" style="stroke:#038048;stroke-width:1.0;"/><text fill="#000000" font-family="sans-serif" font-size="14" font-style="italic" lengthAdjust="spacing" textLength="154" x="277.5" y="411.1895">shoot():List&lt;BaseBullet&gt;</text></g><!--class Observer--><g id="elem_Observer"><rect codeLine="40" fill="#F1F1F1" height="65.6094" id="Observer" rx="2.5" ry="2.5" style="stroke:#181818;stroke-width:0.5;" width="109" x="779" y="299.5"/><ellipse cx="802.55" cy="315.5" fill="#B4A7E5" rx="11" ry="11" style="stroke:#181818;stroke-width:1.0;"/><path d="M803.5031,312.1406 L803.5031,318.7969 L805.2219,318.7969 Q805.8313,318.7969 806.0969,319.0313 Q806.3625,319.2656 806.3625,319.6563 Q806.3625,320.0313 806.0969,320.2656 Q805.8313,320.5 805.2219,320.5 L800.0813,320.5 Q799.4719,320.5 799.2063,320.2656 Q798.9406,320.0313 798.9406,319.6406 Q798.9406,319.2656 799.2063,319.0313 Q799.4719,318.7969 800.0813,318.7969 L801.8,318.7969 L801.8,312.1406 L800.0813,312.1406 Q799.4719,312.1406 799.2063,311.9063 Q798.9406,311.6719 798.9406,311.2813 Q798.9406,310.9063 799.2063,310.6719 Q799.4719,310.4375 800.0813,310.4375 L805.2219,310.4375 Q805.8313,310.4375 806.0969,310.6719 Q806.3625,310.9063 806.3625,311.2813 Q806.3625,311.6719 806.0969,311.9063 Q805.8313,312.1406 805.2219,312.1406 L803.5031,312.1406 Z " fill="#000000"/><text fill="#000000" font-family="sans-serif" font-size="14" font-style="italic" lengthAdjust="spacing" textLength="58" x="818.45" y="321.2285">Observer</text><line style="stroke:#181818;stroke-width:0.5;" x1="780" x2="887" y1="331.5" y2="331.5"/><line style="stroke:#181818;stroke-width:0.5;" x1="780" x2="887" y1="339.5" y2="339.5"/><ellipse cx="790" cy="353.8047" fill="#84BE84" rx="3" ry="3" style="stroke:#038048;stroke-width:1.0;"/><text fill="#000000" font-family="sans-serif" font-size="14" font-style="italic" lengthAdjust="spacing" textLength="83" x="799" y="358.0332">update():void</text></g><!--class AbstractEnemyAircraft--><g id="elem_AbstractEnemyAircraft"><rect codeLine="44" fill="#F1F1F1" height="118.4375" id="AbstractEnemyAircraft" rx="2.5" ry="2.5" style="stroke:#181818;stroke-width:0.5;" width="591" x="1104" y="7"/><ellipse cx="1325.25" cy="23" fill="#A9DCDF" rx="11" ry="11" style="stroke:#181818;stroke-width:1.0;"/><path d="M1327.4375,24.7656 L1323.2969,24.7656 L1322.875,25.7969 L1323.2969,25.7969 Q1323.9063,25.7969 1324.1719,26.0313 Q1324.4375,26.2656 1324.4375,26.6563 Q1324.4375,27.0313 1324.1719,27.2656 Q1323.9063,27.5 1323.2969,27.5 L1321,27.5 Q1320.3906,27.5 1320.1406,27.2656 Q1319.875,27.0313 1319.875,26.6406 Q1319.875,26.2656 1320.1563,26.0313 Q1320.4219,25.7813 1321.0469,25.7969 L1323.7188,19.1406 L1322.6094,19.1406 Q1322,19.1406 1321.7344,18.9063 Q1321.4688,18.6719 1321.4688,18.2813 Q1321.4688,17.9063 1321.7344,17.6719 Q1322,17.4375 1322.6094,17.4375 L1326.2813,17.4375 L1329.6719,25.7969 Q1330.2656,25.7969 1330.4531,25.9375 Q1330.8438,26.2031 1330.8438,26.6563 Q1330.8438,27.0313 1330.5781,27.2656 Q1330.3281,27.5 1329.7188,27.5 L1327.4219,27.5 Q1326.8125,27.5 1326.5469,27.2656 Q1326.2813,27.0313 1326.2813,26.6406 Q1326.2813,26.2656 1326.5469,26.0313 Q1326.8125,25.7969 1327.4219,25.7969 L1327.8438,25.7969 L1327.4375,24.7656 Z M1326.7188,23.0625 L1325.3594,19.6875 L1323.9844,23.0625 L1326.7188,23.0625 Z " fill="#000000"/><text fill="#000000" font-family="sans-serif" font-size="14" font-style="italic" lengthAdjust="spacing" textLength="140" x="1345.75" y="28.7285">AbstractEnemyAircraft</text><line style="stroke:#181818;stroke-width:0.5;" x1="1105" x2="1694" y1="39" y2="39"/><polygon fill="none" points="1115,48.3047,1119,52.3047,1115,56.3047,1111,52.3047" style="stroke:#B38D22;stroke-width:1.0;"/><text fill="#000000" font-family="sans-serif" font-size="14" lengthAdjust="spacing" textLength="54" x="1124" y="57.5332">score:int</text><line style="stroke:#181818;stroke-width:0.5;" x1="1105" x2="1694" y1="64.6094" y2="64.6094"/><ellipse cx="1115" cy="78.9141" fill="#84BE84" rx="3" ry="3" style="stroke:#038048;stroke-width:1.0;"/><text fill="#000000" font-family="sans-serif" font-size="14" lengthAdjust="spacing" textLength="565" x="1124" y="83.1426">AbstractEnemyAircraft(int locationX, int locationY, int speedX, int speedY, int hp, int score)</text><ellipse cx="1115" cy="96.5234" fill="#84BE84" rx="3" ry="3" style="stroke:#038048;stroke-width:1.0;"/><text fill="#000000" font-family="sans-serif" font-size="14" font-style="italic" lengthAdjust="spacing" textLength="208" x="1124" y="100.752">generate_prop():List&lt;BaseProp&gt;</text><ellipse cx="1115" cy="114.1328" fill="#84BE84" rx="3" ry="3" style="stroke:#038048;stroke-width:1.0;"/><text fill="#000000" font-family="sans-serif" font-size="14" lengthAdjust="spacing" textLength="90" x="1124" y="118.3613">getScore(): int</text></g><!--class HeroAircraft--><g id="elem_HeroAircraft"><rect codeLine="55" fill="#F1F1F1" height="294.5313" id="HeroAircraft" rx="2.5" ry="2.5" style="stroke:#181818;stroke-width:0.5;" width="464" x="521.5" y="592.5"/><ellipse cx="711.75" cy="608.5" fill="#ADD1B2" rx="11" ry="11" style="stroke:#181818;stroke-width:1.0;"/><path d="M714.5156,604.375 Q714.6719,604.1563 714.8594,604.0469 Q715.0469,603.9375 715.2656,603.9375 Q715.6406,603.9375 715.875,604.2031 Q716.1094,604.4531 716.1094,605.0625 L716.1094,606.5156 Q716.1094,607.125 715.875,607.3906 Q715.6406,607.6563 715.2656,607.6563 Q714.9219,607.6563 714.7188,607.4531 Q714.5156,607.2656 714.4063,606.75 Q714.3594,606.3906 714.1719,606.2031 Q713.8438,605.8281 713.2344,605.6094 Q712.625,605.3906 712,605.3906 Q711.2344,605.3906 710.5938,605.7188 Q709.9688,606.0469 709.4688,606.7969 Q708.9844,607.5469 708.9844,608.5781 L708.9844,609.6719 Q708.9844,610.9063 709.875,611.7344 Q710.7656,612.5469 712.3594,612.5469 Q713.2969,612.5469 713.9531,612.2969 Q714.3438,612.1406 714.7656,611.7031 Q715.0313,611.4375 715.1719,611.3594 Q715.3281,611.2813 715.5313,611.2813 Q715.8594,611.2813 716.1094,611.5469 Q716.375,611.7969 716.375,612.1406 Q716.375,612.4844 716.0313,612.8906 Q715.5313,613.4688 714.7344,613.7969 Q713.6563,614.25 712.3594,614.25 Q710.8438,614.25 709.6406,613.625 Q708.6563,613.125 707.9688,612.0625 Q707.2813,610.9844 707.2813,609.7031 L707.2813,608.5469 Q707.2813,607.2188 707.8906,606.0781 Q708.5156,604.9219 709.6094,604.3125 Q710.7031,603.6875 711.9375,603.6875 Q712.6719,603.6875 713.3125,603.8594 Q713.9688,604.0156 714.5156,604.375 Z " fill="#000000"/><text fill="#000000" font-family="sans-serif" font-size="14" lengthAdjust="spacing" textLength="75" x="732.25" y="614.2285">HeroAircraft</text><line style="stroke:#181818;stroke-width:0.5;" x1="522.5" x2="984.5" y1="624.5" y2="624.5"/><rect fill="none" height="6" style="stroke:#C82930;stroke-width:1.0;" width="6" x="529.5" y="635.8047"/><text fill="#000000" font-family="sans-serif" font-size="14" lengthAdjust="spacing" text-decoration="underline" textLength="153" x="541.5" y="643.0332">heroAircraft:HeroAircraft</text><rect fill="none" height="6" style="stroke:#C82930;stroke-width:1.0;" width="6" x="529.5" y="653.4141"/><text fill="#000000" font-family="sans-serif" font-size="14" lengthAdjust="spacing" textLength="82" x="541.5" y="660.6426">shootNum:int</text><rect fill="none" height="6" style="stroke:#C82930;stroke-width:1.0;" width="6" x="529.5" y="671.0234"/><text fill="#000000" font-family="sans-serif" font-size="14" lengthAdjust="spacing" textLength="57" x="541.5" y="678.252">power:int</text><rect fill="none" height="6" style="stroke:#C82930;stroke-width:1.0;" width="6" x="529.5" y="688.6328"/><text fill="#000000" font-family="sans-serif" font-size="14" lengthAdjust="spacing" textLength="73" x="541.5" y="695.8613">direction:int</text><ellipse cx="532.5" cy="709.2422" fill="none" rx="3" ry="3" style="stroke:#038048;stroke-width:1.0;"/><text fill="#000000" font-family="sans-serif" font-size="14" lengthAdjust="spacing" textLength="97" x="541.5" y="713.4707">context:Context</text><ellipse cx="532.5" cy="726.8516" fill="none" rx="3" ry="3" style="stroke:#038048;stroke-width:1.0;"/><text fill="#000000" font-family="sans-serif" font-size="14" lengthAdjust="spacing" textLength="130" x="541.5" y="731.0801">shootthread: Thread</text><ellipse cx="532.5" cy="744.4609" fill="none" rx="3" ry="3" style="stroke:#038048;stroke-width:1.0;"/><text fill="#000000" font-family="sans-serif" font-size="14" lengthAdjust="spacing" textLength="167" x="541.5" y="748.6895">exist_shootthread:boolean</text><line style="stroke:#181818;stroke-width:0.5;" x1="522.5" x2="984.5" y1="755.7656" y2="755.7656"/><rect fill="#F24D5C" height="6" style="stroke:#C82930;stroke-width:1.0;" width="6" x="529.5" y="767.0703"/><text fill="#000000" font-family="sans-serif" font-size="14" lengthAdjust="spacing" textLength="438" x="541.5" y="774.2988">HeroAircraft(int locationX, int locationY, int speedX, int speedY, int hp)</text><ellipse cx="532.5" cy="787.6797" fill="#84BE84" rx="3" ry="3" style="stroke:#038048;stroke-width:1.0;"/><text fill="#000000" font-family="sans-serif" font-size="14" lengthAdjust="spacing" text-decoration="underline" textLength="170" x="541.5" y="791.9082">getInstance() : HeroAircraft</text><ellipse cx="532.5" cy="805.2891" fill="#84BE84" rx="3" ry="3" style="stroke:#038048;stroke-width:1.0;"/><text fill="#000000" font-family="sans-serif" font-size="14" lengthAdjust="spacing" textLength="87" x="541.5" y="809.5176">forward():void</text><ellipse cx="532.5" cy="822.8984" fill="#84BE84" rx="3" ry="3" style="stroke:#038048;stroke-width:1.0;"/><text fill="#000000" font-family="sans-serif" font-size="14" lengthAdjust="spacing" textLength="154" x="541.5" y="827.127">shoot():List&lt;BaseBullet&gt;</text><ellipse cx="532.5" cy="840.5078" fill="#84BE84" rx="3" ry="3" style="stroke:#038048;stroke-width:1.0;"/><text fill="#000000" font-family="sans-serif" font-size="14" lengthAdjust="spacing" textLength="205" x="541.5" y="844.7363">setShootNum(int shootnum):void</text><ellipse cx="532.5" cy="858.1172" fill="#84BE84" rx="3" ry="3" style="stroke:#038048;stroke-width:1.0;"/><text fill="#000000" font-family="sans-serif" font-size="14" lengthAdjust="spacing" textLength="72" x="541.5" y="862.3457">reset():void</text><ellipse cx="532.5" cy="875.7266" fill="#84BE84" rx="3" ry="3" style="stroke:#038048;stroke-width:1.0;"/><text fill="#000000" font-family="sans-serif" font-size="14" lengthAdjust="spacing" text-decoration="underline" textLength="129" x="541.5" y="879.9551">resetInstance(): void</text></g><!--class MobEnemy--><g id="elem_MobEnemy"><rect codeLine="80" fill="#F1F1F1" height="171.2656" id="MobEnemy" rx="2.5" ry="2.5" style="stroke:#181818;stroke-width:0.5;" width="459" x="923" y="247"/><ellipse cx="1113.25" cy="263" fill="#ADD1B2" rx="11" ry="11" style="stroke:#181818;stroke-width:1.0;"/><path d="M1116.0156,258.875 Q1116.1719,258.6563 1116.3594,258.5469 Q1116.5469,258.4375 1116.7656,258.4375 Q1117.1406,258.4375 1117.375,258.7031 Q1117.6094,258.9531 1117.6094,259.5625 L1117.6094,261.0156 Q1117.6094,261.625 1117.375,261.8906 Q1117.1406,262.1563 1116.7656,262.1563 Q1116.4219,262.1563 1116.2188,261.9531 Q1116.0156,261.7656 1115.9063,261.25 Q1115.8594,260.8906 1115.6719,260.7031 Q1115.3438,260.3281 1114.7344,260.1094 Q1114.125,259.8906 1113.5,259.8906 Q1112.7344,259.8906 1112.0938,260.2188 Q1111.4688,260.5469 1110.9688,261.2969 Q1110.4844,262.0469 1110.4844,263.0781 L1110.4844,264.1719 Q1110.4844,265.4063 1111.375,266.2344 Q1112.2656,267.0469 1113.8594,267.0469 Q1114.7969,267.0469 1115.4531,266.7969 Q1115.8438,266.6406 1116.2656,266.2031 Q1116.5313,265.9375 1116.6719,265.8594 Q1116.8281,265.7813 1117.0313,265.7813 Q1117.3594,265.7813 1117.6094,266.0469 Q1117.875,266.2969 1117.875,266.6406 Q1117.875,266.9844 1117.5313,267.3906 Q1117.0313,267.9688 1116.2344,268.2969 Q1115.1563,268.75 1113.8594,268.75 Q1112.3438,268.75 1111.1406,268.125 Q1110.1563,267.625 1109.4688,266.5625 Q1108.7813,265.4844 1108.7813,264.2031 L1108.7813,263.0469 Q1108.7813,261.7188 1109.3906,260.5781 Q1110.0156,259.4219 1111.1094,258.8125 Q1112.2031,258.1875 1113.4375,258.1875 Q1114.1719,258.1875 1114.8125,258.3594 Q1115.4688,258.5156 1116.0156,258.875 Z " fill="#000000"/><text fill="#000000" font-family="sans-serif" font-size="14" lengthAdjust="spacing" textLength="70" x="1133.75" y="268.7285">MobEnemy</text><line style="stroke:#181818;stroke-width:0.5;" x1="924" x2="1381" y1="279" y2="279"/><rect fill="none" height="6" style="stroke:#C82930;stroke-width:1.0;" width="6" x="931" y="290.3047"/><text fill="#000000" font-family="sans-serif" font-size="14" lengthAdjust="spacing" textLength="95" x="943" y="297.5332">prop:BaseProp</text><rect fill="none" height="6" style="stroke:#C82930;stroke-width:1.0;" width="6" x="931" y="307.9141"/><text fill="#000000" font-family="sans-serif" font-size="14" lengthAdjust="spacing" textLength="144" x="943" y="315.1426">props: List&lt;BaseProp&gt;</text><line style="stroke:#181818;stroke-width:0.5;" x1="924" x2="1381" y1="322.2188" y2="322.2188"/><ellipse cx="934" cy="336.5234" fill="#84BE84" rx="3" ry="3" style="stroke:#038048;stroke-width:1.0;"/><text fill="#000000" font-family="sans-serif" font-size="14" lengthAdjust="spacing" textLength="433" x="943" y="340.752">MobEnemy(int locationX, int locationY, int speedX, int speedY, int hp)</text><ellipse cx="934" cy="354.1328" fill="#84BE84" rx="3" ry="3" style="stroke:#038048;stroke-width:1.0;"/><text fill="#000000" font-family="sans-serif" font-size="14" lengthAdjust="spacing" textLength="87" x="943" y="358.3613">forward():void</text><ellipse cx="934" cy="371.7422" fill="#84BE84" rx="3" ry="3" style="stroke:#038048;stroke-width:1.0;"/><text fill="#000000" font-family="sans-serif" font-size="14" lengthAdjust="spacing" textLength="154" x="943" y="375.9707">shoot():List&lt;BaseBullet&gt;</text><ellipse cx="934" cy="389.3516" fill="#84BE84" rx="3" ry="3" style="stroke:#038048;stroke-width:1.0;"/><text fill="#000000" font-family="sans-serif" font-size="14" lengthAdjust="spacing" textLength="84" x="943" y="393.5801">update():void</text><ellipse cx="934" cy="406.9609" fill="#84BE84" rx="3" ry="3" style="stroke:#038048;stroke-width:1.0;"/><text fill="#000000" font-family="sans-serif" font-size="14" lengthAdjust="spacing" textLength="212" x="943" y="411.1895">generate_prop(): List&lt;BaseProp&gt;</text></g><!--class EliteEnemy--><g id="elem_EliteEnemy"><rect codeLine="91" fill="#F1F1F1" height="294.5313" id="EliteEnemy" rx="2.5" ry="2.5" style="stroke:#181818;stroke-width:0.5;" width="459" x="1417" y="185"/><ellipse cx="1607.25" cy="201" fill="#ADD1B2" rx="11" ry="11" style="stroke:#181818;stroke-width:1.0;"/><path d="M1610.0156,196.875 Q1610.1719,196.6563 1610.3594,196.5469 Q1610.5469,196.4375 1610.7656,196.4375 Q1611.1406,196.4375 1611.375,196.7031 Q1611.6094,196.9531 1611.6094,197.5625 L1611.6094,199.0156 Q1611.6094,199.625 1611.375,199.8906 Q1611.1406,200.1563 1610.7656,200.1563 Q1610.4219,200.1563 1610.2188,199.9531 Q1610.0156,199.7656 1609.9063,199.25 Q1609.8594,198.8906 1609.6719,198.7031 Q1609.3438,198.3281 1608.7344,198.1094 Q1608.125,197.8906 1607.5,197.8906 Q1606.7344,197.8906 1606.0938,198.2188 Q1605.4688,198.5469 1604.9688,199.2969 Q1604.4844,200.0469 1604.4844,201.0781 L1604.4844,202.1719 Q1604.4844,203.4063 1605.375,204.2344 Q1606.2656,205.0469 1607.8594,205.0469 Q1608.7969,205.0469 1609.4531,204.7969 Q1609.8438,204.6406 1610.2656,204.2031 Q1610.5313,203.9375 1610.6719,203.8594 Q1610.8281,203.7813 1611.0313,203.7813 Q1611.3594,203.7813 1611.6094,204.0469 Q1611.875,204.2969 1611.875,204.6406 Q1611.875,204.9844 1611.5313,205.3906 Q1611.0313,205.9688 1610.2344,206.2969 Q1609.1563,206.75 1607.8594,206.75 Q1606.3438,206.75 1605.1406,206.125 Q1604.1563,205.625 1603.4688,204.5625 Q1602.7813,203.4844 1602.7813,202.2031 L1602.7813,201.0469 Q1602.7813,199.7188 1603.3906,198.5781 Q1604.0156,197.4219 1605.1094,196.8125 Q1606.2031,196.1875 1607.4375,196.1875 Q1608.1719,196.1875 1608.8125,196.3594 Q1609.4688,196.5156 1610.0156,196.875 Z " fill="#000000"/><text fill="#000000" font-family="sans-serif" font-size="14" lengthAdjust="spacing" textLength="70" x="1627.75" y="206.7285">EliteEnemy</text><line style="stroke:#181818;stroke-width:0.5;" x1="1418" x2="1875" y1="217" y2="217"/><rect fill="none" height="6" style="stroke:#C82930;stroke-width:1.0;" width="6" x="1425" y="228.3047"/><text fill="#000000" font-family="sans-serif" font-size="14" lengthAdjust="spacing" textLength="86" x="1437" y="235.5332">shootNum :int</text><rect fill="none" height="6" style="stroke:#C82930;stroke-width:1.0;" width="6" x="1425" y="245.9141"/><text fill="#000000" font-family="sans-serif" font-size="14" lengthAdjust="spacing" textLength="61" x="1437" y="253.1426">power: int</text><rect fill="none" height="6" style="stroke:#C82930;stroke-width:1.0;" width="6" x="1425" y="263.5234"/><text fill="#000000" font-family="sans-serif" font-size="14" lengthAdjust="spacing" textLength="77" x="1437" y="270.752">direction: int</text><rect fill="none" height="6" style="stroke:#C82930;stroke-width:1.0;" width="6" x="1425" y="281.1328"/><text fill="#000000" font-family="sans-serif" font-size="14" lengthAdjust="spacing" textLength="90" x="1437" y="288.3613">prop_kind : int</text><rect fill="none" height="6" style="stroke:#C82930;stroke-width:1.0;" width="6" x="1425" y="298.7422"/><text fill="#000000" font-family="sans-serif" font-size="14" lengthAdjust="spacing" textLength="167" x="1437" y="305.9707">propFactory : PropFactory</text><rect fill="none" height="6" style="stroke:#C82930;stroke-width:1.0;" width="6" x="1425" y="316.3516"/><text fill="#000000" font-family="sans-serif" font-size="14" lengthAdjust="spacing" textLength="103" x="1437" y="323.5801">prop : BaseProp</text><rect fill="none" height="6" style="stroke:#C82930;stroke-width:1.0;" width="6" x="1425" y="333.9609"/><text fill="#000000" font-family="sans-serif" font-size="14" lengthAdjust="spacing" textLength="144" x="1437" y="341.1895">props: List&lt;BaseProp&gt;</text><rect fill="none" height="6" style="stroke:#C82930;stroke-width:1.0;" width="6" x="1425" y="351.5703"/><text fill="#000000" font-family="sans-serif" font-size="14" lengthAdjust="spacing" textLength="97" x="1437" y="358.7988">context:Context</text><rect fill="none" height="6" style="stroke:#C82930;stroke-width:1.0;" width="6" x="1425" y="369.1797"/><text fill="#000000" font-family="sans-serif" font-size="14" lengthAdjust="spacing" text-decoration="underline" textLength="109" x="1437" y="376.4082">random: Random</text><line style="stroke:#181818;stroke-width:0.5;" x1="1418" x2="1875" y1="383.4844" y2="383.4844"/><ellipse cx="1428" cy="397.7891" fill="#84BE84" rx="3" ry="3" style="stroke:#038048;stroke-width:1.0;"/><text fill="#000000" font-family="sans-serif" font-size="14" lengthAdjust="spacing" textLength="433" x="1437" y="402.0176">EliteEnemy(int locationX, int locationY, int speedX, int speedY, int hp)</text><ellipse cx="1428" cy="415.3984" fill="#84BE84" rx="3" ry="3" style="stroke:#038048;stroke-width:1.0;"/><text fill="#000000" font-family="sans-serif" font-size="14" lengthAdjust="spacing" textLength="95" x="1437" y="419.627">forward() : void</text><ellipse cx="1428" cy="433.0078" fill="#84BE84" rx="3" ry="3" style="stroke:#038048;stroke-width:1.0;"/><text fill="#000000" font-family="sans-serif" font-size="14" lengthAdjust="spacing" textLength="154" x="1437" y="437.2363">shoot():List&lt;BaseBullet&gt;</text><ellipse cx="1428" cy="450.6172" fill="#84BE84" rx="3" ry="3" style="stroke:#038048;stroke-width:1.0;"/><text fill="#000000" font-family="sans-serif" font-size="14" lengthAdjust="spacing" textLength="216" x="1437" y="454.8457">generate_prop() : List&lt;BaseProp&gt;</text><ellipse cx="1428" cy="468.2266" fill="#84BE84" rx="3" ry="3" style="stroke:#038048;stroke-width:1.0;"/><text fill="#000000" font-family="sans-serif" font-size="14" lengthAdjust="spacing" textLength="84" x="1437" y="472.4551">update():void</text></g><!--class ElitePlusEnemy--><g id="elem_ElitePlusEnemy"><rect codeLine="111" fill="#F1F1F1" height="294.5313" id="ElitePlusEnemy" rx="2.5" ry="2.5" style="stroke:#181818;stroke-width:0.5;" width="486" x="1911.5" y="185"/><ellipse cx="2101.75" cy="201" fill="#ADD1B2" rx="11" ry="11" style="stroke:#181818;stroke-width:1.0;"/><path d="M2104.5156,196.875 Q2104.6719,196.6563 2104.8594,196.5469 Q2105.0469,196.4375 2105.2656,196.4375 Q2105.6406,196.4375 2105.875,196.7031 Q2106.1094,196.9531 2106.1094,197.5625 L2106.1094,199.0156 Q2106.1094,199.625 2105.875,199.8906 Q2105.6406,200.1563 2105.2656,200.1563 Q2104.9219,200.1563 2104.7188,199.9531 Q2104.5156,199.7656 2104.4063,199.25 Q2104.3594,198.8906 2104.1719,198.7031 Q2103.8438,198.3281 2103.2344,198.1094 Q2102.625,197.8906 2102,197.8906 Q2101.2344,197.8906 2100.5938,198.2188 Q2099.9688,198.5469 2099.4688,199.2969 Q2098.9844,200.0469 2098.9844,201.0781 L2098.9844,202.1719 Q2098.9844,203.4063 2099.875,204.2344 Q2100.7656,205.0469 2102.3594,205.0469 Q2103.2969,205.0469 2103.9531,204.7969 Q2104.3438,204.6406 2104.7656,204.2031 Q2105.0313,203.9375 2105.1719,203.8594 Q2105.3281,203.7813 2105.5313,203.7813 Q2105.8594,203.7813 2106.1094,204.0469 Q2106.375,204.2969 2106.375,204.6406 Q2106.375,204.9844 2106.0313,205.3906 Q2105.5313,205.9688 2104.7344,206.2969 Q2103.6563,206.75 2102.3594,206.75 Q2100.8438,206.75 2099.6406,206.125 Q2098.6563,205.625 2097.9688,204.5625 Q2097.2813,203.4844 2097.2813,202.2031 L2097.2813,201.0469 Q2097.2813,199.7188 2097.8906,198.5781 Q2098.5156,197.4219 2099.6094,196.8125 Q2100.7031,196.1875 2101.9375,196.1875 Q2102.6719,196.1875 2103.3125,196.3594 Q2103.9688,196.5156 2104.5156,196.875 Z " fill="#000000"/><text fill="#000000" font-family="sans-serif" font-size="14" lengthAdjust="spacing" textLength="97" x="2122.25" y="206.7285">ElitePlusEnemy</text><line style="stroke:#181818;stroke-width:0.5;" x1="1912.5" x2="2396.5" y1="217" y2="217"/><rect fill="none" height="6" style="stroke:#C82930;stroke-width:1.0;" width="6" x="1919.5" y="228.3047"/><text fill="#000000" font-family="sans-serif" font-size="14" lengthAdjust="spacing" textLength="86" x="1931.5" y="235.5332">shootNum :int</text><rect fill="none" height="6" style="stroke:#C82930;stroke-width:1.0;" width="6" x="1919.5" y="245.9141"/><text fill="#000000" font-family="sans-serif" font-size="14" lengthAdjust="spacing" textLength="61" x="1931.5" y="253.1426">power: int</text><rect fill="none" height="6" style="stroke:#C82930;stroke-width:1.0;" width="6" x="1919.5" y="263.5234"/><text fill="#000000" font-family="sans-serif" font-size="14" lengthAdjust="spacing" textLength="77" x="1931.5" y="270.752">direction: int</text><rect fill="none" height="6" style="stroke:#C82930;stroke-width:1.0;" width="6" x="1919.5" y="281.1328"/><text fill="#000000" font-family="sans-serif" font-size="14" lengthAdjust="spacing" textLength="90" x="1931.5" y="288.3613">prop_kind : int</text><rect fill="none" height="6" style="stroke:#C82930;stroke-width:1.0;" width="6" x="1919.5" y="298.7422"/><text fill="#000000" font-family="sans-serif" font-size="14" lengthAdjust="spacing" textLength="167" x="1931.5" y="305.9707">propFactory : PropFactory</text><rect fill="none" height="6" style="stroke:#C82930;stroke-width:1.0;" width="6" x="1919.5" y="316.3516"/><text fill="#000000" font-family="sans-serif" font-size="14" lengthAdjust="spacing" textLength="103" x="1931.5" y="323.5801">prop : BaseProp</text><rect fill="none" height="6" style="stroke:#C82930;stroke-width:1.0;" width="6" x="1919.5" y="333.9609"/><text fill="#000000" font-family="sans-serif" font-size="14" lengthAdjust="spacing" textLength="144" x="1931.5" y="341.1895">props: List&lt;BaseProp&gt;</text><rect fill="none" height="6" style="stroke:#C82930;stroke-width:1.0;" width="6" x="1919.5" y="351.5703"/><text fill="#000000" font-family="sans-serif" font-size="14" lengthAdjust="spacing" textLength="97" x="1931.5" y="358.7988">context:Context</text><rect fill="none" height="6" style="stroke:#C82930;stroke-width:1.0;" width="6" x="1919.5" y="369.1797"/><text fill="#000000" font-family="sans-serif" font-size="14" lengthAdjust="spacing" text-decoration="underline" textLength="109" x="1931.5" y="376.4082">random: Random</text><line style="stroke:#181818;stroke-width:0.5;" x1="1912.5" x2="2396.5" y1="383.4844" y2="383.4844"/><ellipse cx="1922.5" cy="397.7891" fill="#84BE84" rx="3" ry="3" style="stroke:#038048;stroke-width:1.0;"/><text fill="#000000" font-family="sans-serif" font-size="14" lengthAdjust="spacing" textLength="460" x="1931.5" y="402.0176">ElitePlusEnemy(int locationX, int locationY, int speedX, int speedY, int hp)</text><ellipse cx="1922.5" cy="415.3984" fill="#84BE84" rx="3" ry="3" style="stroke:#038048;stroke-width:1.0;"/><text fill="#000000" font-family="sans-serif" font-size="14" lengthAdjust="spacing" textLength="95" x="1931.5" y="419.627">forward() : void</text><ellipse cx="1922.5" cy="433.0078" fill="#84BE84" rx="3" ry="3" style="stroke:#038048;stroke-width:1.0;"/><text fill="#000000" font-family="sans-serif" font-size="14" lengthAdjust="spacing" textLength="154" x="1931.5" y="437.2363">shoot():List&lt;BaseBullet&gt;</text><ellipse cx="1922.5" cy="450.6172" fill="#84BE84" rx="3" ry="3" style="stroke:#038048;stroke-width:1.0;"/><text fill="#000000" font-family="sans-serif" font-size="14" lengthAdjust="spacing" textLength="216" x="1931.5" y="454.8457">generate_prop() : List&lt;BaseProp&gt;</text><ellipse cx="1922.5" cy="468.2266" fill="#84BE84" rx="3" ry="3" style="stroke:#038048;stroke-width:1.0;"/><text fill="#000000" font-family="sans-serif" font-size="14" lengthAdjust="spacing" textLength="84" x="1931.5" y="472.4551">update():void</text></g><!--class Boss--><g id="elem_Boss"><rect codeLine="130" fill="#F1F1F1" height="294.5313" id="Boss" rx="2.5" ry="2.5" style="stroke:#181818;stroke-width:0.5;" width="420" x="2432.5" y="185"/><ellipse cx="2622.75" cy="201" fill="#ADD1B2" rx="11" ry="11" style="stroke:#181818;stroke-width:1.0;"/><path d="M2625.5156,196.875 Q2625.6719,196.6563 2625.8594,196.5469 Q2626.0469,196.4375 2626.2656,196.4375 Q2626.6406,196.4375 2626.875,196.7031 Q2627.1094,196.9531 2627.1094,197.5625 L2627.1094,199.0156 Q2627.1094,199.625 2626.875,199.8906 Q2626.6406,200.1563 2626.2656,200.1563 Q2625.9219,200.1563 2625.7188,199.9531 Q2625.5156,199.7656 2625.4063,199.25 Q2625.3594,198.8906 2625.1719,198.7031 Q2624.8438,198.3281 2624.2344,198.1094 Q2623.625,197.8906 2623,197.8906 Q2622.2344,197.8906 2621.5938,198.2188 Q2620.9688,198.5469 2620.4688,199.2969 Q2619.9844,200.0469 2619.9844,201.0781 L2619.9844,202.1719 Q2619.9844,203.4063 2620.875,204.2344 Q2621.7656,205.0469 2623.3594,205.0469 Q2624.2969,205.0469 2624.9531,204.7969 Q2625.3438,204.6406 2625.7656,204.2031 Q2626.0313,203.9375 2626.1719,203.8594 Q2626.3281,203.7813 2626.5313,203.7813 Q2626.8594,203.7813 2627.1094,204.0469 Q2627.375,204.2969 2627.375,204.6406 Q2627.375,204.9844 2627.0313,205.3906 Q2626.5313,205.9688 2625.7344,206.2969 Q2624.6563,206.75 2623.3594,206.75 Q2621.8438,206.75 2620.6406,206.125 Q2619.6563,205.625 2618.9688,204.5625 Q2618.2813,203.4844 2618.2813,202.2031 L2618.2813,201.0469 Q2618.2813,199.7188 2618.8906,198.5781 Q2619.5156,197.4219 2620.6094,196.8125 Q2621.7031,196.1875 2622.9375,196.1875 Q2623.6719,196.1875 2624.3125,196.3594 Q2624.9688,196.5156 2625.5156,196.875 Z " fill="#000000"/><text fill="#000000" font-family="sans-serif" font-size="14" lengthAdjust="spacing" textLength="31" x="2643.25" y="206.7285">Boss</text><line style="stroke:#181818;stroke-width:0.5;" x1="2433.5" x2="2851.5" y1="217" y2="217"/><rect fill="none" height="6" style="stroke:#C82930;stroke-width:1.0;" width="6" x="2440.5" y="228.3047"/><text fill="#000000" font-family="sans-serif" font-size="14" lengthAdjust="spacing" textLength="86" x="2452.5" y="235.5332">shootNum :int</text><rect fill="none" height="6" style="stroke:#C82930;stroke-width:1.0;" width="6" x="2440.5" y="245.9141"/><text fill="#000000" font-family="sans-serif" font-size="14" lengthAdjust="spacing" textLength="61" x="2452.5" y="253.1426">power: int</text><rect fill="none" height="6" style="stroke:#C82930;stroke-width:1.0;" width="6" x="2440.5" y="263.5234"/><text fill="#000000" font-family="sans-serif" font-size="14" lengthAdjust="spacing" textLength="77" x="2452.5" y="270.752">direction: int</text><rect fill="none" height="6" style="stroke:#C82930;stroke-width:1.0;" width="6" x="2440.5" y="281.1328"/><text fill="#000000" font-family="sans-serif" font-size="14" lengthAdjust="spacing" textLength="90" x="2452.5" y="288.3613">prop_kind : int</text><rect fill="none" height="6" style="stroke:#C82930;stroke-width:1.0;" width="6" x="2440.5" y="298.7422"/><text fill="#000000" font-family="sans-serif" font-size="14" lengthAdjust="spacing" textLength="167" x="2452.5" y="305.9707">propFactory : PropFactory</text><rect fill="none" height="6" style="stroke:#C82930;stroke-width:1.0;" width="6" x="2440.5" y="316.3516"/><text fill="#000000" font-family="sans-serif" font-size="14" lengthAdjust="spacing" textLength="103" x="2452.5" y="323.5801">prop : BaseProp</text><rect fill="none" height="6" style="stroke:#C82930;stroke-width:1.0;" width="6" x="2440.5" y="333.9609"/><text fill="#000000" font-family="sans-serif" font-size="14" lengthAdjust="spacing" textLength="144" x="2452.5" y="341.1895">props: List&lt;BaseProp&gt;</text><rect fill="none" height="6" style="stroke:#C82930;stroke-width:1.0;" width="6" x="2440.5" y="351.5703"/><text fill="#000000" font-family="sans-serif" font-size="14" lengthAdjust="spacing" textLength="97" x="2452.5" y="358.7988">context:Context</text><rect fill="none" height="6" style="stroke:#C82930;stroke-width:1.0;" width="6" x="2440.5" y="369.1797"/><text fill="#000000" font-family="sans-serif" font-size="14" lengthAdjust="spacing" text-decoration="underline" textLength="109" x="2452.5" y="376.4082">random: Random</text><line style="stroke:#181818;stroke-width:0.5;" x1="2433.5" x2="2851.5" y1="383.4844" y2="383.4844"/><ellipse cx="2443.5" cy="397.7891" fill="#84BE84" rx="3" ry="3" style="stroke:#038048;stroke-width:1.0;"/><text fill="#000000" font-family="sans-serif" font-size="14" lengthAdjust="spacing" textLength="394" x="2452.5" y="402.0176">Boss(int locationX, int locationY, int speedX, int speedY, int hp)</text><ellipse cx="2443.5" cy="415.3984" fill="#84BE84" rx="3" ry="3" style="stroke:#038048;stroke-width:1.0;"/><text fill="#000000" font-family="sans-serif" font-size="14" lengthAdjust="spacing" textLength="95" x="2452.5" y="419.627">forward() : void</text><ellipse cx="2443.5" cy="433.0078" fill="#84BE84" rx="3" ry="3" style="stroke:#038048;stroke-width:1.0;"/><text fill="#000000" font-family="sans-serif" font-size="14" lengthAdjust="spacing" textLength="154" x="2452.5" y="437.2363">shoot():List&lt;BaseBullet&gt;</text><ellipse cx="2443.5" cy="450.6172" fill="#84BE84" rx="3" ry="3" style="stroke:#038048;stroke-width:1.0;"/><text fill="#000000" font-family="sans-serif" font-size="14" lengthAdjust="spacing" textLength="216" x="2452.5" y="454.8457">generate_prop() : List&lt;BaseProp&gt;</text><ellipse cx="2443.5" cy="468.2266" fill="#84BE84" rx="3" ry="3" style="stroke:#038048;stroke-width:1.0;"/><text fill="#000000" font-family="sans-serif" font-size="14" lengthAdjust="spacing" textLength="84" x="2452.5" y="472.4551">update():void</text></g><!--link AbstractAircraft to AbstractFlyingObject--><g id="link_AbstractAircraft_AbstractFlyingObject"><path codeLine="38" d="M447.77,418.01 C425.54,453.64 408.1675,481.4882 381.3975,524.3982 " fill="none" id="AbstractAircraft-to-AbstractFlyingObject" style="stroke:#181818;stroke-width:1.0;"/><polygon fill="none" points="371.87,539.67,386.4881,527.5741,376.3069,521.2224,371.87,539.67" style="stroke:#181818;stroke-width:1.0;"/></g><!--link AbstractEnemyAircraft to AbstractAircraft--><g id="link_AbstractEnemyAircraft_AbstractAircraft"><path codeLine="52" d="M1103.94,100.96 C994.28,118.91 870.2,145.67 761.5,185 C717.4,200.96 687.6022,214.9637 647.2422,237.9437 " fill="none" id="AbstractEnemyAircraft-to-AbstractAircraft" style="stroke:#181818;stroke-width:1.0;"/><polygon fill="none" points="631.6,246.85,650.211,243.1578,644.2734,232.7297,631.6,246.85" style="stroke:#181818;stroke-width:1.0;"/></g><!--link AbstractEnemyAircraft to Observer--><g id="link_AbstractEnemyAircraft_Observer"><path codeLine="53" d="M1103.85,115.97 C1018.33,134.77 938.99,158.23 905.5,185 C869.3,213.93 854.7415,248.3039 845.5015,281.9139 " fill="none" id="AbstractEnemyAircraft-to-Observer" style="stroke:#181818;stroke-width:1.0;stroke-dasharray:7.0,7.0;"/><polygon fill="none" points="840.73,299.27,851.2868,283.5044,839.7161,280.3234,840.73,299.27" style="stroke:#181818;stroke-width:1.0;"/></g><!--reverse link AbstractAircraft to HeroAircraft--><g id="link_AbstractAircraft_HeroAircraft"><path codeLine="73" d="M562.7566,433.2823 C594.1766,483.6523 625.42,533.71 661.96,592.28 " fill="none" id="AbstractAircraft-backto-HeroAircraft" style="stroke:#181818;stroke-width:1.0;"/><polygon fill="none" points="553.23,418.01,557.6659,436.4579,567.8474,430.1068,553.23,418.01" style="stroke:#181818;stroke-width:1.0;"/></g><!--reverse link AbstractEnemyAircraft to MobEnemy--><g id="link_AbstractEnemyAircraft_MobEnemy"><path codeLine="89" d="M1333.0039,138.205 C1299.6339,173.935 1268.57,207.21 1231.43,246.98 " fill="none" id="AbstractEnemyAircraft-backto-MobEnemy" style="stroke:#181818;stroke-width:1.0;"/><polygon fill="none" points="1345.29,125.05,1328.619,134.1096,1337.3889,142.3003,1345.29,125.05" style="stroke:#181818;stroke-width:1.0;"/></g><!--reverse link AbstractEnemyAircraft to EliteEnemy--><g id="link_AbstractEnemyAircraft_EliteEnemy"><path codeLine="108" d="M1465.9941,138.2068 C1482.7441,156.1468 1489.74,163.63 1509.48,184.77 " fill="none" id="AbstractEnemyAircraft-backto-EliteEnemy" style="stroke:#181818;stroke-width:1.0;"/><polygon fill="none" points="1453.71,125.05,1461.6085,142.3015,1470.3797,134.1121,1453.71,125.05" style="stroke:#181818;stroke-width:1.0;"/></g><!--reverse link AbstractEnemyAircraft to ElitePlusEnemy--><g id="link_AbstractEnemyAircraft_ElitePlusEnemy"><path codeLine="128" d="M1712.6644,127.8682 C1778.9844,144.4182 1830.79,160.46 1893.5,185 C1899.43,187.32 1905.39,189.75 1911.36,192.28 " fill="none" id="AbstractEnemyAircraft-backto-ElitePlusEnemy" style="stroke:#181818;stroke-width:1.0;"/><polygon fill="none" points="1695.2,123.51,1711.2117,133.6897,1714.1172,122.0467,1695.2,123.51" style="stroke:#181818;stroke-width:1.0;"/></g><!--reverse link AbstractEnemyAircraft to Boss--><g id="link_AbstractEnemyAircraft_Boss"><path codeLine="147" d="M1713.0275,87.7733 C1964.6075,107.0233 2287.06,138.93 2415.5,185 C2421.13,187.02 2426.76,189.2 2432.38,191.52 " fill="none" id="AbstractEnemyAircraft-backto-Boss" style="stroke:#181818;stroke-width:1.0;"/><polygon fill="none" points="1695.08,86.4,1712.5698,93.7558,1713.4853,81.7908,1695.08,86.4" style="stroke:#181818;stroke-width:1.0;"/></g><!--SRC=[vLHTJzim57rUVeKb7bQq1TuZX4GdK2V1G6CQz0cvyMtZBR4Zs-53fVzzjXCdjfjEYF74-fBU3zldddFl_LWeLSliyB0kCLDDLHxal3hCIonbIYXU2Lmb2Lv89N2kaFMZayuyAvyeMrqkVa6kadM2z6yFbJp7Yd9scr6c8j_SyyaQWDp63Z-3LdW5sRHPBa40-MgiBl90YIgyp0Begb3-KVaJbvHa2yvBm2onxa-Zm2Vwr03wC_BDUMksKBt_y_tkmYKN3rYGoNvspodfdBd0ifYClOMMdh7VeskFIL3dtRiJmfj52Jwio3CFNbmDHsyr5iT349Z7WMjRIUorD6ldDkqsV6EOZy_CBFs1bt5b5PZ4LTvZHcNX2DliQgqJAZIDIzDM7_PGXHzdjQztxJqL7tcLeEt_edR24iW5O0cpsbxdp9Xr7Owuk31G0-VQbRX1ik3Sy7HEfJgQwlkcJLc2EaxG9adYEb2QFX-FprgYRmUnn3cWouK4SGzYlVrQKnEiOA1w5zUd3AedZ_1k77Ckm9I18fw3z7yYk_EPXphUFVGhO20q_hjQyDhdx4hRnsswwM9pMeTHYzJZCS0PajaNEvvxSA1p7R59qh8r0y7xZ9QaT2sLhZJVw0Kq13C_iyrhXV_ML7rRfAZc3o0ycr2XfTMqUQsJSwtpeyg-j5-tACnbgj0DIJBqmtwx23ngakxyUB00qw28DvcJdW6pEfWsMAxLG1dQ8c77ijmz4cufNdVSMRmsdJLLS8S0dHPSsyEoeG5OXjmiR4tRqNCQyfEqlrRz2xwmFUAKHwOhCzUEdazcQAnJ-mlUXFNNC1bkWsvymX6Ba2FDq_Y0MAvSHOwYqv8gi9vrrFLeg-rHlrVynaTUcWPmzvioWcBlcKR3nPFsNmsM5zU1byZYNXyRiNHeQu4PuLM6ljklMuL3gMyh9-hwyqM2HkgXyGfZuV-gwL1N4gXwLJRoFrAsB_STgjlNvWIUSYdVlQocoFSbfgde3m00]--></g></svg>